%TF.GenerationSoftware,KiCad,Pcbnew,8.0.1*%
%TF.CreationDate,2024-10-03T11:03:10+02:00*%
%TF.ProjectId,Verteiler,56657274-6569-46c6-9572-2e6b69636164,rev?*%
%TF.SameCoordinates,Original*%
%TF.FileFunction,Drillmap*%
%TF.FilePolarity,Positive*%
%FSLAX45Y45*%
G04 Gerber Fmt 4.5, Leading zero omitted, Abs format (unit mm)*
G04 Created by KiCad (PCBNEW 8.0.1) date 2024-10-03 11:03:10*
%MOMM*%
%LPD*%
G01*
G04 APERTURE LIST*
%ADD10C,0.100000*%
%ADD11C,0.200000*%
%ADD12C,0.115000*%
%ADD13C,0.117000*%
%ADD14C,0.140000*%
G04 APERTURE END LIST*
D10*
X14400000Y-9600000D02*
G75*
G02*
X14200000Y-9600000I-100000J0D01*
G01*
X12730000Y-2495000D02*
X17830000Y-2495000D01*
X17830000Y-10020000D01*
X12730000Y-10020000D01*
X12730000Y-2495000D01*
X14400000Y-3000000D02*
X14400000Y-9600000D01*
X14200000Y-3000000D02*
X14200000Y-9600000D01*
X14200000Y-3000000D02*
G75*
G02*
X14400000Y-3000000I100000J0D01*
G01*
D11*
D10*
X12874000Y-6558000D02*
X12904000Y-6588000D01*
X12904000Y-6558000D02*
X12874000Y-6588000D01*
X12979500Y-6287500D02*
X13009500Y-6317500D01*
X13009500Y-6287500D02*
X12979500Y-6317500D01*
X13113000Y-5272500D02*
X13143000Y-5302500D01*
X13143000Y-5272500D02*
X13113000Y-5302500D01*
X13113000Y-7367500D02*
X13143000Y-7397500D01*
X13143000Y-7367500D02*
X13113000Y-7397500D01*
X13121000Y-8562000D02*
X13151000Y-8592000D01*
X13151000Y-8562000D02*
X13121000Y-8592000D01*
X13271000Y-8236000D02*
X13301000Y-8266000D01*
X13301000Y-8236000D02*
X13271000Y-8266000D01*
X13279000Y-4900000D02*
X13309000Y-4930000D01*
X13309000Y-4900000D02*
X13279000Y-4930000D01*
X13365000Y-4280000D02*
X13395000Y-4310000D01*
X13395000Y-4280000D02*
X13365000Y-4310000D01*
X13493000Y-7136000D02*
X13523000Y-7166000D01*
X13523000Y-7136000D02*
X13493000Y-7166000D01*
X13607000Y-5954000D02*
X13637000Y-5984000D01*
X13637000Y-5954000D02*
X13607000Y-5984000D01*
X13308000Y-6177500D02*
G75*
G02*
X13258000Y-6177500I-25000J0D01*
G01*
X13258000Y-6177500D02*
G75*
G02*
X13308000Y-6177500I25000J0D01*
G01*
X13308000Y-6302500D02*
G75*
G02*
X13258000Y-6302500I-25000J0D01*
G01*
X13258000Y-6302500D02*
G75*
G02*
X13308000Y-6302500I25000J0D01*
G01*
X13308000Y-6427500D02*
G75*
G02*
X13258000Y-6427500I-25000J0D01*
G01*
X13258000Y-6427500D02*
G75*
G02*
X13308000Y-6427500I25000J0D01*
G01*
X13308000Y-6552500D02*
G75*
G02*
X13258000Y-6552500I-25000J0D01*
G01*
X13258000Y-6552500D02*
G75*
G02*
X13308000Y-6552500I25000J0D01*
G01*
D12*
X13759000Y-3340000D02*
X13759000Y-3455000D01*
X13701500Y-3397500D02*
X13816500Y-3397500D01*
X13759000Y-4540000D02*
X13759000Y-4655000D01*
X13701500Y-4597500D02*
X13816500Y-4597500D01*
X13759000Y-7735000D02*
X13759000Y-7850000D01*
X13701500Y-7792500D02*
X13816500Y-7792500D01*
X13759000Y-8935000D02*
X13759000Y-9050000D01*
X13701500Y-8992500D02*
X13816500Y-8992500D01*
X14013000Y-3340000D02*
X14013000Y-3455000D01*
X13955500Y-3397500D02*
X14070500Y-3397500D01*
X14013000Y-4540000D02*
X14013000Y-4655000D01*
X13955500Y-4597500D02*
X14070500Y-4597500D01*
X14013000Y-7735000D02*
X14013000Y-7850000D01*
X13955500Y-7792500D02*
X14070500Y-7792500D01*
X14013000Y-8935000D02*
X14013000Y-9050000D01*
X13955500Y-8992500D02*
X14070500Y-8992500D01*
X14775000Y-3340000D02*
X14775000Y-3455000D01*
X14717500Y-3397500D02*
X14832500Y-3397500D01*
X14775000Y-4540000D02*
X14775000Y-4655000D01*
X14717500Y-4597500D02*
X14832500Y-4597500D01*
X14775000Y-7735000D02*
X14775000Y-7850000D01*
X14717500Y-7792500D02*
X14832500Y-7792500D01*
X14775000Y-8935000D02*
X14775000Y-9050000D01*
X14717500Y-8992500D02*
X14832500Y-8992500D01*
X15537000Y-3340000D02*
X15537000Y-3455000D01*
X15479500Y-3397500D02*
X15594500Y-3397500D01*
X15537000Y-4540000D02*
X15537000Y-4655000D01*
X15479500Y-4597500D02*
X15594500Y-4597500D01*
X15537000Y-7735000D02*
X15537000Y-7850000D01*
X15479500Y-7792500D02*
X15594500Y-7792500D01*
X15537000Y-8935000D02*
X15537000Y-9050000D01*
X15479500Y-8992500D02*
X15594500Y-8992500D01*
D13*
X15219326Y-5370086D02*
X15219326Y-5287354D01*
X15136594Y-5287354D01*
X15136594Y-5370086D01*
X15219326Y-5370086D01*
X15219326Y-7250086D02*
X15219326Y-7167354D01*
X15136594Y-7167354D01*
X15136594Y-7250086D01*
X15219326Y-7250086D01*
X15719326Y-5370086D02*
X15719326Y-5287354D01*
X15636594Y-5287354D01*
X15636594Y-5370086D01*
X15719326Y-5370086D01*
X15719326Y-7250086D02*
X15719326Y-7167354D01*
X15636594Y-7167354D01*
X15636594Y-7250086D01*
X15719326Y-7250086D01*
D14*
X16707250Y-3063000D02*
X16777250Y-2993000D01*
X16707250Y-2923000D01*
X16637250Y-2993000D01*
X16707250Y-3063000D01*
X16707250Y-3571000D02*
X16777250Y-3501000D01*
X16707250Y-3431000D01*
X16637250Y-3501000D01*
X16707250Y-3571000D01*
X16707250Y-4560000D02*
X16777250Y-4490000D01*
X16707250Y-4420000D01*
X16637250Y-4490000D01*
X16707250Y-4560000D01*
X16707250Y-5068000D02*
X16777250Y-4998000D01*
X16707250Y-4928000D01*
X16637250Y-4998000D01*
X16707250Y-5068000D01*
X16707250Y-5576000D02*
X16777250Y-5506000D01*
X16707250Y-5436000D01*
X16637250Y-5506000D01*
X16707250Y-5576000D01*
X16707250Y-6084000D02*
X16777250Y-6014000D01*
X16707250Y-5944000D01*
X16637250Y-6014000D01*
X16707250Y-6084000D01*
X16707250Y-6592000D02*
X16777250Y-6522000D01*
X16707250Y-6452000D01*
X16637250Y-6522000D01*
X16707250Y-6592000D01*
X16707250Y-7100000D02*
X16777250Y-7030000D01*
X16707250Y-6960000D01*
X16637250Y-7030000D01*
X16707250Y-7100000D01*
X16707250Y-7608000D02*
X16777250Y-7538000D01*
X16707250Y-7468000D01*
X16637250Y-7538000D01*
X16707250Y-7608000D01*
X16707250Y-8116000D02*
X16777250Y-8046000D01*
X16707250Y-7976000D01*
X16637250Y-8046000D01*
X16707250Y-8116000D01*
X16707250Y-9121000D02*
X16777250Y-9051000D01*
X16707250Y-8981000D01*
X16637250Y-9051000D01*
X16707250Y-9121000D01*
X16707250Y-9629000D02*
X16777250Y-9559000D01*
X16707250Y-9489000D01*
X16637250Y-9559000D01*
X16707250Y-9629000D01*
D11*
X12985777Y-10336484D02*
X12985777Y-10136484D01*
X12985777Y-10136484D02*
X13033396Y-10136484D01*
X13033396Y-10136484D02*
X13061967Y-10146008D01*
X13061967Y-10146008D02*
X13081015Y-10165055D01*
X13081015Y-10165055D02*
X13090539Y-10184103D01*
X13090539Y-10184103D02*
X13100062Y-10222198D01*
X13100062Y-10222198D02*
X13100062Y-10250770D01*
X13100062Y-10250770D02*
X13090539Y-10288865D01*
X13090539Y-10288865D02*
X13081015Y-10307912D01*
X13081015Y-10307912D02*
X13061967Y-10326960D01*
X13061967Y-10326960D02*
X13033396Y-10336484D01*
X13033396Y-10336484D02*
X12985777Y-10336484D01*
X13185777Y-10336484D02*
X13185777Y-10203150D01*
X13185777Y-10241246D02*
X13195301Y-10222198D01*
X13195301Y-10222198D02*
X13204824Y-10212674D01*
X13204824Y-10212674D02*
X13223872Y-10203150D01*
X13223872Y-10203150D02*
X13242920Y-10203150D01*
X13309586Y-10336484D02*
X13309586Y-10203150D01*
X13309586Y-10136484D02*
X13300062Y-10146008D01*
X13300062Y-10146008D02*
X13309586Y-10155531D01*
X13309586Y-10155531D02*
X13319110Y-10146008D01*
X13319110Y-10146008D02*
X13309586Y-10136484D01*
X13309586Y-10136484D02*
X13309586Y-10155531D01*
X13433396Y-10336484D02*
X13414348Y-10326960D01*
X13414348Y-10326960D02*
X13404824Y-10307912D01*
X13404824Y-10307912D02*
X13404824Y-10136484D01*
X13538158Y-10336484D02*
X13519110Y-10326960D01*
X13519110Y-10326960D02*
X13509586Y-10307912D01*
X13509586Y-10307912D02*
X13509586Y-10136484D01*
X13766729Y-10336484D02*
X13766729Y-10136484D01*
X13766729Y-10136484D02*
X13833396Y-10279341D01*
X13833396Y-10279341D02*
X13900062Y-10136484D01*
X13900062Y-10136484D02*
X13900062Y-10336484D01*
X14081015Y-10336484D02*
X14081015Y-10231722D01*
X14081015Y-10231722D02*
X14071491Y-10212674D01*
X14071491Y-10212674D02*
X14052443Y-10203150D01*
X14052443Y-10203150D02*
X14014348Y-10203150D01*
X14014348Y-10203150D02*
X13995301Y-10212674D01*
X14081015Y-10326960D02*
X14061967Y-10336484D01*
X14061967Y-10336484D02*
X14014348Y-10336484D01*
X14014348Y-10336484D02*
X13995301Y-10326960D01*
X13995301Y-10326960D02*
X13985777Y-10307912D01*
X13985777Y-10307912D02*
X13985777Y-10288865D01*
X13985777Y-10288865D02*
X13995301Y-10269817D01*
X13995301Y-10269817D02*
X14014348Y-10260293D01*
X14014348Y-10260293D02*
X14061967Y-10260293D01*
X14061967Y-10260293D02*
X14081015Y-10250770D01*
X14176253Y-10203150D02*
X14176253Y-10403150D01*
X14176253Y-10212674D02*
X14195301Y-10203150D01*
X14195301Y-10203150D02*
X14233396Y-10203150D01*
X14233396Y-10203150D02*
X14252443Y-10212674D01*
X14252443Y-10212674D02*
X14261967Y-10222198D01*
X14261967Y-10222198D02*
X14271491Y-10241246D01*
X14271491Y-10241246D02*
X14271491Y-10298389D01*
X14271491Y-10298389D02*
X14261967Y-10317436D01*
X14261967Y-10317436D02*
X14252443Y-10326960D01*
X14252443Y-10326960D02*
X14233396Y-10336484D01*
X14233396Y-10336484D02*
X14195301Y-10336484D01*
X14195301Y-10336484D02*
X14176253Y-10326960D01*
X14357205Y-10317436D02*
X14366729Y-10326960D01*
X14366729Y-10326960D02*
X14357205Y-10336484D01*
X14357205Y-10336484D02*
X14347682Y-10326960D01*
X14347682Y-10326960D02*
X14357205Y-10317436D01*
X14357205Y-10317436D02*
X14357205Y-10336484D01*
X14357205Y-10212674D02*
X14366729Y-10222198D01*
X14366729Y-10222198D02*
X14357205Y-10231722D01*
X14357205Y-10231722D02*
X14347682Y-10222198D01*
X14347682Y-10222198D02*
X14357205Y-10212674D01*
X14357205Y-10212674D02*
X14357205Y-10231722D01*
D10*
X12695000Y-10650000D02*
X12725000Y-10680000D01*
X12725000Y-10650000D02*
X12695000Y-10680000D01*
D11*
X13023872Y-10556484D02*
X13042920Y-10556484D01*
X13042920Y-10556484D02*
X13061967Y-10566008D01*
X13061967Y-10566008D02*
X13071491Y-10575531D01*
X13071491Y-10575531D02*
X13081015Y-10594579D01*
X13081015Y-10594579D02*
X13090539Y-10632674D01*
X13090539Y-10632674D02*
X13090539Y-10680293D01*
X13090539Y-10680293D02*
X13081015Y-10718389D01*
X13081015Y-10718389D02*
X13071491Y-10737436D01*
X13071491Y-10737436D02*
X13061967Y-10746960D01*
X13061967Y-10746960D02*
X13042920Y-10756484D01*
X13042920Y-10756484D02*
X13023872Y-10756484D01*
X13023872Y-10756484D02*
X13004824Y-10746960D01*
X13004824Y-10746960D02*
X12995301Y-10737436D01*
X12995301Y-10737436D02*
X12985777Y-10718389D01*
X12985777Y-10718389D02*
X12976253Y-10680293D01*
X12976253Y-10680293D02*
X12976253Y-10632674D01*
X12976253Y-10632674D02*
X12985777Y-10594579D01*
X12985777Y-10594579D02*
X12995301Y-10575531D01*
X12995301Y-10575531D02*
X13004824Y-10566008D01*
X13004824Y-10566008D02*
X13023872Y-10556484D01*
X13176253Y-10737436D02*
X13185777Y-10746960D01*
X13185777Y-10746960D02*
X13176253Y-10756484D01*
X13176253Y-10756484D02*
X13166729Y-10746960D01*
X13166729Y-10746960D02*
X13176253Y-10737436D01*
X13176253Y-10737436D02*
X13176253Y-10756484D01*
X13252443Y-10556484D02*
X13376253Y-10556484D01*
X13376253Y-10556484D02*
X13309586Y-10632674D01*
X13309586Y-10632674D02*
X13338158Y-10632674D01*
X13338158Y-10632674D02*
X13357205Y-10642198D01*
X13357205Y-10642198D02*
X13366729Y-10651722D01*
X13366729Y-10651722D02*
X13376253Y-10670770D01*
X13376253Y-10670770D02*
X13376253Y-10718389D01*
X13376253Y-10718389D02*
X13366729Y-10737436D01*
X13366729Y-10737436D02*
X13357205Y-10746960D01*
X13357205Y-10746960D02*
X13338158Y-10756484D01*
X13338158Y-10756484D02*
X13281015Y-10756484D01*
X13281015Y-10756484D02*
X13261967Y-10746960D01*
X13261967Y-10746960D02*
X13252443Y-10737436D01*
X13500062Y-10556484D02*
X13519110Y-10556484D01*
X13519110Y-10556484D02*
X13538158Y-10566008D01*
X13538158Y-10566008D02*
X13547682Y-10575531D01*
X13547682Y-10575531D02*
X13557205Y-10594579D01*
X13557205Y-10594579D02*
X13566729Y-10632674D01*
X13566729Y-10632674D02*
X13566729Y-10680293D01*
X13566729Y-10680293D02*
X13557205Y-10718389D01*
X13557205Y-10718389D02*
X13547682Y-10737436D01*
X13547682Y-10737436D02*
X13538158Y-10746960D01*
X13538158Y-10746960D02*
X13519110Y-10756484D01*
X13519110Y-10756484D02*
X13500062Y-10756484D01*
X13500062Y-10756484D02*
X13481015Y-10746960D01*
X13481015Y-10746960D02*
X13471491Y-10737436D01*
X13471491Y-10737436D02*
X13461967Y-10718389D01*
X13461967Y-10718389D02*
X13452443Y-10680293D01*
X13452443Y-10680293D02*
X13452443Y-10632674D01*
X13452443Y-10632674D02*
X13461967Y-10594579D01*
X13461967Y-10594579D02*
X13471491Y-10575531D01*
X13471491Y-10575531D02*
X13481015Y-10566008D01*
X13481015Y-10566008D02*
X13500062Y-10556484D01*
X13690539Y-10556484D02*
X13709586Y-10556484D01*
X13709586Y-10556484D02*
X13728634Y-10566008D01*
X13728634Y-10566008D02*
X13738158Y-10575531D01*
X13738158Y-10575531D02*
X13747682Y-10594579D01*
X13747682Y-10594579D02*
X13757205Y-10632674D01*
X13757205Y-10632674D02*
X13757205Y-10680293D01*
X13757205Y-10680293D02*
X13747682Y-10718389D01*
X13747682Y-10718389D02*
X13738158Y-10737436D01*
X13738158Y-10737436D02*
X13728634Y-10746960D01*
X13728634Y-10746960D02*
X13709586Y-10756484D01*
X13709586Y-10756484D02*
X13690539Y-10756484D01*
X13690539Y-10756484D02*
X13671491Y-10746960D01*
X13671491Y-10746960D02*
X13661967Y-10737436D01*
X13661967Y-10737436D02*
X13652443Y-10718389D01*
X13652443Y-10718389D02*
X13642920Y-10680293D01*
X13642920Y-10680293D02*
X13642920Y-10632674D01*
X13642920Y-10632674D02*
X13652443Y-10594579D01*
X13652443Y-10594579D02*
X13661967Y-10575531D01*
X13661967Y-10575531D02*
X13671491Y-10566008D01*
X13671491Y-10566008D02*
X13690539Y-10556484D01*
X13842920Y-10756484D02*
X13842920Y-10623150D01*
X13842920Y-10642198D02*
X13852443Y-10632674D01*
X13852443Y-10632674D02*
X13871491Y-10623150D01*
X13871491Y-10623150D02*
X13900063Y-10623150D01*
X13900063Y-10623150D02*
X13919110Y-10632674D01*
X13919110Y-10632674D02*
X13928634Y-10651722D01*
X13928634Y-10651722D02*
X13928634Y-10756484D01*
X13928634Y-10651722D02*
X13938158Y-10632674D01*
X13938158Y-10632674D02*
X13957205Y-10623150D01*
X13957205Y-10623150D02*
X13985777Y-10623150D01*
X13985777Y-10623150D02*
X14004824Y-10632674D01*
X14004824Y-10632674D02*
X14014348Y-10651722D01*
X14014348Y-10651722D02*
X14014348Y-10756484D01*
X14109586Y-10756484D02*
X14109586Y-10623150D01*
X14109586Y-10642198D02*
X14119110Y-10632674D01*
X14119110Y-10632674D02*
X14138158Y-10623150D01*
X14138158Y-10623150D02*
X14166729Y-10623150D01*
X14166729Y-10623150D02*
X14185777Y-10632674D01*
X14185777Y-10632674D02*
X14195301Y-10651722D01*
X14195301Y-10651722D02*
X14195301Y-10756484D01*
X14195301Y-10651722D02*
X14204824Y-10632674D01*
X14204824Y-10632674D02*
X14223872Y-10623150D01*
X14223872Y-10623150D02*
X14252443Y-10623150D01*
X14252443Y-10623150D02*
X14271491Y-10632674D01*
X14271491Y-10632674D02*
X14281015Y-10651722D01*
X14281015Y-10651722D02*
X14281015Y-10756484D01*
X14671491Y-10546960D02*
X14500063Y-10804103D01*
X14928634Y-10556484D02*
X14947682Y-10556484D01*
X14947682Y-10556484D02*
X14966729Y-10566008D01*
X14966729Y-10566008D02*
X14976253Y-10575531D01*
X14976253Y-10575531D02*
X14985777Y-10594579D01*
X14985777Y-10594579D02*
X14995301Y-10632674D01*
X14995301Y-10632674D02*
X14995301Y-10680293D01*
X14995301Y-10680293D02*
X14985777Y-10718389D01*
X14985777Y-10718389D02*
X14976253Y-10737436D01*
X14976253Y-10737436D02*
X14966729Y-10746960D01*
X14966729Y-10746960D02*
X14947682Y-10756484D01*
X14947682Y-10756484D02*
X14928634Y-10756484D01*
X14928634Y-10756484D02*
X14909586Y-10746960D01*
X14909586Y-10746960D02*
X14900063Y-10737436D01*
X14900063Y-10737436D02*
X14890539Y-10718389D01*
X14890539Y-10718389D02*
X14881015Y-10680293D01*
X14881015Y-10680293D02*
X14881015Y-10632674D01*
X14881015Y-10632674D02*
X14890539Y-10594579D01*
X14890539Y-10594579D02*
X14900063Y-10575531D01*
X14900063Y-10575531D02*
X14909586Y-10566008D01*
X14909586Y-10566008D02*
X14928634Y-10556484D01*
X15081015Y-10737436D02*
X15090539Y-10746960D01*
X15090539Y-10746960D02*
X15081015Y-10756484D01*
X15081015Y-10756484D02*
X15071491Y-10746960D01*
X15071491Y-10746960D02*
X15081015Y-10737436D01*
X15081015Y-10737436D02*
X15081015Y-10756484D01*
X15214348Y-10556484D02*
X15233396Y-10556484D01*
X15233396Y-10556484D02*
X15252444Y-10566008D01*
X15252444Y-10566008D02*
X15261967Y-10575531D01*
X15261967Y-10575531D02*
X15271491Y-10594579D01*
X15271491Y-10594579D02*
X15281015Y-10632674D01*
X15281015Y-10632674D02*
X15281015Y-10680293D01*
X15281015Y-10680293D02*
X15271491Y-10718389D01*
X15271491Y-10718389D02*
X15261967Y-10737436D01*
X15261967Y-10737436D02*
X15252444Y-10746960D01*
X15252444Y-10746960D02*
X15233396Y-10756484D01*
X15233396Y-10756484D02*
X15214348Y-10756484D01*
X15214348Y-10756484D02*
X15195301Y-10746960D01*
X15195301Y-10746960D02*
X15185777Y-10737436D01*
X15185777Y-10737436D02*
X15176253Y-10718389D01*
X15176253Y-10718389D02*
X15166729Y-10680293D01*
X15166729Y-10680293D02*
X15166729Y-10632674D01*
X15166729Y-10632674D02*
X15176253Y-10594579D01*
X15176253Y-10594579D02*
X15185777Y-10575531D01*
X15185777Y-10575531D02*
X15195301Y-10566008D01*
X15195301Y-10566008D02*
X15214348Y-10556484D01*
X15471491Y-10756484D02*
X15357206Y-10756484D01*
X15414348Y-10756484D02*
X15414348Y-10556484D01*
X15414348Y-10556484D02*
X15395301Y-10585055D01*
X15395301Y-10585055D02*
X15376253Y-10604103D01*
X15376253Y-10604103D02*
X15357206Y-10613627D01*
X15661967Y-10756484D02*
X15547682Y-10756484D01*
X15604825Y-10756484D02*
X15604825Y-10556484D01*
X15604825Y-10556484D02*
X15585777Y-10585055D01*
X15585777Y-10585055D02*
X15566729Y-10604103D01*
X15566729Y-10604103D02*
X15547682Y-10613627D01*
X15776253Y-10642198D02*
X15757206Y-10632674D01*
X15757206Y-10632674D02*
X15747682Y-10623150D01*
X15747682Y-10623150D02*
X15738158Y-10604103D01*
X15738158Y-10604103D02*
X15738158Y-10594579D01*
X15738158Y-10594579D02*
X15747682Y-10575531D01*
X15747682Y-10575531D02*
X15757206Y-10566008D01*
X15757206Y-10566008D02*
X15776253Y-10556484D01*
X15776253Y-10556484D02*
X15814348Y-10556484D01*
X15814348Y-10556484D02*
X15833396Y-10566008D01*
X15833396Y-10566008D02*
X15842920Y-10575531D01*
X15842920Y-10575531D02*
X15852444Y-10594579D01*
X15852444Y-10594579D02*
X15852444Y-10604103D01*
X15852444Y-10604103D02*
X15842920Y-10623150D01*
X15842920Y-10623150D02*
X15833396Y-10632674D01*
X15833396Y-10632674D02*
X15814348Y-10642198D01*
X15814348Y-10642198D02*
X15776253Y-10642198D01*
X15776253Y-10642198D02*
X15757206Y-10651722D01*
X15757206Y-10651722D02*
X15747682Y-10661246D01*
X15747682Y-10661246D02*
X15738158Y-10680293D01*
X15738158Y-10680293D02*
X15738158Y-10718389D01*
X15738158Y-10718389D02*
X15747682Y-10737436D01*
X15747682Y-10737436D02*
X15757206Y-10746960D01*
X15757206Y-10746960D02*
X15776253Y-10756484D01*
X15776253Y-10756484D02*
X15814348Y-10756484D01*
X15814348Y-10756484D02*
X15833396Y-10746960D01*
X15833396Y-10746960D02*
X15842920Y-10737436D01*
X15842920Y-10737436D02*
X15852444Y-10718389D01*
X15852444Y-10718389D02*
X15852444Y-10680293D01*
X15852444Y-10680293D02*
X15842920Y-10661246D01*
X15842920Y-10661246D02*
X15833396Y-10651722D01*
X15833396Y-10651722D02*
X15814348Y-10642198D01*
X15928634Y-10556484D02*
X15928634Y-10594579D01*
X16004825Y-10556484D02*
X16004825Y-10594579D01*
X16300063Y-10832674D02*
X16290539Y-10823150D01*
X16290539Y-10823150D02*
X16271491Y-10794579D01*
X16271491Y-10794579D02*
X16261968Y-10775531D01*
X16261968Y-10775531D02*
X16252444Y-10746960D01*
X16252444Y-10746960D02*
X16242920Y-10699341D01*
X16242920Y-10699341D02*
X16242920Y-10661246D01*
X16242920Y-10661246D02*
X16252444Y-10613627D01*
X16252444Y-10613627D02*
X16261968Y-10585055D01*
X16261968Y-10585055D02*
X16271491Y-10566008D01*
X16271491Y-10566008D02*
X16290539Y-10537436D01*
X16290539Y-10537436D02*
X16300063Y-10527912D01*
X16481015Y-10756484D02*
X16366729Y-10756484D01*
X16423872Y-10756484D02*
X16423872Y-10556484D01*
X16423872Y-10556484D02*
X16404825Y-10585055D01*
X16404825Y-10585055D02*
X16385777Y-10604103D01*
X16385777Y-10604103D02*
X16366729Y-10613627D01*
X16604825Y-10556484D02*
X16623872Y-10556484D01*
X16623872Y-10556484D02*
X16642920Y-10566008D01*
X16642920Y-10566008D02*
X16652444Y-10575531D01*
X16652444Y-10575531D02*
X16661968Y-10594579D01*
X16661968Y-10594579D02*
X16671491Y-10632674D01*
X16671491Y-10632674D02*
X16671491Y-10680293D01*
X16671491Y-10680293D02*
X16661968Y-10718389D01*
X16661968Y-10718389D02*
X16652444Y-10737436D01*
X16652444Y-10737436D02*
X16642920Y-10746960D01*
X16642920Y-10746960D02*
X16623872Y-10756484D01*
X16623872Y-10756484D02*
X16604825Y-10756484D01*
X16604825Y-10756484D02*
X16585777Y-10746960D01*
X16585777Y-10746960D02*
X16576253Y-10737436D01*
X16576253Y-10737436D02*
X16566729Y-10718389D01*
X16566729Y-10718389D02*
X16557206Y-10680293D01*
X16557206Y-10680293D02*
X16557206Y-10632674D01*
X16557206Y-10632674D02*
X16566729Y-10594579D01*
X16566729Y-10594579D02*
X16576253Y-10575531D01*
X16576253Y-10575531D02*
X16585777Y-10566008D01*
X16585777Y-10566008D02*
X16604825Y-10556484D01*
X16909587Y-10756484D02*
X16909587Y-10556484D01*
X16995301Y-10756484D02*
X16995301Y-10651722D01*
X16995301Y-10651722D02*
X16985777Y-10632674D01*
X16985777Y-10632674D02*
X16966730Y-10623150D01*
X16966730Y-10623150D02*
X16938158Y-10623150D01*
X16938158Y-10623150D02*
X16919111Y-10632674D01*
X16919111Y-10632674D02*
X16909587Y-10642198D01*
X17119111Y-10756484D02*
X17100063Y-10746960D01*
X17100063Y-10746960D02*
X17090539Y-10737436D01*
X17090539Y-10737436D02*
X17081015Y-10718389D01*
X17081015Y-10718389D02*
X17081015Y-10661246D01*
X17081015Y-10661246D02*
X17090539Y-10642198D01*
X17090539Y-10642198D02*
X17100063Y-10632674D01*
X17100063Y-10632674D02*
X17119111Y-10623150D01*
X17119111Y-10623150D02*
X17147682Y-10623150D01*
X17147682Y-10623150D02*
X17166730Y-10632674D01*
X17166730Y-10632674D02*
X17176253Y-10642198D01*
X17176253Y-10642198D02*
X17185777Y-10661246D01*
X17185777Y-10661246D02*
X17185777Y-10718389D01*
X17185777Y-10718389D02*
X17176253Y-10737436D01*
X17176253Y-10737436D02*
X17166730Y-10746960D01*
X17166730Y-10746960D02*
X17147682Y-10756484D01*
X17147682Y-10756484D02*
X17119111Y-10756484D01*
X17300063Y-10756484D02*
X17281015Y-10746960D01*
X17281015Y-10746960D02*
X17271492Y-10727912D01*
X17271492Y-10727912D02*
X17271492Y-10556484D01*
X17452444Y-10746960D02*
X17433396Y-10756484D01*
X17433396Y-10756484D02*
X17395301Y-10756484D01*
X17395301Y-10756484D02*
X17376253Y-10746960D01*
X17376253Y-10746960D02*
X17366730Y-10727912D01*
X17366730Y-10727912D02*
X17366730Y-10651722D01*
X17366730Y-10651722D02*
X17376253Y-10632674D01*
X17376253Y-10632674D02*
X17395301Y-10623150D01*
X17395301Y-10623150D02*
X17433396Y-10623150D01*
X17433396Y-10623150D02*
X17452444Y-10632674D01*
X17452444Y-10632674D02*
X17461968Y-10651722D01*
X17461968Y-10651722D02*
X17461968Y-10670770D01*
X17461968Y-10670770D02*
X17366730Y-10689817D01*
X17538158Y-10746960D02*
X17557206Y-10756484D01*
X17557206Y-10756484D02*
X17595301Y-10756484D01*
X17595301Y-10756484D02*
X17614349Y-10746960D01*
X17614349Y-10746960D02*
X17623873Y-10727912D01*
X17623873Y-10727912D02*
X17623873Y-10718389D01*
X17623873Y-10718389D02*
X17614349Y-10699341D01*
X17614349Y-10699341D02*
X17595301Y-10689817D01*
X17595301Y-10689817D02*
X17566730Y-10689817D01*
X17566730Y-10689817D02*
X17547682Y-10680293D01*
X17547682Y-10680293D02*
X17538158Y-10661246D01*
X17538158Y-10661246D02*
X17538158Y-10651722D01*
X17538158Y-10651722D02*
X17547682Y-10632674D01*
X17547682Y-10632674D02*
X17566730Y-10623150D01*
X17566730Y-10623150D02*
X17595301Y-10623150D01*
X17595301Y-10623150D02*
X17614349Y-10632674D01*
X17690539Y-10832674D02*
X17700063Y-10823150D01*
X17700063Y-10823150D02*
X17719111Y-10794579D01*
X17719111Y-10794579D02*
X17728634Y-10775531D01*
X17728634Y-10775531D02*
X17738158Y-10746960D01*
X17738158Y-10746960D02*
X17747682Y-10699341D01*
X17747682Y-10699341D02*
X17747682Y-10661246D01*
X17747682Y-10661246D02*
X17738158Y-10613627D01*
X17738158Y-10613627D02*
X17728634Y-10585055D01*
X17728634Y-10585055D02*
X17719111Y-10566008D01*
X17719111Y-10566008D02*
X17700063Y-10537436D01*
X17700063Y-10537436D02*
X17690539Y-10527912D01*
D10*
X12725000Y-10929000D02*
G75*
G02*
X12675000Y-10929000I-25000J0D01*
G01*
X12675000Y-10929000D02*
G75*
G02*
X12725000Y-10929000I25000J0D01*
G01*
D11*
X13023872Y-10820484D02*
X13042920Y-10820484D01*
X13042920Y-10820484D02*
X13061967Y-10830008D01*
X13061967Y-10830008D02*
X13071491Y-10839531D01*
X13071491Y-10839531D02*
X13081015Y-10858579D01*
X13081015Y-10858579D02*
X13090539Y-10896674D01*
X13090539Y-10896674D02*
X13090539Y-10944293D01*
X13090539Y-10944293D02*
X13081015Y-10982389D01*
X13081015Y-10982389D02*
X13071491Y-11001436D01*
X13071491Y-11001436D02*
X13061967Y-11010960D01*
X13061967Y-11010960D02*
X13042920Y-11020484D01*
X13042920Y-11020484D02*
X13023872Y-11020484D01*
X13023872Y-11020484D02*
X13004824Y-11010960D01*
X13004824Y-11010960D02*
X12995301Y-11001436D01*
X12995301Y-11001436D02*
X12985777Y-10982389D01*
X12985777Y-10982389D02*
X12976253Y-10944293D01*
X12976253Y-10944293D02*
X12976253Y-10896674D01*
X12976253Y-10896674D02*
X12985777Y-10858579D01*
X12985777Y-10858579D02*
X12995301Y-10839531D01*
X12995301Y-10839531D02*
X13004824Y-10830008D01*
X13004824Y-10830008D02*
X13023872Y-10820484D01*
X13176253Y-11001436D02*
X13185777Y-11010960D01*
X13185777Y-11010960D02*
X13176253Y-11020484D01*
X13176253Y-11020484D02*
X13166729Y-11010960D01*
X13166729Y-11010960D02*
X13176253Y-11001436D01*
X13176253Y-11001436D02*
X13176253Y-11020484D01*
X13366729Y-10820484D02*
X13271491Y-10820484D01*
X13271491Y-10820484D02*
X13261967Y-10915722D01*
X13261967Y-10915722D02*
X13271491Y-10906198D01*
X13271491Y-10906198D02*
X13290539Y-10896674D01*
X13290539Y-10896674D02*
X13338158Y-10896674D01*
X13338158Y-10896674D02*
X13357205Y-10906198D01*
X13357205Y-10906198D02*
X13366729Y-10915722D01*
X13366729Y-10915722D02*
X13376253Y-10934770D01*
X13376253Y-10934770D02*
X13376253Y-10982389D01*
X13376253Y-10982389D02*
X13366729Y-11001436D01*
X13366729Y-11001436D02*
X13357205Y-11010960D01*
X13357205Y-11010960D02*
X13338158Y-11020484D01*
X13338158Y-11020484D02*
X13290539Y-11020484D01*
X13290539Y-11020484D02*
X13271491Y-11010960D01*
X13271491Y-11010960D02*
X13261967Y-11001436D01*
X13500062Y-10820484D02*
X13519110Y-10820484D01*
X13519110Y-10820484D02*
X13538158Y-10830008D01*
X13538158Y-10830008D02*
X13547682Y-10839531D01*
X13547682Y-10839531D02*
X13557205Y-10858579D01*
X13557205Y-10858579D02*
X13566729Y-10896674D01*
X13566729Y-10896674D02*
X13566729Y-10944293D01*
X13566729Y-10944293D02*
X13557205Y-10982389D01*
X13557205Y-10982389D02*
X13547682Y-11001436D01*
X13547682Y-11001436D02*
X13538158Y-11010960D01*
X13538158Y-11010960D02*
X13519110Y-11020484D01*
X13519110Y-11020484D02*
X13500062Y-11020484D01*
X13500062Y-11020484D02*
X13481015Y-11010960D01*
X13481015Y-11010960D02*
X13471491Y-11001436D01*
X13471491Y-11001436D02*
X13461967Y-10982389D01*
X13461967Y-10982389D02*
X13452443Y-10944293D01*
X13452443Y-10944293D02*
X13452443Y-10896674D01*
X13452443Y-10896674D02*
X13461967Y-10858579D01*
X13461967Y-10858579D02*
X13471491Y-10839531D01*
X13471491Y-10839531D02*
X13481015Y-10830008D01*
X13481015Y-10830008D02*
X13500062Y-10820484D01*
X13690539Y-10820484D02*
X13709586Y-10820484D01*
X13709586Y-10820484D02*
X13728634Y-10830008D01*
X13728634Y-10830008D02*
X13738158Y-10839531D01*
X13738158Y-10839531D02*
X13747682Y-10858579D01*
X13747682Y-10858579D02*
X13757205Y-10896674D01*
X13757205Y-10896674D02*
X13757205Y-10944293D01*
X13757205Y-10944293D02*
X13747682Y-10982389D01*
X13747682Y-10982389D02*
X13738158Y-11001436D01*
X13738158Y-11001436D02*
X13728634Y-11010960D01*
X13728634Y-11010960D02*
X13709586Y-11020484D01*
X13709586Y-11020484D02*
X13690539Y-11020484D01*
X13690539Y-11020484D02*
X13671491Y-11010960D01*
X13671491Y-11010960D02*
X13661967Y-11001436D01*
X13661967Y-11001436D02*
X13652443Y-10982389D01*
X13652443Y-10982389D02*
X13642920Y-10944293D01*
X13642920Y-10944293D02*
X13642920Y-10896674D01*
X13642920Y-10896674D02*
X13652443Y-10858579D01*
X13652443Y-10858579D02*
X13661967Y-10839531D01*
X13661967Y-10839531D02*
X13671491Y-10830008D01*
X13671491Y-10830008D02*
X13690539Y-10820484D01*
X13842920Y-11020484D02*
X13842920Y-10887150D01*
X13842920Y-10906198D02*
X13852443Y-10896674D01*
X13852443Y-10896674D02*
X13871491Y-10887150D01*
X13871491Y-10887150D02*
X13900063Y-10887150D01*
X13900063Y-10887150D02*
X13919110Y-10896674D01*
X13919110Y-10896674D02*
X13928634Y-10915722D01*
X13928634Y-10915722D02*
X13928634Y-11020484D01*
X13928634Y-10915722D02*
X13938158Y-10896674D01*
X13938158Y-10896674D02*
X13957205Y-10887150D01*
X13957205Y-10887150D02*
X13985777Y-10887150D01*
X13985777Y-10887150D02*
X14004824Y-10896674D01*
X14004824Y-10896674D02*
X14014348Y-10915722D01*
X14014348Y-10915722D02*
X14014348Y-11020484D01*
X14109586Y-11020484D02*
X14109586Y-10887150D01*
X14109586Y-10906198D02*
X14119110Y-10896674D01*
X14119110Y-10896674D02*
X14138158Y-10887150D01*
X14138158Y-10887150D02*
X14166729Y-10887150D01*
X14166729Y-10887150D02*
X14185777Y-10896674D01*
X14185777Y-10896674D02*
X14195301Y-10915722D01*
X14195301Y-10915722D02*
X14195301Y-11020484D01*
X14195301Y-10915722D02*
X14204824Y-10896674D01*
X14204824Y-10896674D02*
X14223872Y-10887150D01*
X14223872Y-10887150D02*
X14252443Y-10887150D01*
X14252443Y-10887150D02*
X14271491Y-10896674D01*
X14271491Y-10896674D02*
X14281015Y-10915722D01*
X14281015Y-10915722D02*
X14281015Y-11020484D01*
X14671491Y-10810960D02*
X14500063Y-11068103D01*
X14928634Y-10820484D02*
X14947682Y-10820484D01*
X14947682Y-10820484D02*
X14966729Y-10830008D01*
X14966729Y-10830008D02*
X14976253Y-10839531D01*
X14976253Y-10839531D02*
X14985777Y-10858579D01*
X14985777Y-10858579D02*
X14995301Y-10896674D01*
X14995301Y-10896674D02*
X14995301Y-10944293D01*
X14995301Y-10944293D02*
X14985777Y-10982389D01*
X14985777Y-10982389D02*
X14976253Y-11001436D01*
X14976253Y-11001436D02*
X14966729Y-11010960D01*
X14966729Y-11010960D02*
X14947682Y-11020484D01*
X14947682Y-11020484D02*
X14928634Y-11020484D01*
X14928634Y-11020484D02*
X14909586Y-11010960D01*
X14909586Y-11010960D02*
X14900063Y-11001436D01*
X14900063Y-11001436D02*
X14890539Y-10982389D01*
X14890539Y-10982389D02*
X14881015Y-10944293D01*
X14881015Y-10944293D02*
X14881015Y-10896674D01*
X14881015Y-10896674D02*
X14890539Y-10858579D01*
X14890539Y-10858579D02*
X14900063Y-10839531D01*
X14900063Y-10839531D02*
X14909586Y-10830008D01*
X14909586Y-10830008D02*
X14928634Y-10820484D01*
X15081015Y-11001436D02*
X15090539Y-11010960D01*
X15090539Y-11010960D02*
X15081015Y-11020484D01*
X15081015Y-11020484D02*
X15071491Y-11010960D01*
X15071491Y-11010960D02*
X15081015Y-11001436D01*
X15081015Y-11001436D02*
X15081015Y-11020484D01*
X15214348Y-10820484D02*
X15233396Y-10820484D01*
X15233396Y-10820484D02*
X15252444Y-10830008D01*
X15252444Y-10830008D02*
X15261967Y-10839531D01*
X15261967Y-10839531D02*
X15271491Y-10858579D01*
X15271491Y-10858579D02*
X15281015Y-10896674D01*
X15281015Y-10896674D02*
X15281015Y-10944293D01*
X15281015Y-10944293D02*
X15271491Y-10982389D01*
X15271491Y-10982389D02*
X15261967Y-11001436D01*
X15261967Y-11001436D02*
X15252444Y-11010960D01*
X15252444Y-11010960D02*
X15233396Y-11020484D01*
X15233396Y-11020484D02*
X15214348Y-11020484D01*
X15214348Y-11020484D02*
X15195301Y-11010960D01*
X15195301Y-11010960D02*
X15185777Y-11001436D01*
X15185777Y-11001436D02*
X15176253Y-10982389D01*
X15176253Y-10982389D02*
X15166729Y-10944293D01*
X15166729Y-10944293D02*
X15166729Y-10896674D01*
X15166729Y-10896674D02*
X15176253Y-10858579D01*
X15176253Y-10858579D02*
X15185777Y-10839531D01*
X15185777Y-10839531D02*
X15195301Y-10830008D01*
X15195301Y-10830008D02*
X15214348Y-10820484D01*
X15471491Y-11020484D02*
X15357206Y-11020484D01*
X15414348Y-11020484D02*
X15414348Y-10820484D01*
X15414348Y-10820484D02*
X15395301Y-10849055D01*
X15395301Y-10849055D02*
X15376253Y-10868103D01*
X15376253Y-10868103D02*
X15357206Y-10877627D01*
X15566729Y-11020484D02*
X15604825Y-11020484D01*
X15604825Y-11020484D02*
X15623872Y-11010960D01*
X15623872Y-11010960D02*
X15633396Y-11001436D01*
X15633396Y-11001436D02*
X15652444Y-10972865D01*
X15652444Y-10972865D02*
X15661967Y-10934770D01*
X15661967Y-10934770D02*
X15661967Y-10858579D01*
X15661967Y-10858579D02*
X15652444Y-10839531D01*
X15652444Y-10839531D02*
X15642920Y-10830008D01*
X15642920Y-10830008D02*
X15623872Y-10820484D01*
X15623872Y-10820484D02*
X15585777Y-10820484D01*
X15585777Y-10820484D02*
X15566729Y-10830008D01*
X15566729Y-10830008D02*
X15557206Y-10839531D01*
X15557206Y-10839531D02*
X15547682Y-10858579D01*
X15547682Y-10858579D02*
X15547682Y-10906198D01*
X15547682Y-10906198D02*
X15557206Y-10925246D01*
X15557206Y-10925246D02*
X15566729Y-10934770D01*
X15566729Y-10934770D02*
X15585777Y-10944293D01*
X15585777Y-10944293D02*
X15623872Y-10944293D01*
X15623872Y-10944293D02*
X15642920Y-10934770D01*
X15642920Y-10934770D02*
X15652444Y-10925246D01*
X15652444Y-10925246D02*
X15661967Y-10906198D01*
X15728634Y-10820484D02*
X15861967Y-10820484D01*
X15861967Y-10820484D02*
X15776253Y-11020484D01*
X15928634Y-10820484D02*
X15928634Y-10858579D01*
X16004825Y-10820484D02*
X16004825Y-10858579D01*
X16300063Y-11096674D02*
X16290539Y-11087150D01*
X16290539Y-11087150D02*
X16271491Y-11058579D01*
X16271491Y-11058579D02*
X16261968Y-11039531D01*
X16261968Y-11039531D02*
X16252444Y-11010960D01*
X16252444Y-11010960D02*
X16242920Y-10963341D01*
X16242920Y-10963341D02*
X16242920Y-10925246D01*
X16242920Y-10925246D02*
X16252444Y-10877627D01*
X16252444Y-10877627D02*
X16261968Y-10849055D01*
X16261968Y-10849055D02*
X16271491Y-10830008D01*
X16271491Y-10830008D02*
X16290539Y-10801436D01*
X16290539Y-10801436D02*
X16300063Y-10791912D01*
X16461968Y-10887150D02*
X16461968Y-11020484D01*
X16414348Y-10810960D02*
X16366729Y-10953817D01*
X16366729Y-10953817D02*
X16490539Y-10953817D01*
X16719110Y-11020484D02*
X16719110Y-10820484D01*
X16804825Y-11020484D02*
X16804825Y-10915722D01*
X16804825Y-10915722D02*
X16795301Y-10896674D01*
X16795301Y-10896674D02*
X16776253Y-10887150D01*
X16776253Y-10887150D02*
X16747682Y-10887150D01*
X16747682Y-10887150D02*
X16728634Y-10896674D01*
X16728634Y-10896674D02*
X16719110Y-10906198D01*
X16928634Y-11020484D02*
X16909587Y-11010960D01*
X16909587Y-11010960D02*
X16900063Y-11001436D01*
X16900063Y-11001436D02*
X16890539Y-10982389D01*
X16890539Y-10982389D02*
X16890539Y-10925246D01*
X16890539Y-10925246D02*
X16900063Y-10906198D01*
X16900063Y-10906198D02*
X16909587Y-10896674D01*
X16909587Y-10896674D02*
X16928634Y-10887150D01*
X16928634Y-10887150D02*
X16957206Y-10887150D01*
X16957206Y-10887150D02*
X16976253Y-10896674D01*
X16976253Y-10896674D02*
X16985777Y-10906198D01*
X16985777Y-10906198D02*
X16995301Y-10925246D01*
X16995301Y-10925246D02*
X16995301Y-10982389D01*
X16995301Y-10982389D02*
X16985777Y-11001436D01*
X16985777Y-11001436D02*
X16976253Y-11010960D01*
X16976253Y-11010960D02*
X16957206Y-11020484D01*
X16957206Y-11020484D02*
X16928634Y-11020484D01*
X17109587Y-11020484D02*
X17090539Y-11010960D01*
X17090539Y-11010960D02*
X17081015Y-10991912D01*
X17081015Y-10991912D02*
X17081015Y-10820484D01*
X17261968Y-11010960D02*
X17242920Y-11020484D01*
X17242920Y-11020484D02*
X17204825Y-11020484D01*
X17204825Y-11020484D02*
X17185777Y-11010960D01*
X17185777Y-11010960D02*
X17176253Y-10991912D01*
X17176253Y-10991912D02*
X17176253Y-10915722D01*
X17176253Y-10915722D02*
X17185777Y-10896674D01*
X17185777Y-10896674D02*
X17204825Y-10887150D01*
X17204825Y-10887150D02*
X17242920Y-10887150D01*
X17242920Y-10887150D02*
X17261968Y-10896674D01*
X17261968Y-10896674D02*
X17271492Y-10915722D01*
X17271492Y-10915722D02*
X17271492Y-10934770D01*
X17271492Y-10934770D02*
X17176253Y-10953817D01*
X17347682Y-11010960D02*
X17366730Y-11020484D01*
X17366730Y-11020484D02*
X17404825Y-11020484D01*
X17404825Y-11020484D02*
X17423873Y-11010960D01*
X17423873Y-11010960D02*
X17433396Y-10991912D01*
X17433396Y-10991912D02*
X17433396Y-10982389D01*
X17433396Y-10982389D02*
X17423873Y-10963341D01*
X17423873Y-10963341D02*
X17404825Y-10953817D01*
X17404825Y-10953817D02*
X17376253Y-10953817D01*
X17376253Y-10953817D02*
X17357206Y-10944293D01*
X17357206Y-10944293D02*
X17347682Y-10925246D01*
X17347682Y-10925246D02*
X17347682Y-10915722D01*
X17347682Y-10915722D02*
X17357206Y-10896674D01*
X17357206Y-10896674D02*
X17376253Y-10887150D01*
X17376253Y-10887150D02*
X17404825Y-10887150D01*
X17404825Y-10887150D02*
X17423873Y-10896674D01*
X17500063Y-11096674D02*
X17509587Y-11087150D01*
X17509587Y-11087150D02*
X17528634Y-11058579D01*
X17528634Y-11058579D02*
X17538158Y-11039531D01*
X17538158Y-11039531D02*
X17547682Y-11010960D01*
X17547682Y-11010960D02*
X17557206Y-10963341D01*
X17557206Y-10963341D02*
X17557206Y-10925246D01*
X17557206Y-10925246D02*
X17547682Y-10877627D01*
X17547682Y-10877627D02*
X17538158Y-10849055D01*
X17538158Y-10849055D02*
X17528634Y-10830008D01*
X17528634Y-10830008D02*
X17509587Y-10801436D01*
X17509587Y-10801436D02*
X17500063Y-10791912D01*
D12*
X12667500Y-11135500D02*
X12667500Y-11250500D01*
X12610000Y-11193000D02*
X12725000Y-11193000D01*
D11*
X13090539Y-11284484D02*
X12976253Y-11284484D01*
X13033396Y-11284484D02*
X13033396Y-11084484D01*
X13033396Y-11084484D02*
X13014348Y-11113055D01*
X13014348Y-11113055D02*
X12995301Y-11132103D01*
X12995301Y-11132103D02*
X12976253Y-11141627D01*
X13176253Y-11265436D02*
X13185777Y-11274960D01*
X13185777Y-11274960D02*
X13176253Y-11284484D01*
X13176253Y-11284484D02*
X13166729Y-11274960D01*
X13166729Y-11274960D02*
X13176253Y-11265436D01*
X13176253Y-11265436D02*
X13176253Y-11284484D01*
X13376253Y-11284484D02*
X13261967Y-11284484D01*
X13319110Y-11284484D02*
X13319110Y-11084484D01*
X13319110Y-11084484D02*
X13300062Y-11113055D01*
X13300062Y-11113055D02*
X13281015Y-11132103D01*
X13281015Y-11132103D02*
X13261967Y-11141627D01*
X13557205Y-11084484D02*
X13461967Y-11084484D01*
X13461967Y-11084484D02*
X13452443Y-11179722D01*
X13452443Y-11179722D02*
X13461967Y-11170198D01*
X13461967Y-11170198D02*
X13481015Y-11160674D01*
X13481015Y-11160674D02*
X13528634Y-11160674D01*
X13528634Y-11160674D02*
X13547682Y-11170198D01*
X13547682Y-11170198D02*
X13557205Y-11179722D01*
X13557205Y-11179722D02*
X13566729Y-11198769D01*
X13566729Y-11198769D02*
X13566729Y-11246388D01*
X13566729Y-11246388D02*
X13557205Y-11265436D01*
X13557205Y-11265436D02*
X13547682Y-11274960D01*
X13547682Y-11274960D02*
X13528634Y-11284484D01*
X13528634Y-11284484D02*
X13481015Y-11284484D01*
X13481015Y-11284484D02*
X13461967Y-11274960D01*
X13461967Y-11274960D02*
X13452443Y-11265436D01*
X13690539Y-11084484D02*
X13709586Y-11084484D01*
X13709586Y-11084484D02*
X13728634Y-11094008D01*
X13728634Y-11094008D02*
X13738158Y-11103531D01*
X13738158Y-11103531D02*
X13747682Y-11122579D01*
X13747682Y-11122579D02*
X13757205Y-11160674D01*
X13757205Y-11160674D02*
X13757205Y-11208293D01*
X13757205Y-11208293D02*
X13747682Y-11246388D01*
X13747682Y-11246388D02*
X13738158Y-11265436D01*
X13738158Y-11265436D02*
X13728634Y-11274960D01*
X13728634Y-11274960D02*
X13709586Y-11284484D01*
X13709586Y-11284484D02*
X13690539Y-11284484D01*
X13690539Y-11284484D02*
X13671491Y-11274960D01*
X13671491Y-11274960D02*
X13661967Y-11265436D01*
X13661967Y-11265436D02*
X13652443Y-11246388D01*
X13652443Y-11246388D02*
X13642920Y-11208293D01*
X13642920Y-11208293D02*
X13642920Y-11160674D01*
X13642920Y-11160674D02*
X13652443Y-11122579D01*
X13652443Y-11122579D02*
X13661967Y-11103531D01*
X13661967Y-11103531D02*
X13671491Y-11094008D01*
X13671491Y-11094008D02*
X13690539Y-11084484D01*
X13842920Y-11284484D02*
X13842920Y-11151150D01*
X13842920Y-11170198D02*
X13852443Y-11160674D01*
X13852443Y-11160674D02*
X13871491Y-11151150D01*
X13871491Y-11151150D02*
X13900063Y-11151150D01*
X13900063Y-11151150D02*
X13919110Y-11160674D01*
X13919110Y-11160674D02*
X13928634Y-11179722D01*
X13928634Y-11179722D02*
X13928634Y-11284484D01*
X13928634Y-11179722D02*
X13938158Y-11160674D01*
X13938158Y-11160674D02*
X13957205Y-11151150D01*
X13957205Y-11151150D02*
X13985777Y-11151150D01*
X13985777Y-11151150D02*
X14004824Y-11160674D01*
X14004824Y-11160674D02*
X14014348Y-11179722D01*
X14014348Y-11179722D02*
X14014348Y-11284484D01*
X14109586Y-11284484D02*
X14109586Y-11151150D01*
X14109586Y-11170198D02*
X14119110Y-11160674D01*
X14119110Y-11160674D02*
X14138158Y-11151150D01*
X14138158Y-11151150D02*
X14166729Y-11151150D01*
X14166729Y-11151150D02*
X14185777Y-11160674D01*
X14185777Y-11160674D02*
X14195301Y-11179722D01*
X14195301Y-11179722D02*
X14195301Y-11284484D01*
X14195301Y-11179722D02*
X14204824Y-11160674D01*
X14204824Y-11160674D02*
X14223872Y-11151150D01*
X14223872Y-11151150D02*
X14252443Y-11151150D01*
X14252443Y-11151150D02*
X14271491Y-11160674D01*
X14271491Y-11160674D02*
X14281015Y-11179722D01*
X14281015Y-11179722D02*
X14281015Y-11284484D01*
X14671491Y-11074960D02*
X14500063Y-11332103D01*
X14928634Y-11084484D02*
X14947682Y-11084484D01*
X14947682Y-11084484D02*
X14966729Y-11094008D01*
X14966729Y-11094008D02*
X14976253Y-11103531D01*
X14976253Y-11103531D02*
X14985777Y-11122579D01*
X14985777Y-11122579D02*
X14995301Y-11160674D01*
X14995301Y-11160674D02*
X14995301Y-11208293D01*
X14995301Y-11208293D02*
X14985777Y-11246388D01*
X14985777Y-11246388D02*
X14976253Y-11265436D01*
X14976253Y-11265436D02*
X14966729Y-11274960D01*
X14966729Y-11274960D02*
X14947682Y-11284484D01*
X14947682Y-11284484D02*
X14928634Y-11284484D01*
X14928634Y-11284484D02*
X14909586Y-11274960D01*
X14909586Y-11274960D02*
X14900063Y-11265436D01*
X14900063Y-11265436D02*
X14890539Y-11246388D01*
X14890539Y-11246388D02*
X14881015Y-11208293D01*
X14881015Y-11208293D02*
X14881015Y-11160674D01*
X14881015Y-11160674D02*
X14890539Y-11122579D01*
X14890539Y-11122579D02*
X14900063Y-11103531D01*
X14900063Y-11103531D02*
X14909586Y-11094008D01*
X14909586Y-11094008D02*
X14928634Y-11084484D01*
X15081015Y-11265436D02*
X15090539Y-11274960D01*
X15090539Y-11274960D02*
X15081015Y-11284484D01*
X15081015Y-11284484D02*
X15071491Y-11274960D01*
X15071491Y-11274960D02*
X15081015Y-11265436D01*
X15081015Y-11265436D02*
X15081015Y-11284484D01*
X15214348Y-11084484D02*
X15233396Y-11084484D01*
X15233396Y-11084484D02*
X15252444Y-11094008D01*
X15252444Y-11094008D02*
X15261967Y-11103531D01*
X15261967Y-11103531D02*
X15271491Y-11122579D01*
X15271491Y-11122579D02*
X15281015Y-11160674D01*
X15281015Y-11160674D02*
X15281015Y-11208293D01*
X15281015Y-11208293D02*
X15271491Y-11246388D01*
X15271491Y-11246388D02*
X15261967Y-11265436D01*
X15261967Y-11265436D02*
X15252444Y-11274960D01*
X15252444Y-11274960D02*
X15233396Y-11284484D01*
X15233396Y-11284484D02*
X15214348Y-11284484D01*
X15214348Y-11284484D02*
X15195301Y-11274960D01*
X15195301Y-11274960D02*
X15185777Y-11265436D01*
X15185777Y-11265436D02*
X15176253Y-11246388D01*
X15176253Y-11246388D02*
X15166729Y-11208293D01*
X15166729Y-11208293D02*
X15166729Y-11160674D01*
X15166729Y-11160674D02*
X15176253Y-11122579D01*
X15176253Y-11122579D02*
X15185777Y-11103531D01*
X15185777Y-11103531D02*
X15195301Y-11094008D01*
X15195301Y-11094008D02*
X15214348Y-11084484D01*
X15452444Y-11151150D02*
X15452444Y-11284484D01*
X15404825Y-11074960D02*
X15357206Y-11217817D01*
X15357206Y-11217817D02*
X15481015Y-11217817D01*
X15652444Y-11084484D02*
X15557206Y-11084484D01*
X15557206Y-11084484D02*
X15547682Y-11179722D01*
X15547682Y-11179722D02*
X15557206Y-11170198D01*
X15557206Y-11170198D02*
X15576253Y-11160674D01*
X15576253Y-11160674D02*
X15623872Y-11160674D01*
X15623872Y-11160674D02*
X15642920Y-11170198D01*
X15642920Y-11170198D02*
X15652444Y-11179722D01*
X15652444Y-11179722D02*
X15661967Y-11198769D01*
X15661967Y-11198769D02*
X15661967Y-11246388D01*
X15661967Y-11246388D02*
X15652444Y-11265436D01*
X15652444Y-11265436D02*
X15642920Y-11274960D01*
X15642920Y-11274960D02*
X15623872Y-11284484D01*
X15623872Y-11284484D02*
X15576253Y-11284484D01*
X15576253Y-11284484D02*
X15557206Y-11274960D01*
X15557206Y-11274960D02*
X15547682Y-11265436D01*
X15728634Y-11084484D02*
X15852444Y-11084484D01*
X15852444Y-11084484D02*
X15785777Y-11160674D01*
X15785777Y-11160674D02*
X15814348Y-11160674D01*
X15814348Y-11160674D02*
X15833396Y-11170198D01*
X15833396Y-11170198D02*
X15842920Y-11179722D01*
X15842920Y-11179722D02*
X15852444Y-11198769D01*
X15852444Y-11198769D02*
X15852444Y-11246388D01*
X15852444Y-11246388D02*
X15842920Y-11265436D01*
X15842920Y-11265436D02*
X15833396Y-11274960D01*
X15833396Y-11274960D02*
X15814348Y-11284484D01*
X15814348Y-11284484D02*
X15757206Y-11284484D01*
X15757206Y-11284484D02*
X15738158Y-11274960D01*
X15738158Y-11274960D02*
X15728634Y-11265436D01*
X15928634Y-11084484D02*
X15928634Y-11122579D01*
X16004825Y-11084484D02*
X16004825Y-11122579D01*
X16300063Y-11360674D02*
X16290539Y-11351150D01*
X16290539Y-11351150D02*
X16271491Y-11322579D01*
X16271491Y-11322579D02*
X16261968Y-11303531D01*
X16261968Y-11303531D02*
X16252444Y-11274960D01*
X16252444Y-11274960D02*
X16242920Y-11227341D01*
X16242920Y-11227341D02*
X16242920Y-11189246D01*
X16242920Y-11189246D02*
X16252444Y-11141627D01*
X16252444Y-11141627D02*
X16261968Y-11113055D01*
X16261968Y-11113055D02*
X16271491Y-11094008D01*
X16271491Y-11094008D02*
X16290539Y-11065436D01*
X16290539Y-11065436D02*
X16300063Y-11055912D01*
X16481015Y-11284484D02*
X16366729Y-11284484D01*
X16423872Y-11284484D02*
X16423872Y-11084484D01*
X16423872Y-11084484D02*
X16404825Y-11113055D01*
X16404825Y-11113055D02*
X16385777Y-11132103D01*
X16385777Y-11132103D02*
X16366729Y-11141627D01*
X16652444Y-11084484D02*
X16614348Y-11084484D01*
X16614348Y-11084484D02*
X16595301Y-11094008D01*
X16595301Y-11094008D02*
X16585777Y-11103531D01*
X16585777Y-11103531D02*
X16566729Y-11132103D01*
X16566729Y-11132103D02*
X16557206Y-11170198D01*
X16557206Y-11170198D02*
X16557206Y-11246388D01*
X16557206Y-11246388D02*
X16566729Y-11265436D01*
X16566729Y-11265436D02*
X16576253Y-11274960D01*
X16576253Y-11274960D02*
X16595301Y-11284484D01*
X16595301Y-11284484D02*
X16633396Y-11284484D01*
X16633396Y-11284484D02*
X16652444Y-11274960D01*
X16652444Y-11274960D02*
X16661968Y-11265436D01*
X16661968Y-11265436D02*
X16671491Y-11246388D01*
X16671491Y-11246388D02*
X16671491Y-11198769D01*
X16671491Y-11198769D02*
X16661968Y-11179722D01*
X16661968Y-11179722D02*
X16652444Y-11170198D01*
X16652444Y-11170198D02*
X16633396Y-11160674D01*
X16633396Y-11160674D02*
X16595301Y-11160674D01*
X16595301Y-11160674D02*
X16576253Y-11170198D01*
X16576253Y-11170198D02*
X16566729Y-11179722D01*
X16566729Y-11179722D02*
X16557206Y-11198769D01*
X16909587Y-11284484D02*
X16909587Y-11084484D01*
X16995301Y-11284484D02*
X16995301Y-11179722D01*
X16995301Y-11179722D02*
X16985777Y-11160674D01*
X16985777Y-11160674D02*
X16966730Y-11151150D01*
X16966730Y-11151150D02*
X16938158Y-11151150D01*
X16938158Y-11151150D02*
X16919111Y-11160674D01*
X16919111Y-11160674D02*
X16909587Y-11170198D01*
X17119111Y-11284484D02*
X17100063Y-11274960D01*
X17100063Y-11274960D02*
X17090539Y-11265436D01*
X17090539Y-11265436D02*
X17081015Y-11246388D01*
X17081015Y-11246388D02*
X17081015Y-11189246D01*
X17081015Y-11189246D02*
X17090539Y-11170198D01*
X17090539Y-11170198D02*
X17100063Y-11160674D01*
X17100063Y-11160674D02*
X17119111Y-11151150D01*
X17119111Y-11151150D02*
X17147682Y-11151150D01*
X17147682Y-11151150D02*
X17166730Y-11160674D01*
X17166730Y-11160674D02*
X17176253Y-11170198D01*
X17176253Y-11170198D02*
X17185777Y-11189246D01*
X17185777Y-11189246D02*
X17185777Y-11246388D01*
X17185777Y-11246388D02*
X17176253Y-11265436D01*
X17176253Y-11265436D02*
X17166730Y-11274960D01*
X17166730Y-11274960D02*
X17147682Y-11284484D01*
X17147682Y-11284484D02*
X17119111Y-11284484D01*
X17300063Y-11284484D02*
X17281015Y-11274960D01*
X17281015Y-11274960D02*
X17271492Y-11255912D01*
X17271492Y-11255912D02*
X17271492Y-11084484D01*
X17452444Y-11274960D02*
X17433396Y-11284484D01*
X17433396Y-11284484D02*
X17395301Y-11284484D01*
X17395301Y-11284484D02*
X17376253Y-11274960D01*
X17376253Y-11274960D02*
X17366730Y-11255912D01*
X17366730Y-11255912D02*
X17366730Y-11179722D01*
X17366730Y-11179722D02*
X17376253Y-11160674D01*
X17376253Y-11160674D02*
X17395301Y-11151150D01*
X17395301Y-11151150D02*
X17433396Y-11151150D01*
X17433396Y-11151150D02*
X17452444Y-11160674D01*
X17452444Y-11160674D02*
X17461968Y-11179722D01*
X17461968Y-11179722D02*
X17461968Y-11198769D01*
X17461968Y-11198769D02*
X17366730Y-11217817D01*
X17538158Y-11274960D02*
X17557206Y-11284484D01*
X17557206Y-11284484D02*
X17595301Y-11284484D01*
X17595301Y-11284484D02*
X17614349Y-11274960D01*
X17614349Y-11274960D02*
X17623873Y-11255912D01*
X17623873Y-11255912D02*
X17623873Y-11246388D01*
X17623873Y-11246388D02*
X17614349Y-11227341D01*
X17614349Y-11227341D02*
X17595301Y-11217817D01*
X17595301Y-11217817D02*
X17566730Y-11217817D01*
X17566730Y-11217817D02*
X17547682Y-11208293D01*
X17547682Y-11208293D02*
X17538158Y-11189246D01*
X17538158Y-11189246D02*
X17538158Y-11179722D01*
X17538158Y-11179722D02*
X17547682Y-11160674D01*
X17547682Y-11160674D02*
X17566730Y-11151150D01*
X17566730Y-11151150D02*
X17595301Y-11151150D01*
X17595301Y-11151150D02*
X17614349Y-11160674D01*
X17690539Y-11360674D02*
X17700063Y-11351150D01*
X17700063Y-11351150D02*
X17719111Y-11322579D01*
X17719111Y-11322579D02*
X17728634Y-11303531D01*
X17728634Y-11303531D02*
X17738158Y-11274960D01*
X17738158Y-11274960D02*
X17747682Y-11227341D01*
X17747682Y-11227341D02*
X17747682Y-11189246D01*
X17747682Y-11189246D02*
X17738158Y-11141627D01*
X17738158Y-11141627D02*
X17728634Y-11113055D01*
X17728634Y-11113055D02*
X17719111Y-11094008D01*
X17719111Y-11094008D02*
X17700063Y-11065436D01*
X17700063Y-11065436D02*
X17690539Y-11055912D01*
D13*
X12707866Y-11498366D02*
X12707866Y-11415634D01*
X12625134Y-11415634D01*
X12625134Y-11498366D01*
X12707866Y-11498366D01*
D11*
X13090539Y-11548484D02*
X12976253Y-11548484D01*
X13033396Y-11548484D02*
X13033396Y-11348484D01*
X13033396Y-11348484D02*
X13014348Y-11377055D01*
X13014348Y-11377055D02*
X12995301Y-11396103D01*
X12995301Y-11396103D02*
X12976253Y-11405627D01*
X13176253Y-11529436D02*
X13185777Y-11538960D01*
X13185777Y-11538960D02*
X13176253Y-11548484D01*
X13176253Y-11548484D02*
X13166729Y-11538960D01*
X13166729Y-11538960D02*
X13176253Y-11529436D01*
X13176253Y-11529436D02*
X13176253Y-11548484D01*
X13376253Y-11548484D02*
X13261967Y-11548484D01*
X13319110Y-11548484D02*
X13319110Y-11348484D01*
X13319110Y-11348484D02*
X13300062Y-11377055D01*
X13300062Y-11377055D02*
X13281015Y-11396103D01*
X13281015Y-11396103D02*
X13261967Y-11405627D01*
X13442920Y-11348484D02*
X13576253Y-11348484D01*
X13576253Y-11348484D02*
X13490539Y-11548484D01*
X13690539Y-11348484D02*
X13709586Y-11348484D01*
X13709586Y-11348484D02*
X13728634Y-11358008D01*
X13728634Y-11358008D02*
X13738158Y-11367531D01*
X13738158Y-11367531D02*
X13747682Y-11386579D01*
X13747682Y-11386579D02*
X13757205Y-11424674D01*
X13757205Y-11424674D02*
X13757205Y-11472293D01*
X13757205Y-11472293D02*
X13747682Y-11510388D01*
X13747682Y-11510388D02*
X13738158Y-11529436D01*
X13738158Y-11529436D02*
X13728634Y-11538960D01*
X13728634Y-11538960D02*
X13709586Y-11548484D01*
X13709586Y-11548484D02*
X13690539Y-11548484D01*
X13690539Y-11548484D02*
X13671491Y-11538960D01*
X13671491Y-11538960D02*
X13661967Y-11529436D01*
X13661967Y-11529436D02*
X13652443Y-11510388D01*
X13652443Y-11510388D02*
X13642920Y-11472293D01*
X13642920Y-11472293D02*
X13642920Y-11424674D01*
X13642920Y-11424674D02*
X13652443Y-11386579D01*
X13652443Y-11386579D02*
X13661967Y-11367531D01*
X13661967Y-11367531D02*
X13671491Y-11358008D01*
X13671491Y-11358008D02*
X13690539Y-11348484D01*
X13842920Y-11548484D02*
X13842920Y-11415150D01*
X13842920Y-11434198D02*
X13852443Y-11424674D01*
X13852443Y-11424674D02*
X13871491Y-11415150D01*
X13871491Y-11415150D02*
X13900063Y-11415150D01*
X13900063Y-11415150D02*
X13919110Y-11424674D01*
X13919110Y-11424674D02*
X13928634Y-11443722D01*
X13928634Y-11443722D02*
X13928634Y-11548484D01*
X13928634Y-11443722D02*
X13938158Y-11424674D01*
X13938158Y-11424674D02*
X13957205Y-11415150D01*
X13957205Y-11415150D02*
X13985777Y-11415150D01*
X13985777Y-11415150D02*
X14004824Y-11424674D01*
X14004824Y-11424674D02*
X14014348Y-11443722D01*
X14014348Y-11443722D02*
X14014348Y-11548484D01*
X14109586Y-11548484D02*
X14109586Y-11415150D01*
X14109586Y-11434198D02*
X14119110Y-11424674D01*
X14119110Y-11424674D02*
X14138158Y-11415150D01*
X14138158Y-11415150D02*
X14166729Y-11415150D01*
X14166729Y-11415150D02*
X14185777Y-11424674D01*
X14185777Y-11424674D02*
X14195301Y-11443722D01*
X14195301Y-11443722D02*
X14195301Y-11548484D01*
X14195301Y-11443722D02*
X14204824Y-11424674D01*
X14204824Y-11424674D02*
X14223872Y-11415150D01*
X14223872Y-11415150D02*
X14252443Y-11415150D01*
X14252443Y-11415150D02*
X14271491Y-11424674D01*
X14271491Y-11424674D02*
X14281015Y-11443722D01*
X14281015Y-11443722D02*
X14281015Y-11548484D01*
X14671491Y-11338960D02*
X14500063Y-11596103D01*
X14928634Y-11348484D02*
X14947682Y-11348484D01*
X14947682Y-11348484D02*
X14966729Y-11358008D01*
X14966729Y-11358008D02*
X14976253Y-11367531D01*
X14976253Y-11367531D02*
X14985777Y-11386579D01*
X14985777Y-11386579D02*
X14995301Y-11424674D01*
X14995301Y-11424674D02*
X14995301Y-11472293D01*
X14995301Y-11472293D02*
X14985777Y-11510388D01*
X14985777Y-11510388D02*
X14976253Y-11529436D01*
X14976253Y-11529436D02*
X14966729Y-11538960D01*
X14966729Y-11538960D02*
X14947682Y-11548484D01*
X14947682Y-11548484D02*
X14928634Y-11548484D01*
X14928634Y-11548484D02*
X14909586Y-11538960D01*
X14909586Y-11538960D02*
X14900063Y-11529436D01*
X14900063Y-11529436D02*
X14890539Y-11510388D01*
X14890539Y-11510388D02*
X14881015Y-11472293D01*
X14881015Y-11472293D02*
X14881015Y-11424674D01*
X14881015Y-11424674D02*
X14890539Y-11386579D01*
X14890539Y-11386579D02*
X14900063Y-11367531D01*
X14900063Y-11367531D02*
X14909586Y-11358008D01*
X14909586Y-11358008D02*
X14928634Y-11348484D01*
X15081015Y-11529436D02*
X15090539Y-11538960D01*
X15090539Y-11538960D02*
X15081015Y-11548484D01*
X15081015Y-11548484D02*
X15071491Y-11538960D01*
X15071491Y-11538960D02*
X15081015Y-11529436D01*
X15081015Y-11529436D02*
X15081015Y-11548484D01*
X15214348Y-11348484D02*
X15233396Y-11348484D01*
X15233396Y-11348484D02*
X15252444Y-11358008D01*
X15252444Y-11358008D02*
X15261967Y-11367531D01*
X15261967Y-11367531D02*
X15271491Y-11386579D01*
X15271491Y-11386579D02*
X15281015Y-11424674D01*
X15281015Y-11424674D02*
X15281015Y-11472293D01*
X15281015Y-11472293D02*
X15271491Y-11510388D01*
X15271491Y-11510388D02*
X15261967Y-11529436D01*
X15261967Y-11529436D02*
X15252444Y-11538960D01*
X15252444Y-11538960D02*
X15233396Y-11548484D01*
X15233396Y-11548484D02*
X15214348Y-11548484D01*
X15214348Y-11548484D02*
X15195301Y-11538960D01*
X15195301Y-11538960D02*
X15185777Y-11529436D01*
X15185777Y-11529436D02*
X15176253Y-11510388D01*
X15176253Y-11510388D02*
X15166729Y-11472293D01*
X15166729Y-11472293D02*
X15166729Y-11424674D01*
X15166729Y-11424674D02*
X15176253Y-11386579D01*
X15176253Y-11386579D02*
X15185777Y-11367531D01*
X15185777Y-11367531D02*
X15195301Y-11358008D01*
X15195301Y-11358008D02*
X15214348Y-11348484D01*
X15452444Y-11415150D02*
X15452444Y-11548484D01*
X15404825Y-11338960D02*
X15357206Y-11481817D01*
X15357206Y-11481817D02*
X15481015Y-11481817D01*
X15642920Y-11348484D02*
X15604825Y-11348484D01*
X15604825Y-11348484D02*
X15585777Y-11358008D01*
X15585777Y-11358008D02*
X15576253Y-11367531D01*
X15576253Y-11367531D02*
X15557206Y-11396103D01*
X15557206Y-11396103D02*
X15547682Y-11434198D01*
X15547682Y-11434198D02*
X15547682Y-11510388D01*
X15547682Y-11510388D02*
X15557206Y-11529436D01*
X15557206Y-11529436D02*
X15566729Y-11538960D01*
X15566729Y-11538960D02*
X15585777Y-11548484D01*
X15585777Y-11548484D02*
X15623872Y-11548484D01*
X15623872Y-11548484D02*
X15642920Y-11538960D01*
X15642920Y-11538960D02*
X15652444Y-11529436D01*
X15652444Y-11529436D02*
X15661967Y-11510388D01*
X15661967Y-11510388D02*
X15661967Y-11462769D01*
X15661967Y-11462769D02*
X15652444Y-11443722D01*
X15652444Y-11443722D02*
X15642920Y-11434198D01*
X15642920Y-11434198D02*
X15623872Y-11424674D01*
X15623872Y-11424674D02*
X15585777Y-11424674D01*
X15585777Y-11424674D02*
X15566729Y-11434198D01*
X15566729Y-11434198D02*
X15557206Y-11443722D01*
X15557206Y-11443722D02*
X15547682Y-11462769D01*
X15852444Y-11548484D02*
X15738158Y-11548484D01*
X15795301Y-11548484D02*
X15795301Y-11348484D01*
X15795301Y-11348484D02*
X15776253Y-11377055D01*
X15776253Y-11377055D02*
X15757206Y-11396103D01*
X15757206Y-11396103D02*
X15738158Y-11405627D01*
X15928634Y-11348484D02*
X15928634Y-11386579D01*
X16004825Y-11348484D02*
X16004825Y-11386579D01*
X16300063Y-11624674D02*
X16290539Y-11615150D01*
X16290539Y-11615150D02*
X16271491Y-11586579D01*
X16271491Y-11586579D02*
X16261968Y-11567531D01*
X16261968Y-11567531D02*
X16252444Y-11538960D01*
X16252444Y-11538960D02*
X16242920Y-11491341D01*
X16242920Y-11491341D02*
X16242920Y-11453246D01*
X16242920Y-11453246D02*
X16252444Y-11405627D01*
X16252444Y-11405627D02*
X16261968Y-11377055D01*
X16261968Y-11377055D02*
X16271491Y-11358008D01*
X16271491Y-11358008D02*
X16290539Y-11329436D01*
X16290539Y-11329436D02*
X16300063Y-11319912D01*
X16461968Y-11415150D02*
X16461968Y-11548484D01*
X16414348Y-11338960D02*
X16366729Y-11481817D01*
X16366729Y-11481817D02*
X16490539Y-11481817D01*
X16719110Y-11548484D02*
X16719110Y-11348484D01*
X16804825Y-11548484D02*
X16804825Y-11443722D01*
X16804825Y-11443722D02*
X16795301Y-11424674D01*
X16795301Y-11424674D02*
X16776253Y-11415150D01*
X16776253Y-11415150D02*
X16747682Y-11415150D01*
X16747682Y-11415150D02*
X16728634Y-11424674D01*
X16728634Y-11424674D02*
X16719110Y-11434198D01*
X16928634Y-11548484D02*
X16909587Y-11538960D01*
X16909587Y-11538960D02*
X16900063Y-11529436D01*
X16900063Y-11529436D02*
X16890539Y-11510388D01*
X16890539Y-11510388D02*
X16890539Y-11453246D01*
X16890539Y-11453246D02*
X16900063Y-11434198D01*
X16900063Y-11434198D02*
X16909587Y-11424674D01*
X16909587Y-11424674D02*
X16928634Y-11415150D01*
X16928634Y-11415150D02*
X16957206Y-11415150D01*
X16957206Y-11415150D02*
X16976253Y-11424674D01*
X16976253Y-11424674D02*
X16985777Y-11434198D01*
X16985777Y-11434198D02*
X16995301Y-11453246D01*
X16995301Y-11453246D02*
X16995301Y-11510388D01*
X16995301Y-11510388D02*
X16985777Y-11529436D01*
X16985777Y-11529436D02*
X16976253Y-11538960D01*
X16976253Y-11538960D02*
X16957206Y-11548484D01*
X16957206Y-11548484D02*
X16928634Y-11548484D01*
X17109587Y-11548484D02*
X17090539Y-11538960D01*
X17090539Y-11538960D02*
X17081015Y-11519912D01*
X17081015Y-11519912D02*
X17081015Y-11348484D01*
X17261968Y-11538960D02*
X17242920Y-11548484D01*
X17242920Y-11548484D02*
X17204825Y-11548484D01*
X17204825Y-11548484D02*
X17185777Y-11538960D01*
X17185777Y-11538960D02*
X17176253Y-11519912D01*
X17176253Y-11519912D02*
X17176253Y-11443722D01*
X17176253Y-11443722D02*
X17185777Y-11424674D01*
X17185777Y-11424674D02*
X17204825Y-11415150D01*
X17204825Y-11415150D02*
X17242920Y-11415150D01*
X17242920Y-11415150D02*
X17261968Y-11424674D01*
X17261968Y-11424674D02*
X17271492Y-11443722D01*
X17271492Y-11443722D02*
X17271492Y-11462769D01*
X17271492Y-11462769D02*
X17176253Y-11481817D01*
X17347682Y-11538960D02*
X17366730Y-11548484D01*
X17366730Y-11548484D02*
X17404825Y-11548484D01*
X17404825Y-11548484D02*
X17423873Y-11538960D01*
X17423873Y-11538960D02*
X17433396Y-11519912D01*
X17433396Y-11519912D02*
X17433396Y-11510388D01*
X17433396Y-11510388D02*
X17423873Y-11491341D01*
X17423873Y-11491341D02*
X17404825Y-11481817D01*
X17404825Y-11481817D02*
X17376253Y-11481817D01*
X17376253Y-11481817D02*
X17357206Y-11472293D01*
X17357206Y-11472293D02*
X17347682Y-11453246D01*
X17347682Y-11453246D02*
X17347682Y-11443722D01*
X17347682Y-11443722D02*
X17357206Y-11424674D01*
X17357206Y-11424674D02*
X17376253Y-11415150D01*
X17376253Y-11415150D02*
X17404825Y-11415150D01*
X17404825Y-11415150D02*
X17423873Y-11424674D01*
X17500063Y-11624674D02*
X17509587Y-11615150D01*
X17509587Y-11615150D02*
X17528634Y-11586579D01*
X17528634Y-11586579D02*
X17538158Y-11567531D01*
X17538158Y-11567531D02*
X17547682Y-11538960D01*
X17547682Y-11538960D02*
X17557206Y-11491341D01*
X17557206Y-11491341D02*
X17557206Y-11453246D01*
X17557206Y-11453246D02*
X17547682Y-11405627D01*
X17547682Y-11405627D02*
X17538158Y-11377055D01*
X17538158Y-11377055D02*
X17528634Y-11358008D01*
X17528634Y-11358008D02*
X17509587Y-11329436D01*
X17509587Y-11329436D02*
X17500063Y-11319912D01*
D14*
X12655000Y-11791000D02*
X12725000Y-11721000D01*
X12655000Y-11651000D01*
X12585000Y-11721000D01*
X12655000Y-11791000D01*
D11*
X13090539Y-11812484D02*
X12976253Y-11812484D01*
X13033396Y-11812484D02*
X13033396Y-11612484D01*
X13033396Y-11612484D02*
X13014348Y-11641055D01*
X13014348Y-11641055D02*
X12995301Y-11660103D01*
X12995301Y-11660103D02*
X12976253Y-11669627D01*
X13176253Y-11793436D02*
X13185777Y-11802960D01*
X13185777Y-11802960D02*
X13176253Y-11812484D01*
X13176253Y-11812484D02*
X13166729Y-11802960D01*
X13166729Y-11802960D02*
X13176253Y-11793436D01*
X13176253Y-11793436D02*
X13176253Y-11812484D01*
X13357205Y-11679150D02*
X13357205Y-11812484D01*
X13309586Y-11602960D02*
X13261967Y-11745817D01*
X13261967Y-11745817D02*
X13385777Y-11745817D01*
X13500062Y-11612484D02*
X13519110Y-11612484D01*
X13519110Y-11612484D02*
X13538158Y-11622008D01*
X13538158Y-11622008D02*
X13547682Y-11631531D01*
X13547682Y-11631531D02*
X13557205Y-11650579D01*
X13557205Y-11650579D02*
X13566729Y-11688674D01*
X13566729Y-11688674D02*
X13566729Y-11736293D01*
X13566729Y-11736293D02*
X13557205Y-11774388D01*
X13557205Y-11774388D02*
X13547682Y-11793436D01*
X13547682Y-11793436D02*
X13538158Y-11802960D01*
X13538158Y-11802960D02*
X13519110Y-11812484D01*
X13519110Y-11812484D02*
X13500062Y-11812484D01*
X13500062Y-11812484D02*
X13481015Y-11802960D01*
X13481015Y-11802960D02*
X13471491Y-11793436D01*
X13471491Y-11793436D02*
X13461967Y-11774388D01*
X13461967Y-11774388D02*
X13452443Y-11736293D01*
X13452443Y-11736293D02*
X13452443Y-11688674D01*
X13452443Y-11688674D02*
X13461967Y-11650579D01*
X13461967Y-11650579D02*
X13471491Y-11631531D01*
X13471491Y-11631531D02*
X13481015Y-11622008D01*
X13481015Y-11622008D02*
X13500062Y-11612484D01*
X13690539Y-11612484D02*
X13709586Y-11612484D01*
X13709586Y-11612484D02*
X13728634Y-11622008D01*
X13728634Y-11622008D02*
X13738158Y-11631531D01*
X13738158Y-11631531D02*
X13747682Y-11650579D01*
X13747682Y-11650579D02*
X13757205Y-11688674D01*
X13757205Y-11688674D02*
X13757205Y-11736293D01*
X13757205Y-11736293D02*
X13747682Y-11774388D01*
X13747682Y-11774388D02*
X13738158Y-11793436D01*
X13738158Y-11793436D02*
X13728634Y-11802960D01*
X13728634Y-11802960D02*
X13709586Y-11812484D01*
X13709586Y-11812484D02*
X13690539Y-11812484D01*
X13690539Y-11812484D02*
X13671491Y-11802960D01*
X13671491Y-11802960D02*
X13661967Y-11793436D01*
X13661967Y-11793436D02*
X13652443Y-11774388D01*
X13652443Y-11774388D02*
X13642920Y-11736293D01*
X13642920Y-11736293D02*
X13642920Y-11688674D01*
X13642920Y-11688674D02*
X13652443Y-11650579D01*
X13652443Y-11650579D02*
X13661967Y-11631531D01*
X13661967Y-11631531D02*
X13671491Y-11622008D01*
X13671491Y-11622008D02*
X13690539Y-11612484D01*
X13842920Y-11812484D02*
X13842920Y-11679150D01*
X13842920Y-11698198D02*
X13852443Y-11688674D01*
X13852443Y-11688674D02*
X13871491Y-11679150D01*
X13871491Y-11679150D02*
X13900063Y-11679150D01*
X13900063Y-11679150D02*
X13919110Y-11688674D01*
X13919110Y-11688674D02*
X13928634Y-11707722D01*
X13928634Y-11707722D02*
X13928634Y-11812484D01*
X13928634Y-11707722D02*
X13938158Y-11688674D01*
X13938158Y-11688674D02*
X13957205Y-11679150D01*
X13957205Y-11679150D02*
X13985777Y-11679150D01*
X13985777Y-11679150D02*
X14004824Y-11688674D01*
X14004824Y-11688674D02*
X14014348Y-11707722D01*
X14014348Y-11707722D02*
X14014348Y-11812484D01*
X14109586Y-11812484D02*
X14109586Y-11679150D01*
X14109586Y-11698198D02*
X14119110Y-11688674D01*
X14119110Y-11688674D02*
X14138158Y-11679150D01*
X14138158Y-11679150D02*
X14166729Y-11679150D01*
X14166729Y-11679150D02*
X14185777Y-11688674D01*
X14185777Y-11688674D02*
X14195301Y-11707722D01*
X14195301Y-11707722D02*
X14195301Y-11812484D01*
X14195301Y-11707722D02*
X14204824Y-11688674D01*
X14204824Y-11688674D02*
X14223872Y-11679150D01*
X14223872Y-11679150D02*
X14252443Y-11679150D01*
X14252443Y-11679150D02*
X14271491Y-11688674D01*
X14271491Y-11688674D02*
X14281015Y-11707722D01*
X14281015Y-11707722D02*
X14281015Y-11812484D01*
X14671491Y-11602960D02*
X14500063Y-11860103D01*
X14928634Y-11612484D02*
X14947682Y-11612484D01*
X14947682Y-11612484D02*
X14966729Y-11622008D01*
X14966729Y-11622008D02*
X14976253Y-11631531D01*
X14976253Y-11631531D02*
X14985777Y-11650579D01*
X14985777Y-11650579D02*
X14995301Y-11688674D01*
X14995301Y-11688674D02*
X14995301Y-11736293D01*
X14995301Y-11736293D02*
X14985777Y-11774388D01*
X14985777Y-11774388D02*
X14976253Y-11793436D01*
X14976253Y-11793436D02*
X14966729Y-11802960D01*
X14966729Y-11802960D02*
X14947682Y-11812484D01*
X14947682Y-11812484D02*
X14928634Y-11812484D01*
X14928634Y-11812484D02*
X14909586Y-11802960D01*
X14909586Y-11802960D02*
X14900063Y-11793436D01*
X14900063Y-11793436D02*
X14890539Y-11774388D01*
X14890539Y-11774388D02*
X14881015Y-11736293D01*
X14881015Y-11736293D02*
X14881015Y-11688674D01*
X14881015Y-11688674D02*
X14890539Y-11650579D01*
X14890539Y-11650579D02*
X14900063Y-11631531D01*
X14900063Y-11631531D02*
X14909586Y-11622008D01*
X14909586Y-11622008D02*
X14928634Y-11612484D01*
X15081015Y-11793436D02*
X15090539Y-11802960D01*
X15090539Y-11802960D02*
X15081015Y-11812484D01*
X15081015Y-11812484D02*
X15071491Y-11802960D01*
X15071491Y-11802960D02*
X15081015Y-11793436D01*
X15081015Y-11793436D02*
X15081015Y-11812484D01*
X15214348Y-11612484D02*
X15233396Y-11612484D01*
X15233396Y-11612484D02*
X15252444Y-11622008D01*
X15252444Y-11622008D02*
X15261967Y-11631531D01*
X15261967Y-11631531D02*
X15271491Y-11650579D01*
X15271491Y-11650579D02*
X15281015Y-11688674D01*
X15281015Y-11688674D02*
X15281015Y-11736293D01*
X15281015Y-11736293D02*
X15271491Y-11774388D01*
X15271491Y-11774388D02*
X15261967Y-11793436D01*
X15261967Y-11793436D02*
X15252444Y-11802960D01*
X15252444Y-11802960D02*
X15233396Y-11812484D01*
X15233396Y-11812484D02*
X15214348Y-11812484D01*
X15214348Y-11812484D02*
X15195301Y-11802960D01*
X15195301Y-11802960D02*
X15185777Y-11793436D01*
X15185777Y-11793436D02*
X15176253Y-11774388D01*
X15176253Y-11774388D02*
X15166729Y-11736293D01*
X15166729Y-11736293D02*
X15166729Y-11688674D01*
X15166729Y-11688674D02*
X15176253Y-11650579D01*
X15176253Y-11650579D02*
X15185777Y-11631531D01*
X15185777Y-11631531D02*
X15195301Y-11622008D01*
X15195301Y-11622008D02*
X15214348Y-11612484D01*
X15461967Y-11612484D02*
X15366729Y-11612484D01*
X15366729Y-11612484D02*
X15357206Y-11707722D01*
X15357206Y-11707722D02*
X15366729Y-11698198D01*
X15366729Y-11698198D02*
X15385777Y-11688674D01*
X15385777Y-11688674D02*
X15433396Y-11688674D01*
X15433396Y-11688674D02*
X15452444Y-11698198D01*
X15452444Y-11698198D02*
X15461967Y-11707722D01*
X15461967Y-11707722D02*
X15471491Y-11726769D01*
X15471491Y-11726769D02*
X15471491Y-11774388D01*
X15471491Y-11774388D02*
X15461967Y-11793436D01*
X15461967Y-11793436D02*
X15452444Y-11802960D01*
X15452444Y-11802960D02*
X15433396Y-11812484D01*
X15433396Y-11812484D02*
X15385777Y-11812484D01*
X15385777Y-11812484D02*
X15366729Y-11802960D01*
X15366729Y-11802960D02*
X15357206Y-11793436D01*
X15652444Y-11612484D02*
X15557206Y-11612484D01*
X15557206Y-11612484D02*
X15547682Y-11707722D01*
X15547682Y-11707722D02*
X15557206Y-11698198D01*
X15557206Y-11698198D02*
X15576253Y-11688674D01*
X15576253Y-11688674D02*
X15623872Y-11688674D01*
X15623872Y-11688674D02*
X15642920Y-11698198D01*
X15642920Y-11698198D02*
X15652444Y-11707722D01*
X15652444Y-11707722D02*
X15661967Y-11726769D01*
X15661967Y-11726769D02*
X15661967Y-11774388D01*
X15661967Y-11774388D02*
X15652444Y-11793436D01*
X15652444Y-11793436D02*
X15642920Y-11802960D01*
X15642920Y-11802960D02*
X15623872Y-11812484D01*
X15623872Y-11812484D02*
X15576253Y-11812484D01*
X15576253Y-11812484D02*
X15557206Y-11802960D01*
X15557206Y-11802960D02*
X15547682Y-11793436D01*
X15852444Y-11812484D02*
X15738158Y-11812484D01*
X15795301Y-11812484D02*
X15795301Y-11612484D01*
X15795301Y-11612484D02*
X15776253Y-11641055D01*
X15776253Y-11641055D02*
X15757206Y-11660103D01*
X15757206Y-11660103D02*
X15738158Y-11669627D01*
X15928634Y-11612484D02*
X15928634Y-11650579D01*
X16004825Y-11612484D02*
X16004825Y-11650579D01*
X16300063Y-11888674D02*
X16290539Y-11879150D01*
X16290539Y-11879150D02*
X16271491Y-11850579D01*
X16271491Y-11850579D02*
X16261968Y-11831531D01*
X16261968Y-11831531D02*
X16252444Y-11802960D01*
X16252444Y-11802960D02*
X16242920Y-11755341D01*
X16242920Y-11755341D02*
X16242920Y-11717246D01*
X16242920Y-11717246D02*
X16252444Y-11669627D01*
X16252444Y-11669627D02*
X16261968Y-11641055D01*
X16261968Y-11641055D02*
X16271491Y-11622008D01*
X16271491Y-11622008D02*
X16290539Y-11593436D01*
X16290539Y-11593436D02*
X16300063Y-11583912D01*
X16481015Y-11812484D02*
X16366729Y-11812484D01*
X16423872Y-11812484D02*
X16423872Y-11612484D01*
X16423872Y-11612484D02*
X16404825Y-11641055D01*
X16404825Y-11641055D02*
X16385777Y-11660103D01*
X16385777Y-11660103D02*
X16366729Y-11669627D01*
X16557206Y-11631531D02*
X16566729Y-11622008D01*
X16566729Y-11622008D02*
X16585777Y-11612484D01*
X16585777Y-11612484D02*
X16633396Y-11612484D01*
X16633396Y-11612484D02*
X16652444Y-11622008D01*
X16652444Y-11622008D02*
X16661968Y-11631531D01*
X16661968Y-11631531D02*
X16671491Y-11650579D01*
X16671491Y-11650579D02*
X16671491Y-11669627D01*
X16671491Y-11669627D02*
X16661968Y-11698198D01*
X16661968Y-11698198D02*
X16547682Y-11812484D01*
X16547682Y-11812484D02*
X16671491Y-11812484D01*
X16909587Y-11812484D02*
X16909587Y-11612484D01*
X16995301Y-11812484D02*
X16995301Y-11707722D01*
X16995301Y-11707722D02*
X16985777Y-11688674D01*
X16985777Y-11688674D02*
X16966730Y-11679150D01*
X16966730Y-11679150D02*
X16938158Y-11679150D01*
X16938158Y-11679150D02*
X16919111Y-11688674D01*
X16919111Y-11688674D02*
X16909587Y-11698198D01*
X17119111Y-11812484D02*
X17100063Y-11802960D01*
X17100063Y-11802960D02*
X17090539Y-11793436D01*
X17090539Y-11793436D02*
X17081015Y-11774388D01*
X17081015Y-11774388D02*
X17081015Y-11717246D01*
X17081015Y-11717246D02*
X17090539Y-11698198D01*
X17090539Y-11698198D02*
X17100063Y-11688674D01*
X17100063Y-11688674D02*
X17119111Y-11679150D01*
X17119111Y-11679150D02*
X17147682Y-11679150D01*
X17147682Y-11679150D02*
X17166730Y-11688674D01*
X17166730Y-11688674D02*
X17176253Y-11698198D01*
X17176253Y-11698198D02*
X17185777Y-11717246D01*
X17185777Y-11717246D02*
X17185777Y-11774388D01*
X17185777Y-11774388D02*
X17176253Y-11793436D01*
X17176253Y-11793436D02*
X17166730Y-11802960D01*
X17166730Y-11802960D02*
X17147682Y-11812484D01*
X17147682Y-11812484D02*
X17119111Y-11812484D01*
X17300063Y-11812484D02*
X17281015Y-11802960D01*
X17281015Y-11802960D02*
X17271492Y-11783912D01*
X17271492Y-11783912D02*
X17271492Y-11612484D01*
X17452444Y-11802960D02*
X17433396Y-11812484D01*
X17433396Y-11812484D02*
X17395301Y-11812484D01*
X17395301Y-11812484D02*
X17376253Y-11802960D01*
X17376253Y-11802960D02*
X17366730Y-11783912D01*
X17366730Y-11783912D02*
X17366730Y-11707722D01*
X17366730Y-11707722D02*
X17376253Y-11688674D01*
X17376253Y-11688674D02*
X17395301Y-11679150D01*
X17395301Y-11679150D02*
X17433396Y-11679150D01*
X17433396Y-11679150D02*
X17452444Y-11688674D01*
X17452444Y-11688674D02*
X17461968Y-11707722D01*
X17461968Y-11707722D02*
X17461968Y-11726769D01*
X17461968Y-11726769D02*
X17366730Y-11745817D01*
X17538158Y-11802960D02*
X17557206Y-11812484D01*
X17557206Y-11812484D02*
X17595301Y-11812484D01*
X17595301Y-11812484D02*
X17614349Y-11802960D01*
X17614349Y-11802960D02*
X17623873Y-11783912D01*
X17623873Y-11783912D02*
X17623873Y-11774388D01*
X17623873Y-11774388D02*
X17614349Y-11755341D01*
X17614349Y-11755341D02*
X17595301Y-11745817D01*
X17595301Y-11745817D02*
X17566730Y-11745817D01*
X17566730Y-11745817D02*
X17547682Y-11736293D01*
X17547682Y-11736293D02*
X17538158Y-11717246D01*
X17538158Y-11717246D02*
X17538158Y-11707722D01*
X17538158Y-11707722D02*
X17547682Y-11688674D01*
X17547682Y-11688674D02*
X17566730Y-11679150D01*
X17566730Y-11679150D02*
X17595301Y-11679150D01*
X17595301Y-11679150D02*
X17614349Y-11688674D01*
X17690539Y-11888674D02*
X17700063Y-11879150D01*
X17700063Y-11879150D02*
X17719111Y-11850579D01*
X17719111Y-11850579D02*
X17728634Y-11831531D01*
X17728634Y-11831531D02*
X17738158Y-11802960D01*
X17738158Y-11802960D02*
X17747682Y-11755341D01*
X17747682Y-11755341D02*
X17747682Y-11717246D01*
X17747682Y-11717246D02*
X17738158Y-11669627D01*
X17738158Y-11669627D02*
X17728634Y-11641055D01*
X17728634Y-11641055D02*
X17719111Y-11622008D01*
X17719111Y-11622008D02*
X17700063Y-11593436D01*
X17700063Y-11593436D02*
X17690539Y-11583912D01*
M02*
