G04 #@! TF.GenerationSoftware,KiCad,Pcbnew,8.0.1*
G04 #@! TF.CreationDate,2024-10-03T11:02:56+02:00*
G04 #@! TF.ProjectId,Verteiler,56657274-6569-46c6-9572-2e6b69636164,rev?*
G04 #@! TF.SameCoordinates,Original*
G04 #@! TF.FileFunction,Soldermask,Bot*
G04 #@! TF.FilePolarity,Negative*
%FSLAX46Y46*%
G04 Gerber Fmt 4.6, Leading zero omitted, Abs format (unit mm)*
G04 Created by KiCad (PCBNEW 8.0.1) date 2024-10-03 11:02:56*
%MOMM*%
%LPD*%
G01*
G04 APERTURE LIST*
G04 Aperture macros list*
%AMRoundRect*
0 Rectangle with rounded corners*
0 $1 Rounding radius*
0 $2 $3 $4 $5 $6 $7 $8 $9 X,Y pos of 4 corners*
0 Add a 4 corners polygon primitive as box body*
4,1,4,$2,$3,$4,$5,$6,$7,$8,$9,$2,$3,0*
0 Add four circle primitives for the rounded corners*
1,1,$1+$1,$2,$3*
1,1,$1+$1,$4,$5*
1,1,$1+$1,$6,$7*
1,1,$1+$1,$8,$9*
0 Add four rect primitives between the rounded corners*
20,1,$1+$1,$2,$3,$4,$5,0*
20,1,$1+$1,$4,$5,$6,$7,0*
20,1,$1+$1,$6,$7,$8,$9,0*
20,1,$1+$1,$8,$9,$2,$3,0*%
G04 Aperture macros list end*
%ADD10R,1.900000X1.900000*%
%ADD11C,1.900000*%
%ADD12RoundRect,0.249999X1.550001X-0.790001X1.550001X0.790001X-1.550001X0.790001X-1.550001X-0.790001X0*%
%ADD13O,3.600000X2.080000*%
%ADD14C,3.200000*%
%ADD15RoundRect,0.200000X-0.450000X0.200000X-0.450000X-0.200000X0.450000X-0.200000X0.450000X0.200000X0*%
%ADD16O,1.300000X0.800000*%
%ADD17RoundRect,0.550000X-0.550000X0.550000X-0.550000X-0.550000X0.550000X-0.550000X0.550000X0.550000X0*%
%ADD18C,2.200000*%
%ADD19C,0.600000*%
G04 APERTURE END LIST*
D10*
X137590000Y-45975000D03*
D11*
X140130000Y-45975000D03*
X147750000Y-45975000D03*
X155370000Y-45975000D03*
D10*
X137590000Y-33975000D03*
D11*
X140130000Y-33975000D03*
X147750000Y-33975000D03*
X155370000Y-33975000D03*
D12*
X167072500Y-35010000D03*
D13*
X167072500Y-29930000D03*
D12*
X167072500Y-80460000D03*
D13*
X167072500Y-75380000D03*
X167072500Y-70300000D03*
X167072500Y-65220000D03*
X167072500Y-60140000D03*
X167072500Y-55060000D03*
X167072500Y-49980000D03*
X167072500Y-44900000D03*
D14*
X132300000Y-29950000D03*
D10*
X137590000Y-89925000D03*
D11*
X140130000Y-89925000D03*
X147750000Y-89925000D03*
X155370000Y-89925000D03*
D14*
X132300000Y-95200000D03*
D15*
X132830000Y-61775000D03*
D16*
X132830000Y-63025000D03*
X132830000Y-64275000D03*
X132830000Y-65525000D03*
D12*
X167072500Y-95590000D03*
D13*
X167072500Y-90510000D03*
D17*
X156779600Y-53287200D03*
X151779600Y-53287200D03*
D18*
X156779600Y-72087200D03*
X151779600Y-72087200D03*
D10*
X137590000Y-77925000D03*
D11*
X140130000Y-77925000D03*
X147750000Y-77925000D03*
X155370000Y-77925000D03*
D19*
X135080000Y-71510000D03*
X132860000Y-82510000D03*
X132940000Y-49150000D03*
X136220000Y-59690000D03*
X129945000Y-63025000D03*
X128890000Y-65730000D03*
X131360000Y-85770000D03*
X133800000Y-42950000D03*
X131280000Y-52875000D03*
X131280000Y-73825000D03*
M02*
