G04 #@! TF.GenerationSoftware,KiCad,Pcbnew,8.0.1*
G04 #@! TF.CreationDate,2024-10-03T11:02:56+02:00*
G04 #@! TF.ProjectId,Verteiler,56657274-6569-46c6-9572-2e6b69636164,rev?*
G04 #@! TF.SameCoordinates,Original*
G04 #@! TF.FileFunction,Paste,Top*
G04 #@! TF.FilePolarity,Positive*
%FSLAX46Y46*%
G04 Gerber Fmt 4.6, Leading zero omitted, Abs format (unit mm)*
G04 Created by KiCad (PCBNEW 8.0.1) date 2024-10-03 11:02:56*
%MOMM*%
%LPD*%
G01*
G04 APERTURE LIST*
G04 Aperture macros list*
%AMRoundRect*
0 Rectangle with rounded corners*
0 $1 Rounding radius*
0 $2 $3 $4 $5 $6 $7 $8 $9 X,Y pos of 4 corners*
0 Add a 4 corners polygon primitive as box body*
4,1,4,$2,$3,$4,$5,$6,$7,$8,$9,$2,$3,0*
0 Add four circle primitives for the rounded corners*
1,1,$1+$1,$2,$3*
1,1,$1+$1,$4,$5*
1,1,$1+$1,$6,$7*
1,1,$1+$1,$8,$9*
0 Add four rect primitives between the rounded corners*
20,1,$1+$1,$2,$3,$4,$5,0*
20,1,$1+$1,$4,$5,$6,$7,0*
20,1,$1+$1,$6,$7,$8,$9,0*
20,1,$1+$1,$8,$9,$2,$3,0*%
G04 Aperture macros list end*
%ADD10RoundRect,0.150000X-0.587500X-0.150000X0.587500X-0.150000X0.587500X0.150000X-0.587500X0.150000X0*%
%ADD11RoundRect,0.135000X-0.135000X-0.185000X0.135000X-0.185000X0.135000X0.185000X-0.135000X0.185000X0*%
%ADD12RoundRect,0.218750X0.256250X-0.218750X0.256250X0.218750X-0.256250X0.218750X-0.256250X-0.218750X0*%
%ADD13RoundRect,0.135000X-0.185000X0.135000X-0.185000X-0.135000X0.185000X-0.135000X0.185000X0.135000X0*%
%ADD14RoundRect,0.250000X-1.000000X-0.900000X1.000000X-0.900000X1.000000X0.900000X-1.000000X0.900000X0*%
G04 APERTURE END LIST*
D10*
X132865000Y-79510000D03*
X132865000Y-81410000D03*
X134740000Y-80460000D03*
X136175000Y-68560000D03*
X136175000Y-70460000D03*
X138050000Y-69510000D03*
D11*
X132210000Y-57770000D03*
X133230000Y-57770000D03*
D12*
X130570000Y-58287500D03*
X130570000Y-56712500D03*
D13*
X134480000Y-57730000D03*
X134480000Y-56710000D03*
D11*
X133220000Y-56680000D03*
X132200000Y-56680000D03*
D13*
X130830000Y-46550000D03*
X130830000Y-47570000D03*
D11*
X130810000Y-45430000D03*
X129790000Y-45430000D03*
D10*
X138140000Y-57200000D03*
X136265000Y-58150000D03*
X136265000Y-56250000D03*
X134377500Y-46410000D03*
X132502500Y-47360000D03*
X132502500Y-45460000D03*
D14*
X133770000Y-52875000D03*
X138070000Y-52875000D03*
X133770000Y-40850000D03*
X138070000Y-40850000D03*
D13*
X131040000Y-79500000D03*
X131040000Y-80520000D03*
D12*
X130700000Y-70147500D03*
X130700000Y-68572500D03*
D14*
X133770000Y-73825000D03*
X138070000Y-73825000D03*
D11*
X132140000Y-70160000D03*
X133160000Y-70160000D03*
D14*
X133770000Y-85780000D03*
X138070000Y-85780000D03*
D13*
X134350000Y-68550000D03*
X134350000Y-69570000D03*
D11*
X128880000Y-79510000D03*
X129900000Y-79510000D03*
X132190000Y-68560000D03*
X133210000Y-68560000D03*
M02*
