G04 #@! TF.GenerationSoftware,KiCad,Pcbnew,8.0.1*
G04 #@! TF.CreationDate,2024-10-03T11:02:56+02:00*
G04 #@! TF.ProjectId,Verteiler,56657274-6569-46c6-9572-2e6b69636164,rev?*
G04 #@! TF.SameCoordinates,Original*
G04 #@! TF.FileFunction,Legend,Top*
G04 #@! TF.FilePolarity,Positive*
%FSLAX46Y46*%
G04 Gerber Fmt 4.6, Leading zero omitted, Abs format (unit mm)*
G04 Created by KiCad (PCBNEW 8.0.1) date 2024-10-03 11:02:56*
%MOMM*%
%LPD*%
G01*
G04 APERTURE LIST*
%ADD10C,0.150000*%
%ADD11C,0.300000*%
G04 APERTURE END LIST*
D10*
X162560000Y-80467200D02*
X162560000Y-77266800D01*
X164084000Y-80467200D02*
X162560000Y-80467200D01*
X164084000Y-70205600D02*
X162560000Y-70205600D01*
X162560000Y-70205600D02*
X162560000Y-73710800D01*
D11*
X159506167Y-50804028D02*
X159506167Y-49304028D01*
X159506167Y-49304028D02*
X160363310Y-50804028D01*
X160363310Y-50804028D02*
X160363310Y-49304028D01*
X160720454Y-50946885D02*
X161863311Y-50946885D01*
X162220453Y-50804028D02*
X162220453Y-49304028D01*
X162934739Y-50804028D02*
X162934739Y-49304028D01*
X162934739Y-49304028D02*
X163791882Y-50804028D01*
X163791882Y-50804028D02*
X163791882Y-49304028D01*
X162934739Y-91240828D02*
X162934739Y-89740828D01*
X162934739Y-89740828D02*
X163791882Y-91240828D01*
X163791882Y-91240828D02*
X163791882Y-89740828D01*
X160262257Y-95146917D02*
X160262257Y-94432632D01*
X160690828Y-95289774D02*
X159190828Y-94789774D01*
X159190828Y-94789774D02*
X160690828Y-94289774D01*
X160690828Y-93789775D02*
X159190828Y-93789775D01*
X159190828Y-93789775D02*
X160262257Y-93289775D01*
X160262257Y-93289775D02*
X159190828Y-92789775D01*
X159190828Y-92789775D02*
X160690828Y-92789775D01*
X160690828Y-92075489D02*
X159190828Y-92075489D01*
X159190828Y-92075489D02*
X159190828Y-91504060D01*
X159190828Y-91504060D02*
X159262257Y-91361203D01*
X159262257Y-91361203D02*
X159333685Y-91289774D01*
X159333685Y-91289774D02*
X159476542Y-91218346D01*
X159476542Y-91218346D02*
X159690828Y-91218346D01*
X159690828Y-91218346D02*
X159833685Y-91289774D01*
X159833685Y-91289774D02*
X159905114Y-91361203D01*
X159905114Y-91361203D02*
X159976542Y-91504060D01*
X159976542Y-91504060D02*
X159976542Y-92075489D01*
X159333685Y-90646917D02*
X159262257Y-90575489D01*
X159262257Y-90575489D02*
X159190828Y-90432632D01*
X159190828Y-90432632D02*
X159190828Y-90075489D01*
X159190828Y-90075489D02*
X159262257Y-89932632D01*
X159262257Y-89932632D02*
X159333685Y-89861203D01*
X159333685Y-89861203D02*
X159476542Y-89789774D01*
X159476542Y-89789774D02*
X159619400Y-89789774D01*
X159619400Y-89789774D02*
X159833685Y-89861203D01*
X159833685Y-89861203D02*
X160690828Y-90718346D01*
X160690828Y-90718346D02*
X160690828Y-89789774D01*
X157506167Y-65993228D02*
X157506167Y-64493228D01*
X157506167Y-64493228D02*
X158363310Y-65993228D01*
X158363310Y-65993228D02*
X158363310Y-64493228D01*
X158720454Y-66136085D02*
X159863311Y-66136085D01*
X160506168Y-64493228D02*
X160791882Y-64493228D01*
X160791882Y-64493228D02*
X160934739Y-64564657D01*
X160934739Y-64564657D02*
X161077596Y-64707514D01*
X161077596Y-64707514D02*
X161149025Y-64993228D01*
X161149025Y-64993228D02*
X161149025Y-65493228D01*
X161149025Y-65493228D02*
X161077596Y-65778942D01*
X161077596Y-65778942D02*
X160934739Y-65921800D01*
X160934739Y-65921800D02*
X160791882Y-65993228D01*
X160791882Y-65993228D02*
X160506168Y-65993228D01*
X160506168Y-65993228D02*
X160363311Y-65921800D01*
X160363311Y-65921800D02*
X160220453Y-65778942D01*
X160220453Y-65778942D02*
X160149025Y-65493228D01*
X160149025Y-65493228D02*
X160149025Y-64993228D01*
X160149025Y-64993228D02*
X160220453Y-64707514D01*
X160220453Y-64707514D02*
X160363311Y-64564657D01*
X160363311Y-64564657D02*
X160506168Y-64493228D01*
X161791882Y-64493228D02*
X161791882Y-65707514D01*
X161791882Y-65707514D02*
X161863311Y-65850371D01*
X161863311Y-65850371D02*
X161934740Y-65921800D01*
X161934740Y-65921800D02*
X162077597Y-65993228D01*
X162077597Y-65993228D02*
X162363311Y-65993228D01*
X162363311Y-65993228D02*
X162506168Y-65921800D01*
X162506168Y-65921800D02*
X162577597Y-65850371D01*
X162577597Y-65850371D02*
X162649025Y-65707514D01*
X162649025Y-65707514D02*
X162649025Y-64493228D01*
X163149026Y-64493228D02*
X164006169Y-64493228D01*
X163577597Y-65993228D02*
X163577597Y-64493228D01*
X162934739Y-35716428D02*
X162934739Y-34216428D01*
X162934739Y-34216428D02*
X163791882Y-35716428D01*
X163791882Y-35716428D02*
X163791882Y-34216428D01*
X164006168Y-30585628D02*
X163291882Y-30585628D01*
X163291882Y-30585628D02*
X163291882Y-29085628D01*
X160262257Y-35126917D02*
X160262257Y-34412632D01*
X160690828Y-35269774D02*
X159190828Y-34769774D01*
X159190828Y-34769774D02*
X160690828Y-34269774D01*
X160690828Y-33769775D02*
X159190828Y-33769775D01*
X159190828Y-33769775D02*
X160262257Y-33269775D01*
X160262257Y-33269775D02*
X159190828Y-32769775D01*
X159190828Y-32769775D02*
X160690828Y-32769775D01*
X160690828Y-32055489D02*
X159190828Y-32055489D01*
X159190828Y-32055489D02*
X159190828Y-31484060D01*
X159190828Y-31484060D02*
X159262257Y-31341203D01*
X159262257Y-31341203D02*
X159333685Y-31269774D01*
X159333685Y-31269774D02*
X159476542Y-31198346D01*
X159476542Y-31198346D02*
X159690828Y-31198346D01*
X159690828Y-31198346D02*
X159833685Y-31269774D01*
X159833685Y-31269774D02*
X159905114Y-31341203D01*
X159905114Y-31341203D02*
X159976542Y-31484060D01*
X159976542Y-31484060D02*
X159976542Y-32055489D01*
X160690828Y-29769774D02*
X160690828Y-30626917D01*
X160690828Y-30198346D02*
X159190828Y-30198346D01*
X159190828Y-30198346D02*
X159405114Y-30341203D01*
X159405114Y-30341203D02*
X159547971Y-30484060D01*
X159547971Y-30484060D02*
X159619400Y-30626917D01*
X164006168Y-96320828D02*
X163291882Y-96320828D01*
X163291882Y-96320828D02*
X163291882Y-94820828D01*
X145885282Y-68465489D02*
X145956710Y-68251203D01*
X145956710Y-68251203D02*
X146028139Y-68179774D01*
X146028139Y-68179774D02*
X146170996Y-68108346D01*
X146170996Y-68108346D02*
X146385282Y-68108346D01*
X146385282Y-68108346D02*
X146528139Y-68179774D01*
X146528139Y-68179774D02*
X146599568Y-68251203D01*
X146599568Y-68251203D02*
X146670996Y-68394060D01*
X146670996Y-68394060D02*
X146670996Y-68965489D01*
X146670996Y-68965489D02*
X145170996Y-68965489D01*
X145170996Y-68965489D02*
X145170996Y-68465489D01*
X145170996Y-68465489D02*
X145242425Y-68322632D01*
X145242425Y-68322632D02*
X145313853Y-68251203D01*
X145313853Y-68251203D02*
X145456710Y-68179774D01*
X145456710Y-68179774D02*
X145599568Y-68179774D01*
X145599568Y-68179774D02*
X145742425Y-68251203D01*
X145742425Y-68251203D02*
X145813853Y-68322632D01*
X145813853Y-68322632D02*
X145885282Y-68465489D01*
X145885282Y-68465489D02*
X145885282Y-68965489D01*
X146599568Y-66894060D02*
X146670996Y-67036917D01*
X146670996Y-67036917D02*
X146670996Y-67322632D01*
X146670996Y-67322632D02*
X146599568Y-67465489D01*
X146599568Y-67465489D02*
X146456710Y-67536917D01*
X146456710Y-67536917D02*
X145885282Y-67536917D01*
X145885282Y-67536917D02*
X145742425Y-67465489D01*
X145742425Y-67465489D02*
X145670996Y-67322632D01*
X145670996Y-67322632D02*
X145670996Y-67036917D01*
X145670996Y-67036917D02*
X145742425Y-66894060D01*
X145742425Y-66894060D02*
X145885282Y-66822632D01*
X145885282Y-66822632D02*
X146028139Y-66822632D01*
X146028139Y-66822632D02*
X146170996Y-67536917D01*
X146670996Y-65965489D02*
X146599568Y-66108346D01*
X146599568Y-66108346D02*
X146528139Y-66179775D01*
X146528139Y-66179775D02*
X146385282Y-66251203D01*
X146385282Y-66251203D02*
X145956710Y-66251203D01*
X145956710Y-66251203D02*
X145813853Y-66179775D01*
X145813853Y-66179775D02*
X145742425Y-66108346D01*
X145742425Y-66108346D02*
X145670996Y-65965489D01*
X145670996Y-65965489D02*
X145670996Y-65751203D01*
X145670996Y-65751203D02*
X145742425Y-65608346D01*
X145742425Y-65608346D02*
X145813853Y-65536918D01*
X145813853Y-65536918D02*
X145956710Y-65465489D01*
X145956710Y-65465489D02*
X146385282Y-65465489D01*
X146385282Y-65465489D02*
X146528139Y-65536918D01*
X146528139Y-65536918D02*
X146599568Y-65608346D01*
X146599568Y-65608346D02*
X146670996Y-65751203D01*
X146670996Y-65751203D02*
X146670996Y-65965489D01*
X146670996Y-64822632D02*
X145170996Y-64822632D01*
X145170996Y-64822632D02*
X146242425Y-64322632D01*
X146242425Y-64322632D02*
X145170996Y-63822632D01*
X145170996Y-63822632D02*
X146670996Y-63822632D01*
X146670996Y-62465489D02*
X145885282Y-62465489D01*
X145885282Y-62465489D02*
X145742425Y-62536917D01*
X145742425Y-62536917D02*
X145670996Y-62679774D01*
X145670996Y-62679774D02*
X145670996Y-62965489D01*
X145670996Y-62965489D02*
X145742425Y-63108346D01*
X146599568Y-62465489D02*
X146670996Y-62608346D01*
X146670996Y-62608346D02*
X146670996Y-62965489D01*
X146670996Y-62965489D02*
X146599568Y-63108346D01*
X146599568Y-63108346D02*
X146456710Y-63179774D01*
X146456710Y-63179774D02*
X146313853Y-63179774D01*
X146313853Y-63179774D02*
X146170996Y-63108346D01*
X146170996Y-63108346D02*
X146099568Y-62965489D01*
X146099568Y-62965489D02*
X146099568Y-62608346D01*
X146099568Y-62608346D02*
X146028139Y-62465489D01*
X146599568Y-61822631D02*
X146670996Y-61679774D01*
X146670996Y-61679774D02*
X146670996Y-61394060D01*
X146670996Y-61394060D02*
X146599568Y-61251203D01*
X146599568Y-61251203D02*
X146456710Y-61179774D01*
X146456710Y-61179774D02*
X146385282Y-61179774D01*
X146385282Y-61179774D02*
X146242425Y-61251203D01*
X146242425Y-61251203D02*
X146170996Y-61394060D01*
X146170996Y-61394060D02*
X146170996Y-61608346D01*
X146170996Y-61608346D02*
X146099568Y-61751203D01*
X146099568Y-61751203D02*
X145956710Y-61822631D01*
X145956710Y-61822631D02*
X145885282Y-61822631D01*
X145885282Y-61822631D02*
X145742425Y-61751203D01*
X145742425Y-61751203D02*
X145670996Y-61608346D01*
X145670996Y-61608346D02*
X145670996Y-61394060D01*
X145670996Y-61394060D02*
X145742425Y-61251203D01*
X145670996Y-60751202D02*
X145670996Y-60179774D01*
X145170996Y-60536917D02*
X146456710Y-60536917D01*
X146456710Y-60536917D02*
X146599568Y-60465488D01*
X146599568Y-60465488D02*
X146670996Y-60322631D01*
X146670996Y-60322631D02*
X146670996Y-60179774D01*
X146599568Y-59108345D02*
X146670996Y-59251202D01*
X146670996Y-59251202D02*
X146670996Y-59536917D01*
X146670996Y-59536917D02*
X146599568Y-59679774D01*
X146599568Y-59679774D02*
X146456710Y-59751202D01*
X146456710Y-59751202D02*
X145885282Y-59751202D01*
X145885282Y-59751202D02*
X145742425Y-59679774D01*
X145742425Y-59679774D02*
X145670996Y-59536917D01*
X145670996Y-59536917D02*
X145670996Y-59251202D01*
X145670996Y-59251202D02*
X145742425Y-59108345D01*
X145742425Y-59108345D02*
X145885282Y-59036917D01*
X145885282Y-59036917D02*
X146028139Y-59036917D01*
X146028139Y-59036917D02*
X146170996Y-59751202D01*
X146670996Y-58394060D02*
X145670996Y-58394060D01*
X145956710Y-58394060D02*
X145813853Y-58322631D01*
X145813853Y-58322631D02*
X145742425Y-58251203D01*
X145742425Y-58251203D02*
X145670996Y-58108345D01*
X145670996Y-58108345D02*
X145670996Y-57965488D01*
X147728769Y-69036917D02*
X147657341Y-68965489D01*
X147657341Y-68965489D02*
X147585912Y-68822632D01*
X147585912Y-68822632D02*
X147585912Y-68465489D01*
X147585912Y-68465489D02*
X147657341Y-68322632D01*
X147657341Y-68322632D02*
X147728769Y-68251203D01*
X147728769Y-68251203D02*
X147871626Y-68179774D01*
X147871626Y-68179774D02*
X148014484Y-68179774D01*
X148014484Y-68179774D02*
X148228769Y-68251203D01*
X148228769Y-68251203D02*
X149085912Y-69108346D01*
X149085912Y-69108346D02*
X149085912Y-68179774D01*
X147728769Y-67608346D02*
X147657341Y-67536918D01*
X147657341Y-67536918D02*
X147585912Y-67394061D01*
X147585912Y-67394061D02*
X147585912Y-67036918D01*
X147585912Y-67036918D02*
X147657341Y-66894061D01*
X147657341Y-66894061D02*
X147728769Y-66822632D01*
X147728769Y-66822632D02*
X147871626Y-66751203D01*
X147871626Y-66751203D02*
X148014484Y-66751203D01*
X148014484Y-66751203D02*
X148228769Y-66822632D01*
X148228769Y-66822632D02*
X149085912Y-67679775D01*
X149085912Y-67679775D02*
X149085912Y-66751203D01*
X147585912Y-65822632D02*
X147585912Y-65679775D01*
X147585912Y-65679775D02*
X147657341Y-65536918D01*
X147657341Y-65536918D02*
X147728769Y-65465490D01*
X147728769Y-65465490D02*
X147871626Y-65394061D01*
X147871626Y-65394061D02*
X148157341Y-65322632D01*
X148157341Y-65322632D02*
X148514484Y-65322632D01*
X148514484Y-65322632D02*
X148800198Y-65394061D01*
X148800198Y-65394061D02*
X148943055Y-65465490D01*
X148943055Y-65465490D02*
X149014484Y-65536918D01*
X149014484Y-65536918D02*
X149085912Y-65679775D01*
X149085912Y-65679775D02*
X149085912Y-65822632D01*
X149085912Y-65822632D02*
X149014484Y-65965490D01*
X149014484Y-65965490D02*
X148943055Y-66036918D01*
X148943055Y-66036918D02*
X148800198Y-66108347D01*
X148800198Y-66108347D02*
X148514484Y-66179775D01*
X148514484Y-66179775D02*
X148157341Y-66179775D01*
X148157341Y-66179775D02*
X147871626Y-66108347D01*
X147871626Y-66108347D02*
X147728769Y-66036918D01*
X147728769Y-66036918D02*
X147657341Y-65965490D01*
X147657341Y-65965490D02*
X147585912Y-65822632D01*
X147585912Y-64894061D02*
X149085912Y-64394061D01*
X149085912Y-64394061D02*
X147585912Y-63894061D01*
X147585912Y-62465490D02*
X149085912Y-61965490D01*
X149085912Y-61965490D02*
X147585912Y-61465490D01*
X149014484Y-60394062D02*
X149085912Y-60536919D01*
X149085912Y-60536919D02*
X149085912Y-60822634D01*
X149085912Y-60822634D02*
X149014484Y-60965491D01*
X149014484Y-60965491D02*
X148871626Y-61036919D01*
X148871626Y-61036919D02*
X148300198Y-61036919D01*
X148300198Y-61036919D02*
X148157341Y-60965491D01*
X148157341Y-60965491D02*
X148085912Y-60822634D01*
X148085912Y-60822634D02*
X148085912Y-60536919D01*
X148085912Y-60536919D02*
X148157341Y-60394062D01*
X148157341Y-60394062D02*
X148300198Y-60322634D01*
X148300198Y-60322634D02*
X148443055Y-60322634D01*
X148443055Y-60322634D02*
X148585912Y-61036919D01*
X149085912Y-59679777D02*
X148085912Y-59679777D01*
X148371626Y-59679777D02*
X148228769Y-59608348D01*
X148228769Y-59608348D02*
X148157341Y-59536920D01*
X148157341Y-59536920D02*
X148085912Y-59394062D01*
X148085912Y-59394062D02*
X148085912Y-59251205D01*
X148085912Y-58965491D02*
X148085912Y-58394063D01*
X147585912Y-58751206D02*
X148871626Y-58751206D01*
X148871626Y-58751206D02*
X149014484Y-58679777D01*
X149014484Y-58679777D02*
X149085912Y-58536920D01*
X149085912Y-58536920D02*
X149085912Y-58394063D01*
X149014484Y-57322634D02*
X149085912Y-57465491D01*
X149085912Y-57465491D02*
X149085912Y-57751206D01*
X149085912Y-57751206D02*
X149014484Y-57894063D01*
X149014484Y-57894063D02*
X148871626Y-57965491D01*
X148871626Y-57965491D02*
X148300198Y-57965491D01*
X148300198Y-57965491D02*
X148157341Y-57894063D01*
X148157341Y-57894063D02*
X148085912Y-57751206D01*
X148085912Y-57751206D02*
X148085912Y-57465491D01*
X148085912Y-57465491D02*
X148157341Y-57322634D01*
X148157341Y-57322634D02*
X148300198Y-57251206D01*
X148300198Y-57251206D02*
X148443055Y-57251206D01*
X148443055Y-57251206D02*
X148585912Y-57965491D01*
X149085912Y-56608349D02*
X148085912Y-56608349D01*
X147585912Y-56608349D02*
X147657341Y-56679777D01*
X147657341Y-56679777D02*
X147728769Y-56608349D01*
X147728769Y-56608349D02*
X147657341Y-56536920D01*
X147657341Y-56536920D02*
X147585912Y-56608349D01*
X147585912Y-56608349D02*
X147728769Y-56608349D01*
X149085912Y-55679777D02*
X149014484Y-55822634D01*
X149014484Y-55822634D02*
X148871626Y-55894063D01*
X148871626Y-55894063D02*
X147585912Y-55894063D01*
X149014484Y-54536920D02*
X149085912Y-54679777D01*
X149085912Y-54679777D02*
X149085912Y-54965492D01*
X149085912Y-54965492D02*
X149014484Y-55108349D01*
X149014484Y-55108349D02*
X148871626Y-55179777D01*
X148871626Y-55179777D02*
X148300198Y-55179777D01*
X148300198Y-55179777D02*
X148157341Y-55108349D01*
X148157341Y-55108349D02*
X148085912Y-54965492D01*
X148085912Y-54965492D02*
X148085912Y-54679777D01*
X148085912Y-54679777D02*
X148157341Y-54536920D01*
X148157341Y-54536920D02*
X148300198Y-54465492D01*
X148300198Y-54465492D02*
X148443055Y-54465492D01*
X148443055Y-54465492D02*
X148585912Y-55179777D01*
X149085912Y-53822635D02*
X148085912Y-53822635D01*
X148371626Y-53822635D02*
X148228769Y-53751206D01*
X148228769Y-53751206D02*
X148157341Y-53679778D01*
X148157341Y-53679778D02*
X148085912Y-53536920D01*
X148085912Y-53536920D02*
X148085912Y-53394063D01*
X150000828Y-68679774D02*
X150000828Y-68536917D01*
X150000828Y-68536917D02*
X150072257Y-68394060D01*
X150072257Y-68394060D02*
X150143685Y-68322632D01*
X150143685Y-68322632D02*
X150286542Y-68251203D01*
X150286542Y-68251203D02*
X150572257Y-68179774D01*
X150572257Y-68179774D02*
X150929400Y-68179774D01*
X150929400Y-68179774D02*
X151215114Y-68251203D01*
X151215114Y-68251203D02*
X151357971Y-68322632D01*
X151357971Y-68322632D02*
X151429400Y-68394060D01*
X151429400Y-68394060D02*
X151500828Y-68536917D01*
X151500828Y-68536917D02*
X151500828Y-68679774D01*
X151500828Y-68679774D02*
X151429400Y-68822632D01*
X151429400Y-68822632D02*
X151357971Y-68894060D01*
X151357971Y-68894060D02*
X151215114Y-68965489D01*
X151215114Y-68965489D02*
X150929400Y-69036917D01*
X150929400Y-69036917D02*
X150572257Y-69036917D01*
X150572257Y-69036917D02*
X150286542Y-68965489D01*
X150286542Y-68965489D02*
X150143685Y-68894060D01*
X150143685Y-68894060D02*
X150072257Y-68822632D01*
X150072257Y-68822632D02*
X150000828Y-68679774D01*
X150000828Y-67679775D02*
X150000828Y-66751203D01*
X150000828Y-66751203D02*
X150572257Y-67251203D01*
X150572257Y-67251203D02*
X150572257Y-67036918D01*
X150572257Y-67036918D02*
X150643685Y-66894061D01*
X150643685Y-66894061D02*
X150715114Y-66822632D01*
X150715114Y-66822632D02*
X150857971Y-66751203D01*
X150857971Y-66751203D02*
X151215114Y-66751203D01*
X151215114Y-66751203D02*
X151357971Y-66822632D01*
X151357971Y-66822632D02*
X151429400Y-66894061D01*
X151429400Y-66894061D02*
X151500828Y-67036918D01*
X151500828Y-67036918D02*
X151500828Y-67465489D01*
X151500828Y-67465489D02*
X151429400Y-67608346D01*
X151429400Y-67608346D02*
X151357971Y-67679775D01*
X151357971Y-66108347D02*
X151429400Y-66036918D01*
X151429400Y-66036918D02*
X151500828Y-66108347D01*
X151500828Y-66108347D02*
X151429400Y-66179775D01*
X151429400Y-66179775D02*
X151357971Y-66108347D01*
X151357971Y-66108347D02*
X151500828Y-66108347D01*
X151500828Y-64608346D02*
X151500828Y-65465489D01*
X151500828Y-65036918D02*
X150000828Y-65036918D01*
X150000828Y-65036918D02*
X150215114Y-65179775D01*
X150215114Y-65179775D02*
X150357971Y-65322632D01*
X150357971Y-65322632D02*
X150429400Y-65465489D01*
X150000828Y-63679775D02*
X150000828Y-63536918D01*
X150000828Y-63536918D02*
X150072257Y-63394061D01*
X150072257Y-63394061D02*
X150143685Y-63322633D01*
X150143685Y-63322633D02*
X150286542Y-63251204D01*
X150286542Y-63251204D02*
X150572257Y-63179775D01*
X150572257Y-63179775D02*
X150929400Y-63179775D01*
X150929400Y-63179775D02*
X151215114Y-63251204D01*
X151215114Y-63251204D02*
X151357971Y-63322633D01*
X151357971Y-63322633D02*
X151429400Y-63394061D01*
X151429400Y-63394061D02*
X151500828Y-63536918D01*
X151500828Y-63536918D02*
X151500828Y-63679775D01*
X151500828Y-63679775D02*
X151429400Y-63822633D01*
X151429400Y-63822633D02*
X151357971Y-63894061D01*
X151357971Y-63894061D02*
X151215114Y-63965490D01*
X151215114Y-63965490D02*
X150929400Y-64036918D01*
X150929400Y-64036918D02*
X150572257Y-64036918D01*
X150572257Y-64036918D02*
X150286542Y-63965490D01*
X150286542Y-63965490D02*
X150143685Y-63894061D01*
X150143685Y-63894061D02*
X150072257Y-63822633D01*
X150072257Y-63822633D02*
X150000828Y-63679775D01*
X151357971Y-62536919D02*
X151429400Y-62465490D01*
X151429400Y-62465490D02*
X151500828Y-62536919D01*
X151500828Y-62536919D02*
X151429400Y-62608347D01*
X151429400Y-62608347D02*
X151357971Y-62536919D01*
X151357971Y-62536919D02*
X151500828Y-62536919D01*
X150143685Y-61894061D02*
X150072257Y-61822633D01*
X150072257Y-61822633D02*
X150000828Y-61679776D01*
X150000828Y-61679776D02*
X150000828Y-61322633D01*
X150000828Y-61322633D02*
X150072257Y-61179776D01*
X150072257Y-61179776D02*
X150143685Y-61108347D01*
X150143685Y-61108347D02*
X150286542Y-61036918D01*
X150286542Y-61036918D02*
X150429400Y-61036918D01*
X150429400Y-61036918D02*
X150643685Y-61108347D01*
X150643685Y-61108347D02*
X151500828Y-61965490D01*
X151500828Y-61965490D02*
X151500828Y-61036918D01*
X150000828Y-60108347D02*
X150000828Y-59965490D01*
X150000828Y-59965490D02*
X150072257Y-59822633D01*
X150072257Y-59822633D02*
X150143685Y-59751205D01*
X150143685Y-59751205D02*
X150286542Y-59679776D01*
X150286542Y-59679776D02*
X150572257Y-59608347D01*
X150572257Y-59608347D02*
X150929400Y-59608347D01*
X150929400Y-59608347D02*
X151215114Y-59679776D01*
X151215114Y-59679776D02*
X151357971Y-59751205D01*
X151357971Y-59751205D02*
X151429400Y-59822633D01*
X151429400Y-59822633D02*
X151500828Y-59965490D01*
X151500828Y-59965490D02*
X151500828Y-60108347D01*
X151500828Y-60108347D02*
X151429400Y-60251205D01*
X151429400Y-60251205D02*
X151357971Y-60322633D01*
X151357971Y-60322633D02*
X151215114Y-60394062D01*
X151215114Y-60394062D02*
X150929400Y-60465490D01*
X150929400Y-60465490D02*
X150572257Y-60465490D01*
X150572257Y-60465490D02*
X150286542Y-60394062D01*
X150286542Y-60394062D02*
X150143685Y-60322633D01*
X150143685Y-60322633D02*
X150072257Y-60251205D01*
X150072257Y-60251205D02*
X150000828Y-60108347D01*
X150143685Y-59036919D02*
X150072257Y-58965491D01*
X150072257Y-58965491D02*
X150000828Y-58822634D01*
X150000828Y-58822634D02*
X150000828Y-58465491D01*
X150000828Y-58465491D02*
X150072257Y-58322634D01*
X150072257Y-58322634D02*
X150143685Y-58251205D01*
X150143685Y-58251205D02*
X150286542Y-58179776D01*
X150286542Y-58179776D02*
X150429400Y-58179776D01*
X150429400Y-58179776D02*
X150643685Y-58251205D01*
X150643685Y-58251205D02*
X151500828Y-59108348D01*
X151500828Y-59108348D02*
X151500828Y-58179776D01*
X150500828Y-56894063D02*
X151500828Y-56894063D01*
X149929400Y-57251205D02*
X151000828Y-57608348D01*
X151000828Y-57608348D02*
X151000828Y-56679777D01*
X158220453Y-55884028D02*
X158220453Y-54384028D01*
X158220453Y-54384028D02*
X158791882Y-54384028D01*
X158791882Y-54384028D02*
X158934739Y-54455457D01*
X158934739Y-54455457D02*
X159006168Y-54526885D01*
X159006168Y-54526885D02*
X159077596Y-54669742D01*
X159077596Y-54669742D02*
X159077596Y-54884028D01*
X159077596Y-54884028D02*
X159006168Y-55026885D01*
X159006168Y-55026885D02*
X158934739Y-55098314D01*
X158934739Y-55098314D02*
X158791882Y-55169742D01*
X158791882Y-55169742D02*
X158220453Y-55169742D01*
X159720453Y-55098314D02*
X160220453Y-55098314D01*
X160434739Y-55884028D02*
X159720453Y-55884028D01*
X159720453Y-55884028D02*
X159720453Y-54384028D01*
X159720453Y-54384028D02*
X160434739Y-54384028D01*
X160720454Y-56026885D02*
X161863311Y-56026885D01*
X162220453Y-55884028D02*
X162220453Y-54384028D01*
X162934739Y-55884028D02*
X162934739Y-54384028D01*
X162934739Y-54384028D02*
X163791882Y-55884028D01*
X163791882Y-55884028D02*
X163791882Y-54384028D01*
X158577596Y-60913228D02*
X157863310Y-60913228D01*
X157863310Y-60913228D02*
X157863310Y-59413228D01*
X158720454Y-61056085D02*
X159863311Y-61056085D01*
X160506168Y-59413228D02*
X160791882Y-59413228D01*
X160791882Y-59413228D02*
X160934739Y-59484657D01*
X160934739Y-59484657D02*
X161077596Y-59627514D01*
X161077596Y-59627514D02*
X161149025Y-59913228D01*
X161149025Y-59913228D02*
X161149025Y-60413228D01*
X161149025Y-60413228D02*
X161077596Y-60698942D01*
X161077596Y-60698942D02*
X160934739Y-60841800D01*
X160934739Y-60841800D02*
X160791882Y-60913228D01*
X160791882Y-60913228D02*
X160506168Y-60913228D01*
X160506168Y-60913228D02*
X160363311Y-60841800D01*
X160363311Y-60841800D02*
X160220453Y-60698942D01*
X160220453Y-60698942D02*
X160149025Y-60413228D01*
X160149025Y-60413228D02*
X160149025Y-59913228D01*
X160149025Y-59913228D02*
X160220453Y-59627514D01*
X160220453Y-59627514D02*
X160363311Y-59484657D01*
X160363311Y-59484657D02*
X160506168Y-59413228D01*
X161791882Y-59413228D02*
X161791882Y-60627514D01*
X161791882Y-60627514D02*
X161863311Y-60770371D01*
X161863311Y-60770371D02*
X161934740Y-60841800D01*
X161934740Y-60841800D02*
X162077597Y-60913228D01*
X162077597Y-60913228D02*
X162363311Y-60913228D01*
X162363311Y-60913228D02*
X162506168Y-60841800D01*
X162506168Y-60841800D02*
X162577597Y-60770371D01*
X162577597Y-60770371D02*
X162649025Y-60627514D01*
X162649025Y-60627514D02*
X162649025Y-59413228D01*
X163149026Y-59413228D02*
X164006169Y-59413228D01*
X163577597Y-60913228D02*
X163577597Y-59413228D01*
X160577596Y-45724028D02*
X159863310Y-45724028D01*
X159863310Y-45724028D02*
X159863310Y-44224028D01*
X160720454Y-45866885D02*
X161863311Y-45866885D01*
X162220453Y-45724028D02*
X162220453Y-44224028D01*
X162934739Y-45724028D02*
X162934739Y-44224028D01*
X162934739Y-44224028D02*
X163791882Y-45724028D01*
X163791882Y-45724028D02*
X163791882Y-44224028D01*
X156154910Y-76204028D02*
X156154910Y-74704028D01*
X156154910Y-74704028D02*
X156726339Y-74704028D01*
X156726339Y-74704028D02*
X156869196Y-74775457D01*
X156869196Y-74775457D02*
X156940625Y-74846885D01*
X156940625Y-74846885D02*
X157012053Y-74989742D01*
X157012053Y-74989742D02*
X157012053Y-75204028D01*
X157012053Y-75204028D02*
X156940625Y-75346885D01*
X156940625Y-75346885D02*
X156869196Y-75418314D01*
X156869196Y-75418314D02*
X156726339Y-75489742D01*
X156726339Y-75489742D02*
X156154910Y-75489742D01*
X157654910Y-75418314D02*
X158154910Y-75418314D01*
X158369196Y-76204028D02*
X157654910Y-76204028D01*
X157654910Y-76204028D02*
X157654910Y-74704028D01*
X157654910Y-74704028D02*
X158369196Y-74704028D01*
X158654911Y-76346885D02*
X159797768Y-76346885D01*
X160440625Y-74704028D02*
X160726339Y-74704028D01*
X160726339Y-74704028D02*
X160869196Y-74775457D01*
X160869196Y-74775457D02*
X161012053Y-74918314D01*
X161012053Y-74918314D02*
X161083482Y-75204028D01*
X161083482Y-75204028D02*
X161083482Y-75704028D01*
X161083482Y-75704028D02*
X161012053Y-75989742D01*
X161012053Y-75989742D02*
X160869196Y-76132600D01*
X160869196Y-76132600D02*
X160726339Y-76204028D01*
X160726339Y-76204028D02*
X160440625Y-76204028D01*
X160440625Y-76204028D02*
X160297768Y-76132600D01*
X160297768Y-76132600D02*
X160154910Y-75989742D01*
X160154910Y-75989742D02*
X160083482Y-75704028D01*
X160083482Y-75704028D02*
X160083482Y-75204028D01*
X160083482Y-75204028D02*
X160154910Y-74918314D01*
X160154910Y-74918314D02*
X160297768Y-74775457D01*
X160297768Y-74775457D02*
X160440625Y-74704028D01*
X161726339Y-74704028D02*
X161726339Y-75918314D01*
X161726339Y-75918314D02*
X161797768Y-76061171D01*
X161797768Y-76061171D02*
X161869197Y-76132600D01*
X161869197Y-76132600D02*
X162012054Y-76204028D01*
X162012054Y-76204028D02*
X162297768Y-76204028D01*
X162297768Y-76204028D02*
X162440625Y-76132600D01*
X162440625Y-76132600D02*
X162512054Y-76061171D01*
X162512054Y-76061171D02*
X162583482Y-75918314D01*
X162583482Y-75918314D02*
X162583482Y-74704028D01*
X163083483Y-74704028D02*
X163940626Y-74704028D01*
X163512054Y-76204028D02*
X163512054Y-74704028D01*
X129645114Y-41225489D02*
X129716542Y-41011203D01*
X129716542Y-41011203D02*
X129787971Y-40939774D01*
X129787971Y-40939774D02*
X129930828Y-40868346D01*
X129930828Y-40868346D02*
X130145114Y-40868346D01*
X130145114Y-40868346D02*
X130287971Y-40939774D01*
X130287971Y-40939774D02*
X130359400Y-41011203D01*
X130359400Y-41011203D02*
X130430828Y-41154060D01*
X130430828Y-41154060D02*
X130430828Y-41725489D01*
X130430828Y-41725489D02*
X128930828Y-41725489D01*
X128930828Y-41725489D02*
X128930828Y-41225489D01*
X128930828Y-41225489D02*
X129002257Y-41082632D01*
X129002257Y-41082632D02*
X129073685Y-41011203D01*
X129073685Y-41011203D02*
X129216542Y-40939774D01*
X129216542Y-40939774D02*
X129359400Y-40939774D01*
X129359400Y-40939774D02*
X129502257Y-41011203D01*
X129502257Y-41011203D02*
X129573685Y-41082632D01*
X129573685Y-41082632D02*
X129645114Y-41225489D01*
X129645114Y-41225489D02*
X129645114Y-41725489D01*
X130287971Y-40225489D02*
X130359400Y-40154060D01*
X130359400Y-40154060D02*
X130430828Y-40225489D01*
X130430828Y-40225489D02*
X130359400Y-40296917D01*
X130359400Y-40296917D02*
X130287971Y-40225489D01*
X130287971Y-40225489D02*
X130430828Y-40225489D01*
X130430828Y-39511203D02*
X128930828Y-39511203D01*
X130287971Y-38796917D02*
X130359400Y-38725488D01*
X130359400Y-38725488D02*
X130430828Y-38796917D01*
X130430828Y-38796917D02*
X130359400Y-38868345D01*
X130359400Y-38868345D02*
X130287971Y-38796917D01*
X130287971Y-38796917D02*
X130430828Y-38796917D01*
X129645114Y-38082631D02*
X129645114Y-37582631D01*
X130430828Y-37368345D02*
X130430828Y-38082631D01*
X130430828Y-38082631D02*
X128930828Y-38082631D01*
X128930828Y-38082631D02*
X128930828Y-37368345D01*
X130287971Y-36725488D02*
X130359400Y-36654059D01*
X130359400Y-36654059D02*
X130430828Y-36725488D01*
X130430828Y-36725488D02*
X130359400Y-36796916D01*
X130359400Y-36796916D02*
X130287971Y-36725488D01*
X130287971Y-36725488D02*
X130430828Y-36725488D01*
X130430828Y-35154059D02*
X129716542Y-35654059D01*
X130430828Y-36011202D02*
X128930828Y-36011202D01*
X128930828Y-36011202D02*
X128930828Y-35439773D01*
X128930828Y-35439773D02*
X129002257Y-35296916D01*
X129002257Y-35296916D02*
X129073685Y-35225487D01*
X129073685Y-35225487D02*
X129216542Y-35154059D01*
X129216542Y-35154059D02*
X129430828Y-35154059D01*
X129430828Y-35154059D02*
X129573685Y-35225487D01*
X129573685Y-35225487D02*
X129645114Y-35296916D01*
X129645114Y-35296916D02*
X129716542Y-35439773D01*
X129716542Y-35439773D02*
X129716542Y-36011202D01*
X130287971Y-34511202D02*
X130359400Y-34439773D01*
X130359400Y-34439773D02*
X130430828Y-34511202D01*
X130430828Y-34511202D02*
X130359400Y-34582630D01*
X130359400Y-34582630D02*
X130287971Y-34511202D01*
X130287971Y-34511202D02*
X130430828Y-34511202D01*
M02*
