M48
; DRILL file {KiCad 8.0.1} date 2024-10-03T11:03:09+0200
; FORMAT={-:-/ absolute / metric / decimal}
; #@! TF.CreationDate,2024-10-03T11:03:09+02:00
; #@! TF.GenerationSoftware,Kicad,Pcbnew,8.0.1
; #@! TF.FileFunction,Plated,1,2,PTH
FMAT,2
METRIC
; #@! TA.AperFunction,Plated,PTH,ViaDrill
T1C0.300
; #@! TA.AperFunction,Plated,PTH,ComponentDrill
T2C0.500
; #@! TA.AperFunction,Plated,PTH,ComponentDrill
T3C1.150
; #@! TA.AperFunction,Plated,PTH,ComponentDrill
T4C1.170
; #@! TA.AperFunction,Plated,PTH,ComponentDrill
T5C1.400
%
G90
G05
T1
X128.89Y-65.73
X129.945Y-63.025
X131.28Y-52.875
X131.28Y-73.825
X131.36Y-85.77
X132.86Y-82.51
X132.94Y-49.15
X133.8Y-42.95
X135.08Y-71.51
X136.22Y-59.69
T2
X132.83Y-61.775
X132.83Y-63.025
X132.83Y-64.275
X132.83Y-65.525
T3
X137.59Y-33.975
X137.59Y-45.975
X137.59Y-77.925
X137.59Y-89.925
X140.13Y-33.975
X140.13Y-45.975
X140.13Y-77.925
X140.13Y-89.925
X147.75Y-33.975
X147.75Y-45.975
X147.75Y-77.925
X147.75Y-89.925
X155.37Y-33.975
X155.37Y-45.975
X155.37Y-77.925
X155.37Y-89.925
T4
X151.78Y-53.287
X151.78Y-72.087
X156.78Y-53.287
X156.78Y-72.087
T5
X167.072Y-29.93
X167.072Y-35.01
X167.072Y-44.9
X167.072Y-49.98
X167.072Y-55.06
X167.072Y-60.14
X167.072Y-65.22
X167.072Y-70.3
X167.072Y-75.38
X167.072Y-80.46
X167.072Y-90.51
X167.072Y-95.59
M30
