G04 #@! TF.GenerationSoftware,KiCad,Pcbnew,8.0.1*
G04 #@! TF.CreationDate,2024-10-03T11:02:55+02:00*
G04 #@! TF.ProjectId,Verteiler,56657274-6569-46c6-9572-2e6b69636164,rev?*
G04 #@! TF.SameCoordinates,Original*
G04 #@! TF.FileFunction,Copper,L1,Top*
G04 #@! TF.FilePolarity,Positive*
%FSLAX46Y46*%
G04 Gerber Fmt 4.6, Leading zero omitted, Abs format (unit mm)*
G04 Created by KiCad (PCBNEW 8.0.1) date 2024-10-03 11:02:55*
%MOMM*%
%LPD*%
G01*
G04 APERTURE LIST*
G04 Aperture macros list*
%AMRoundRect*
0 Rectangle with rounded corners*
0 $1 Rounding radius*
0 $2 $3 $4 $5 $6 $7 $8 $9 X,Y pos of 4 corners*
0 Add a 4 corners polygon primitive as box body*
4,1,4,$2,$3,$4,$5,$6,$7,$8,$9,$2,$3,0*
0 Add four circle primitives for the rounded corners*
1,1,$1+$1,$2,$3*
1,1,$1+$1,$4,$5*
1,1,$1+$1,$6,$7*
1,1,$1+$1,$8,$9*
0 Add four rect primitives between the rounded corners*
20,1,$1+$1,$2,$3,$4,$5,0*
20,1,$1+$1,$4,$5,$6,$7,0*
20,1,$1+$1,$6,$7,$8,$9,0*
20,1,$1+$1,$8,$9,$2,$3,0*%
G04 Aperture macros list end*
G04 #@! TA.AperFunction,SMDPad,CuDef*
%ADD10RoundRect,0.150000X-0.587500X-0.150000X0.587500X-0.150000X0.587500X0.150000X-0.587500X0.150000X0*%
G04 #@! TD*
G04 #@! TA.AperFunction,SMDPad,CuDef*
%ADD11RoundRect,0.135000X-0.135000X-0.185000X0.135000X-0.185000X0.135000X0.185000X-0.135000X0.185000X0*%
G04 #@! TD*
G04 #@! TA.AperFunction,SMDPad,CuDef*
%ADD12RoundRect,0.218750X0.256250X-0.218750X0.256250X0.218750X-0.256250X0.218750X-0.256250X-0.218750X0*%
G04 #@! TD*
G04 #@! TA.AperFunction,SMDPad,CuDef*
%ADD13RoundRect,0.135000X-0.185000X0.135000X-0.185000X-0.135000X0.185000X-0.135000X0.185000X0.135000X0*%
G04 #@! TD*
G04 #@! TA.AperFunction,ComponentPad*
%ADD14R,1.900000X1.900000*%
G04 #@! TD*
G04 #@! TA.AperFunction,ComponentPad*
%ADD15C,1.900000*%
G04 #@! TD*
G04 #@! TA.AperFunction,ComponentPad*
%ADD16RoundRect,0.249999X1.550001X-0.790001X1.550001X0.790001X-1.550001X0.790001X-1.550001X-0.790001X0*%
G04 #@! TD*
G04 #@! TA.AperFunction,ComponentPad*
%ADD17O,3.600000X2.080000*%
G04 #@! TD*
G04 #@! TA.AperFunction,SMDPad,CuDef*
%ADD18RoundRect,0.250000X-1.000000X-0.900000X1.000000X-0.900000X1.000000X0.900000X-1.000000X0.900000X0*%
G04 #@! TD*
G04 #@! TA.AperFunction,ComponentPad*
%ADD19RoundRect,0.200000X-0.450000X0.200000X-0.450000X-0.200000X0.450000X-0.200000X0.450000X0.200000X0*%
G04 #@! TD*
G04 #@! TA.AperFunction,ComponentPad*
%ADD20O,1.300000X0.800000*%
G04 #@! TD*
G04 #@! TA.AperFunction,ComponentPad*
%ADD21RoundRect,0.550000X-0.550000X0.550000X-0.550000X-0.550000X0.550000X-0.550000X0.550000X0.550000X0*%
G04 #@! TD*
G04 #@! TA.AperFunction,ComponentPad*
%ADD22C,2.200000*%
G04 #@! TD*
G04 #@! TA.AperFunction,ViaPad*
%ADD23C,0.600000*%
G04 #@! TD*
G04 #@! TA.AperFunction,Conductor*
%ADD24C,2.000000*%
G04 #@! TD*
G04 #@! TA.AperFunction,Conductor*
%ADD25C,0.400000*%
G04 #@! TD*
G04 APERTURE END LIST*
D10*
X132865000Y-79510000D03*
X132865000Y-81410000D03*
X134740000Y-80460000D03*
X136175000Y-68560000D03*
X136175000Y-70460000D03*
X138050000Y-69510000D03*
D11*
X132210000Y-57770000D03*
X133230000Y-57770000D03*
D12*
X130570000Y-58287500D03*
X130570000Y-56712500D03*
D13*
X134480000Y-57730000D03*
X134480000Y-56710000D03*
D11*
X133220000Y-56680000D03*
X132200000Y-56680000D03*
D13*
X130830000Y-46550000D03*
X130830000Y-47570000D03*
D11*
X130810000Y-45430000D03*
X129790000Y-45430000D03*
D10*
X138140000Y-57200000D03*
X136265000Y-58150000D03*
X136265000Y-56250000D03*
X134377500Y-46410000D03*
X132502500Y-47360000D03*
X132502500Y-45460000D03*
D14*
X137590000Y-45975000D03*
D15*
X140130000Y-45975000D03*
X147750000Y-45975000D03*
X155370000Y-45975000D03*
D14*
X137590000Y-33975000D03*
D15*
X140130000Y-33975000D03*
X147750000Y-33975000D03*
X155370000Y-33975000D03*
D16*
X167072500Y-35010000D03*
D17*
X167072500Y-29930000D03*
D18*
X133770000Y-52875000D03*
X138070000Y-52875000D03*
X133770000Y-40850000D03*
X138070000Y-40850000D03*
D13*
X131040000Y-79500000D03*
X131040000Y-80520000D03*
D12*
X130700000Y-70147500D03*
X130700000Y-68572500D03*
D18*
X133770000Y-73825000D03*
X138070000Y-73825000D03*
D11*
X132140000Y-70160000D03*
X133160000Y-70160000D03*
D16*
X167072500Y-80460000D03*
D17*
X167072500Y-75380000D03*
X167072500Y-70300000D03*
X167072500Y-65220000D03*
X167072500Y-60140000D03*
X167072500Y-55060000D03*
X167072500Y-49980000D03*
X167072500Y-44900000D03*
D18*
X133770000Y-85780000D03*
X138070000Y-85780000D03*
D13*
X134350000Y-68550000D03*
X134350000Y-69570000D03*
D14*
X137590000Y-89925000D03*
D15*
X140130000Y-89925000D03*
X147750000Y-89925000D03*
X155370000Y-89925000D03*
D11*
X128880000Y-79510000D03*
X129900000Y-79510000D03*
D19*
X132830000Y-61775000D03*
D20*
X132830000Y-63025000D03*
X132830000Y-64275000D03*
X132830000Y-65525000D03*
D16*
X167072500Y-95590000D03*
D17*
X167072500Y-90510000D03*
D11*
X132190000Y-68560000D03*
X133210000Y-68560000D03*
D21*
X156779600Y-53287200D03*
X151779600Y-53287200D03*
D22*
X156779600Y-72087200D03*
X151779600Y-72087200D03*
D14*
X137590000Y-77925000D03*
D15*
X140130000Y-77925000D03*
X147750000Y-77925000D03*
X155370000Y-77925000D03*
D23*
X135080000Y-71510000D03*
X132860000Y-82510000D03*
X132940000Y-49150000D03*
X136220000Y-59690000D03*
X129945000Y-63025000D03*
X128890000Y-65730000D03*
X131360000Y-85770000D03*
X133800000Y-42950000D03*
X131280000Y-52875000D03*
X131280000Y-73825000D03*
D24*
X172120000Y-65220000D02*
X167072500Y-65220000D01*
X172960000Y-83690000D02*
X172960000Y-66060000D01*
X171220000Y-85430000D02*
X172960000Y-83690000D01*
X172960000Y-66060000D02*
X172120000Y-65220000D01*
X159990000Y-85430000D02*
X171220000Y-85430000D01*
X155495000Y-89925000D02*
X159990000Y-85430000D01*
X155370000Y-89925000D02*
X155495000Y-89925000D01*
X171930000Y-60140000D02*
X167072500Y-60140000D01*
X173080000Y-58990000D02*
X171930000Y-60140000D01*
X159120000Y-40050000D02*
X170480000Y-40050000D01*
X155370000Y-36300000D02*
X159120000Y-40050000D01*
X173080000Y-42650000D02*
X173080000Y-58990000D01*
X155370000Y-33975000D02*
X155370000Y-36300000D01*
X170480000Y-40050000D02*
X173080000Y-42650000D01*
X157425000Y-45975000D02*
X161430000Y-49980000D01*
X155370000Y-45975000D02*
X157425000Y-45975000D01*
X161430000Y-49980000D02*
X167072500Y-49980000D01*
X161400000Y-50010000D02*
X161430000Y-49980000D01*
X161400000Y-64300000D02*
X161400000Y-50010000D01*
X162320000Y-65220000D02*
X161400000Y-64300000D01*
X167072500Y-65220000D02*
X162320000Y-65220000D01*
D25*
X135970000Y-71470000D02*
X135120000Y-71470000D01*
X136175000Y-71265000D02*
X135970000Y-71470000D01*
X135120000Y-71470000D02*
X135080000Y-71510000D01*
X136175000Y-70460000D02*
X136175000Y-71265000D01*
X132865000Y-82505000D02*
X132860000Y-82510000D01*
X132865000Y-81410000D02*
X132865000Y-82505000D01*
X132502500Y-48712500D02*
X132940000Y-49150000D01*
X132502500Y-47360000D02*
X132502500Y-48712500D01*
X136220000Y-58195000D02*
X136265000Y-58150000D01*
X136220000Y-59690000D02*
X136220000Y-58195000D01*
X128890000Y-79500000D02*
X128890000Y-65730000D01*
X128880000Y-79510000D02*
X128890000Y-79500000D01*
X133760000Y-85770000D02*
X133770000Y-85780000D01*
X131360000Y-85770000D02*
X133760000Y-85770000D01*
X137630000Y-82870000D02*
X138040000Y-83280000D01*
X134740000Y-82460000D02*
X135150000Y-82870000D01*
X135150000Y-82870000D02*
X137630000Y-82870000D01*
X134740000Y-80460000D02*
X134740000Y-82460000D01*
X138040000Y-83280000D02*
X138040000Y-85750000D01*
X138040000Y-85750000D02*
X138070000Y-85780000D01*
X129250000Y-57040000D02*
X129577500Y-56712500D01*
X129250000Y-62330000D02*
X129250000Y-57040000D01*
X129945000Y-63025000D02*
X129250000Y-62330000D01*
X132830000Y-63025000D02*
X129945000Y-63025000D01*
X129577500Y-56712500D02*
X130570000Y-56712500D01*
X138070000Y-52875000D02*
X138070000Y-57130000D01*
X138070000Y-57130000D02*
X138140000Y-57200000D01*
X131192500Y-58287500D02*
X130570000Y-58287500D01*
X131710000Y-57770000D02*
X131192500Y-58287500D01*
X132210000Y-57770000D02*
X131710000Y-57770000D01*
X130602500Y-56680000D02*
X130570000Y-56712500D01*
X132200000Y-56680000D02*
X130602500Y-56680000D01*
X133350000Y-57740000D02*
X133230000Y-57860000D01*
X134470000Y-57740000D02*
X133350000Y-57740000D01*
X134480000Y-57730000D02*
X134470000Y-57740000D01*
X133250000Y-56710000D02*
X133220000Y-56680000D01*
X134480000Y-56710000D02*
X133250000Y-56710000D01*
X134490000Y-57740000D02*
X134970000Y-57740000D01*
X135380000Y-58150000D02*
X136265000Y-58150000D01*
X134480000Y-57730000D02*
X134490000Y-57740000D01*
X134970000Y-57740000D02*
X135380000Y-58150000D01*
X135350000Y-56250000D02*
X136265000Y-56250000D01*
X134890000Y-56710000D02*
X135350000Y-56250000D01*
X134480000Y-56710000D02*
X134890000Y-56710000D01*
X130720000Y-68552500D02*
X130720000Y-64275000D01*
X130700000Y-68572500D02*
X130720000Y-68552500D01*
X138070000Y-73825000D02*
X138070000Y-69530000D01*
X138070000Y-69530000D02*
X138050000Y-69510000D01*
X130830000Y-45450000D02*
X130830000Y-46550000D01*
X130810000Y-45430000D02*
X130830000Y-45450000D01*
X128880000Y-45450000D02*
X129770000Y-45450000D01*
X128390000Y-63020000D02*
X128390000Y-45940000D01*
X129645000Y-64275000D02*
X128390000Y-63020000D01*
X128390000Y-45940000D02*
X128880000Y-45450000D01*
X132830000Y-64275000D02*
X129645000Y-64275000D01*
X129770000Y-45450000D02*
X129790000Y-45430000D01*
X134377500Y-44522500D02*
X134377500Y-46410000D01*
X140130000Y-86270000D02*
X140130000Y-89925000D01*
X139640000Y-85780000D02*
X140130000Y-86270000D01*
X138070000Y-85780000D02*
X139640000Y-85780000D01*
X133760000Y-85790000D02*
X133770000Y-85780000D01*
X133760000Y-89410000D02*
X133760000Y-85790000D01*
X134275000Y-89925000D02*
X133760000Y-89410000D01*
X137590000Y-89925000D02*
X134275000Y-89925000D01*
X135000000Y-43900000D02*
X134377500Y-44522500D01*
X136940000Y-43900000D02*
X135000000Y-43900000D01*
X138070000Y-42770000D02*
X136940000Y-43900000D01*
X138070000Y-40850000D02*
X138070000Y-42770000D01*
X133800000Y-42950000D02*
X133800000Y-40880000D01*
X133800000Y-40880000D02*
X133770000Y-40850000D01*
X130720000Y-64275000D02*
X132830000Y-64275000D01*
X131500000Y-47360000D02*
X132502500Y-47360000D01*
X131290000Y-47570000D02*
X131500000Y-47360000D01*
X130830000Y-47570000D02*
X131290000Y-47570000D01*
X130840000Y-45460000D02*
X130810000Y-45430000D01*
X132502500Y-45460000D02*
X130840000Y-45460000D01*
X140130000Y-35850000D02*
X138070000Y-37910000D01*
X138070000Y-37910000D02*
X138070000Y-40850000D01*
X140130000Y-33975000D02*
X140130000Y-35850000D01*
X133770000Y-35180000D02*
X133770000Y-40850000D01*
X134975000Y-33975000D02*
X133770000Y-35180000D01*
X137590000Y-33975000D02*
X134975000Y-33975000D01*
D24*
X156779600Y-74639600D02*
X156779600Y-72087200D01*
X155370000Y-76090000D02*
X156800000Y-74660000D01*
X155370000Y-77925000D02*
X155370000Y-76090000D01*
X156800000Y-74660000D02*
X156779600Y-74639600D01*
X151779600Y-72087200D02*
X156779600Y-72087200D01*
D25*
X137590000Y-49365000D02*
X136830000Y-50125000D01*
X133770000Y-50835000D02*
X133770000Y-52875000D01*
X134480000Y-50125000D02*
X133770000Y-50835000D01*
X137590000Y-45975000D02*
X137590000Y-49365000D01*
X133770000Y-52875000D02*
X131280000Y-52875000D01*
X137590000Y-77645000D02*
X133770000Y-73825000D01*
X131280000Y-73825000D02*
X133770000Y-73825000D01*
X136830000Y-50125000D02*
X134480000Y-50125000D01*
X137590000Y-77925000D02*
X137590000Y-77645000D01*
X140130000Y-77925000D02*
X140130000Y-74175000D01*
X139780000Y-73825000D02*
X138070000Y-73825000D01*
X140130000Y-74175000D02*
X139780000Y-73825000D01*
X132127500Y-70147500D02*
X132140000Y-70160000D01*
X130700000Y-70147500D02*
X132127500Y-70147500D01*
X130712500Y-68560000D02*
X130700000Y-68572500D01*
X132190000Y-68560000D02*
X130712500Y-68560000D01*
X138130000Y-52815000D02*
X138070000Y-52875000D01*
X140130000Y-48625000D02*
X138130000Y-50625000D01*
X138130000Y-50625000D02*
X138130000Y-52815000D01*
X140130000Y-45975000D02*
X140130000Y-48625000D01*
X135060000Y-69560000D02*
X134360000Y-69560000D01*
X132600000Y-80510000D02*
X131050000Y-80510000D01*
X132865000Y-80775000D02*
X132600000Y-80510000D01*
X136175000Y-69775000D02*
X135960000Y-69560000D01*
X134350000Y-69570000D02*
X134310000Y-69610000D01*
X131050000Y-80510000D02*
X131040000Y-80520000D01*
X134310000Y-69610000D02*
X134310000Y-70160000D01*
X135960000Y-69560000D02*
X135060000Y-69560000D01*
X134360000Y-69560000D02*
X134350000Y-69570000D01*
X136175000Y-70460000D02*
X136175000Y-69775000D01*
X134310000Y-70160000D02*
X133160000Y-70160000D01*
X132865000Y-81410000D02*
X132865000Y-80775000D01*
X136175000Y-68560000D02*
X134360000Y-68560000D01*
X134340000Y-68560000D02*
X133210000Y-68560000D01*
X134360000Y-68560000D02*
X134350000Y-68550000D01*
X134350000Y-68550000D02*
X134340000Y-68560000D01*
X131030000Y-79510000D02*
X131040000Y-79500000D01*
X131050000Y-79510000D02*
X131040000Y-79500000D01*
X132865000Y-79510000D02*
X131050000Y-79510000D01*
X129900000Y-79510000D02*
X131030000Y-79510000D01*
M02*
