%TF.GenerationSoftware,KiCad,Pcbnew,7.0.8*%
%TF.CreationDate,2024-01-14T11:32:42+01:00*%
%TF.ProjectId,Verteiler,56657274-6569-46c6-9572-2e6b69636164,rev?*%
%TF.SameCoordinates,Original*%
%TF.FileFunction,Drillmap*%
%TF.FilePolarity,Positive*%
%FSLAX45Y45*%
G04 Gerber Fmt 4.5, Leading zero omitted, Abs format (unit mm)*
G04 Created by KiCad (PCBNEW 7.0.8) date 2024-01-14 11:32:42*
%MOMM*%
%LPD*%
G01*
G04 APERTURE LIST*
%ADD10C,0.100000*%
%ADD11C,0.200000*%
%ADD12C,0.320000*%
G04 APERTURE END LIST*
D10*
X14200000Y-8660000D02*
G75*
G03*
X14400000Y-8660000I100000J0D01*
G01*
X12730000Y-2495000D02*
X17830000Y-2495000D01*
X17830000Y-10020000D01*
X12730000Y-10020000D01*
X12730000Y-2495000D01*
X14400000Y-4025000D02*
X14400000Y-8660000D01*
X14200000Y-4025000D02*
X14200000Y-8660000D01*
X14400000Y-4025000D02*
G75*
G03*
X14200000Y-4025000I-100000J0D01*
G01*
D11*
D12*
X13070000Y-2835000D02*
X13390000Y-3155000D01*
X13390000Y-2835000D02*
X13070000Y-3155000D01*
X13070000Y-9360000D02*
X13390000Y-9680000D01*
X13390000Y-9360000D02*
X13070000Y-9680000D01*
D11*
X12985777Y-10336484D02*
X12985777Y-10136484D01*
X12985777Y-10136484D02*
X13033396Y-10136484D01*
X13033396Y-10136484D02*
X13061967Y-10146008D01*
X13061967Y-10146008D02*
X13081015Y-10165055D01*
X13081015Y-10165055D02*
X13090539Y-10184103D01*
X13090539Y-10184103D02*
X13100062Y-10222198D01*
X13100062Y-10222198D02*
X13100062Y-10250770D01*
X13100062Y-10250770D02*
X13090539Y-10288865D01*
X13090539Y-10288865D02*
X13081015Y-10307912D01*
X13081015Y-10307912D02*
X13061967Y-10326960D01*
X13061967Y-10326960D02*
X13033396Y-10336484D01*
X13033396Y-10336484D02*
X12985777Y-10336484D01*
X13185777Y-10336484D02*
X13185777Y-10203150D01*
X13185777Y-10241246D02*
X13195301Y-10222198D01*
X13195301Y-10222198D02*
X13204824Y-10212674D01*
X13204824Y-10212674D02*
X13223872Y-10203150D01*
X13223872Y-10203150D02*
X13242920Y-10203150D01*
X13309586Y-10336484D02*
X13309586Y-10203150D01*
X13309586Y-10136484D02*
X13300062Y-10146008D01*
X13300062Y-10146008D02*
X13309586Y-10155531D01*
X13309586Y-10155531D02*
X13319110Y-10146008D01*
X13319110Y-10146008D02*
X13309586Y-10136484D01*
X13309586Y-10136484D02*
X13309586Y-10155531D01*
X13433396Y-10336484D02*
X13414348Y-10326960D01*
X13414348Y-10326960D02*
X13404824Y-10307912D01*
X13404824Y-10307912D02*
X13404824Y-10136484D01*
X13538158Y-10336484D02*
X13519110Y-10326960D01*
X13519110Y-10326960D02*
X13509586Y-10307912D01*
X13509586Y-10307912D02*
X13509586Y-10136484D01*
X13766729Y-10336484D02*
X13766729Y-10136484D01*
X13766729Y-10136484D02*
X13833396Y-10279341D01*
X13833396Y-10279341D02*
X13900062Y-10136484D01*
X13900062Y-10136484D02*
X13900062Y-10336484D01*
X14081015Y-10336484D02*
X14081015Y-10231722D01*
X14081015Y-10231722D02*
X14071491Y-10212674D01*
X14071491Y-10212674D02*
X14052443Y-10203150D01*
X14052443Y-10203150D02*
X14014348Y-10203150D01*
X14014348Y-10203150D02*
X13995301Y-10212674D01*
X14081015Y-10326960D02*
X14061967Y-10336484D01*
X14061967Y-10336484D02*
X14014348Y-10336484D01*
X14014348Y-10336484D02*
X13995301Y-10326960D01*
X13995301Y-10326960D02*
X13985777Y-10307912D01*
X13985777Y-10307912D02*
X13985777Y-10288865D01*
X13985777Y-10288865D02*
X13995301Y-10269817D01*
X13995301Y-10269817D02*
X14014348Y-10260293D01*
X14014348Y-10260293D02*
X14061967Y-10260293D01*
X14061967Y-10260293D02*
X14081015Y-10250770D01*
X14176253Y-10203150D02*
X14176253Y-10403150D01*
X14176253Y-10212674D02*
X14195301Y-10203150D01*
X14195301Y-10203150D02*
X14233396Y-10203150D01*
X14233396Y-10203150D02*
X14252443Y-10212674D01*
X14252443Y-10212674D02*
X14261967Y-10222198D01*
X14261967Y-10222198D02*
X14271491Y-10241246D01*
X14271491Y-10241246D02*
X14271491Y-10298389D01*
X14271491Y-10298389D02*
X14261967Y-10317436D01*
X14261967Y-10317436D02*
X14252443Y-10326960D01*
X14252443Y-10326960D02*
X14233396Y-10336484D01*
X14233396Y-10336484D02*
X14195301Y-10336484D01*
X14195301Y-10336484D02*
X14176253Y-10326960D01*
X14357205Y-10317436D02*
X14366729Y-10326960D01*
X14366729Y-10326960D02*
X14357205Y-10336484D01*
X14357205Y-10336484D02*
X14347682Y-10326960D01*
X14347682Y-10326960D02*
X14357205Y-10317436D01*
X14357205Y-10317436D02*
X14357205Y-10336484D01*
X14357205Y-10212674D02*
X14366729Y-10222198D01*
X14366729Y-10222198D02*
X14357205Y-10231722D01*
X14357205Y-10231722D02*
X14347682Y-10222198D01*
X14347682Y-10222198D02*
X14357205Y-10212674D01*
X14357205Y-10212674D02*
X14357205Y-10231722D01*
X12525000Y-10565000D02*
X12725000Y-10765000D01*
X12725000Y-10565000D02*
X12525000Y-10765000D01*
X12966729Y-10556484D02*
X13090539Y-10556484D01*
X13090539Y-10556484D02*
X13023872Y-10632674D01*
X13023872Y-10632674D02*
X13052443Y-10632674D01*
X13052443Y-10632674D02*
X13071491Y-10642198D01*
X13071491Y-10642198D02*
X13081015Y-10651722D01*
X13081015Y-10651722D02*
X13090539Y-10670770D01*
X13090539Y-10670770D02*
X13090539Y-10718389D01*
X13090539Y-10718389D02*
X13081015Y-10737436D01*
X13081015Y-10737436D02*
X13071491Y-10746960D01*
X13071491Y-10746960D02*
X13052443Y-10756484D01*
X13052443Y-10756484D02*
X12995301Y-10756484D01*
X12995301Y-10756484D02*
X12976253Y-10746960D01*
X12976253Y-10746960D02*
X12966729Y-10737436D01*
X13176253Y-10737436D02*
X13185777Y-10746960D01*
X13185777Y-10746960D02*
X13176253Y-10756484D01*
X13176253Y-10756484D02*
X13166729Y-10746960D01*
X13166729Y-10746960D02*
X13176253Y-10737436D01*
X13176253Y-10737436D02*
X13176253Y-10756484D01*
X13261967Y-10575531D02*
X13271491Y-10566008D01*
X13271491Y-10566008D02*
X13290539Y-10556484D01*
X13290539Y-10556484D02*
X13338158Y-10556484D01*
X13338158Y-10556484D02*
X13357205Y-10566008D01*
X13357205Y-10566008D02*
X13366729Y-10575531D01*
X13366729Y-10575531D02*
X13376253Y-10594579D01*
X13376253Y-10594579D02*
X13376253Y-10613627D01*
X13376253Y-10613627D02*
X13366729Y-10642198D01*
X13366729Y-10642198D02*
X13252443Y-10756484D01*
X13252443Y-10756484D02*
X13376253Y-10756484D01*
X13500062Y-10556484D02*
X13519110Y-10556484D01*
X13519110Y-10556484D02*
X13538158Y-10566008D01*
X13538158Y-10566008D02*
X13547682Y-10575531D01*
X13547682Y-10575531D02*
X13557205Y-10594579D01*
X13557205Y-10594579D02*
X13566729Y-10632674D01*
X13566729Y-10632674D02*
X13566729Y-10680293D01*
X13566729Y-10680293D02*
X13557205Y-10718389D01*
X13557205Y-10718389D02*
X13547682Y-10737436D01*
X13547682Y-10737436D02*
X13538158Y-10746960D01*
X13538158Y-10746960D02*
X13519110Y-10756484D01*
X13519110Y-10756484D02*
X13500062Y-10756484D01*
X13500062Y-10756484D02*
X13481015Y-10746960D01*
X13481015Y-10746960D02*
X13471491Y-10737436D01*
X13471491Y-10737436D02*
X13461967Y-10718389D01*
X13461967Y-10718389D02*
X13452443Y-10680293D01*
X13452443Y-10680293D02*
X13452443Y-10632674D01*
X13452443Y-10632674D02*
X13461967Y-10594579D01*
X13461967Y-10594579D02*
X13471491Y-10575531D01*
X13471491Y-10575531D02*
X13481015Y-10566008D01*
X13481015Y-10566008D02*
X13500062Y-10556484D01*
X13690539Y-10556484D02*
X13709586Y-10556484D01*
X13709586Y-10556484D02*
X13728634Y-10566008D01*
X13728634Y-10566008D02*
X13738158Y-10575531D01*
X13738158Y-10575531D02*
X13747682Y-10594579D01*
X13747682Y-10594579D02*
X13757205Y-10632674D01*
X13757205Y-10632674D02*
X13757205Y-10680293D01*
X13757205Y-10680293D02*
X13747682Y-10718389D01*
X13747682Y-10718389D02*
X13738158Y-10737436D01*
X13738158Y-10737436D02*
X13728634Y-10746960D01*
X13728634Y-10746960D02*
X13709586Y-10756484D01*
X13709586Y-10756484D02*
X13690539Y-10756484D01*
X13690539Y-10756484D02*
X13671491Y-10746960D01*
X13671491Y-10746960D02*
X13661967Y-10737436D01*
X13661967Y-10737436D02*
X13652443Y-10718389D01*
X13652443Y-10718389D02*
X13642920Y-10680293D01*
X13642920Y-10680293D02*
X13642920Y-10632674D01*
X13642920Y-10632674D02*
X13652443Y-10594579D01*
X13652443Y-10594579D02*
X13661967Y-10575531D01*
X13661967Y-10575531D02*
X13671491Y-10566008D01*
X13671491Y-10566008D02*
X13690539Y-10556484D01*
X13842920Y-10756484D02*
X13842920Y-10623150D01*
X13842920Y-10642198D02*
X13852443Y-10632674D01*
X13852443Y-10632674D02*
X13871491Y-10623150D01*
X13871491Y-10623150D02*
X13900063Y-10623150D01*
X13900063Y-10623150D02*
X13919110Y-10632674D01*
X13919110Y-10632674D02*
X13928634Y-10651722D01*
X13928634Y-10651722D02*
X13928634Y-10756484D01*
X13928634Y-10651722D02*
X13938158Y-10632674D01*
X13938158Y-10632674D02*
X13957205Y-10623150D01*
X13957205Y-10623150D02*
X13985777Y-10623150D01*
X13985777Y-10623150D02*
X14004824Y-10632674D01*
X14004824Y-10632674D02*
X14014348Y-10651722D01*
X14014348Y-10651722D02*
X14014348Y-10756484D01*
X14109586Y-10756484D02*
X14109586Y-10623150D01*
X14109586Y-10642198D02*
X14119110Y-10632674D01*
X14119110Y-10632674D02*
X14138158Y-10623150D01*
X14138158Y-10623150D02*
X14166729Y-10623150D01*
X14166729Y-10623150D02*
X14185777Y-10632674D01*
X14185777Y-10632674D02*
X14195301Y-10651722D01*
X14195301Y-10651722D02*
X14195301Y-10756484D01*
X14195301Y-10651722D02*
X14204824Y-10632674D01*
X14204824Y-10632674D02*
X14223872Y-10623150D01*
X14223872Y-10623150D02*
X14252443Y-10623150D01*
X14252443Y-10623150D02*
X14271491Y-10632674D01*
X14271491Y-10632674D02*
X14281015Y-10651722D01*
X14281015Y-10651722D02*
X14281015Y-10756484D01*
X14671491Y-10546960D02*
X14500063Y-10804103D01*
X14928634Y-10556484D02*
X14947682Y-10556484D01*
X14947682Y-10556484D02*
X14966729Y-10566008D01*
X14966729Y-10566008D02*
X14976253Y-10575531D01*
X14976253Y-10575531D02*
X14985777Y-10594579D01*
X14985777Y-10594579D02*
X14995301Y-10632674D01*
X14995301Y-10632674D02*
X14995301Y-10680293D01*
X14995301Y-10680293D02*
X14985777Y-10718389D01*
X14985777Y-10718389D02*
X14976253Y-10737436D01*
X14976253Y-10737436D02*
X14966729Y-10746960D01*
X14966729Y-10746960D02*
X14947682Y-10756484D01*
X14947682Y-10756484D02*
X14928634Y-10756484D01*
X14928634Y-10756484D02*
X14909586Y-10746960D01*
X14909586Y-10746960D02*
X14900063Y-10737436D01*
X14900063Y-10737436D02*
X14890539Y-10718389D01*
X14890539Y-10718389D02*
X14881015Y-10680293D01*
X14881015Y-10680293D02*
X14881015Y-10632674D01*
X14881015Y-10632674D02*
X14890539Y-10594579D01*
X14890539Y-10594579D02*
X14900063Y-10575531D01*
X14900063Y-10575531D02*
X14909586Y-10566008D01*
X14909586Y-10566008D02*
X14928634Y-10556484D01*
X15081015Y-10737436D02*
X15090539Y-10746960D01*
X15090539Y-10746960D02*
X15081015Y-10756484D01*
X15081015Y-10756484D02*
X15071491Y-10746960D01*
X15071491Y-10746960D02*
X15081015Y-10737436D01*
X15081015Y-10737436D02*
X15081015Y-10756484D01*
X15281015Y-10756484D02*
X15166729Y-10756484D01*
X15223872Y-10756484D02*
X15223872Y-10556484D01*
X15223872Y-10556484D02*
X15204825Y-10585055D01*
X15204825Y-10585055D02*
X15185777Y-10604103D01*
X15185777Y-10604103D02*
X15166729Y-10613627D01*
X15357206Y-10575531D02*
X15366729Y-10566008D01*
X15366729Y-10566008D02*
X15385777Y-10556484D01*
X15385777Y-10556484D02*
X15433396Y-10556484D01*
X15433396Y-10556484D02*
X15452444Y-10566008D01*
X15452444Y-10566008D02*
X15461967Y-10575531D01*
X15461967Y-10575531D02*
X15471491Y-10594579D01*
X15471491Y-10594579D02*
X15471491Y-10613627D01*
X15471491Y-10613627D02*
X15461967Y-10642198D01*
X15461967Y-10642198D02*
X15347682Y-10756484D01*
X15347682Y-10756484D02*
X15471491Y-10756484D01*
X15642920Y-10556484D02*
X15604825Y-10556484D01*
X15604825Y-10556484D02*
X15585777Y-10566008D01*
X15585777Y-10566008D02*
X15576253Y-10575531D01*
X15576253Y-10575531D02*
X15557206Y-10604103D01*
X15557206Y-10604103D02*
X15547682Y-10642198D01*
X15547682Y-10642198D02*
X15547682Y-10718389D01*
X15547682Y-10718389D02*
X15557206Y-10737436D01*
X15557206Y-10737436D02*
X15566729Y-10746960D01*
X15566729Y-10746960D02*
X15585777Y-10756484D01*
X15585777Y-10756484D02*
X15623872Y-10756484D01*
X15623872Y-10756484D02*
X15642920Y-10746960D01*
X15642920Y-10746960D02*
X15652444Y-10737436D01*
X15652444Y-10737436D02*
X15661967Y-10718389D01*
X15661967Y-10718389D02*
X15661967Y-10670770D01*
X15661967Y-10670770D02*
X15652444Y-10651722D01*
X15652444Y-10651722D02*
X15642920Y-10642198D01*
X15642920Y-10642198D02*
X15623872Y-10632674D01*
X15623872Y-10632674D02*
X15585777Y-10632674D01*
X15585777Y-10632674D02*
X15566729Y-10642198D01*
X15566729Y-10642198D02*
X15557206Y-10651722D01*
X15557206Y-10651722D02*
X15547682Y-10670770D01*
X15785777Y-10556484D02*
X15804825Y-10556484D01*
X15804825Y-10556484D02*
X15823872Y-10566008D01*
X15823872Y-10566008D02*
X15833396Y-10575531D01*
X15833396Y-10575531D02*
X15842920Y-10594579D01*
X15842920Y-10594579D02*
X15852444Y-10632674D01*
X15852444Y-10632674D02*
X15852444Y-10680293D01*
X15852444Y-10680293D02*
X15842920Y-10718389D01*
X15842920Y-10718389D02*
X15833396Y-10737436D01*
X15833396Y-10737436D02*
X15823872Y-10746960D01*
X15823872Y-10746960D02*
X15804825Y-10756484D01*
X15804825Y-10756484D02*
X15785777Y-10756484D01*
X15785777Y-10756484D02*
X15766729Y-10746960D01*
X15766729Y-10746960D02*
X15757206Y-10737436D01*
X15757206Y-10737436D02*
X15747682Y-10718389D01*
X15747682Y-10718389D02*
X15738158Y-10680293D01*
X15738158Y-10680293D02*
X15738158Y-10632674D01*
X15738158Y-10632674D02*
X15747682Y-10594579D01*
X15747682Y-10594579D02*
X15757206Y-10575531D01*
X15757206Y-10575531D02*
X15766729Y-10566008D01*
X15766729Y-10566008D02*
X15785777Y-10556484D01*
X15928634Y-10556484D02*
X15928634Y-10594579D01*
X16004825Y-10556484D02*
X16004825Y-10594579D01*
X16300063Y-10832674D02*
X16290539Y-10823150D01*
X16290539Y-10823150D02*
X16271491Y-10794579D01*
X16271491Y-10794579D02*
X16261968Y-10775531D01*
X16261968Y-10775531D02*
X16252444Y-10746960D01*
X16252444Y-10746960D02*
X16242920Y-10699341D01*
X16242920Y-10699341D02*
X16242920Y-10661246D01*
X16242920Y-10661246D02*
X16252444Y-10613627D01*
X16252444Y-10613627D02*
X16261968Y-10585055D01*
X16261968Y-10585055D02*
X16271491Y-10566008D01*
X16271491Y-10566008D02*
X16290539Y-10537436D01*
X16290539Y-10537436D02*
X16300063Y-10527912D01*
X16366729Y-10575531D02*
X16376253Y-10566008D01*
X16376253Y-10566008D02*
X16395301Y-10556484D01*
X16395301Y-10556484D02*
X16442920Y-10556484D01*
X16442920Y-10556484D02*
X16461968Y-10566008D01*
X16461968Y-10566008D02*
X16471491Y-10575531D01*
X16471491Y-10575531D02*
X16481015Y-10594579D01*
X16481015Y-10594579D02*
X16481015Y-10613627D01*
X16481015Y-10613627D02*
X16471491Y-10642198D01*
X16471491Y-10642198D02*
X16357206Y-10756484D01*
X16357206Y-10756484D02*
X16481015Y-10756484D01*
X16719110Y-10756484D02*
X16719110Y-10556484D01*
X16804825Y-10756484D02*
X16804825Y-10651722D01*
X16804825Y-10651722D02*
X16795301Y-10632674D01*
X16795301Y-10632674D02*
X16776253Y-10623150D01*
X16776253Y-10623150D02*
X16747682Y-10623150D01*
X16747682Y-10623150D02*
X16728634Y-10632674D01*
X16728634Y-10632674D02*
X16719110Y-10642198D01*
X16928634Y-10756484D02*
X16909587Y-10746960D01*
X16909587Y-10746960D02*
X16900063Y-10737436D01*
X16900063Y-10737436D02*
X16890539Y-10718389D01*
X16890539Y-10718389D02*
X16890539Y-10661246D01*
X16890539Y-10661246D02*
X16900063Y-10642198D01*
X16900063Y-10642198D02*
X16909587Y-10632674D01*
X16909587Y-10632674D02*
X16928634Y-10623150D01*
X16928634Y-10623150D02*
X16957206Y-10623150D01*
X16957206Y-10623150D02*
X16976253Y-10632674D01*
X16976253Y-10632674D02*
X16985777Y-10642198D01*
X16985777Y-10642198D02*
X16995301Y-10661246D01*
X16995301Y-10661246D02*
X16995301Y-10718389D01*
X16995301Y-10718389D02*
X16985777Y-10737436D01*
X16985777Y-10737436D02*
X16976253Y-10746960D01*
X16976253Y-10746960D02*
X16957206Y-10756484D01*
X16957206Y-10756484D02*
X16928634Y-10756484D01*
X17109587Y-10756484D02*
X17090539Y-10746960D01*
X17090539Y-10746960D02*
X17081015Y-10727912D01*
X17081015Y-10727912D02*
X17081015Y-10556484D01*
X17261968Y-10746960D02*
X17242920Y-10756484D01*
X17242920Y-10756484D02*
X17204825Y-10756484D01*
X17204825Y-10756484D02*
X17185777Y-10746960D01*
X17185777Y-10746960D02*
X17176253Y-10727912D01*
X17176253Y-10727912D02*
X17176253Y-10651722D01*
X17176253Y-10651722D02*
X17185777Y-10632674D01*
X17185777Y-10632674D02*
X17204825Y-10623150D01*
X17204825Y-10623150D02*
X17242920Y-10623150D01*
X17242920Y-10623150D02*
X17261968Y-10632674D01*
X17261968Y-10632674D02*
X17271492Y-10651722D01*
X17271492Y-10651722D02*
X17271492Y-10670770D01*
X17271492Y-10670770D02*
X17176253Y-10689817D01*
X17347682Y-10746960D02*
X17366730Y-10756484D01*
X17366730Y-10756484D02*
X17404825Y-10756484D01*
X17404825Y-10756484D02*
X17423873Y-10746960D01*
X17423873Y-10746960D02*
X17433396Y-10727912D01*
X17433396Y-10727912D02*
X17433396Y-10718389D01*
X17433396Y-10718389D02*
X17423873Y-10699341D01*
X17423873Y-10699341D02*
X17404825Y-10689817D01*
X17404825Y-10689817D02*
X17376253Y-10689817D01*
X17376253Y-10689817D02*
X17357206Y-10680293D01*
X17357206Y-10680293D02*
X17347682Y-10661246D01*
X17347682Y-10661246D02*
X17347682Y-10651722D01*
X17347682Y-10651722D02*
X17357206Y-10632674D01*
X17357206Y-10632674D02*
X17376253Y-10623150D01*
X17376253Y-10623150D02*
X17404825Y-10623150D01*
X17404825Y-10623150D02*
X17423873Y-10632674D01*
X17500063Y-10832674D02*
X17509587Y-10823150D01*
X17509587Y-10823150D02*
X17528634Y-10794579D01*
X17528634Y-10794579D02*
X17538158Y-10775531D01*
X17538158Y-10775531D02*
X17547682Y-10746960D01*
X17547682Y-10746960D02*
X17557206Y-10699341D01*
X17557206Y-10699341D02*
X17557206Y-10661246D01*
X17557206Y-10661246D02*
X17547682Y-10613627D01*
X17547682Y-10613627D02*
X17538158Y-10585055D01*
X17538158Y-10585055D02*
X17528634Y-10566008D01*
X17528634Y-10566008D02*
X17509587Y-10537436D01*
X17509587Y-10537436D02*
X17500063Y-10527912D01*
X17861968Y-10832674D02*
X17852444Y-10823150D01*
X17852444Y-10823150D02*
X17833396Y-10794579D01*
X17833396Y-10794579D02*
X17823873Y-10775531D01*
X17823873Y-10775531D02*
X17814349Y-10746960D01*
X17814349Y-10746960D02*
X17804825Y-10699341D01*
X17804825Y-10699341D02*
X17804825Y-10661246D01*
X17804825Y-10661246D02*
X17814349Y-10613627D01*
X17814349Y-10613627D02*
X17823873Y-10585055D01*
X17823873Y-10585055D02*
X17833396Y-10566008D01*
X17833396Y-10566008D02*
X17852444Y-10537436D01*
X17852444Y-10537436D02*
X17861968Y-10527912D01*
X17938158Y-10623150D02*
X17938158Y-10756484D01*
X17938158Y-10642198D02*
X17947682Y-10632674D01*
X17947682Y-10632674D02*
X17966730Y-10623150D01*
X17966730Y-10623150D02*
X17995301Y-10623150D01*
X17995301Y-10623150D02*
X18014349Y-10632674D01*
X18014349Y-10632674D02*
X18023873Y-10651722D01*
X18023873Y-10651722D02*
X18023873Y-10756484D01*
X18147682Y-10756484D02*
X18128634Y-10746960D01*
X18128634Y-10746960D02*
X18119111Y-10737436D01*
X18119111Y-10737436D02*
X18109587Y-10718389D01*
X18109587Y-10718389D02*
X18109587Y-10661246D01*
X18109587Y-10661246D02*
X18119111Y-10642198D01*
X18119111Y-10642198D02*
X18128634Y-10632674D01*
X18128634Y-10632674D02*
X18147682Y-10623150D01*
X18147682Y-10623150D02*
X18176254Y-10623150D01*
X18176254Y-10623150D02*
X18195301Y-10632674D01*
X18195301Y-10632674D02*
X18204825Y-10642198D01*
X18204825Y-10642198D02*
X18214349Y-10661246D01*
X18214349Y-10661246D02*
X18214349Y-10718389D01*
X18214349Y-10718389D02*
X18204825Y-10737436D01*
X18204825Y-10737436D02*
X18195301Y-10746960D01*
X18195301Y-10746960D02*
X18176254Y-10756484D01*
X18176254Y-10756484D02*
X18147682Y-10756484D01*
X18271492Y-10623150D02*
X18347682Y-10623150D01*
X18300063Y-10556484D02*
X18300063Y-10727912D01*
X18300063Y-10727912D02*
X18309587Y-10746960D01*
X18309587Y-10746960D02*
X18328634Y-10756484D01*
X18328634Y-10756484D02*
X18347682Y-10756484D01*
X18566730Y-10623150D02*
X18566730Y-10823150D01*
X18566730Y-10632674D02*
X18585777Y-10623150D01*
X18585777Y-10623150D02*
X18623873Y-10623150D01*
X18623873Y-10623150D02*
X18642920Y-10632674D01*
X18642920Y-10632674D02*
X18652444Y-10642198D01*
X18652444Y-10642198D02*
X18661968Y-10661246D01*
X18661968Y-10661246D02*
X18661968Y-10718389D01*
X18661968Y-10718389D02*
X18652444Y-10737436D01*
X18652444Y-10737436D02*
X18642920Y-10746960D01*
X18642920Y-10746960D02*
X18623873Y-10756484D01*
X18623873Y-10756484D02*
X18585777Y-10756484D01*
X18585777Y-10756484D02*
X18566730Y-10746960D01*
X18776254Y-10756484D02*
X18757206Y-10746960D01*
X18757206Y-10746960D02*
X18747682Y-10727912D01*
X18747682Y-10727912D02*
X18747682Y-10556484D01*
X18938158Y-10756484D02*
X18938158Y-10651722D01*
X18938158Y-10651722D02*
X18928635Y-10632674D01*
X18928635Y-10632674D02*
X18909587Y-10623150D01*
X18909587Y-10623150D02*
X18871492Y-10623150D01*
X18871492Y-10623150D02*
X18852444Y-10632674D01*
X18938158Y-10746960D02*
X18919111Y-10756484D01*
X18919111Y-10756484D02*
X18871492Y-10756484D01*
X18871492Y-10756484D02*
X18852444Y-10746960D01*
X18852444Y-10746960D02*
X18842920Y-10727912D01*
X18842920Y-10727912D02*
X18842920Y-10708865D01*
X18842920Y-10708865D02*
X18852444Y-10689817D01*
X18852444Y-10689817D02*
X18871492Y-10680293D01*
X18871492Y-10680293D02*
X18919111Y-10680293D01*
X18919111Y-10680293D02*
X18938158Y-10670770D01*
X19004825Y-10623150D02*
X19081015Y-10623150D01*
X19033396Y-10556484D02*
X19033396Y-10727912D01*
X19033396Y-10727912D02*
X19042920Y-10746960D01*
X19042920Y-10746960D02*
X19061968Y-10756484D01*
X19061968Y-10756484D02*
X19081015Y-10756484D01*
X19223873Y-10746960D02*
X19204825Y-10756484D01*
X19204825Y-10756484D02*
X19166730Y-10756484D01*
X19166730Y-10756484D02*
X19147682Y-10746960D01*
X19147682Y-10746960D02*
X19138158Y-10727912D01*
X19138158Y-10727912D02*
X19138158Y-10651722D01*
X19138158Y-10651722D02*
X19147682Y-10632674D01*
X19147682Y-10632674D02*
X19166730Y-10623150D01*
X19166730Y-10623150D02*
X19204825Y-10623150D01*
X19204825Y-10623150D02*
X19223873Y-10632674D01*
X19223873Y-10632674D02*
X19233396Y-10651722D01*
X19233396Y-10651722D02*
X19233396Y-10670770D01*
X19233396Y-10670770D02*
X19138158Y-10689817D01*
X19404825Y-10756484D02*
X19404825Y-10556484D01*
X19404825Y-10746960D02*
X19385777Y-10756484D01*
X19385777Y-10756484D02*
X19347682Y-10756484D01*
X19347682Y-10756484D02*
X19328635Y-10746960D01*
X19328635Y-10746960D02*
X19319111Y-10737436D01*
X19319111Y-10737436D02*
X19309587Y-10718389D01*
X19309587Y-10718389D02*
X19309587Y-10661246D01*
X19309587Y-10661246D02*
X19319111Y-10642198D01*
X19319111Y-10642198D02*
X19328635Y-10632674D01*
X19328635Y-10632674D02*
X19347682Y-10623150D01*
X19347682Y-10623150D02*
X19385777Y-10623150D01*
X19385777Y-10623150D02*
X19404825Y-10632674D01*
X19481016Y-10832674D02*
X19490539Y-10823150D01*
X19490539Y-10823150D02*
X19509587Y-10794579D01*
X19509587Y-10794579D02*
X19519111Y-10775531D01*
X19519111Y-10775531D02*
X19528635Y-10746960D01*
X19528635Y-10746960D02*
X19538158Y-10699341D01*
X19538158Y-10699341D02*
X19538158Y-10661246D01*
X19538158Y-10661246D02*
X19528635Y-10613627D01*
X19528635Y-10613627D02*
X19519111Y-10585055D01*
X19519111Y-10585055D02*
X19509587Y-10566008D01*
X19509587Y-10566008D02*
X19490539Y-10537436D01*
X19490539Y-10537436D02*
X19481016Y-10527912D01*
M02*
