G04 #@! TF.GenerationSoftware,KiCad,Pcbnew,7.0.8*
G04 #@! TF.CreationDate,2024-01-14T11:33:21+01:00*
G04 #@! TF.ProjectId,Verteiler,56657274-6569-46c6-9572-2e6b69636164,rev?*
G04 #@! TF.SameCoordinates,Original*
G04 #@! TF.FileFunction,Other,ECO1*
%FSLAX46Y46*%
G04 Gerber Fmt 4.6, Leading zero omitted, Abs format (unit mm)*
G04 Created by KiCad (PCBNEW 7.0.8) date 2024-01-14 11:33:21*
%MOMM*%
%LPD*%
G01*
G04 APERTURE LIST*
%ADD10C,0.300000*%
%ADD11C,0.150000*%
%ADD12C,0.010000*%
G04 APERTURE END LIST*
D10*
X137495914Y-41617489D02*
X137567342Y-41403203D01*
X137567342Y-41403203D02*
X137638771Y-41331774D01*
X137638771Y-41331774D02*
X137781628Y-41260346D01*
X137781628Y-41260346D02*
X137995914Y-41260346D01*
X137995914Y-41260346D02*
X138138771Y-41331774D01*
X138138771Y-41331774D02*
X138210200Y-41403203D01*
X138210200Y-41403203D02*
X138281628Y-41546060D01*
X138281628Y-41546060D02*
X138281628Y-42117489D01*
X138281628Y-42117489D02*
X136781628Y-42117489D01*
X136781628Y-42117489D02*
X136781628Y-41617489D01*
X136781628Y-41617489D02*
X136853057Y-41474632D01*
X136853057Y-41474632D02*
X136924485Y-41403203D01*
X136924485Y-41403203D02*
X137067342Y-41331774D01*
X137067342Y-41331774D02*
X137210200Y-41331774D01*
X137210200Y-41331774D02*
X137353057Y-41403203D01*
X137353057Y-41403203D02*
X137424485Y-41474632D01*
X137424485Y-41474632D02*
X137495914Y-41617489D01*
X137495914Y-41617489D02*
X137495914Y-42117489D01*
X138138771Y-40617489D02*
X138210200Y-40546060D01*
X138210200Y-40546060D02*
X138281628Y-40617489D01*
X138281628Y-40617489D02*
X138210200Y-40688917D01*
X138210200Y-40688917D02*
X138138771Y-40617489D01*
X138138771Y-40617489D02*
X138281628Y-40617489D01*
X138281628Y-39903203D02*
X136781628Y-39903203D01*
X138138771Y-39188917D02*
X138210200Y-39117488D01*
X138210200Y-39117488D02*
X138281628Y-39188917D01*
X138281628Y-39188917D02*
X138210200Y-39260345D01*
X138210200Y-39260345D02*
X138138771Y-39188917D01*
X138138771Y-39188917D02*
X138281628Y-39188917D01*
X137495914Y-38474631D02*
X137495914Y-37974631D01*
X138281628Y-37760345D02*
X138281628Y-38474631D01*
X138281628Y-38474631D02*
X136781628Y-38474631D01*
X136781628Y-38474631D02*
X136781628Y-37760345D01*
X138138771Y-37117488D02*
X138210200Y-37046059D01*
X138210200Y-37046059D02*
X138281628Y-37117488D01*
X138281628Y-37117488D02*
X138210200Y-37188916D01*
X138210200Y-37188916D02*
X138138771Y-37117488D01*
X138138771Y-37117488D02*
X138281628Y-37117488D01*
X138281628Y-35546059D02*
X137567342Y-36046059D01*
X138281628Y-36403202D02*
X136781628Y-36403202D01*
X136781628Y-36403202D02*
X136781628Y-35831773D01*
X136781628Y-35831773D02*
X136853057Y-35688916D01*
X136853057Y-35688916D02*
X136924485Y-35617487D01*
X136924485Y-35617487D02*
X137067342Y-35546059D01*
X137067342Y-35546059D02*
X137281628Y-35546059D01*
X137281628Y-35546059D02*
X137424485Y-35617487D01*
X137424485Y-35617487D02*
X137495914Y-35688916D01*
X137495914Y-35688916D02*
X137567342Y-35831773D01*
X137567342Y-35831773D02*
X137567342Y-36403202D01*
X138138771Y-34903202D02*
X138210200Y-34831773D01*
X138210200Y-34831773D02*
X138281628Y-34903202D01*
X138281628Y-34903202D02*
X138210200Y-34974630D01*
X138210200Y-34974630D02*
X138138771Y-34903202D01*
X138138771Y-34903202D02*
X138281628Y-34903202D01*
X128703514Y-89623489D02*
X128774942Y-89409203D01*
X128774942Y-89409203D02*
X128846371Y-89337774D01*
X128846371Y-89337774D02*
X128989228Y-89266346D01*
X128989228Y-89266346D02*
X129203514Y-89266346D01*
X129203514Y-89266346D02*
X129346371Y-89337774D01*
X129346371Y-89337774D02*
X129417800Y-89409203D01*
X129417800Y-89409203D02*
X129489228Y-89552060D01*
X129489228Y-89552060D02*
X129489228Y-90123489D01*
X129489228Y-90123489D02*
X127989228Y-90123489D01*
X127989228Y-90123489D02*
X127989228Y-89623489D01*
X127989228Y-89623489D02*
X128060657Y-89480632D01*
X128060657Y-89480632D02*
X128132085Y-89409203D01*
X128132085Y-89409203D02*
X128274942Y-89337774D01*
X128274942Y-89337774D02*
X128417800Y-89337774D01*
X128417800Y-89337774D02*
X128560657Y-89409203D01*
X128560657Y-89409203D02*
X128632085Y-89480632D01*
X128632085Y-89480632D02*
X128703514Y-89623489D01*
X128703514Y-89623489D02*
X128703514Y-90123489D01*
X129417800Y-88052060D02*
X129489228Y-88194917D01*
X129489228Y-88194917D02*
X129489228Y-88480632D01*
X129489228Y-88480632D02*
X129417800Y-88623489D01*
X129417800Y-88623489D02*
X129274942Y-88694917D01*
X129274942Y-88694917D02*
X128703514Y-88694917D01*
X128703514Y-88694917D02*
X128560657Y-88623489D01*
X128560657Y-88623489D02*
X128489228Y-88480632D01*
X128489228Y-88480632D02*
X128489228Y-88194917D01*
X128489228Y-88194917D02*
X128560657Y-88052060D01*
X128560657Y-88052060D02*
X128703514Y-87980632D01*
X128703514Y-87980632D02*
X128846371Y-87980632D01*
X128846371Y-87980632D02*
X128989228Y-88694917D01*
X129489228Y-87123489D02*
X129417800Y-87266346D01*
X129417800Y-87266346D02*
X129346371Y-87337775D01*
X129346371Y-87337775D02*
X129203514Y-87409203D01*
X129203514Y-87409203D02*
X128774942Y-87409203D01*
X128774942Y-87409203D02*
X128632085Y-87337775D01*
X128632085Y-87337775D02*
X128560657Y-87266346D01*
X128560657Y-87266346D02*
X128489228Y-87123489D01*
X128489228Y-87123489D02*
X128489228Y-86909203D01*
X128489228Y-86909203D02*
X128560657Y-86766346D01*
X128560657Y-86766346D02*
X128632085Y-86694918D01*
X128632085Y-86694918D02*
X128774942Y-86623489D01*
X128774942Y-86623489D02*
X129203514Y-86623489D01*
X129203514Y-86623489D02*
X129346371Y-86694918D01*
X129346371Y-86694918D02*
X129417800Y-86766346D01*
X129417800Y-86766346D02*
X129489228Y-86909203D01*
X129489228Y-86909203D02*
X129489228Y-87123489D01*
X129489228Y-85980632D02*
X127989228Y-85980632D01*
X127989228Y-85980632D02*
X129060657Y-85480632D01*
X129060657Y-85480632D02*
X127989228Y-84980632D01*
X127989228Y-84980632D02*
X129489228Y-84980632D01*
X129489228Y-83623489D02*
X128703514Y-83623489D01*
X128703514Y-83623489D02*
X128560657Y-83694917D01*
X128560657Y-83694917D02*
X128489228Y-83837774D01*
X128489228Y-83837774D02*
X128489228Y-84123489D01*
X128489228Y-84123489D02*
X128560657Y-84266346D01*
X129417800Y-83623489D02*
X129489228Y-83766346D01*
X129489228Y-83766346D02*
X129489228Y-84123489D01*
X129489228Y-84123489D02*
X129417800Y-84266346D01*
X129417800Y-84266346D02*
X129274942Y-84337774D01*
X129274942Y-84337774D02*
X129132085Y-84337774D01*
X129132085Y-84337774D02*
X128989228Y-84266346D01*
X128989228Y-84266346D02*
X128917800Y-84123489D01*
X128917800Y-84123489D02*
X128917800Y-83766346D01*
X128917800Y-83766346D02*
X128846371Y-83623489D01*
X129417800Y-82980631D02*
X129489228Y-82837774D01*
X129489228Y-82837774D02*
X129489228Y-82552060D01*
X129489228Y-82552060D02*
X129417800Y-82409203D01*
X129417800Y-82409203D02*
X129274942Y-82337774D01*
X129274942Y-82337774D02*
X129203514Y-82337774D01*
X129203514Y-82337774D02*
X129060657Y-82409203D01*
X129060657Y-82409203D02*
X128989228Y-82552060D01*
X128989228Y-82552060D02*
X128989228Y-82766346D01*
X128989228Y-82766346D02*
X128917800Y-82909203D01*
X128917800Y-82909203D02*
X128774942Y-82980631D01*
X128774942Y-82980631D02*
X128703514Y-82980631D01*
X128703514Y-82980631D02*
X128560657Y-82909203D01*
X128560657Y-82909203D02*
X128489228Y-82766346D01*
X128489228Y-82766346D02*
X128489228Y-82552060D01*
X128489228Y-82552060D02*
X128560657Y-82409203D01*
X128489228Y-81909202D02*
X128489228Y-81337774D01*
X127989228Y-81694917D02*
X129274942Y-81694917D01*
X129274942Y-81694917D02*
X129417800Y-81623488D01*
X129417800Y-81623488D02*
X129489228Y-81480631D01*
X129489228Y-81480631D02*
X129489228Y-81337774D01*
X129417800Y-80266345D02*
X129489228Y-80409202D01*
X129489228Y-80409202D02*
X129489228Y-80694917D01*
X129489228Y-80694917D02*
X129417800Y-80837774D01*
X129417800Y-80837774D02*
X129274942Y-80909202D01*
X129274942Y-80909202D02*
X128703514Y-80909202D01*
X128703514Y-80909202D02*
X128560657Y-80837774D01*
X128560657Y-80837774D02*
X128489228Y-80694917D01*
X128489228Y-80694917D02*
X128489228Y-80409202D01*
X128489228Y-80409202D02*
X128560657Y-80266345D01*
X128560657Y-80266345D02*
X128703514Y-80194917D01*
X128703514Y-80194917D02*
X128846371Y-80194917D01*
X128846371Y-80194917D02*
X128989228Y-80909202D01*
X129489228Y-79552060D02*
X128489228Y-79552060D01*
X128774942Y-79552060D02*
X128632085Y-79480631D01*
X128632085Y-79480631D02*
X128560657Y-79409203D01*
X128560657Y-79409203D02*
X128489228Y-79266345D01*
X128489228Y-79266345D02*
X128489228Y-79123488D01*
X130547085Y-90194917D02*
X130475657Y-90123489D01*
X130475657Y-90123489D02*
X130404228Y-89980632D01*
X130404228Y-89980632D02*
X130404228Y-89623489D01*
X130404228Y-89623489D02*
X130475657Y-89480632D01*
X130475657Y-89480632D02*
X130547085Y-89409203D01*
X130547085Y-89409203D02*
X130689942Y-89337774D01*
X130689942Y-89337774D02*
X130832800Y-89337774D01*
X130832800Y-89337774D02*
X131047085Y-89409203D01*
X131047085Y-89409203D02*
X131904228Y-90266346D01*
X131904228Y-90266346D02*
X131904228Y-89337774D01*
X130547085Y-88766346D02*
X130475657Y-88694918D01*
X130475657Y-88694918D02*
X130404228Y-88552061D01*
X130404228Y-88552061D02*
X130404228Y-88194918D01*
X130404228Y-88194918D02*
X130475657Y-88052061D01*
X130475657Y-88052061D02*
X130547085Y-87980632D01*
X130547085Y-87980632D02*
X130689942Y-87909203D01*
X130689942Y-87909203D02*
X130832800Y-87909203D01*
X130832800Y-87909203D02*
X131047085Y-87980632D01*
X131047085Y-87980632D02*
X131904228Y-88837775D01*
X131904228Y-88837775D02*
X131904228Y-87909203D01*
X130404228Y-86980632D02*
X130404228Y-86837775D01*
X130404228Y-86837775D02*
X130475657Y-86694918D01*
X130475657Y-86694918D02*
X130547085Y-86623490D01*
X130547085Y-86623490D02*
X130689942Y-86552061D01*
X130689942Y-86552061D02*
X130975657Y-86480632D01*
X130975657Y-86480632D02*
X131332800Y-86480632D01*
X131332800Y-86480632D02*
X131618514Y-86552061D01*
X131618514Y-86552061D02*
X131761371Y-86623490D01*
X131761371Y-86623490D02*
X131832800Y-86694918D01*
X131832800Y-86694918D02*
X131904228Y-86837775D01*
X131904228Y-86837775D02*
X131904228Y-86980632D01*
X131904228Y-86980632D02*
X131832800Y-87123490D01*
X131832800Y-87123490D02*
X131761371Y-87194918D01*
X131761371Y-87194918D02*
X131618514Y-87266347D01*
X131618514Y-87266347D02*
X131332800Y-87337775D01*
X131332800Y-87337775D02*
X130975657Y-87337775D01*
X130975657Y-87337775D02*
X130689942Y-87266347D01*
X130689942Y-87266347D02*
X130547085Y-87194918D01*
X130547085Y-87194918D02*
X130475657Y-87123490D01*
X130475657Y-87123490D02*
X130404228Y-86980632D01*
X130404228Y-86052061D02*
X131904228Y-85552061D01*
X131904228Y-85552061D02*
X130404228Y-85052061D01*
X130404228Y-83623490D02*
X131904228Y-83123490D01*
X131904228Y-83123490D02*
X130404228Y-82623490D01*
X131832800Y-81552062D02*
X131904228Y-81694919D01*
X131904228Y-81694919D02*
X131904228Y-81980634D01*
X131904228Y-81980634D02*
X131832800Y-82123491D01*
X131832800Y-82123491D02*
X131689942Y-82194919D01*
X131689942Y-82194919D02*
X131118514Y-82194919D01*
X131118514Y-82194919D02*
X130975657Y-82123491D01*
X130975657Y-82123491D02*
X130904228Y-81980634D01*
X130904228Y-81980634D02*
X130904228Y-81694919D01*
X130904228Y-81694919D02*
X130975657Y-81552062D01*
X130975657Y-81552062D02*
X131118514Y-81480634D01*
X131118514Y-81480634D02*
X131261371Y-81480634D01*
X131261371Y-81480634D02*
X131404228Y-82194919D01*
X131904228Y-80837777D02*
X130904228Y-80837777D01*
X131189942Y-80837777D02*
X131047085Y-80766348D01*
X131047085Y-80766348D02*
X130975657Y-80694920D01*
X130975657Y-80694920D02*
X130904228Y-80552062D01*
X130904228Y-80552062D02*
X130904228Y-80409205D01*
X130904228Y-80123491D02*
X130904228Y-79552063D01*
X130404228Y-79909206D02*
X131689942Y-79909206D01*
X131689942Y-79909206D02*
X131832800Y-79837777D01*
X131832800Y-79837777D02*
X131904228Y-79694920D01*
X131904228Y-79694920D02*
X131904228Y-79552063D01*
X131832800Y-78480634D02*
X131904228Y-78623491D01*
X131904228Y-78623491D02*
X131904228Y-78909206D01*
X131904228Y-78909206D02*
X131832800Y-79052063D01*
X131832800Y-79052063D02*
X131689942Y-79123491D01*
X131689942Y-79123491D02*
X131118514Y-79123491D01*
X131118514Y-79123491D02*
X130975657Y-79052063D01*
X130975657Y-79052063D02*
X130904228Y-78909206D01*
X130904228Y-78909206D02*
X130904228Y-78623491D01*
X130904228Y-78623491D02*
X130975657Y-78480634D01*
X130975657Y-78480634D02*
X131118514Y-78409206D01*
X131118514Y-78409206D02*
X131261371Y-78409206D01*
X131261371Y-78409206D02*
X131404228Y-79123491D01*
X131904228Y-77766349D02*
X130904228Y-77766349D01*
X130404228Y-77766349D02*
X130475657Y-77837777D01*
X130475657Y-77837777D02*
X130547085Y-77766349D01*
X130547085Y-77766349D02*
X130475657Y-77694920D01*
X130475657Y-77694920D02*
X130404228Y-77766349D01*
X130404228Y-77766349D02*
X130547085Y-77766349D01*
X131904228Y-76837777D02*
X131832800Y-76980634D01*
X131832800Y-76980634D02*
X131689942Y-77052063D01*
X131689942Y-77052063D02*
X130404228Y-77052063D01*
X131832800Y-75694920D02*
X131904228Y-75837777D01*
X131904228Y-75837777D02*
X131904228Y-76123492D01*
X131904228Y-76123492D02*
X131832800Y-76266349D01*
X131832800Y-76266349D02*
X131689942Y-76337777D01*
X131689942Y-76337777D02*
X131118514Y-76337777D01*
X131118514Y-76337777D02*
X130975657Y-76266349D01*
X130975657Y-76266349D02*
X130904228Y-76123492D01*
X130904228Y-76123492D02*
X130904228Y-75837777D01*
X130904228Y-75837777D02*
X130975657Y-75694920D01*
X130975657Y-75694920D02*
X131118514Y-75623492D01*
X131118514Y-75623492D02*
X131261371Y-75623492D01*
X131261371Y-75623492D02*
X131404228Y-76337777D01*
X131904228Y-74980635D02*
X130904228Y-74980635D01*
X131189942Y-74980635D02*
X131047085Y-74909206D01*
X131047085Y-74909206D02*
X130975657Y-74837778D01*
X130975657Y-74837778D02*
X130904228Y-74694920D01*
X130904228Y-74694920D02*
X130904228Y-74552063D01*
X134319228Y-89337774D02*
X134319228Y-90194917D01*
X134319228Y-89766346D02*
X132819228Y-89766346D01*
X132819228Y-89766346D02*
X133033514Y-89909203D01*
X133033514Y-89909203D02*
X133176371Y-90052060D01*
X133176371Y-90052060D02*
X133247800Y-90194917D01*
X133319228Y-88052061D02*
X134319228Y-88052061D01*
X132747800Y-88409203D02*
X133819228Y-88766346D01*
X133819228Y-88766346D02*
X133819228Y-87837775D01*
X134176371Y-87266347D02*
X134247800Y-87194918D01*
X134247800Y-87194918D02*
X134319228Y-87266347D01*
X134319228Y-87266347D02*
X134247800Y-87337775D01*
X134247800Y-87337775D02*
X134176371Y-87266347D01*
X134176371Y-87266347D02*
X134319228Y-87266347D01*
X132819228Y-86266346D02*
X132819228Y-86123489D01*
X132819228Y-86123489D02*
X132890657Y-85980632D01*
X132890657Y-85980632D02*
X132962085Y-85909204D01*
X132962085Y-85909204D02*
X133104942Y-85837775D01*
X133104942Y-85837775D02*
X133390657Y-85766346D01*
X133390657Y-85766346D02*
X133747800Y-85766346D01*
X133747800Y-85766346D02*
X134033514Y-85837775D01*
X134033514Y-85837775D02*
X134176371Y-85909204D01*
X134176371Y-85909204D02*
X134247800Y-85980632D01*
X134247800Y-85980632D02*
X134319228Y-86123489D01*
X134319228Y-86123489D02*
X134319228Y-86266346D01*
X134319228Y-86266346D02*
X134247800Y-86409204D01*
X134247800Y-86409204D02*
X134176371Y-86480632D01*
X134176371Y-86480632D02*
X134033514Y-86552061D01*
X134033514Y-86552061D02*
X133747800Y-86623489D01*
X133747800Y-86623489D02*
X133390657Y-86623489D01*
X133390657Y-86623489D02*
X133104942Y-86552061D01*
X133104942Y-86552061D02*
X132962085Y-86480632D01*
X132962085Y-86480632D02*
X132890657Y-86409204D01*
X132890657Y-86409204D02*
X132819228Y-86266346D01*
X134319228Y-84337775D02*
X134319228Y-85194918D01*
X134319228Y-84766347D02*
X132819228Y-84766347D01*
X132819228Y-84766347D02*
X133033514Y-84909204D01*
X133033514Y-84909204D02*
X133176371Y-85052061D01*
X133176371Y-85052061D02*
X133247800Y-85194918D01*
X134176371Y-83694919D02*
X134247800Y-83623490D01*
X134247800Y-83623490D02*
X134319228Y-83694919D01*
X134319228Y-83694919D02*
X134247800Y-83766347D01*
X134247800Y-83766347D02*
X134176371Y-83694919D01*
X134176371Y-83694919D02*
X134319228Y-83694919D01*
X132962085Y-83052061D02*
X132890657Y-82980633D01*
X132890657Y-82980633D02*
X132819228Y-82837776D01*
X132819228Y-82837776D02*
X132819228Y-82480633D01*
X132819228Y-82480633D02*
X132890657Y-82337776D01*
X132890657Y-82337776D02*
X132962085Y-82266347D01*
X132962085Y-82266347D02*
X133104942Y-82194918D01*
X133104942Y-82194918D02*
X133247800Y-82194918D01*
X133247800Y-82194918D02*
X133462085Y-82266347D01*
X133462085Y-82266347D02*
X134319228Y-83123490D01*
X134319228Y-83123490D02*
X134319228Y-82194918D01*
X132819228Y-81266347D02*
X132819228Y-81123490D01*
X132819228Y-81123490D02*
X132890657Y-80980633D01*
X132890657Y-80980633D02*
X132962085Y-80909205D01*
X132962085Y-80909205D02*
X133104942Y-80837776D01*
X133104942Y-80837776D02*
X133390657Y-80766347D01*
X133390657Y-80766347D02*
X133747800Y-80766347D01*
X133747800Y-80766347D02*
X134033514Y-80837776D01*
X134033514Y-80837776D02*
X134176371Y-80909205D01*
X134176371Y-80909205D02*
X134247800Y-80980633D01*
X134247800Y-80980633D02*
X134319228Y-81123490D01*
X134319228Y-81123490D02*
X134319228Y-81266347D01*
X134319228Y-81266347D02*
X134247800Y-81409205D01*
X134247800Y-81409205D02*
X134176371Y-81480633D01*
X134176371Y-81480633D02*
X134033514Y-81552062D01*
X134033514Y-81552062D02*
X133747800Y-81623490D01*
X133747800Y-81623490D02*
X133390657Y-81623490D01*
X133390657Y-81623490D02*
X133104942Y-81552062D01*
X133104942Y-81552062D02*
X132962085Y-81480633D01*
X132962085Y-81480633D02*
X132890657Y-81409205D01*
X132890657Y-81409205D02*
X132819228Y-81266347D01*
X132962085Y-80194919D02*
X132890657Y-80123491D01*
X132890657Y-80123491D02*
X132819228Y-79980634D01*
X132819228Y-79980634D02*
X132819228Y-79623491D01*
X132819228Y-79623491D02*
X132890657Y-79480634D01*
X132890657Y-79480634D02*
X132962085Y-79409205D01*
X132962085Y-79409205D02*
X133104942Y-79337776D01*
X133104942Y-79337776D02*
X133247800Y-79337776D01*
X133247800Y-79337776D02*
X133462085Y-79409205D01*
X133462085Y-79409205D02*
X134319228Y-80266348D01*
X134319228Y-80266348D02*
X134319228Y-79337776D01*
X133319228Y-78052063D02*
X134319228Y-78052063D01*
X132747800Y-78409205D02*
X133819228Y-78766348D01*
X133819228Y-78766348D02*
X133819228Y-77837777D01*
X155829482Y-93403057D02*
X156543768Y-93403057D01*
X155686625Y-93831628D02*
X156186625Y-92331628D01*
X156186625Y-92331628D02*
X156686625Y-93831628D01*
X157186624Y-93831628D02*
X157186624Y-92331628D01*
X157186624Y-92331628D02*
X157686624Y-93403057D01*
X157686624Y-93403057D02*
X158186624Y-92331628D01*
X158186624Y-92331628D02*
X158186624Y-93831628D01*
X158900910Y-93831628D02*
X158900910Y-92331628D01*
X158900910Y-92331628D02*
X159472339Y-92331628D01*
X159472339Y-92331628D02*
X159615196Y-92403057D01*
X159615196Y-92403057D02*
X159686625Y-92474485D01*
X159686625Y-92474485D02*
X159758053Y-92617342D01*
X159758053Y-92617342D02*
X159758053Y-92831628D01*
X159758053Y-92831628D02*
X159686625Y-92974485D01*
X159686625Y-92974485D02*
X159615196Y-93045914D01*
X159615196Y-93045914D02*
X159472339Y-93117342D01*
X159472339Y-93117342D02*
X158900910Y-93117342D01*
X160329482Y-92474485D02*
X160400910Y-92403057D01*
X160400910Y-92403057D02*
X160543768Y-92331628D01*
X160543768Y-92331628D02*
X160900910Y-92331628D01*
X160900910Y-92331628D02*
X161043768Y-92403057D01*
X161043768Y-92403057D02*
X161115196Y-92474485D01*
X161115196Y-92474485D02*
X161186625Y-92617342D01*
X161186625Y-92617342D02*
X161186625Y-92760200D01*
X161186625Y-92760200D02*
X161115196Y-92974485D01*
X161115196Y-92974485D02*
X160258053Y-93831628D01*
X160258053Y-93831628D02*
X161186625Y-93831628D01*
X155829482Y-32646257D02*
X156543768Y-32646257D01*
X155686625Y-33074828D02*
X156186625Y-31574828D01*
X156186625Y-31574828D02*
X156686625Y-33074828D01*
X157186624Y-33074828D02*
X157186624Y-31574828D01*
X157186624Y-31574828D02*
X157686624Y-32646257D01*
X157686624Y-32646257D02*
X158186624Y-31574828D01*
X158186624Y-31574828D02*
X158186624Y-33074828D01*
X158900910Y-33074828D02*
X158900910Y-31574828D01*
X158900910Y-31574828D02*
X159472339Y-31574828D01*
X159472339Y-31574828D02*
X159615196Y-31646257D01*
X159615196Y-31646257D02*
X159686625Y-31717685D01*
X159686625Y-31717685D02*
X159758053Y-31860542D01*
X159758053Y-31860542D02*
X159758053Y-32074828D01*
X159758053Y-32074828D02*
X159686625Y-32217685D01*
X159686625Y-32217685D02*
X159615196Y-32289114D01*
X159615196Y-32289114D02*
X159472339Y-32360542D01*
X159472339Y-32360542D02*
X158900910Y-32360542D01*
X161186625Y-33074828D02*
X160329482Y-33074828D01*
X160758053Y-33074828D02*
X160758053Y-31574828D01*
X160758053Y-31574828D02*
X160615196Y-31789114D01*
X160615196Y-31789114D02*
X160472339Y-31931971D01*
X160472339Y-31931971D02*
X160329482Y-32003400D01*
D11*
X162560000Y-80467200D02*
X162560000Y-77266800D01*
X164084000Y-80467200D02*
X162560000Y-80467200D01*
X162560000Y-70205600D02*
X162560000Y-73710800D01*
X164084000Y-70205600D02*
X162560000Y-70205600D01*
D10*
X164006168Y-96320828D02*
X163291882Y-96320828D01*
X163291882Y-96320828D02*
X163291882Y-94820828D01*
X162934739Y-91240828D02*
X162934739Y-89740828D01*
X162934739Y-89740828D02*
X163791882Y-91240828D01*
X163791882Y-91240828D02*
X163791882Y-89740828D01*
X156154910Y-76204028D02*
X156154910Y-74704028D01*
X156154910Y-74704028D02*
X156726339Y-74704028D01*
X156726339Y-74704028D02*
X156869196Y-74775457D01*
X156869196Y-74775457D02*
X156940625Y-74846885D01*
X156940625Y-74846885D02*
X157012053Y-74989742D01*
X157012053Y-74989742D02*
X157012053Y-75204028D01*
X157012053Y-75204028D02*
X156940625Y-75346885D01*
X156940625Y-75346885D02*
X156869196Y-75418314D01*
X156869196Y-75418314D02*
X156726339Y-75489742D01*
X156726339Y-75489742D02*
X156154910Y-75489742D01*
X157654910Y-75418314D02*
X158154910Y-75418314D01*
X158369196Y-76204028D02*
X157654910Y-76204028D01*
X157654910Y-76204028D02*
X157654910Y-74704028D01*
X157654910Y-74704028D02*
X158369196Y-74704028D01*
X158654911Y-76346885D02*
X159797768Y-76346885D01*
X160440625Y-74704028D02*
X160726339Y-74704028D01*
X160726339Y-74704028D02*
X160869196Y-74775457D01*
X160869196Y-74775457D02*
X161012053Y-74918314D01*
X161012053Y-74918314D02*
X161083482Y-75204028D01*
X161083482Y-75204028D02*
X161083482Y-75704028D01*
X161083482Y-75704028D02*
X161012053Y-75989742D01*
X161012053Y-75989742D02*
X160869196Y-76132600D01*
X160869196Y-76132600D02*
X160726339Y-76204028D01*
X160726339Y-76204028D02*
X160440625Y-76204028D01*
X160440625Y-76204028D02*
X160297768Y-76132600D01*
X160297768Y-76132600D02*
X160154910Y-75989742D01*
X160154910Y-75989742D02*
X160083482Y-75704028D01*
X160083482Y-75704028D02*
X160083482Y-75204028D01*
X160083482Y-75204028D02*
X160154910Y-74918314D01*
X160154910Y-74918314D02*
X160297768Y-74775457D01*
X160297768Y-74775457D02*
X160440625Y-74704028D01*
X161726339Y-74704028D02*
X161726339Y-75918314D01*
X161726339Y-75918314D02*
X161797768Y-76061171D01*
X161797768Y-76061171D02*
X161869197Y-76132600D01*
X161869197Y-76132600D02*
X162012054Y-76204028D01*
X162012054Y-76204028D02*
X162297768Y-76204028D01*
X162297768Y-76204028D02*
X162440625Y-76132600D01*
X162440625Y-76132600D02*
X162512054Y-76061171D01*
X162512054Y-76061171D02*
X162583482Y-75918314D01*
X162583482Y-75918314D02*
X162583482Y-74704028D01*
X163083483Y-74704028D02*
X163940626Y-74704028D01*
X163512054Y-76204028D02*
X163512054Y-74704028D01*
X157506167Y-65993228D02*
X157506167Y-64493228D01*
X157506167Y-64493228D02*
X158363310Y-65993228D01*
X158363310Y-65993228D02*
X158363310Y-64493228D01*
X158720454Y-66136085D02*
X159863311Y-66136085D01*
X160506168Y-64493228D02*
X160791882Y-64493228D01*
X160791882Y-64493228D02*
X160934739Y-64564657D01*
X160934739Y-64564657D02*
X161077596Y-64707514D01*
X161077596Y-64707514D02*
X161149025Y-64993228D01*
X161149025Y-64993228D02*
X161149025Y-65493228D01*
X161149025Y-65493228D02*
X161077596Y-65778942D01*
X161077596Y-65778942D02*
X160934739Y-65921800D01*
X160934739Y-65921800D02*
X160791882Y-65993228D01*
X160791882Y-65993228D02*
X160506168Y-65993228D01*
X160506168Y-65993228D02*
X160363311Y-65921800D01*
X160363311Y-65921800D02*
X160220453Y-65778942D01*
X160220453Y-65778942D02*
X160149025Y-65493228D01*
X160149025Y-65493228D02*
X160149025Y-64993228D01*
X160149025Y-64993228D02*
X160220453Y-64707514D01*
X160220453Y-64707514D02*
X160363311Y-64564657D01*
X160363311Y-64564657D02*
X160506168Y-64493228D01*
X161791882Y-64493228D02*
X161791882Y-65707514D01*
X161791882Y-65707514D02*
X161863311Y-65850371D01*
X161863311Y-65850371D02*
X161934740Y-65921800D01*
X161934740Y-65921800D02*
X162077597Y-65993228D01*
X162077597Y-65993228D02*
X162363311Y-65993228D01*
X162363311Y-65993228D02*
X162506168Y-65921800D01*
X162506168Y-65921800D02*
X162577597Y-65850371D01*
X162577597Y-65850371D02*
X162649025Y-65707514D01*
X162649025Y-65707514D02*
X162649025Y-64493228D01*
X163149026Y-64493228D02*
X164006169Y-64493228D01*
X163577597Y-65993228D02*
X163577597Y-64493228D01*
X158577596Y-60913228D02*
X157863310Y-60913228D01*
X157863310Y-60913228D02*
X157863310Y-59413228D01*
X158720454Y-61056085D02*
X159863311Y-61056085D01*
X160506168Y-59413228D02*
X160791882Y-59413228D01*
X160791882Y-59413228D02*
X160934739Y-59484657D01*
X160934739Y-59484657D02*
X161077596Y-59627514D01*
X161077596Y-59627514D02*
X161149025Y-59913228D01*
X161149025Y-59913228D02*
X161149025Y-60413228D01*
X161149025Y-60413228D02*
X161077596Y-60698942D01*
X161077596Y-60698942D02*
X160934739Y-60841800D01*
X160934739Y-60841800D02*
X160791882Y-60913228D01*
X160791882Y-60913228D02*
X160506168Y-60913228D01*
X160506168Y-60913228D02*
X160363311Y-60841800D01*
X160363311Y-60841800D02*
X160220453Y-60698942D01*
X160220453Y-60698942D02*
X160149025Y-60413228D01*
X160149025Y-60413228D02*
X160149025Y-59913228D01*
X160149025Y-59913228D02*
X160220453Y-59627514D01*
X160220453Y-59627514D02*
X160363311Y-59484657D01*
X160363311Y-59484657D02*
X160506168Y-59413228D01*
X161791882Y-59413228D02*
X161791882Y-60627514D01*
X161791882Y-60627514D02*
X161863311Y-60770371D01*
X161863311Y-60770371D02*
X161934740Y-60841800D01*
X161934740Y-60841800D02*
X162077597Y-60913228D01*
X162077597Y-60913228D02*
X162363311Y-60913228D01*
X162363311Y-60913228D02*
X162506168Y-60841800D01*
X162506168Y-60841800D02*
X162577597Y-60770371D01*
X162577597Y-60770371D02*
X162649025Y-60627514D01*
X162649025Y-60627514D02*
X162649025Y-59413228D01*
X163149026Y-59413228D02*
X164006169Y-59413228D01*
X163577597Y-60913228D02*
X163577597Y-59413228D01*
X158220453Y-55884028D02*
X158220453Y-54384028D01*
X158220453Y-54384028D02*
X158791882Y-54384028D01*
X158791882Y-54384028D02*
X158934739Y-54455457D01*
X158934739Y-54455457D02*
X159006168Y-54526885D01*
X159006168Y-54526885D02*
X159077596Y-54669742D01*
X159077596Y-54669742D02*
X159077596Y-54884028D01*
X159077596Y-54884028D02*
X159006168Y-55026885D01*
X159006168Y-55026885D02*
X158934739Y-55098314D01*
X158934739Y-55098314D02*
X158791882Y-55169742D01*
X158791882Y-55169742D02*
X158220453Y-55169742D01*
X159720453Y-55098314D02*
X160220453Y-55098314D01*
X160434739Y-55884028D02*
X159720453Y-55884028D01*
X159720453Y-55884028D02*
X159720453Y-54384028D01*
X159720453Y-54384028D02*
X160434739Y-54384028D01*
X160720454Y-56026885D02*
X161863311Y-56026885D01*
X162220453Y-55884028D02*
X162220453Y-54384028D01*
X162934739Y-55884028D02*
X162934739Y-54384028D01*
X162934739Y-54384028D02*
X163791882Y-55884028D01*
X163791882Y-55884028D02*
X163791882Y-54384028D01*
X159506167Y-50804028D02*
X159506167Y-49304028D01*
X159506167Y-49304028D02*
X160363310Y-50804028D01*
X160363310Y-50804028D02*
X160363310Y-49304028D01*
X160720454Y-50946885D02*
X161863311Y-50946885D01*
X162220453Y-50804028D02*
X162220453Y-49304028D01*
X162934739Y-50804028D02*
X162934739Y-49304028D01*
X162934739Y-49304028D02*
X163791882Y-50804028D01*
X163791882Y-50804028D02*
X163791882Y-49304028D01*
X160577596Y-45724028D02*
X159863310Y-45724028D01*
X159863310Y-45724028D02*
X159863310Y-44224028D01*
X160720454Y-45866885D02*
X161863311Y-45866885D01*
X162220453Y-45724028D02*
X162220453Y-44224028D01*
X162934739Y-45724028D02*
X162934739Y-44224028D01*
X162934739Y-44224028D02*
X163791882Y-45724028D01*
X163791882Y-45724028D02*
X163791882Y-44224028D01*
X162934739Y-35716428D02*
X162934739Y-34216428D01*
X162934739Y-34216428D02*
X163791882Y-35716428D01*
X163791882Y-35716428D02*
X163791882Y-34216428D01*
X164006168Y-30585628D02*
X163291882Y-30585628D01*
X163291882Y-30585628D02*
X163291882Y-29085628D01*
D12*
X130835977Y-36961449D02*
X130905115Y-36994944D01*
X130957188Y-37050809D01*
X130992361Y-37129205D01*
X131007979Y-37204623D01*
X131018321Y-37264315D01*
X131032402Y-37300770D01*
X131053404Y-37318968D01*
X131084252Y-37323889D01*
X131112795Y-37320889D01*
X131124173Y-37306100D01*
X131126088Y-37276606D01*
X131137828Y-37193069D01*
X131170472Y-37123996D01*
X131220161Y-37071976D01*
X131283033Y-37039598D01*
X131355228Y-37029451D01*
X131432885Y-37044124D01*
X131457700Y-37054226D01*
X131526937Y-37098322D01*
X131577668Y-37159419D01*
X131611534Y-37240164D01*
X131628730Y-37329903D01*
X131634943Y-37374642D01*
X131642907Y-37398107D01*
X131656931Y-37407132D01*
X131678365Y-37408555D01*
X131708815Y-37402799D01*
X131718755Y-37389950D01*
X131728347Y-37331883D01*
X131753851Y-37265551D01*
X131790359Y-37201743D01*
X131822855Y-37161143D01*
X131859050Y-37125654D01*
X131887349Y-37106714D01*
X131917986Y-37099243D01*
X131949870Y-37098111D01*
X132030569Y-37109897D01*
X132097269Y-37145492D01*
X132150302Y-37205254D01*
X132189998Y-37289540D01*
X132214094Y-37383923D01*
X132224226Y-37433755D01*
X132234196Y-37462511D01*
X132247999Y-37477026D01*
X132269629Y-37484139D01*
X132273047Y-37484842D01*
X132316320Y-37490526D01*
X132365866Y-37493194D01*
X132370591Y-37493222D01*
X132431423Y-37496597D01*
X132513037Y-37506003D01*
X132608905Y-37520366D01*
X132712497Y-37538608D01*
X132817283Y-37559655D01*
X132916734Y-37582429D01*
X132926288Y-37584798D01*
X133172550Y-37658042D01*
X133399743Y-37750496D01*
X133610916Y-37863842D01*
X133809116Y-37999762D01*
X133997394Y-38159935D01*
X134035625Y-38196487D01*
X134144106Y-38302199D01*
X134233181Y-38261739D01*
X134315025Y-38233205D01*
X134402900Y-38216968D01*
X134487070Y-38214079D01*
X134557804Y-38225589D01*
X134560395Y-38226423D01*
X134605953Y-38251659D01*
X134655333Y-38294810D01*
X134701250Y-38347846D01*
X134736418Y-38402738D01*
X134749980Y-38435339D01*
X134764538Y-38513405D01*
X134764522Y-38593479D01*
X134750374Y-38664590D01*
X134739722Y-38690335D01*
X134702452Y-38744811D01*
X134647237Y-38802701D01*
X134582103Y-38856372D01*
X134529147Y-38890636D01*
X134503285Y-38904957D01*
X134486318Y-38917172D01*
X134478019Y-38932390D01*
X134478159Y-38955723D01*
X134486511Y-38992279D01*
X134502846Y-39047169D01*
X134519722Y-39101889D01*
X134556891Y-39248718D01*
X134583129Y-39406492D01*
X134596248Y-39560783D01*
X134597339Y-39613417D01*
X134597422Y-39736889D01*
X135712200Y-39736889D01*
X135712200Y-40075555D01*
X134539537Y-40075555D01*
X134519091Y-40124491D01*
X134505549Y-40161594D01*
X134498811Y-40189259D01*
X134498644Y-40192033D01*
X134510360Y-40207456D01*
X134540996Y-40229625D01*
X134581500Y-40252459D01*
X134664357Y-40294278D01*
X134521528Y-40522687D01*
X134476409Y-40594524D01*
X134436083Y-40658131D01*
X134403048Y-40709618D01*
X134379797Y-40745098D01*
X134368828Y-40760682D01*
X134368653Y-40760863D01*
X134352452Y-40759068D01*
X134320583Y-40744498D01*
X134287706Y-40725134D01*
X134216806Y-40679638D01*
X134143001Y-40762125D01*
X133958819Y-40954389D01*
X133766200Y-41127724D01*
X133559471Y-41286686D01*
X133332959Y-41435827D01*
X133221588Y-41501798D01*
X133164931Y-41533273D01*
X133094679Y-41570664D01*
X133014788Y-41612030D01*
X132929213Y-41655431D01*
X132841911Y-41698925D01*
X132756836Y-41740573D01*
X132677945Y-41778433D01*
X132609192Y-41810566D01*
X132554535Y-41835030D01*
X132517927Y-41849886D01*
X132504569Y-41853556D01*
X132493274Y-41841686D01*
X132472988Y-41809795D01*
X132446607Y-41763456D01*
X132417028Y-41708244D01*
X132387147Y-41649733D01*
X132359860Y-41593497D01*
X132338065Y-41545112D01*
X132324657Y-41510150D01*
X132322892Y-41503906D01*
X132333502Y-41490390D01*
X132367882Y-41468834D01*
X132423266Y-41440815D01*
X132473700Y-41417917D01*
X132745957Y-41292508D01*
X132990442Y-41166758D01*
X133207602Y-41040401D01*
X133397887Y-40913168D01*
X133561747Y-40784791D01*
X133615823Y-40736896D01*
X133715102Y-40637918D01*
X133813173Y-40525773D01*
X133903327Y-40408823D01*
X133978853Y-40295432D01*
X134002107Y-40255405D01*
X134032192Y-40199604D01*
X134056281Y-40152085D01*
X134071481Y-40118728D01*
X134075311Y-40106465D01*
X134067942Y-40101342D01*
X134044417Y-40097271D01*
X134002606Y-40094166D01*
X133940379Y-40091943D01*
X133855605Y-40090515D01*
X133746156Y-40089795D01*
X133659033Y-40089667D01*
X133242755Y-40089667D01*
X133242755Y-40767000D01*
X132635977Y-40767000D01*
X132635977Y-40089667D01*
X129404533Y-40089667D01*
X129404533Y-39780146D01*
X129563283Y-39776157D01*
X129722033Y-39772167D01*
X129725686Y-39034861D01*
X129729340Y-38297555D01*
X130293533Y-38297555D01*
X130293533Y-39779222D01*
X130688644Y-39779222D01*
X130688644Y-38297555D01*
X131295165Y-38297555D01*
X131298821Y-39020750D01*
X131302477Y-39743944D01*
X131655255Y-39743944D01*
X131658911Y-39020750D01*
X131662567Y-38297555D01*
X132268832Y-38297555D01*
X132272488Y-39020750D01*
X132276144Y-39743944D01*
X132628922Y-39743944D01*
X132632578Y-39020750D01*
X132636234Y-38297555D01*
X133242755Y-38297555D01*
X133242755Y-39751414D01*
X134096477Y-39743944D01*
X134100376Y-39519119D01*
X134100056Y-39381425D01*
X134093143Y-39263642D01*
X134078523Y-39157995D01*
X134055084Y-39056710D01*
X134021714Y-38952014D01*
X134017550Y-38940400D01*
X133946158Y-38782453D01*
X133849518Y-38630143D01*
X133730472Y-38486377D01*
X133591862Y-38354062D01*
X133436531Y-38236106D01*
X133267320Y-38135416D01*
X133196775Y-38100805D01*
X133154612Y-38081466D01*
X133115237Y-38064012D01*
X133076813Y-38048098D01*
X133037507Y-38033378D01*
X132995485Y-38019506D01*
X132948912Y-38006136D01*
X132895954Y-37992924D01*
X132834776Y-37979522D01*
X132763544Y-37965587D01*
X132680424Y-37950771D01*
X132583581Y-37934730D01*
X132471180Y-37917118D01*
X132341388Y-37897589D01*
X132192370Y-37875797D01*
X132022292Y-37851397D01*
X131829318Y-37824043D01*
X131611616Y-37793391D01*
X131429477Y-37767813D01*
X131235222Y-37740475D01*
X131048888Y-37714116D01*
X130872374Y-37689010D01*
X130707580Y-37665434D01*
X130556404Y-37643665D01*
X130420746Y-37623978D01*
X130302504Y-37606650D01*
X130203577Y-37591958D01*
X130125865Y-37580177D01*
X130071266Y-37571583D01*
X130041679Y-37566454D01*
X130036758Y-37565211D01*
X130036677Y-37549611D01*
X130042442Y-37513014D01*
X130052600Y-37461685D01*
X130065697Y-37401888D01*
X130080278Y-37339888D01*
X130094889Y-37281951D01*
X130108077Y-37234339D01*
X130118387Y-37203318D01*
X130122638Y-37195222D01*
X130139038Y-37193670D01*
X130178092Y-37195434D01*
X130234477Y-37200123D01*
X130302867Y-37207349D01*
X130325740Y-37210052D01*
X130396575Y-37218126D01*
X130456845Y-37224041D01*
X130501294Y-37227354D01*
X130524666Y-37227623D01*
X130526824Y-37227006D01*
X130532148Y-37209180D01*
X130533422Y-37189995D01*
X130542495Y-37134488D01*
X130565929Y-37072233D01*
X130598039Y-37016351D01*
X130619685Y-36990783D01*
X130647397Y-36967583D01*
X130675386Y-36955308D01*
X130714203Y-36950658D01*
X130749612Y-36950162D01*
X130835977Y-36961449D01*
G36*
X130835977Y-36961449D02*
G01*
X130905115Y-36994944D01*
X130957188Y-37050809D01*
X130992361Y-37129205D01*
X131007979Y-37204623D01*
X131018321Y-37264315D01*
X131032402Y-37300770D01*
X131053404Y-37318968D01*
X131084252Y-37323889D01*
X131112795Y-37320889D01*
X131124173Y-37306100D01*
X131126088Y-37276606D01*
X131137828Y-37193069D01*
X131170472Y-37123996D01*
X131220161Y-37071976D01*
X131283033Y-37039598D01*
X131355228Y-37029451D01*
X131432885Y-37044124D01*
X131457700Y-37054226D01*
X131526937Y-37098322D01*
X131577668Y-37159419D01*
X131611534Y-37240164D01*
X131628730Y-37329903D01*
X131634943Y-37374642D01*
X131642907Y-37398107D01*
X131656931Y-37407132D01*
X131678365Y-37408555D01*
X131708815Y-37402799D01*
X131718755Y-37389950D01*
X131728347Y-37331883D01*
X131753851Y-37265551D01*
X131790359Y-37201743D01*
X131822855Y-37161143D01*
X131859050Y-37125654D01*
X131887349Y-37106714D01*
X131917986Y-37099243D01*
X131949870Y-37098111D01*
X132030569Y-37109897D01*
X132097269Y-37145492D01*
X132150302Y-37205254D01*
X132189998Y-37289540D01*
X132214094Y-37383923D01*
X132224226Y-37433755D01*
X132234196Y-37462511D01*
X132247999Y-37477026D01*
X132269629Y-37484139D01*
X132273047Y-37484842D01*
X132316320Y-37490526D01*
X132365866Y-37493194D01*
X132370591Y-37493222D01*
X132431423Y-37496597D01*
X132513037Y-37506003D01*
X132608905Y-37520366D01*
X132712497Y-37538608D01*
X132817283Y-37559655D01*
X132916734Y-37582429D01*
X132926288Y-37584798D01*
X133172550Y-37658042D01*
X133399743Y-37750496D01*
X133610916Y-37863842D01*
X133809116Y-37999762D01*
X133997394Y-38159935D01*
X134035625Y-38196487D01*
X134144106Y-38302199D01*
X134233181Y-38261739D01*
X134315025Y-38233205D01*
X134402900Y-38216968D01*
X134487070Y-38214079D01*
X134557804Y-38225589D01*
X134560395Y-38226423D01*
X134605953Y-38251659D01*
X134655333Y-38294810D01*
X134701250Y-38347846D01*
X134736418Y-38402738D01*
X134749980Y-38435339D01*
X134764538Y-38513405D01*
X134764522Y-38593479D01*
X134750374Y-38664590D01*
X134739722Y-38690335D01*
X134702452Y-38744811D01*
X134647237Y-38802701D01*
X134582103Y-38856372D01*
X134529147Y-38890636D01*
X134503285Y-38904957D01*
X134486318Y-38917172D01*
X134478019Y-38932390D01*
X134478159Y-38955723D01*
X134486511Y-38992279D01*
X134502846Y-39047169D01*
X134519722Y-39101889D01*
X134556891Y-39248718D01*
X134583129Y-39406492D01*
X134596248Y-39560783D01*
X134597339Y-39613417D01*
X134597422Y-39736889D01*
X135712200Y-39736889D01*
X135712200Y-40075555D01*
X134539537Y-40075555D01*
X134519091Y-40124491D01*
X134505549Y-40161594D01*
X134498811Y-40189259D01*
X134498644Y-40192033D01*
X134510360Y-40207456D01*
X134540996Y-40229625D01*
X134581500Y-40252459D01*
X134664357Y-40294278D01*
X134521528Y-40522687D01*
X134476409Y-40594524D01*
X134436083Y-40658131D01*
X134403048Y-40709618D01*
X134379797Y-40745098D01*
X134368828Y-40760682D01*
X134368653Y-40760863D01*
X134352452Y-40759068D01*
X134320583Y-40744498D01*
X134287706Y-40725134D01*
X134216806Y-40679638D01*
X134143001Y-40762125D01*
X133958819Y-40954389D01*
X133766200Y-41127724D01*
X133559471Y-41286686D01*
X133332959Y-41435827D01*
X133221588Y-41501798D01*
X133164931Y-41533273D01*
X133094679Y-41570664D01*
X133014788Y-41612030D01*
X132929213Y-41655431D01*
X132841911Y-41698925D01*
X132756836Y-41740573D01*
X132677945Y-41778433D01*
X132609192Y-41810566D01*
X132554535Y-41835030D01*
X132517927Y-41849886D01*
X132504569Y-41853556D01*
X132493274Y-41841686D01*
X132472988Y-41809795D01*
X132446607Y-41763456D01*
X132417028Y-41708244D01*
X132387147Y-41649733D01*
X132359860Y-41593497D01*
X132338065Y-41545112D01*
X132324657Y-41510150D01*
X132322892Y-41503906D01*
X132333502Y-41490390D01*
X132367882Y-41468834D01*
X132423266Y-41440815D01*
X132473700Y-41417917D01*
X132745957Y-41292508D01*
X132990442Y-41166758D01*
X133207602Y-41040401D01*
X133397887Y-40913168D01*
X133561747Y-40784791D01*
X133615823Y-40736896D01*
X133715102Y-40637918D01*
X133813173Y-40525773D01*
X133903327Y-40408823D01*
X133978853Y-40295432D01*
X134002107Y-40255405D01*
X134032192Y-40199604D01*
X134056281Y-40152085D01*
X134071481Y-40118728D01*
X134075311Y-40106465D01*
X134067942Y-40101342D01*
X134044417Y-40097271D01*
X134002606Y-40094166D01*
X133940379Y-40091943D01*
X133855605Y-40090515D01*
X133746156Y-40089795D01*
X133659033Y-40089667D01*
X133242755Y-40089667D01*
X133242755Y-40767000D01*
X132635977Y-40767000D01*
X132635977Y-40089667D01*
X129404533Y-40089667D01*
X129404533Y-39780146D01*
X129563283Y-39776157D01*
X129722033Y-39772167D01*
X129725686Y-39034861D01*
X129729340Y-38297555D01*
X130293533Y-38297555D01*
X130293533Y-39779222D01*
X130688644Y-39779222D01*
X130688644Y-38297555D01*
X131295165Y-38297555D01*
X131298821Y-39020750D01*
X131302477Y-39743944D01*
X131655255Y-39743944D01*
X131658911Y-39020750D01*
X131662567Y-38297555D01*
X132268832Y-38297555D01*
X132272488Y-39020750D01*
X132276144Y-39743944D01*
X132628922Y-39743944D01*
X132632578Y-39020750D01*
X132636234Y-38297555D01*
X133242755Y-38297555D01*
X133242755Y-39751414D01*
X134096477Y-39743944D01*
X134100376Y-39519119D01*
X134100056Y-39381425D01*
X134093143Y-39263642D01*
X134078523Y-39157995D01*
X134055084Y-39056710D01*
X134021714Y-38952014D01*
X134017550Y-38940400D01*
X133946158Y-38782453D01*
X133849518Y-38630143D01*
X133730472Y-38486377D01*
X133591862Y-38354062D01*
X133436531Y-38236106D01*
X133267320Y-38135416D01*
X133196775Y-38100805D01*
X133154612Y-38081466D01*
X133115237Y-38064012D01*
X133076813Y-38048098D01*
X133037507Y-38033378D01*
X132995485Y-38019506D01*
X132948912Y-38006136D01*
X132895954Y-37992924D01*
X132834776Y-37979522D01*
X132763544Y-37965587D01*
X132680424Y-37950771D01*
X132583581Y-37934730D01*
X132471180Y-37917118D01*
X132341388Y-37897589D01*
X132192370Y-37875797D01*
X132022292Y-37851397D01*
X131829318Y-37824043D01*
X131611616Y-37793391D01*
X131429477Y-37767813D01*
X131235222Y-37740475D01*
X131048888Y-37714116D01*
X130872374Y-37689010D01*
X130707580Y-37665434D01*
X130556404Y-37643665D01*
X130420746Y-37623978D01*
X130302504Y-37606650D01*
X130203577Y-37591958D01*
X130125865Y-37580177D01*
X130071266Y-37571583D01*
X130041679Y-37566454D01*
X130036758Y-37565211D01*
X130036677Y-37549611D01*
X130042442Y-37513014D01*
X130052600Y-37461685D01*
X130065697Y-37401888D01*
X130080278Y-37339888D01*
X130094889Y-37281951D01*
X130108077Y-37234339D01*
X130118387Y-37203318D01*
X130122638Y-37195222D01*
X130139038Y-37193670D01*
X130178092Y-37195434D01*
X130234477Y-37200123D01*
X130302867Y-37207349D01*
X130325740Y-37210052D01*
X130396575Y-37218126D01*
X130456845Y-37224041D01*
X130501294Y-37227354D01*
X130524666Y-37227623D01*
X130526824Y-37227006D01*
X130532148Y-37209180D01*
X130533422Y-37189995D01*
X130542495Y-37134488D01*
X130565929Y-37072233D01*
X130598039Y-37016351D01*
X130619685Y-36990783D01*
X130647397Y-36967583D01*
X130675386Y-36955308D01*
X130714203Y-36950658D01*
X130749612Y-36950162D01*
X130835977Y-36961449D01*
G37*
X128896533Y-39765111D02*
X128374422Y-39765111D01*
X128374422Y-38212889D01*
X128896533Y-38212889D01*
X128896533Y-39765111D01*
G36*
X128896533Y-39765111D02*
G01*
X128374422Y-39765111D01*
X128374422Y-38212889D01*
X128896533Y-38212889D01*
X128896533Y-39765111D01*
G37*
M02*
