%TF.GenerationSoftware,KiCad,Pcbnew,7.0.8*%
%TF.CreationDate,2024-01-14T11:38:24+01:00*%
%TF.ProjectId,BeoMaster,42656f4d-6173-4746-9572-2e6b69636164,rev?*%
%TF.SameCoordinates,Original*%
%TF.FileFunction,Drillmap*%
%TF.FilePolarity,Positive*%
%FSLAX45Y45*%
G04 Gerber Fmt 4.5, Leading zero omitted, Abs format (unit mm)*
G04 Created by KiCad (PCBNEW 7.0.8) date 2024-01-14 11:38:24*
%MOMM*%
%LPD*%
G01*
G04 APERTURE LIST*
%ADD10C,0.050000*%
%ADD11C,0.200000*%
%ADD12C,0.020000*%
%ADD13C,0.030000*%
%ADD14C,0.035000*%
%ADD15C,0.100000*%
G04 APERTURE END LIST*
D10*
X7680120Y-8166980D02*
X24680120Y-8166980D01*
X24680120Y-8166980D02*
X24680120Y-12666980D01*
X7680120Y-12666980D02*
X24680120Y-12666980D01*
X7680120Y-12666980D02*
X7680120Y-8166980D01*
D11*
D12*
X19550480Y-8457700D02*
X19570480Y-8477700D01*
X19570480Y-8457700D02*
X19550480Y-8477700D01*
X19550480Y-8582700D02*
X19570480Y-8602700D01*
X19570480Y-8582700D02*
X19550480Y-8602700D01*
X19550480Y-8707700D02*
X19570480Y-8727700D01*
X19570480Y-8707700D02*
X19550480Y-8727700D01*
X19655480Y-8457700D02*
X19675480Y-8477700D01*
X19675480Y-8457700D02*
X19655480Y-8477700D01*
X19655480Y-8582700D02*
X19675480Y-8602700D01*
X19675480Y-8582700D02*
X19655480Y-8602700D01*
X19655480Y-8707700D02*
X19675480Y-8727700D01*
X19675480Y-8707700D02*
X19655480Y-8727700D01*
X19760480Y-8457700D02*
X19780480Y-8477700D01*
X19780480Y-8457700D02*
X19760480Y-8477700D01*
X19760480Y-8582700D02*
X19780480Y-8602700D01*
X19780480Y-8582700D02*
X19760480Y-8602700D01*
X19760480Y-8707700D02*
X19780480Y-8727700D01*
X19780480Y-8707700D02*
X19760480Y-8727700D01*
D13*
X8625000Y-10290000D02*
G75*
G03*
X8625000Y-10290000I-15000J0D01*
G01*
X8697500Y-10497500D02*
G75*
G03*
X8697500Y-10497500I-15000J0D01*
G01*
X8922500Y-11110000D02*
G75*
G03*
X8922500Y-11110000I-15000J0D01*
G01*
X8922500Y-11440000D02*
G75*
G03*
X8922500Y-11440000I-15000J0D01*
G01*
X9165000Y-10462500D02*
G75*
G03*
X9165000Y-10462500I-15000J0D01*
G01*
X9367500Y-10497500D02*
G75*
G03*
X9367500Y-10497500I-15000J0D01*
G01*
X9560000Y-9272500D02*
G75*
G03*
X9560000Y-9272500I-15000J0D01*
G01*
X9675000Y-9272500D02*
G75*
G03*
X9675000Y-9272500I-15000J0D01*
G01*
X9887500Y-11340000D02*
G75*
G03*
X9887500Y-11340000I-15000J0D01*
G01*
X10010000Y-10535000D02*
G75*
G03*
X10010000Y-10535000I-15000J0D01*
G01*
X10070000Y-10900000D02*
G75*
G03*
X10070000Y-10900000I-15000J0D01*
G01*
X10087500Y-9272500D02*
G75*
G03*
X10087500Y-9272500I-15000J0D01*
G01*
X10100000Y-9815000D02*
G75*
G03*
X10100000Y-9815000I-15000J0D01*
G01*
X10210000Y-9272500D02*
G75*
G03*
X10210000Y-9272500I-15000J0D01*
G01*
X10215000Y-11922500D02*
G75*
G03*
X10215000Y-11922500I-15000J0D01*
G01*
X10232500Y-10055000D02*
G75*
G03*
X10232500Y-10055000I-15000J0D01*
G01*
X10252500Y-9827500D02*
G75*
G03*
X10252500Y-9827500I-15000J0D01*
G01*
X10293180Y-11785680D02*
G75*
G03*
X10293180Y-11785680I-15000J0D01*
G01*
X10540000Y-10615000D02*
G75*
G03*
X10540000Y-10615000I-15000J0D01*
G01*
X10555000Y-11925000D02*
G75*
G03*
X10555000Y-11925000I-15000J0D01*
G01*
X10615000Y-10410000D02*
G75*
G03*
X10615000Y-10410000I-15000J0D01*
G01*
X10755000Y-10375000D02*
G75*
G03*
X10755000Y-10375000I-15000J0D01*
G01*
X10805000Y-10085000D02*
G75*
G03*
X10805000Y-10085000I-15000J0D01*
G01*
X11352500Y-9167500D02*
G75*
G03*
X11352500Y-9167500I-15000J0D01*
G01*
X11475000Y-11370000D02*
G75*
G03*
X11475000Y-11370000I-15000J0D01*
G01*
X11485000Y-11220000D02*
G75*
G03*
X11485000Y-11220000I-15000J0D01*
G01*
X11507500Y-9167500D02*
G75*
G03*
X11507500Y-9167500I-15000J0D01*
G01*
X11715000Y-10880000D02*
G75*
G03*
X11715000Y-10880000I-15000J0D01*
G01*
X11845000Y-9160000D02*
G75*
G03*
X11845000Y-9160000I-15000J0D01*
G01*
X11875000Y-9325000D02*
G75*
G03*
X11875000Y-9325000I-15000J0D01*
G01*
X11950000Y-10880000D02*
G75*
G03*
X11950000Y-10880000I-15000J0D01*
G01*
X11952500Y-9262500D02*
G75*
G03*
X11952500Y-9262500I-15000J0D01*
G01*
X11952500Y-11000000D02*
G75*
G03*
X11952500Y-11000000I-15000J0D01*
G01*
X12015000Y-11017500D02*
G75*
G03*
X12015000Y-11017500I-15000J0D01*
G01*
X12025000Y-11240000D02*
G75*
G03*
X12025000Y-11240000I-15000J0D01*
G01*
X12085000Y-10375000D02*
G75*
G03*
X12085000Y-10375000I-15000J0D01*
G01*
X12087500Y-9922500D02*
G75*
G03*
X12087500Y-9922500I-15000J0D01*
G01*
X12105000Y-8510000D02*
G75*
G03*
X12105000Y-8510000I-15000J0D01*
G01*
X12170000Y-11000000D02*
G75*
G03*
X12170000Y-11000000I-15000J0D01*
G01*
X12215000Y-9922500D02*
G75*
G03*
X12215000Y-9922500I-15000J0D01*
G01*
X12215000Y-10372500D02*
G75*
G03*
X12215000Y-10372500I-15000J0D01*
G01*
X12245000Y-10865000D02*
G75*
G03*
X12245000Y-10865000I-15000J0D01*
G01*
X12290000Y-10080000D02*
G75*
G03*
X12290000Y-10080000I-15000J0D01*
G01*
X12295000Y-10210000D02*
G75*
G03*
X12295000Y-10210000I-15000J0D01*
G01*
X12312500Y-12072500D02*
G75*
G03*
X12312500Y-12072500I-15000J0D01*
G01*
X12370000Y-10565000D02*
G75*
G03*
X12370000Y-10565000I-15000J0D01*
G01*
X12405000Y-9505000D02*
G75*
G03*
X12405000Y-9505000I-15000J0D01*
G01*
X12440000Y-10390000D02*
G75*
G03*
X12440000Y-10390000I-15000J0D01*
G01*
X12440000Y-12072500D02*
G75*
G03*
X12440000Y-12072500I-15000J0D01*
G01*
X12445000Y-9055000D02*
G75*
G03*
X12445000Y-9055000I-15000J0D01*
G01*
X12445000Y-9152500D02*
G75*
G03*
X12445000Y-9152500I-15000J0D01*
G01*
X12480000Y-10768500D02*
G75*
G03*
X12480000Y-10768500I-15000J0D01*
G01*
X12540000Y-9605000D02*
G75*
G03*
X12540000Y-9605000I-15000J0D01*
G01*
X12555000Y-9040000D02*
G75*
G03*
X12555000Y-9040000I-15000J0D01*
G01*
X12565000Y-8520000D02*
G75*
G03*
X12565000Y-8520000I-15000J0D01*
G01*
X12567500Y-12072500D02*
G75*
G03*
X12567500Y-12072500I-15000J0D01*
G01*
X12720000Y-11225000D02*
G75*
G03*
X12720000Y-11225000I-15000J0D01*
G01*
X12745000Y-10445000D02*
G75*
G03*
X12745000Y-10445000I-15000J0D01*
G01*
X12745000Y-10770000D02*
G75*
G03*
X12745000Y-10770000I-15000J0D01*
G01*
X12862500Y-8940000D02*
G75*
G03*
X12862500Y-8940000I-15000J0D01*
G01*
X12920000Y-9405000D02*
G75*
G03*
X12920000Y-9405000I-15000J0D01*
G01*
X13070000Y-10095000D02*
G75*
G03*
X13070000Y-10095000I-15000J0D01*
G01*
X13215000Y-10020000D02*
G75*
G03*
X13215000Y-10020000I-15000J0D01*
G01*
X13245000Y-9195000D02*
G75*
G03*
X13245000Y-9195000I-15000J0D01*
G01*
X13260000Y-9100000D02*
G75*
G03*
X13260000Y-9100000I-15000J0D01*
G01*
X13335000Y-10250000D02*
G75*
G03*
X13335000Y-10250000I-15000J0D01*
G01*
X13445000Y-8915000D02*
G75*
G03*
X13445000Y-8915000I-15000J0D01*
G01*
X13505000Y-8680000D02*
G75*
G03*
X13505000Y-8680000I-15000J0D01*
G01*
X13515000Y-11035000D02*
G75*
G03*
X13515000Y-11035000I-15000J0D01*
G01*
X13565000Y-9830000D02*
G75*
G03*
X13565000Y-9830000I-15000J0D01*
G01*
X13565000Y-10105000D02*
G75*
G03*
X13565000Y-10105000I-15000J0D01*
G01*
X13570000Y-11170000D02*
G75*
G03*
X13570000Y-11170000I-15000J0D01*
G01*
X13610000Y-9285000D02*
G75*
G03*
X13610000Y-9285000I-15000J0D01*
G01*
X13685000Y-11100000D02*
G75*
G03*
X13685000Y-11100000I-15000J0D01*
G01*
X13685000Y-11235000D02*
G75*
G03*
X13685000Y-11235000I-15000J0D01*
G01*
X13750000Y-11425000D02*
G75*
G03*
X13750000Y-11425000I-15000J0D01*
G01*
X13760000Y-9605000D02*
G75*
G03*
X13760000Y-9605000I-15000J0D01*
G01*
X13775000Y-8500000D02*
G75*
G03*
X13775000Y-8500000I-15000J0D01*
G01*
X13800000Y-9965000D02*
G75*
G03*
X13800000Y-9965000I-15000J0D01*
G01*
X13820000Y-11815000D02*
G75*
G03*
X13820000Y-11815000I-15000J0D01*
G01*
X13855000Y-11410000D02*
G75*
G03*
X13855000Y-11410000I-15000J0D01*
G01*
X13885000Y-11890000D02*
G75*
G03*
X13885000Y-11890000I-15000J0D01*
G01*
X13945000Y-11815000D02*
G75*
G03*
X13945000Y-11815000I-15000J0D01*
G01*
X13955000Y-12055000D02*
G75*
G03*
X13955000Y-12055000I-15000J0D01*
G01*
X13955000Y-12175000D02*
G75*
G03*
X13955000Y-12175000I-15000J0D01*
G01*
X13965000Y-10890000D02*
G75*
G03*
X13965000Y-10890000I-15000J0D01*
G01*
X14015000Y-11045000D02*
G75*
G03*
X14015000Y-11045000I-15000J0D01*
G01*
X14035000Y-11750000D02*
G75*
G03*
X14035000Y-11750000I-15000J0D01*
G01*
X14040000Y-8680000D02*
G75*
G03*
X14040000Y-8680000I-15000J0D01*
G01*
X14040000Y-12075000D02*
G75*
G03*
X14040000Y-12075000I-15000J0D01*
G01*
X14065000Y-10500000D02*
G75*
G03*
X14065000Y-10500000I-15000J0D01*
G01*
X14090000Y-10730000D02*
G75*
G03*
X14090000Y-10730000I-15000J0D01*
G01*
X14130000Y-9560000D02*
G75*
G03*
X14130000Y-9560000I-15000J0D01*
G01*
X14135000Y-10830000D02*
G75*
G03*
X14135000Y-10830000I-15000J0D01*
G01*
X14140000Y-11685000D02*
G75*
G03*
X14140000Y-11685000I-15000J0D01*
G01*
X14157500Y-12067500D02*
G75*
G03*
X14157500Y-12067500I-15000J0D01*
G01*
X14210000Y-9375000D02*
G75*
G03*
X14210000Y-9375000I-15000J0D01*
G01*
X14370000Y-9230000D02*
G75*
G03*
X14370000Y-9230000I-15000J0D01*
G01*
X14370000Y-11175000D02*
G75*
G03*
X14370000Y-11175000I-15000J0D01*
G01*
X14370000Y-11530000D02*
G75*
G03*
X14370000Y-11530000I-15000J0D01*
G01*
X14410000Y-11990000D02*
G75*
G03*
X14410000Y-11990000I-15000J0D01*
G01*
X14460000Y-12160000D02*
G75*
G03*
X14460000Y-12160000I-15000J0D01*
G01*
X14495000Y-10770000D02*
G75*
G03*
X14495000Y-10770000I-15000J0D01*
G01*
X14535000Y-12235000D02*
G75*
G03*
X14535000Y-12235000I-15000J0D01*
G01*
X14560000Y-10820000D02*
G75*
G03*
X14560000Y-10820000I-15000J0D01*
G01*
X14570000Y-10210000D02*
G75*
G03*
X14570000Y-10210000I-15000J0D01*
G01*
X14580000Y-11895000D02*
G75*
G03*
X14580000Y-11895000I-15000J0D01*
G01*
X14635000Y-12090000D02*
G75*
G03*
X14635000Y-12090000I-15000J0D01*
G01*
X14670000Y-10555000D02*
G75*
G03*
X14670000Y-10555000I-15000J0D01*
G01*
X14675270Y-12315000D02*
G75*
G03*
X14675270Y-12315000I-15000J0D01*
G01*
X14690000Y-12235000D02*
G75*
G03*
X14690000Y-12235000I-15000J0D01*
G01*
X14720000Y-11175000D02*
G75*
G03*
X14720000Y-11175000I-15000J0D01*
G01*
X14720000Y-11530000D02*
G75*
G03*
X14720000Y-11530000I-15000J0D01*
G01*
X14750000Y-10825000D02*
G75*
G03*
X14750000Y-10825000I-15000J0D01*
G01*
X14760000Y-10385000D02*
G75*
G03*
X14760000Y-10385000I-15000J0D01*
G01*
X14785000Y-10555000D02*
G75*
G03*
X14785000Y-10555000I-15000J0D01*
G01*
X14885000Y-10940000D02*
G75*
G03*
X14885000Y-10940000I-15000J0D01*
G01*
X14915000Y-10465000D02*
G75*
G03*
X14915000Y-10465000I-15000J0D01*
G01*
X14920000Y-10805000D02*
G75*
G03*
X14920000Y-10805000I-15000J0D01*
G01*
X14950000Y-10070000D02*
G75*
G03*
X14950000Y-10070000I-15000J0D01*
G01*
X14960000Y-11680000D02*
G75*
G03*
X14960000Y-11680000I-15000J0D01*
G01*
X14960000Y-11905000D02*
G75*
G03*
X14960000Y-11905000I-15000J0D01*
G01*
X14965000Y-10995000D02*
G75*
G03*
X14965000Y-10995000I-15000J0D01*
G01*
X15015000Y-10315000D02*
G75*
G03*
X15015000Y-10315000I-15000J0D01*
G01*
X15035000Y-10710000D02*
G75*
G03*
X15035000Y-10710000I-15000J0D01*
G01*
X15055000Y-11760000D02*
G75*
G03*
X15055000Y-11760000I-15000J0D01*
G01*
X15090000Y-11405000D02*
G75*
G03*
X15090000Y-11405000I-15000J0D01*
G01*
X15095000Y-9240000D02*
G75*
G03*
X15095000Y-9240000I-15000J0D01*
G01*
X15125000Y-10465000D02*
G75*
G03*
X15125000Y-10465000I-15000J0D01*
G01*
X15160000Y-12550000D02*
G75*
G03*
X15160000Y-12550000I-15000J0D01*
G01*
X15190000Y-11125000D02*
G75*
G03*
X15190000Y-11125000I-15000J0D01*
G01*
X15200000Y-9235000D02*
G75*
G03*
X15200000Y-9235000I-15000J0D01*
G01*
X15205000Y-10710000D02*
G75*
G03*
X15205000Y-10710000I-15000J0D01*
G01*
X15205000Y-10905000D02*
G75*
G03*
X15205000Y-10905000I-15000J0D01*
G01*
X15240000Y-10575000D02*
G75*
G03*
X15240000Y-10575000I-15000J0D01*
G01*
X15270000Y-11475000D02*
G75*
G03*
X15270000Y-11475000I-15000J0D01*
G01*
X15300000Y-9230000D02*
G75*
G03*
X15300000Y-9230000I-15000J0D01*
G01*
X15330000Y-12420000D02*
G75*
G03*
X15330000Y-12420000I-15000J0D01*
G01*
X15350000Y-10510000D02*
G75*
G03*
X15350000Y-10510000I-15000J0D01*
G01*
X15350000Y-10650000D02*
G75*
G03*
X15350000Y-10650000I-15000J0D01*
G01*
X15350000Y-11185000D02*
G75*
G03*
X15350000Y-11185000I-15000J0D01*
G01*
X15398130Y-11476870D02*
G75*
G03*
X15398130Y-11476870I-15000J0D01*
G01*
X15485000Y-12570000D02*
G75*
G03*
X15485000Y-12570000I-15000J0D01*
G01*
X15525000Y-11475000D02*
G75*
G03*
X15525000Y-11475000I-15000J0D01*
G01*
X15525000Y-12235000D02*
G75*
G03*
X15525000Y-12235000I-15000J0D01*
G01*
X15540000Y-10395000D02*
G75*
G03*
X15540000Y-10395000I-15000J0D01*
G01*
X15540000Y-10570000D02*
G75*
G03*
X15540000Y-10570000I-15000J0D01*
G01*
X15550000Y-12375000D02*
G75*
G03*
X15550000Y-12375000I-15000J0D01*
G01*
X15650000Y-11475000D02*
G75*
G03*
X15650000Y-11475000I-15000J0D01*
G01*
X15650000Y-12375000D02*
G75*
G03*
X15650000Y-12375000I-15000J0D01*
G01*
X15665000Y-10480000D02*
G75*
G03*
X15665000Y-10480000I-15000J0D01*
G01*
X15670000Y-10095000D02*
G75*
G03*
X15670000Y-10095000I-15000J0D01*
G01*
X15675000Y-10860000D02*
G75*
G03*
X15675000Y-10860000I-15000J0D01*
G01*
X15705000Y-9835000D02*
G75*
G03*
X15705000Y-9835000I-15000J0D01*
G01*
X15720000Y-12305000D02*
G75*
G03*
X15720000Y-12305000I-15000J0D01*
G01*
X15780000Y-11030000D02*
G75*
G03*
X15780000Y-11030000I-15000J0D01*
G01*
X15920000Y-11150000D02*
G75*
G03*
X15920000Y-11150000I-15000J0D01*
G01*
X15960000Y-8475000D02*
G75*
G03*
X15960000Y-8475000I-15000J0D01*
G01*
X15965000Y-9540000D02*
G75*
G03*
X15965000Y-9540000I-15000J0D01*
G01*
X16035000Y-10595000D02*
G75*
G03*
X16035000Y-10595000I-15000J0D01*
G01*
X16150000Y-8770000D02*
G75*
G03*
X16150000Y-8770000I-15000J0D01*
G01*
X16335000Y-8480000D02*
G75*
G03*
X16335000Y-8480000I-15000J0D01*
G01*
X16580000Y-9505000D02*
G75*
G03*
X16580000Y-9505000I-15000J0D01*
G01*
X16670000Y-9365000D02*
G75*
G03*
X16670000Y-9365000I-15000J0D01*
G01*
X16810000Y-12385000D02*
G75*
G03*
X16810000Y-12385000I-15000J0D01*
G01*
X16855000Y-9275000D02*
G75*
G03*
X16855000Y-9275000I-15000J0D01*
G01*
X17195000Y-11430000D02*
G75*
G03*
X17195000Y-11430000I-15000J0D01*
G01*
X17195000Y-11555000D02*
G75*
G03*
X17195000Y-11555000I-15000J0D01*
G01*
X17365000Y-9950000D02*
G75*
G03*
X17365000Y-9950000I-15000J0D01*
G01*
X17440000Y-9490000D02*
G75*
G03*
X17440000Y-9490000I-15000J0D01*
G01*
X17440000Y-9740000D02*
G75*
G03*
X17440000Y-9740000I-15000J0D01*
G01*
X17460000Y-11430000D02*
G75*
G03*
X17460000Y-11430000I-15000J0D01*
G01*
X17460000Y-11555000D02*
G75*
G03*
X17460000Y-11555000I-15000J0D01*
G01*
X17475000Y-12380000D02*
G75*
G03*
X17475000Y-12380000I-15000J0D01*
G01*
X17570000Y-12385000D02*
G75*
G03*
X17570000Y-12385000I-15000J0D01*
G01*
X17600000Y-9815000D02*
G75*
G03*
X17600000Y-9815000I-15000J0D01*
G01*
X17600000Y-10090000D02*
G75*
G03*
X17600000Y-10090000I-15000J0D01*
G01*
X17600000Y-12500000D02*
G75*
G03*
X17600000Y-12500000I-15000J0D01*
G01*
X17650000Y-9240000D02*
G75*
G03*
X17650000Y-9240000I-15000J0D01*
G01*
X17650000Y-9365000D02*
G75*
G03*
X17650000Y-9365000I-15000J0D01*
G01*
X17650000Y-9490000D02*
G75*
G03*
X17650000Y-9490000I-15000J0D01*
G01*
X17655000Y-9615000D02*
G75*
G03*
X17655000Y-9615000I-15000J0D01*
G01*
X17920000Y-9370000D02*
G75*
G03*
X17920000Y-9370000I-15000J0D01*
G01*
X17925000Y-9250000D02*
G75*
G03*
X17925000Y-9250000I-15000J0D01*
G01*
X18060000Y-11300000D02*
G75*
G03*
X18060000Y-11300000I-15000J0D01*
G01*
X18060000Y-11395000D02*
G75*
G03*
X18060000Y-11395000I-15000J0D01*
G01*
X18062870Y-12500000D02*
G75*
G03*
X18062870Y-12500000I-15000J0D01*
G01*
X18065000Y-11500000D02*
G75*
G03*
X18065000Y-11500000I-15000J0D01*
G01*
X18075000Y-11755000D02*
G75*
G03*
X18075000Y-11755000I-15000J0D01*
G01*
X18090000Y-9055000D02*
G75*
G03*
X18090000Y-9055000I-15000J0D01*
G01*
X18110000Y-9785000D02*
G75*
G03*
X18110000Y-9785000I-15000J0D01*
G01*
X18155000Y-9610000D02*
G75*
G03*
X18155000Y-9610000I-15000J0D01*
G01*
X18175000Y-11565000D02*
G75*
G03*
X18175000Y-11565000I-15000J0D01*
G01*
X18185000Y-9370000D02*
G75*
G03*
X18185000Y-9370000I-15000J0D01*
G01*
X18220000Y-10940000D02*
G75*
G03*
X18220000Y-10940000I-15000J0D01*
G01*
X18220000Y-11350000D02*
G75*
G03*
X18220000Y-11350000I-15000J0D01*
G01*
X18260000Y-9725000D02*
G75*
G03*
X18260000Y-9725000I-15000J0D01*
G01*
X18295000Y-11030000D02*
G75*
G03*
X18295000Y-11030000I-15000J0D01*
G01*
X18335000Y-11110000D02*
G75*
G03*
X18335000Y-11110000I-15000J0D01*
G01*
X18390000Y-10880000D02*
G75*
G03*
X18390000Y-10880000I-15000J0D01*
G01*
X18465000Y-12135000D02*
G75*
G03*
X18465000Y-12135000I-15000J0D01*
G01*
X18475000Y-10915000D02*
G75*
G03*
X18475000Y-10915000I-15000J0D01*
G01*
X18475000Y-11785000D02*
G75*
G03*
X18475000Y-11785000I-15000J0D01*
G01*
X18480000Y-10820000D02*
G75*
G03*
X18480000Y-10820000I-15000J0D01*
G01*
X18515000Y-10050000D02*
G75*
G03*
X18515000Y-10050000I-15000J0D01*
G01*
X18540000Y-12075000D02*
G75*
G03*
X18540000Y-12075000I-15000J0D01*
G01*
X18545000Y-11745000D02*
G75*
G03*
X18545000Y-11745000I-15000J0D01*
G01*
X18565000Y-10595000D02*
G75*
G03*
X18565000Y-10595000I-15000J0D01*
G01*
X18580000Y-9980000D02*
G75*
G03*
X18580000Y-9980000I-15000J0D01*
G01*
X18665000Y-12075000D02*
G75*
G03*
X18665000Y-12075000I-15000J0D01*
G01*
X18725000Y-12015000D02*
G75*
G03*
X18725000Y-12015000I-15000J0D01*
G01*
X18820000Y-11940000D02*
G75*
G03*
X18820000Y-11940000I-15000J0D01*
G01*
X18835000Y-12075000D02*
G75*
G03*
X18835000Y-12075000I-15000J0D01*
G01*
X18840000Y-9450000D02*
G75*
G03*
X18840000Y-9450000I-15000J0D01*
G01*
X18850000Y-9695000D02*
G75*
G03*
X18850000Y-9695000I-15000J0D01*
G01*
X18855000Y-9210000D02*
G75*
G03*
X18855000Y-9210000I-15000J0D01*
G01*
X18950000Y-9825000D02*
G75*
G03*
X18950000Y-9825000I-15000J0D01*
G01*
X18985000Y-10665000D02*
G75*
G03*
X18985000Y-10665000I-15000J0D01*
G01*
X19060000Y-10785000D02*
G75*
G03*
X19060000Y-10785000I-15000J0D01*
G01*
X19085000Y-9330000D02*
G75*
G03*
X19085000Y-9330000I-15000J0D01*
G01*
X19085000Y-9450000D02*
G75*
G03*
X19085000Y-9450000I-15000J0D01*
G01*
X19090000Y-12070000D02*
G75*
G03*
X19090000Y-12070000I-15000J0D01*
G01*
X19095000Y-11975000D02*
G75*
G03*
X19095000Y-11975000I-15000J0D01*
G01*
X19105000Y-9820000D02*
G75*
G03*
X19105000Y-9820000I-15000J0D01*
G01*
X19110000Y-8310000D02*
G75*
G03*
X19110000Y-8310000I-15000J0D01*
G01*
X19125000Y-10015000D02*
G75*
G03*
X19125000Y-10015000I-15000J0D01*
G01*
X19175000Y-8605000D02*
G75*
G03*
X19175000Y-8605000I-15000J0D01*
G01*
X19205000Y-12125000D02*
G75*
G03*
X19205000Y-12125000I-15000J0D01*
G01*
X19247500Y-11797500D02*
G75*
G03*
X19247500Y-11797500I-15000J0D01*
G01*
X19265000Y-12000000D02*
G75*
G03*
X19265000Y-12000000I-15000J0D01*
G01*
X19270000Y-11910000D02*
G75*
G03*
X19270000Y-11910000I-15000J0D01*
G01*
X19340000Y-8325000D02*
G75*
G03*
X19340000Y-8325000I-15000J0D01*
G01*
X19345000Y-9580000D02*
G75*
G03*
X19345000Y-9580000I-15000J0D01*
G01*
X19345000Y-9705000D02*
G75*
G03*
X19345000Y-9705000I-15000J0D01*
G01*
X19350000Y-9330000D02*
G75*
G03*
X19350000Y-9330000I-15000J0D01*
G01*
X19350000Y-9450000D02*
G75*
G03*
X19350000Y-9450000I-15000J0D01*
G01*
X19370000Y-11815000D02*
G75*
G03*
X19370000Y-11815000I-15000J0D01*
G01*
X19375000Y-11735000D02*
G75*
G03*
X19375000Y-11735000I-15000J0D01*
G01*
X19400000Y-8680000D02*
G75*
G03*
X19400000Y-8680000I-15000J0D01*
G01*
X19400000Y-10595000D02*
G75*
G03*
X19400000Y-10595000I-15000J0D01*
G01*
X19410000Y-8494320D02*
G75*
G03*
X19410000Y-8494320I-15000J0D01*
G01*
X19415000Y-11275000D02*
G75*
G03*
X19415000Y-11275000I-15000J0D01*
G01*
X19415000Y-11365000D02*
G75*
G03*
X19415000Y-11365000I-15000J0D01*
G01*
X19485000Y-8765000D02*
G75*
G03*
X19485000Y-8765000I-15000J0D01*
G01*
X19490000Y-9205000D02*
G75*
G03*
X19490000Y-9205000I-15000J0D01*
G01*
X19490000Y-9455000D02*
G75*
G03*
X19490000Y-9455000I-15000J0D01*
G01*
X19490000Y-10775000D02*
G75*
G03*
X19490000Y-10775000I-15000J0D01*
G01*
X19620000Y-10560000D02*
G75*
G03*
X19620000Y-10560000I-15000J0D01*
G01*
X19625000Y-10020000D02*
G75*
G03*
X19625000Y-10020000I-15000J0D01*
G01*
X19710000Y-11860000D02*
G75*
G03*
X19710000Y-11860000I-15000J0D01*
G01*
X19745000Y-9275000D02*
G75*
G03*
X19745000Y-9275000I-15000J0D01*
G01*
X19750000Y-10645000D02*
G75*
G03*
X19750000Y-10645000I-15000J0D01*
G01*
X19750000Y-10770000D02*
G75*
G03*
X19750000Y-10770000I-15000J0D01*
G01*
X19755000Y-11215000D02*
G75*
G03*
X19755000Y-11215000I-15000J0D01*
G01*
X19755000Y-11315000D02*
G75*
G03*
X19755000Y-11315000I-15000J0D01*
G01*
X19875000Y-8760000D02*
G75*
G03*
X19875000Y-8760000I-15000J0D01*
G01*
X19885000Y-10825000D02*
G75*
G03*
X19885000Y-10825000I-15000J0D01*
G01*
X19905000Y-9275000D02*
G75*
G03*
X19905000Y-9275000I-15000J0D01*
G01*
X19910000Y-8950000D02*
G75*
G03*
X19910000Y-8950000I-15000J0D01*
G01*
X19950000Y-8410000D02*
G75*
G03*
X19950000Y-8410000I-15000J0D01*
G01*
X19975000Y-10850000D02*
G75*
G03*
X19975000Y-10850000I-15000J0D01*
G01*
X20075000Y-8325000D02*
G75*
G03*
X20075000Y-8325000I-15000J0D01*
G01*
X20115000Y-11570000D02*
G75*
G03*
X20115000Y-11570000I-15000J0D01*
G01*
X20145000Y-8795000D02*
G75*
G03*
X20145000Y-8795000I-15000J0D01*
G01*
X20145000Y-10850000D02*
G75*
G03*
X20145000Y-10850000I-15000J0D01*
G01*
X20230000Y-11785000D02*
G75*
G03*
X20230000Y-11785000I-15000J0D01*
G01*
X20255000Y-8700000D02*
G75*
G03*
X20255000Y-8700000I-15000J0D01*
G01*
X20300000Y-11390000D02*
G75*
G03*
X20300000Y-11390000I-15000J0D01*
G01*
X20355000Y-11315000D02*
G75*
G03*
X20355000Y-11315000I-15000J0D01*
G01*
X20395000Y-9105000D02*
G75*
G03*
X20395000Y-9105000I-15000J0D01*
G01*
X20400000Y-11240000D02*
G75*
G03*
X20400000Y-11240000I-15000J0D01*
G01*
X20430000Y-10805000D02*
G75*
G03*
X20430000Y-10805000I-15000J0D01*
G01*
X20485000Y-8585000D02*
G75*
G03*
X20485000Y-8585000I-15000J0D01*
G01*
X20485000Y-8660000D02*
G75*
G03*
X20485000Y-8660000I-15000J0D01*
G01*
X20485000Y-8735000D02*
G75*
G03*
X20485000Y-8735000I-15000J0D01*
G01*
X20485000Y-8810000D02*
G75*
G03*
X20485000Y-8810000I-15000J0D01*
G01*
X20485000Y-8885000D02*
G75*
G03*
X20485000Y-8885000I-15000J0D01*
G01*
X20535000Y-10125000D02*
G75*
G03*
X20535000Y-10125000I-15000J0D01*
G01*
X20550000Y-11240000D02*
G75*
G03*
X20550000Y-11240000I-15000J0D01*
G01*
X20575000Y-10880000D02*
G75*
G03*
X20575000Y-10880000I-15000J0D01*
G01*
X20630000Y-11315000D02*
G75*
G03*
X20630000Y-11315000I-15000J0D01*
G01*
X20970000Y-12245000D02*
G75*
G03*
X20970000Y-12245000I-15000J0D01*
G01*
X21056360Y-11821160D02*
G75*
G03*
X21056360Y-11821160I-15000J0D01*
G01*
X21245000Y-12054840D02*
G75*
G03*
X21245000Y-12054840I-15000J0D01*
G01*
X21531340Y-11755120D02*
G75*
G03*
X21531340Y-11755120I-15000J0D01*
G01*
X21580000Y-12325000D02*
G75*
G03*
X21580000Y-12325000I-15000J0D01*
G01*
X21594840Y-11640820D02*
G75*
G03*
X21594840Y-11640820I-15000J0D01*
G01*
X21597380Y-11483340D02*
G75*
G03*
X21597380Y-11483340I-15000J0D01*
G01*
X21671040Y-11821160D02*
G75*
G03*
X21671040Y-11821160I-15000J0D01*
G01*
X21671040Y-12075160D02*
G75*
G03*
X21671040Y-12075160I-15000J0D01*
G01*
X21767560Y-12075160D02*
G75*
G03*
X21767560Y-12075160I-15000J0D01*
G01*
X22153640Y-11717020D02*
G75*
G03*
X22153640Y-11717020I-15000J0D01*
G01*
X22315000Y-12140000D02*
G75*
G03*
X22315000Y-12140000I-15000J0D01*
G01*
X22412720Y-11760200D02*
G75*
G03*
X22412720Y-11760200I-15000J0D01*
G01*
X22514320Y-12009120D02*
G75*
G03*
X22514320Y-12009120I-15000J0D01*
G01*
X22745460Y-11483340D02*
G75*
G03*
X22745460Y-11483340I-15000J0D01*
G01*
X22748000Y-11650980D02*
G75*
G03*
X22748000Y-11650980I-15000J0D01*
G01*
X23134080Y-11483340D02*
G75*
G03*
X23134080Y-11483340I-15000J0D01*
G01*
X23136620Y-11650980D02*
G75*
G03*
X23136620Y-11650980I-15000J0D01*
G01*
D14*
X18716940Y-11256080D02*
X18716940Y-11291080D01*
X18699440Y-11273580D02*
X18734440Y-11273580D01*
X18716940Y-11383580D02*
X18716940Y-11418580D01*
X18699440Y-11401080D02*
X18734440Y-11401080D01*
X18716940Y-11511080D02*
X18716940Y-11546080D01*
X18699440Y-11528580D02*
X18734440Y-11528580D01*
X18844440Y-11256080D02*
X18844440Y-11291080D01*
X18826940Y-11273580D02*
X18861940Y-11273580D01*
X18844440Y-11383580D02*
X18844440Y-11418580D01*
X18826940Y-11401080D02*
X18861940Y-11401080D01*
X18844440Y-11511080D02*
X18844440Y-11546080D01*
X18826940Y-11528580D02*
X18861940Y-11528580D01*
X18971940Y-11256080D02*
X18971940Y-11291080D01*
X18954440Y-11273580D02*
X18989440Y-11273580D01*
X18971940Y-11383580D02*
X18971940Y-11418580D01*
X18954440Y-11401080D02*
X18989440Y-11401080D01*
X18971940Y-11511080D02*
X18971940Y-11546080D01*
X18954440Y-11528580D02*
X18989440Y-11528580D01*
D10*
X8808078Y-12150178D02*
X8808078Y-12114822D01*
X8772722Y-12114822D01*
X8772722Y-12150178D01*
X8808078Y-12150178D01*
X8933078Y-12150178D02*
X8933078Y-12114822D01*
X8897722Y-12114822D01*
X8897722Y-12150178D01*
X8933078Y-12150178D01*
X8962678Y-8697678D02*
X8962678Y-8662322D01*
X8927322Y-8662322D01*
X8927322Y-8697678D01*
X8962678Y-8697678D01*
X9058078Y-12150178D02*
X9058078Y-12114822D01*
X9022722Y-12114822D01*
X9022722Y-12150178D01*
X9058078Y-12150178D01*
X9087678Y-8697678D02*
X9087678Y-8662322D01*
X9052322Y-8662322D01*
X9052322Y-8697678D01*
X9087678Y-8697678D01*
X9212678Y-8697678D02*
X9212678Y-8662322D01*
X9177322Y-8662322D01*
X9177322Y-8697678D01*
X9212678Y-8697678D01*
X9337678Y-8697678D02*
X9337678Y-8662322D01*
X9302322Y-8662322D01*
X9302322Y-8697678D01*
X9337678Y-8697678D01*
X9880178Y-8697678D02*
X9880178Y-8662322D01*
X9844822Y-8662322D01*
X9844822Y-8697678D01*
X9880178Y-8697678D01*
X10005178Y-8697678D02*
X10005178Y-8662322D01*
X9969822Y-8662322D01*
X9969822Y-8697678D01*
X10005178Y-8697678D01*
X10130178Y-8697678D02*
X10130178Y-8662322D01*
X10094822Y-8662322D01*
X10094822Y-8697678D01*
X10130178Y-8697678D01*
X10255178Y-8697678D02*
X10255178Y-8662322D01*
X10219822Y-8662322D01*
X10219822Y-8697678D01*
X10255178Y-8697678D01*
X11232678Y-8695178D02*
X11232678Y-8659822D01*
X11197322Y-8659822D01*
X11197322Y-8695178D01*
X11232678Y-8695178D01*
X11357678Y-8695178D02*
X11357678Y-8659822D01*
X11322322Y-8659822D01*
X11322322Y-8695178D01*
X11357678Y-8695178D01*
X11482678Y-8695178D02*
X11482678Y-8659822D01*
X11447322Y-8659822D01*
X11447322Y-8695178D01*
X11482678Y-8695178D01*
X11607678Y-8695178D02*
X11607678Y-8659822D01*
X11572322Y-8659822D01*
X11572322Y-8695178D01*
X11607678Y-8695178D01*
X12110178Y-8695178D02*
X12110178Y-8659822D01*
X12074822Y-8659822D01*
X12074822Y-8695178D01*
X12110178Y-8695178D01*
X12235178Y-8695178D02*
X12235178Y-8659822D01*
X12199822Y-8659822D01*
X12199822Y-8695178D01*
X12235178Y-8695178D01*
X12360178Y-8695178D02*
X12360178Y-8659822D01*
X12324822Y-8659822D01*
X12324822Y-8695178D01*
X12360178Y-8695178D01*
X12485178Y-8695178D02*
X12485178Y-8659822D01*
X12449822Y-8659822D01*
X12449822Y-8695178D01*
X12485178Y-8695178D01*
X15090178Y-8697678D02*
X15090178Y-8662322D01*
X15054822Y-8662322D01*
X15054822Y-8697678D01*
X15090178Y-8697678D01*
X15215178Y-8697678D02*
X15215178Y-8662322D01*
X15179822Y-8662322D01*
X15179822Y-8697678D01*
X15215178Y-8697678D01*
X15340178Y-8697678D02*
X15340178Y-8662322D01*
X15304822Y-8662322D01*
X15304822Y-8697678D01*
X15340178Y-8697678D01*
X16405178Y-12260178D02*
X16405178Y-12224822D01*
X16369822Y-12224822D01*
X16369822Y-12260178D01*
X16405178Y-12260178D01*
D11*
X16352500Y-12267500D02*
X16422500Y-12267500D01*
X16422500Y-12267500D02*
G75*
G03*
X16422500Y-12217500I0J25000D01*
G01*
X16422500Y-12217500D02*
X16352500Y-12217500D01*
X16352500Y-12217500D02*
G75*
G03*
X16352500Y-12267500I0J-25000D01*
G01*
D10*
X16685178Y-12475178D02*
X16685178Y-12439822D01*
X16649822Y-12439822D01*
X16649822Y-12475178D01*
X16685178Y-12475178D01*
D11*
X16612500Y-12482500D02*
X16722500Y-12482500D01*
X16722500Y-12482500D02*
G75*
G03*
X16722500Y-12432500I0J25000D01*
G01*
X16722500Y-12432500D02*
X16612500Y-12432500D01*
X16612500Y-12432500D02*
G75*
G03*
X16612500Y-12482500I0J-25000D01*
G01*
D10*
X16965178Y-12260178D02*
X16965178Y-12224822D01*
X16929822Y-12224822D01*
X16929822Y-12260178D01*
X16965178Y-12260178D01*
D11*
X16912500Y-12267500D02*
X16982500Y-12267500D01*
X16982500Y-12267500D02*
G75*
G03*
X16982500Y-12217500I0J25000D01*
G01*
X16982500Y-12217500D02*
X16912500Y-12217500D01*
X16912500Y-12217500D02*
G75*
G03*
X16912500Y-12267500I0J-25000D01*
G01*
D10*
X17220178Y-8697678D02*
X17220178Y-8662322D01*
X17184822Y-8662322D01*
X17184822Y-8697678D01*
X17220178Y-8697678D01*
X17345178Y-8697678D02*
X17345178Y-8662322D01*
X17309822Y-8662322D01*
X17309822Y-8697678D01*
X17345178Y-8697678D01*
X17470178Y-8697678D02*
X17470178Y-8662322D01*
X17434822Y-8662322D01*
X17434822Y-8697678D01*
X17470178Y-8697678D01*
X17922678Y-8697678D02*
X17922678Y-8662322D01*
X17887322Y-8662322D01*
X17887322Y-8697678D01*
X17922678Y-8697678D01*
X18047678Y-8697678D02*
X18047678Y-8662322D01*
X18012322Y-8662322D01*
X18012322Y-8697678D01*
X18047678Y-8697678D01*
X18172678Y-8697678D02*
X18172678Y-8662322D01*
X18137322Y-8662322D01*
X18137322Y-8697678D01*
X18172678Y-8697678D01*
X18297678Y-8697678D02*
X18297678Y-8662322D01*
X18262322Y-8662322D01*
X18262322Y-8697678D01*
X18297678Y-8697678D01*
X18747678Y-8697678D02*
X18747678Y-8662322D01*
X18712322Y-8662322D01*
X18712322Y-8697678D01*
X18747678Y-8697678D01*
X18872678Y-8697678D02*
X18872678Y-8662322D01*
X18837322Y-8662322D01*
X18837322Y-8697678D01*
X18872678Y-8697678D01*
X19650178Y-12150178D02*
X19650178Y-12114822D01*
X19614822Y-12114822D01*
X19614822Y-12150178D01*
X19650178Y-12150178D01*
X19775178Y-12150178D02*
X19775178Y-12114822D01*
X19739822Y-12114822D01*
X19739822Y-12150178D01*
X19775178Y-12150178D01*
X19900178Y-12150178D02*
X19900178Y-12114822D01*
X19864822Y-12114822D01*
X19864822Y-12150178D01*
X19900178Y-12150178D01*
X20025178Y-12150178D02*
X20025178Y-12114822D01*
X19989822Y-12114822D01*
X19989822Y-12150178D01*
X20025178Y-12150178D01*
X20487678Y-12150178D02*
X20487678Y-12114822D01*
X20452322Y-12114822D01*
X20452322Y-12150178D01*
X20487678Y-12150178D01*
X20612678Y-12150178D02*
X20612678Y-12114822D01*
X20577322Y-12114822D01*
X20577322Y-12150178D01*
X20612678Y-12150178D01*
X20737678Y-12150178D02*
X20737678Y-12114822D01*
X20702322Y-12114822D01*
X20702322Y-12150178D01*
X20737678Y-12150178D01*
X20862678Y-12150178D02*
X20862678Y-12114822D01*
X20827322Y-12114822D01*
X20827322Y-12150178D01*
X20862678Y-12150178D01*
X21907678Y-12255178D02*
X21907678Y-12219822D01*
X21872322Y-12219822D01*
X21872322Y-12255178D01*
X21907678Y-12255178D01*
D11*
X21855000Y-12262500D02*
X21925000Y-12262500D01*
X21925000Y-12262500D02*
G75*
G03*
X21925000Y-12212500I0J25000D01*
G01*
X21925000Y-12212500D02*
X21855000Y-12212500D01*
X21855000Y-12212500D02*
G75*
G03*
X21855000Y-12262500I0J-25000D01*
G01*
D10*
X22187678Y-12470178D02*
X22187678Y-12434822D01*
X22152322Y-12434822D01*
X22152322Y-12470178D01*
X22187678Y-12470178D01*
D11*
X22115000Y-12477500D02*
X22225000Y-12477500D01*
X22225000Y-12477500D02*
G75*
G03*
X22225000Y-12427500I0J25000D01*
G01*
X22225000Y-12427500D02*
X22115000Y-12427500D01*
X22115000Y-12427500D02*
G75*
G03*
X22115000Y-12477500I0J-25000D01*
G01*
D10*
X22467678Y-12255178D02*
X22467678Y-12219822D01*
X22432322Y-12219822D01*
X22432322Y-12255178D01*
X22467678Y-12255178D01*
D11*
X22415000Y-12262500D02*
X22485000Y-12262500D01*
X22485000Y-12262500D02*
G75*
G03*
X22485000Y-12212500I0J25000D01*
G01*
X22485000Y-12212500D02*
X22415000Y-12212500D01*
X22415000Y-12212500D02*
G75*
G03*
X22415000Y-12262500I0J-25000D01*
G01*
D15*
X18456000Y-12500000D02*
X18506000Y-12450000D01*
X18456000Y-12400000D01*
X18406000Y-12450000D01*
X18456000Y-12500000D01*
X18710000Y-12500000D02*
X18760000Y-12450000D01*
X18710000Y-12400000D01*
X18660000Y-12450000D01*
X18710000Y-12500000D01*
X18964000Y-12500000D02*
X19014000Y-12450000D01*
X18964000Y-12400000D01*
X18914000Y-12450000D01*
X18964000Y-12500000D01*
X19218000Y-12500000D02*
X19268000Y-12450000D01*
X19218000Y-12400000D01*
X19168000Y-12450000D01*
X19218000Y-12500000D01*
X20774540Y-9072900D02*
X20824540Y-9022900D01*
X20774540Y-8972900D01*
X20724540Y-9022900D01*
X20774540Y-9072900D01*
X20774540Y-9326900D02*
X20824540Y-9276900D01*
X20774540Y-9226900D01*
X20724540Y-9276900D01*
X20774540Y-9326900D01*
X20774540Y-9580900D02*
X20824540Y-9530900D01*
X20774540Y-9480900D01*
X20724540Y-9530900D01*
X20774540Y-9580900D01*
X20774540Y-9834900D02*
X20824540Y-9784900D01*
X20774540Y-9734900D01*
X20724540Y-9784900D01*
X20774540Y-9834900D01*
X20774540Y-10088900D02*
X20824540Y-10038900D01*
X20774540Y-9988900D01*
X20724540Y-10038900D01*
X20774540Y-10088900D01*
X20774540Y-10342900D02*
X20824540Y-10292900D01*
X20774540Y-10242900D01*
X20724540Y-10292900D01*
X20774540Y-10342900D01*
X20774540Y-10596900D02*
X20824540Y-10546900D01*
X20774540Y-10496900D01*
X20724540Y-10546900D01*
X20774540Y-10596900D01*
X20774540Y-10850900D02*
X20824540Y-10800900D01*
X20774540Y-10750900D01*
X20724540Y-10800900D01*
X20774540Y-10850900D01*
X20774540Y-11104900D02*
X20824540Y-11054900D01*
X20774540Y-11004900D01*
X20724540Y-11054900D01*
X20774540Y-11104900D01*
X20774540Y-11358900D02*
X20824540Y-11308900D01*
X20774540Y-11258900D01*
X20724540Y-11308900D01*
X20774540Y-11358900D01*
X20774540Y-11612900D02*
X20824540Y-11562900D01*
X20774540Y-11512900D01*
X20724540Y-11562900D01*
X20774540Y-11612900D01*
X21028540Y-9072900D02*
X21078540Y-9022900D01*
X21028540Y-8972900D01*
X20978540Y-9022900D01*
X21028540Y-9072900D01*
X21028540Y-9326900D02*
X21078540Y-9276900D01*
X21028540Y-9226900D01*
X20978540Y-9276900D01*
X21028540Y-9326900D01*
X21028540Y-9580900D02*
X21078540Y-9530900D01*
X21028540Y-9480900D01*
X20978540Y-9530900D01*
X21028540Y-9580900D01*
X21028540Y-9834900D02*
X21078540Y-9784900D01*
X21028540Y-9734900D01*
X20978540Y-9784900D01*
X21028540Y-9834900D01*
X21028540Y-10088900D02*
X21078540Y-10038900D01*
X21028540Y-9988900D01*
X20978540Y-10038900D01*
X21028540Y-10088900D01*
X21028540Y-10342900D02*
X21078540Y-10292900D01*
X21028540Y-10242900D01*
X20978540Y-10292900D01*
X21028540Y-10342900D01*
X21028540Y-10596900D02*
X21078540Y-10546900D01*
X21028540Y-10496900D01*
X20978540Y-10546900D01*
X21028540Y-10596900D01*
X21028540Y-10850900D02*
X21078540Y-10800900D01*
X21028540Y-10750900D01*
X20978540Y-10800900D01*
X21028540Y-10850900D01*
X21028540Y-11104900D02*
X21078540Y-11054900D01*
X21028540Y-11004900D01*
X20978540Y-11054900D01*
X21028540Y-11104900D01*
X21028540Y-11358900D02*
X21078540Y-11308900D01*
X21028540Y-11258900D01*
X20978540Y-11308900D01*
X21028540Y-11358900D01*
X21028540Y-11612900D02*
X21078540Y-11562900D01*
X21028540Y-11512900D01*
X20978540Y-11562900D01*
X21028540Y-11612900D01*
X23314540Y-9072900D02*
X23364540Y-9022900D01*
X23314540Y-8972900D01*
X23264540Y-9022900D01*
X23314540Y-9072900D01*
X23314540Y-9326900D02*
X23364540Y-9276900D01*
X23314540Y-9226900D01*
X23264540Y-9276900D01*
X23314540Y-9326900D01*
X23314540Y-9580900D02*
X23364540Y-9530900D01*
X23314540Y-9480900D01*
X23264540Y-9530900D01*
X23314540Y-9580900D01*
X23314540Y-9834900D02*
X23364540Y-9784900D01*
X23314540Y-9734900D01*
X23264540Y-9784900D01*
X23314540Y-9834900D01*
X23314540Y-10088900D02*
X23364540Y-10038900D01*
X23314540Y-9988900D01*
X23264540Y-10038900D01*
X23314540Y-10088900D01*
X23314540Y-10342900D02*
X23364540Y-10292900D01*
X23314540Y-10242900D01*
X23264540Y-10292900D01*
X23314540Y-10342900D01*
X23314540Y-10596900D02*
X23364540Y-10546900D01*
X23314540Y-10496900D01*
X23264540Y-10546900D01*
X23314540Y-10596900D01*
X23314540Y-10850900D02*
X23364540Y-10800900D01*
X23314540Y-10750900D01*
X23264540Y-10800900D01*
X23314540Y-10850900D01*
X23314540Y-11104900D02*
X23364540Y-11054900D01*
X23314540Y-11004900D01*
X23264540Y-11054900D01*
X23314540Y-11104900D01*
X23314540Y-11358900D02*
X23364540Y-11308900D01*
X23314540Y-11258900D01*
X23264540Y-11308900D01*
X23314540Y-11358900D01*
X23314540Y-11612900D02*
X23364540Y-11562900D01*
X23314540Y-11512900D01*
X23264540Y-11562900D01*
X23314540Y-11612900D01*
X23568540Y-9072900D02*
X23618540Y-9022900D01*
X23568540Y-8972900D01*
X23518540Y-9022900D01*
X23568540Y-9072900D01*
X23568540Y-9326900D02*
X23618540Y-9276900D01*
X23568540Y-9226900D01*
X23518540Y-9276900D01*
X23568540Y-9326900D01*
X23568540Y-9580900D02*
X23618540Y-9530900D01*
X23568540Y-9480900D01*
X23518540Y-9530900D01*
X23568540Y-9580900D01*
X23568540Y-9834900D02*
X23618540Y-9784900D01*
X23568540Y-9734900D01*
X23518540Y-9784900D01*
X23568540Y-9834900D01*
X23568540Y-10088900D02*
X23618540Y-10038900D01*
X23568540Y-9988900D01*
X23518540Y-10038900D01*
X23568540Y-10088900D01*
X23568540Y-10342900D02*
X23618540Y-10292900D01*
X23568540Y-10242900D01*
X23518540Y-10292900D01*
X23568540Y-10342900D01*
X23568540Y-10596900D02*
X23618540Y-10546900D01*
X23568540Y-10496900D01*
X23518540Y-10546900D01*
X23568540Y-10596900D01*
X23568540Y-10850900D02*
X23618540Y-10800900D01*
X23568540Y-10750900D01*
X23518540Y-10800900D01*
X23568540Y-10850900D01*
X23568540Y-11104900D02*
X23618540Y-11054900D01*
X23568540Y-11004900D01*
X23518540Y-11054900D01*
X23568540Y-11104900D01*
X23568540Y-11358900D02*
X23618540Y-11308900D01*
X23568540Y-11258900D01*
X23518540Y-11308900D01*
X23568540Y-11358900D01*
X23568540Y-11612900D02*
X23618540Y-11562900D01*
X23568540Y-11512900D01*
X23518540Y-11562900D01*
X23568540Y-11612900D01*
D11*
X7938397Y-12980964D02*
X7938397Y-12780964D01*
X7938397Y-12780964D02*
X7986016Y-12780964D01*
X7986016Y-12780964D02*
X8014587Y-12790488D01*
X8014587Y-12790488D02*
X8033635Y-12809535D01*
X8033635Y-12809535D02*
X8043159Y-12828583D01*
X8043159Y-12828583D02*
X8052682Y-12866678D01*
X8052682Y-12866678D02*
X8052682Y-12895249D01*
X8052682Y-12895249D02*
X8043159Y-12933345D01*
X8043159Y-12933345D02*
X8033635Y-12952392D01*
X8033635Y-12952392D02*
X8014587Y-12971440D01*
X8014587Y-12971440D02*
X7986016Y-12980964D01*
X7986016Y-12980964D02*
X7938397Y-12980964D01*
X8138397Y-12980964D02*
X8138397Y-12847630D01*
X8138397Y-12885726D02*
X8147921Y-12866678D01*
X8147921Y-12866678D02*
X8157444Y-12857154D01*
X8157444Y-12857154D02*
X8176492Y-12847630D01*
X8176492Y-12847630D02*
X8195540Y-12847630D01*
X8262206Y-12980964D02*
X8262206Y-12847630D01*
X8262206Y-12780964D02*
X8252682Y-12790488D01*
X8252682Y-12790488D02*
X8262206Y-12800011D01*
X8262206Y-12800011D02*
X8271730Y-12790488D01*
X8271730Y-12790488D02*
X8262206Y-12780964D01*
X8262206Y-12780964D02*
X8262206Y-12800011D01*
X8386016Y-12980964D02*
X8366968Y-12971440D01*
X8366968Y-12971440D02*
X8357444Y-12952392D01*
X8357444Y-12952392D02*
X8357444Y-12780964D01*
X8490778Y-12980964D02*
X8471730Y-12971440D01*
X8471730Y-12971440D02*
X8462206Y-12952392D01*
X8462206Y-12952392D02*
X8462206Y-12780964D01*
X8719349Y-12980964D02*
X8719349Y-12780964D01*
X8719349Y-12780964D02*
X8786016Y-12923821D01*
X8786016Y-12923821D02*
X8852683Y-12780964D01*
X8852683Y-12780964D02*
X8852683Y-12980964D01*
X9033635Y-12980964D02*
X9033635Y-12876202D01*
X9033635Y-12876202D02*
X9024111Y-12857154D01*
X9024111Y-12857154D02*
X9005064Y-12847630D01*
X9005064Y-12847630D02*
X8966968Y-12847630D01*
X8966968Y-12847630D02*
X8947921Y-12857154D01*
X9033635Y-12971440D02*
X9014587Y-12980964D01*
X9014587Y-12980964D02*
X8966968Y-12980964D01*
X8966968Y-12980964D02*
X8947921Y-12971440D01*
X8947921Y-12971440D02*
X8938397Y-12952392D01*
X8938397Y-12952392D02*
X8938397Y-12933345D01*
X8938397Y-12933345D02*
X8947921Y-12914297D01*
X8947921Y-12914297D02*
X8966968Y-12904773D01*
X8966968Y-12904773D02*
X9014587Y-12904773D01*
X9014587Y-12904773D02*
X9033635Y-12895249D01*
X9128873Y-12847630D02*
X9128873Y-13047630D01*
X9128873Y-12857154D02*
X9147921Y-12847630D01*
X9147921Y-12847630D02*
X9186016Y-12847630D01*
X9186016Y-12847630D02*
X9205064Y-12857154D01*
X9205064Y-12857154D02*
X9214587Y-12866678D01*
X9214587Y-12866678D02*
X9224111Y-12885726D01*
X9224111Y-12885726D02*
X9224111Y-12942868D01*
X9224111Y-12942868D02*
X9214587Y-12961916D01*
X9214587Y-12961916D02*
X9205064Y-12971440D01*
X9205064Y-12971440D02*
X9186016Y-12980964D01*
X9186016Y-12980964D02*
X9147921Y-12980964D01*
X9147921Y-12980964D02*
X9128873Y-12971440D01*
X9309825Y-12961916D02*
X9319349Y-12971440D01*
X9319349Y-12971440D02*
X9309825Y-12980964D01*
X9309825Y-12980964D02*
X9300302Y-12971440D01*
X9300302Y-12971440D02*
X9309825Y-12961916D01*
X9309825Y-12961916D02*
X9309825Y-12980964D01*
X9309825Y-12857154D02*
X9319349Y-12866678D01*
X9319349Y-12866678D02*
X9309825Y-12876202D01*
X9309825Y-12876202D02*
X9300302Y-12866678D01*
X9300302Y-12866678D02*
X9309825Y-12857154D01*
X9309825Y-12857154D02*
X9309825Y-12876202D01*
D12*
X7657620Y-13299480D02*
X7677620Y-13319480D01*
X7677620Y-13299480D02*
X7657620Y-13319480D01*
D11*
X7976492Y-13200964D02*
X7995540Y-13200964D01*
X7995540Y-13200964D02*
X8014587Y-13210488D01*
X8014587Y-13210488D02*
X8024111Y-13220011D01*
X8024111Y-13220011D02*
X8033635Y-13239059D01*
X8033635Y-13239059D02*
X8043159Y-13277154D01*
X8043159Y-13277154D02*
X8043159Y-13324773D01*
X8043159Y-13324773D02*
X8033635Y-13362868D01*
X8033635Y-13362868D02*
X8024111Y-13381916D01*
X8024111Y-13381916D02*
X8014587Y-13391440D01*
X8014587Y-13391440D02*
X7995540Y-13400964D01*
X7995540Y-13400964D02*
X7976492Y-13400964D01*
X7976492Y-13400964D02*
X7957444Y-13391440D01*
X7957444Y-13391440D02*
X7947921Y-13381916D01*
X7947921Y-13381916D02*
X7938397Y-13362868D01*
X7938397Y-13362868D02*
X7928873Y-13324773D01*
X7928873Y-13324773D02*
X7928873Y-13277154D01*
X7928873Y-13277154D02*
X7938397Y-13239059D01*
X7938397Y-13239059D02*
X7947921Y-13220011D01*
X7947921Y-13220011D02*
X7957444Y-13210488D01*
X7957444Y-13210488D02*
X7976492Y-13200964D01*
X8128873Y-13381916D02*
X8138397Y-13391440D01*
X8138397Y-13391440D02*
X8128873Y-13400964D01*
X8128873Y-13400964D02*
X8119349Y-13391440D01*
X8119349Y-13391440D02*
X8128873Y-13381916D01*
X8128873Y-13381916D02*
X8128873Y-13400964D01*
X8214587Y-13220011D02*
X8224111Y-13210488D01*
X8224111Y-13210488D02*
X8243159Y-13200964D01*
X8243159Y-13200964D02*
X8290778Y-13200964D01*
X8290778Y-13200964D02*
X8309825Y-13210488D01*
X8309825Y-13210488D02*
X8319349Y-13220011D01*
X8319349Y-13220011D02*
X8328873Y-13239059D01*
X8328873Y-13239059D02*
X8328873Y-13258107D01*
X8328873Y-13258107D02*
X8319349Y-13286678D01*
X8319349Y-13286678D02*
X8205063Y-13400964D01*
X8205063Y-13400964D02*
X8328873Y-13400964D01*
X8452683Y-13200964D02*
X8471730Y-13200964D01*
X8471730Y-13200964D02*
X8490778Y-13210488D01*
X8490778Y-13210488D02*
X8500302Y-13220011D01*
X8500302Y-13220011D02*
X8509825Y-13239059D01*
X8509825Y-13239059D02*
X8519349Y-13277154D01*
X8519349Y-13277154D02*
X8519349Y-13324773D01*
X8519349Y-13324773D02*
X8509825Y-13362868D01*
X8509825Y-13362868D02*
X8500302Y-13381916D01*
X8500302Y-13381916D02*
X8490778Y-13391440D01*
X8490778Y-13391440D02*
X8471730Y-13400964D01*
X8471730Y-13400964D02*
X8452683Y-13400964D01*
X8452683Y-13400964D02*
X8433635Y-13391440D01*
X8433635Y-13391440D02*
X8424111Y-13381916D01*
X8424111Y-13381916D02*
X8414587Y-13362868D01*
X8414587Y-13362868D02*
X8405064Y-13324773D01*
X8405064Y-13324773D02*
X8405064Y-13277154D01*
X8405064Y-13277154D02*
X8414587Y-13239059D01*
X8414587Y-13239059D02*
X8424111Y-13220011D01*
X8424111Y-13220011D02*
X8433635Y-13210488D01*
X8433635Y-13210488D02*
X8452683Y-13200964D01*
X8643159Y-13200964D02*
X8662206Y-13200964D01*
X8662206Y-13200964D02*
X8681254Y-13210488D01*
X8681254Y-13210488D02*
X8690778Y-13220011D01*
X8690778Y-13220011D02*
X8700302Y-13239059D01*
X8700302Y-13239059D02*
X8709825Y-13277154D01*
X8709825Y-13277154D02*
X8709825Y-13324773D01*
X8709825Y-13324773D02*
X8700302Y-13362868D01*
X8700302Y-13362868D02*
X8690778Y-13381916D01*
X8690778Y-13381916D02*
X8681254Y-13391440D01*
X8681254Y-13391440D02*
X8662206Y-13400964D01*
X8662206Y-13400964D02*
X8643159Y-13400964D01*
X8643159Y-13400964D02*
X8624111Y-13391440D01*
X8624111Y-13391440D02*
X8614587Y-13381916D01*
X8614587Y-13381916D02*
X8605064Y-13362868D01*
X8605064Y-13362868D02*
X8595540Y-13324773D01*
X8595540Y-13324773D02*
X8595540Y-13277154D01*
X8595540Y-13277154D02*
X8605064Y-13239059D01*
X8605064Y-13239059D02*
X8614587Y-13220011D01*
X8614587Y-13220011D02*
X8624111Y-13210488D01*
X8624111Y-13210488D02*
X8643159Y-13200964D01*
X8795540Y-13400964D02*
X8795540Y-13267630D01*
X8795540Y-13286678D02*
X8805064Y-13277154D01*
X8805064Y-13277154D02*
X8824111Y-13267630D01*
X8824111Y-13267630D02*
X8852683Y-13267630D01*
X8852683Y-13267630D02*
X8871730Y-13277154D01*
X8871730Y-13277154D02*
X8881254Y-13296202D01*
X8881254Y-13296202D02*
X8881254Y-13400964D01*
X8881254Y-13296202D02*
X8890778Y-13277154D01*
X8890778Y-13277154D02*
X8909825Y-13267630D01*
X8909825Y-13267630D02*
X8938397Y-13267630D01*
X8938397Y-13267630D02*
X8957445Y-13277154D01*
X8957445Y-13277154D02*
X8966968Y-13296202D01*
X8966968Y-13296202D02*
X8966968Y-13400964D01*
X9062206Y-13400964D02*
X9062206Y-13267630D01*
X9062206Y-13286678D02*
X9071730Y-13277154D01*
X9071730Y-13277154D02*
X9090778Y-13267630D01*
X9090778Y-13267630D02*
X9119349Y-13267630D01*
X9119349Y-13267630D02*
X9138397Y-13277154D01*
X9138397Y-13277154D02*
X9147921Y-13296202D01*
X9147921Y-13296202D02*
X9147921Y-13400964D01*
X9147921Y-13296202D02*
X9157445Y-13277154D01*
X9157445Y-13277154D02*
X9176492Y-13267630D01*
X9176492Y-13267630D02*
X9205064Y-13267630D01*
X9205064Y-13267630D02*
X9224111Y-13277154D01*
X9224111Y-13277154D02*
X9233635Y-13296202D01*
X9233635Y-13296202D02*
X9233635Y-13400964D01*
X9624111Y-13191440D02*
X9452683Y-13448583D01*
X9881254Y-13200964D02*
X9900302Y-13200964D01*
X9900302Y-13200964D02*
X9919349Y-13210488D01*
X9919349Y-13210488D02*
X9928873Y-13220011D01*
X9928873Y-13220011D02*
X9938397Y-13239059D01*
X9938397Y-13239059D02*
X9947921Y-13277154D01*
X9947921Y-13277154D02*
X9947921Y-13324773D01*
X9947921Y-13324773D02*
X9938397Y-13362868D01*
X9938397Y-13362868D02*
X9928873Y-13381916D01*
X9928873Y-13381916D02*
X9919349Y-13391440D01*
X9919349Y-13391440D02*
X9900302Y-13400964D01*
X9900302Y-13400964D02*
X9881254Y-13400964D01*
X9881254Y-13400964D02*
X9862207Y-13391440D01*
X9862207Y-13391440D02*
X9852683Y-13381916D01*
X9852683Y-13381916D02*
X9843159Y-13362868D01*
X9843159Y-13362868D02*
X9833635Y-13324773D01*
X9833635Y-13324773D02*
X9833635Y-13277154D01*
X9833635Y-13277154D02*
X9843159Y-13239059D01*
X9843159Y-13239059D02*
X9852683Y-13220011D01*
X9852683Y-13220011D02*
X9862207Y-13210488D01*
X9862207Y-13210488D02*
X9881254Y-13200964D01*
X10033635Y-13381916D02*
X10043159Y-13391440D01*
X10043159Y-13391440D02*
X10033635Y-13400964D01*
X10033635Y-13400964D02*
X10024111Y-13391440D01*
X10024111Y-13391440D02*
X10033635Y-13381916D01*
X10033635Y-13381916D02*
X10033635Y-13400964D01*
X10166968Y-13200964D02*
X10186016Y-13200964D01*
X10186016Y-13200964D02*
X10205064Y-13210488D01*
X10205064Y-13210488D02*
X10214588Y-13220011D01*
X10214588Y-13220011D02*
X10224111Y-13239059D01*
X10224111Y-13239059D02*
X10233635Y-13277154D01*
X10233635Y-13277154D02*
X10233635Y-13324773D01*
X10233635Y-13324773D02*
X10224111Y-13362868D01*
X10224111Y-13362868D02*
X10214588Y-13381916D01*
X10214588Y-13381916D02*
X10205064Y-13391440D01*
X10205064Y-13391440D02*
X10186016Y-13400964D01*
X10186016Y-13400964D02*
X10166968Y-13400964D01*
X10166968Y-13400964D02*
X10147921Y-13391440D01*
X10147921Y-13391440D02*
X10138397Y-13381916D01*
X10138397Y-13381916D02*
X10128873Y-13362868D01*
X10128873Y-13362868D02*
X10119349Y-13324773D01*
X10119349Y-13324773D02*
X10119349Y-13277154D01*
X10119349Y-13277154D02*
X10128873Y-13239059D01*
X10128873Y-13239059D02*
X10138397Y-13220011D01*
X10138397Y-13220011D02*
X10147921Y-13210488D01*
X10147921Y-13210488D02*
X10166968Y-13200964D01*
X10357445Y-13200964D02*
X10376492Y-13200964D01*
X10376492Y-13200964D02*
X10395540Y-13210488D01*
X10395540Y-13210488D02*
X10405064Y-13220011D01*
X10405064Y-13220011D02*
X10414588Y-13239059D01*
X10414588Y-13239059D02*
X10424111Y-13277154D01*
X10424111Y-13277154D02*
X10424111Y-13324773D01*
X10424111Y-13324773D02*
X10414588Y-13362868D01*
X10414588Y-13362868D02*
X10405064Y-13381916D01*
X10405064Y-13381916D02*
X10395540Y-13391440D01*
X10395540Y-13391440D02*
X10376492Y-13400964D01*
X10376492Y-13400964D02*
X10357445Y-13400964D01*
X10357445Y-13400964D02*
X10338397Y-13391440D01*
X10338397Y-13391440D02*
X10328873Y-13381916D01*
X10328873Y-13381916D02*
X10319349Y-13362868D01*
X10319349Y-13362868D02*
X10309826Y-13324773D01*
X10309826Y-13324773D02*
X10309826Y-13277154D01*
X10309826Y-13277154D02*
X10319349Y-13239059D01*
X10319349Y-13239059D02*
X10328873Y-13220011D01*
X10328873Y-13220011D02*
X10338397Y-13210488D01*
X10338397Y-13210488D02*
X10357445Y-13200964D01*
X10490778Y-13200964D02*
X10624111Y-13200964D01*
X10624111Y-13200964D02*
X10538397Y-13400964D01*
X10709826Y-13400964D02*
X10747921Y-13400964D01*
X10747921Y-13400964D02*
X10766969Y-13391440D01*
X10766969Y-13391440D02*
X10776492Y-13381916D01*
X10776492Y-13381916D02*
X10795540Y-13353345D01*
X10795540Y-13353345D02*
X10805064Y-13315249D01*
X10805064Y-13315249D02*
X10805064Y-13239059D01*
X10805064Y-13239059D02*
X10795540Y-13220011D01*
X10795540Y-13220011D02*
X10786016Y-13210488D01*
X10786016Y-13210488D02*
X10766969Y-13200964D01*
X10766969Y-13200964D02*
X10728873Y-13200964D01*
X10728873Y-13200964D02*
X10709826Y-13210488D01*
X10709826Y-13210488D02*
X10700302Y-13220011D01*
X10700302Y-13220011D02*
X10690778Y-13239059D01*
X10690778Y-13239059D02*
X10690778Y-13286678D01*
X10690778Y-13286678D02*
X10700302Y-13305726D01*
X10700302Y-13305726D02*
X10709826Y-13315249D01*
X10709826Y-13315249D02*
X10728873Y-13324773D01*
X10728873Y-13324773D02*
X10766969Y-13324773D01*
X10766969Y-13324773D02*
X10786016Y-13315249D01*
X10786016Y-13315249D02*
X10795540Y-13305726D01*
X10795540Y-13305726D02*
X10805064Y-13286678D01*
X10881254Y-13200964D02*
X10881254Y-13239059D01*
X10957445Y-13200964D02*
X10957445Y-13239059D01*
X11252683Y-13477154D02*
X11243159Y-13467630D01*
X11243159Y-13467630D02*
X11224111Y-13439059D01*
X11224111Y-13439059D02*
X11214588Y-13420011D01*
X11214588Y-13420011D02*
X11205064Y-13391440D01*
X11205064Y-13391440D02*
X11195540Y-13343821D01*
X11195540Y-13343821D02*
X11195540Y-13305726D01*
X11195540Y-13305726D02*
X11205064Y-13258107D01*
X11205064Y-13258107D02*
X11214588Y-13229535D01*
X11214588Y-13229535D02*
X11224111Y-13210488D01*
X11224111Y-13210488D02*
X11243159Y-13181916D01*
X11243159Y-13181916D02*
X11252683Y-13172392D01*
X11338397Y-13400964D02*
X11376492Y-13400964D01*
X11376492Y-13400964D02*
X11395540Y-13391440D01*
X11395540Y-13391440D02*
X11405064Y-13381916D01*
X11405064Y-13381916D02*
X11424111Y-13353345D01*
X11424111Y-13353345D02*
X11433635Y-13315249D01*
X11433635Y-13315249D02*
X11433635Y-13239059D01*
X11433635Y-13239059D02*
X11424111Y-13220011D01*
X11424111Y-13220011D02*
X11414588Y-13210488D01*
X11414588Y-13210488D02*
X11395540Y-13200964D01*
X11395540Y-13200964D02*
X11357445Y-13200964D01*
X11357445Y-13200964D02*
X11338397Y-13210488D01*
X11338397Y-13210488D02*
X11328873Y-13220011D01*
X11328873Y-13220011D02*
X11319349Y-13239059D01*
X11319349Y-13239059D02*
X11319349Y-13286678D01*
X11319349Y-13286678D02*
X11328873Y-13305726D01*
X11328873Y-13305726D02*
X11338397Y-13315249D01*
X11338397Y-13315249D02*
X11357445Y-13324773D01*
X11357445Y-13324773D02*
X11395540Y-13324773D01*
X11395540Y-13324773D02*
X11414588Y-13315249D01*
X11414588Y-13315249D02*
X11424111Y-13305726D01*
X11424111Y-13305726D02*
X11433635Y-13286678D01*
X11671730Y-13400964D02*
X11671730Y-13200964D01*
X11757445Y-13400964D02*
X11757445Y-13296202D01*
X11757445Y-13296202D02*
X11747921Y-13277154D01*
X11747921Y-13277154D02*
X11728873Y-13267630D01*
X11728873Y-13267630D02*
X11700302Y-13267630D01*
X11700302Y-13267630D02*
X11681254Y-13277154D01*
X11681254Y-13277154D02*
X11671730Y-13286678D01*
X11881254Y-13400964D02*
X11862207Y-13391440D01*
X11862207Y-13391440D02*
X11852683Y-13381916D01*
X11852683Y-13381916D02*
X11843159Y-13362868D01*
X11843159Y-13362868D02*
X11843159Y-13305726D01*
X11843159Y-13305726D02*
X11852683Y-13286678D01*
X11852683Y-13286678D02*
X11862207Y-13277154D01*
X11862207Y-13277154D02*
X11881254Y-13267630D01*
X11881254Y-13267630D02*
X11909826Y-13267630D01*
X11909826Y-13267630D02*
X11928873Y-13277154D01*
X11928873Y-13277154D02*
X11938397Y-13286678D01*
X11938397Y-13286678D02*
X11947921Y-13305726D01*
X11947921Y-13305726D02*
X11947921Y-13362868D01*
X11947921Y-13362868D02*
X11938397Y-13381916D01*
X11938397Y-13381916D02*
X11928873Y-13391440D01*
X11928873Y-13391440D02*
X11909826Y-13400964D01*
X11909826Y-13400964D02*
X11881254Y-13400964D01*
X12062207Y-13400964D02*
X12043159Y-13391440D01*
X12043159Y-13391440D02*
X12033635Y-13372392D01*
X12033635Y-13372392D02*
X12033635Y-13200964D01*
X12214588Y-13391440D02*
X12195540Y-13400964D01*
X12195540Y-13400964D02*
X12157445Y-13400964D01*
X12157445Y-13400964D02*
X12138397Y-13391440D01*
X12138397Y-13391440D02*
X12128873Y-13372392D01*
X12128873Y-13372392D02*
X12128873Y-13296202D01*
X12128873Y-13296202D02*
X12138397Y-13277154D01*
X12138397Y-13277154D02*
X12157445Y-13267630D01*
X12157445Y-13267630D02*
X12195540Y-13267630D01*
X12195540Y-13267630D02*
X12214588Y-13277154D01*
X12214588Y-13277154D02*
X12224111Y-13296202D01*
X12224111Y-13296202D02*
X12224111Y-13315249D01*
X12224111Y-13315249D02*
X12128873Y-13334297D01*
X12300302Y-13391440D02*
X12319350Y-13400964D01*
X12319350Y-13400964D02*
X12357445Y-13400964D01*
X12357445Y-13400964D02*
X12376492Y-13391440D01*
X12376492Y-13391440D02*
X12386016Y-13372392D01*
X12386016Y-13372392D02*
X12386016Y-13362868D01*
X12386016Y-13362868D02*
X12376492Y-13343821D01*
X12376492Y-13343821D02*
X12357445Y-13334297D01*
X12357445Y-13334297D02*
X12328873Y-13334297D01*
X12328873Y-13334297D02*
X12309826Y-13324773D01*
X12309826Y-13324773D02*
X12300302Y-13305726D01*
X12300302Y-13305726D02*
X12300302Y-13296202D01*
X12300302Y-13296202D02*
X12309826Y-13277154D01*
X12309826Y-13277154D02*
X12328873Y-13267630D01*
X12328873Y-13267630D02*
X12357445Y-13267630D01*
X12357445Y-13267630D02*
X12376492Y-13277154D01*
X12452683Y-13477154D02*
X12462207Y-13467630D01*
X12462207Y-13467630D02*
X12481254Y-13439059D01*
X12481254Y-13439059D02*
X12490778Y-13420011D01*
X12490778Y-13420011D02*
X12500302Y-13391440D01*
X12500302Y-13391440D02*
X12509826Y-13343821D01*
X12509826Y-13343821D02*
X12509826Y-13305726D01*
X12509826Y-13305726D02*
X12500302Y-13258107D01*
X12500302Y-13258107D02*
X12490778Y-13229535D01*
X12490778Y-13229535D02*
X12481254Y-13210488D01*
X12481254Y-13210488D02*
X12462207Y-13181916D01*
X12462207Y-13181916D02*
X12452683Y-13172392D01*
D13*
X7677620Y-13573480D02*
G75*
G03*
X7677620Y-13573480I-15000J0D01*
G01*
D11*
X7976492Y-13464964D02*
X7995540Y-13464964D01*
X7995540Y-13464964D02*
X8014587Y-13474488D01*
X8014587Y-13474488D02*
X8024111Y-13484011D01*
X8024111Y-13484011D02*
X8033635Y-13503059D01*
X8033635Y-13503059D02*
X8043159Y-13541154D01*
X8043159Y-13541154D02*
X8043159Y-13588773D01*
X8043159Y-13588773D02*
X8033635Y-13626868D01*
X8033635Y-13626868D02*
X8024111Y-13645916D01*
X8024111Y-13645916D02*
X8014587Y-13655440D01*
X8014587Y-13655440D02*
X7995540Y-13664964D01*
X7995540Y-13664964D02*
X7976492Y-13664964D01*
X7976492Y-13664964D02*
X7957444Y-13655440D01*
X7957444Y-13655440D02*
X7947921Y-13645916D01*
X7947921Y-13645916D02*
X7938397Y-13626868D01*
X7938397Y-13626868D02*
X7928873Y-13588773D01*
X7928873Y-13588773D02*
X7928873Y-13541154D01*
X7928873Y-13541154D02*
X7938397Y-13503059D01*
X7938397Y-13503059D02*
X7947921Y-13484011D01*
X7947921Y-13484011D02*
X7957444Y-13474488D01*
X7957444Y-13474488D02*
X7976492Y-13464964D01*
X8128873Y-13645916D02*
X8138397Y-13655440D01*
X8138397Y-13655440D02*
X8128873Y-13664964D01*
X8128873Y-13664964D02*
X8119349Y-13655440D01*
X8119349Y-13655440D02*
X8128873Y-13645916D01*
X8128873Y-13645916D02*
X8128873Y-13664964D01*
X8205063Y-13464964D02*
X8328873Y-13464964D01*
X8328873Y-13464964D02*
X8262206Y-13541154D01*
X8262206Y-13541154D02*
X8290778Y-13541154D01*
X8290778Y-13541154D02*
X8309825Y-13550678D01*
X8309825Y-13550678D02*
X8319349Y-13560202D01*
X8319349Y-13560202D02*
X8328873Y-13579249D01*
X8328873Y-13579249D02*
X8328873Y-13626868D01*
X8328873Y-13626868D02*
X8319349Y-13645916D01*
X8319349Y-13645916D02*
X8309825Y-13655440D01*
X8309825Y-13655440D02*
X8290778Y-13664964D01*
X8290778Y-13664964D02*
X8233635Y-13664964D01*
X8233635Y-13664964D02*
X8214587Y-13655440D01*
X8214587Y-13655440D02*
X8205063Y-13645916D01*
X8452683Y-13464964D02*
X8471730Y-13464964D01*
X8471730Y-13464964D02*
X8490778Y-13474488D01*
X8490778Y-13474488D02*
X8500302Y-13484011D01*
X8500302Y-13484011D02*
X8509825Y-13503059D01*
X8509825Y-13503059D02*
X8519349Y-13541154D01*
X8519349Y-13541154D02*
X8519349Y-13588773D01*
X8519349Y-13588773D02*
X8509825Y-13626868D01*
X8509825Y-13626868D02*
X8500302Y-13645916D01*
X8500302Y-13645916D02*
X8490778Y-13655440D01*
X8490778Y-13655440D02*
X8471730Y-13664964D01*
X8471730Y-13664964D02*
X8452683Y-13664964D01*
X8452683Y-13664964D02*
X8433635Y-13655440D01*
X8433635Y-13655440D02*
X8424111Y-13645916D01*
X8424111Y-13645916D02*
X8414587Y-13626868D01*
X8414587Y-13626868D02*
X8405064Y-13588773D01*
X8405064Y-13588773D02*
X8405064Y-13541154D01*
X8405064Y-13541154D02*
X8414587Y-13503059D01*
X8414587Y-13503059D02*
X8424111Y-13484011D01*
X8424111Y-13484011D02*
X8433635Y-13474488D01*
X8433635Y-13474488D02*
X8452683Y-13464964D01*
X8643159Y-13464964D02*
X8662206Y-13464964D01*
X8662206Y-13464964D02*
X8681254Y-13474488D01*
X8681254Y-13474488D02*
X8690778Y-13484011D01*
X8690778Y-13484011D02*
X8700302Y-13503059D01*
X8700302Y-13503059D02*
X8709825Y-13541154D01*
X8709825Y-13541154D02*
X8709825Y-13588773D01*
X8709825Y-13588773D02*
X8700302Y-13626868D01*
X8700302Y-13626868D02*
X8690778Y-13645916D01*
X8690778Y-13645916D02*
X8681254Y-13655440D01*
X8681254Y-13655440D02*
X8662206Y-13664964D01*
X8662206Y-13664964D02*
X8643159Y-13664964D01*
X8643159Y-13664964D02*
X8624111Y-13655440D01*
X8624111Y-13655440D02*
X8614587Y-13645916D01*
X8614587Y-13645916D02*
X8605064Y-13626868D01*
X8605064Y-13626868D02*
X8595540Y-13588773D01*
X8595540Y-13588773D02*
X8595540Y-13541154D01*
X8595540Y-13541154D02*
X8605064Y-13503059D01*
X8605064Y-13503059D02*
X8614587Y-13484011D01*
X8614587Y-13484011D02*
X8624111Y-13474488D01*
X8624111Y-13474488D02*
X8643159Y-13464964D01*
X8795540Y-13664964D02*
X8795540Y-13531630D01*
X8795540Y-13550678D02*
X8805064Y-13541154D01*
X8805064Y-13541154D02*
X8824111Y-13531630D01*
X8824111Y-13531630D02*
X8852683Y-13531630D01*
X8852683Y-13531630D02*
X8871730Y-13541154D01*
X8871730Y-13541154D02*
X8881254Y-13560202D01*
X8881254Y-13560202D02*
X8881254Y-13664964D01*
X8881254Y-13560202D02*
X8890778Y-13541154D01*
X8890778Y-13541154D02*
X8909825Y-13531630D01*
X8909825Y-13531630D02*
X8938397Y-13531630D01*
X8938397Y-13531630D02*
X8957445Y-13541154D01*
X8957445Y-13541154D02*
X8966968Y-13560202D01*
X8966968Y-13560202D02*
X8966968Y-13664964D01*
X9062206Y-13664964D02*
X9062206Y-13531630D01*
X9062206Y-13550678D02*
X9071730Y-13541154D01*
X9071730Y-13541154D02*
X9090778Y-13531630D01*
X9090778Y-13531630D02*
X9119349Y-13531630D01*
X9119349Y-13531630D02*
X9138397Y-13541154D01*
X9138397Y-13541154D02*
X9147921Y-13560202D01*
X9147921Y-13560202D02*
X9147921Y-13664964D01*
X9147921Y-13560202D02*
X9157445Y-13541154D01*
X9157445Y-13541154D02*
X9176492Y-13531630D01*
X9176492Y-13531630D02*
X9205064Y-13531630D01*
X9205064Y-13531630D02*
X9224111Y-13541154D01*
X9224111Y-13541154D02*
X9233635Y-13560202D01*
X9233635Y-13560202D02*
X9233635Y-13664964D01*
X9624111Y-13455440D02*
X9452683Y-13712583D01*
X9881254Y-13464964D02*
X9900302Y-13464964D01*
X9900302Y-13464964D02*
X9919349Y-13474488D01*
X9919349Y-13474488D02*
X9928873Y-13484011D01*
X9928873Y-13484011D02*
X9938397Y-13503059D01*
X9938397Y-13503059D02*
X9947921Y-13541154D01*
X9947921Y-13541154D02*
X9947921Y-13588773D01*
X9947921Y-13588773D02*
X9938397Y-13626868D01*
X9938397Y-13626868D02*
X9928873Y-13645916D01*
X9928873Y-13645916D02*
X9919349Y-13655440D01*
X9919349Y-13655440D02*
X9900302Y-13664964D01*
X9900302Y-13664964D02*
X9881254Y-13664964D01*
X9881254Y-13664964D02*
X9862207Y-13655440D01*
X9862207Y-13655440D02*
X9852683Y-13645916D01*
X9852683Y-13645916D02*
X9843159Y-13626868D01*
X9843159Y-13626868D02*
X9833635Y-13588773D01*
X9833635Y-13588773D02*
X9833635Y-13541154D01*
X9833635Y-13541154D02*
X9843159Y-13503059D01*
X9843159Y-13503059D02*
X9852683Y-13484011D01*
X9852683Y-13484011D02*
X9862207Y-13474488D01*
X9862207Y-13474488D02*
X9881254Y-13464964D01*
X10033635Y-13645916D02*
X10043159Y-13655440D01*
X10043159Y-13655440D02*
X10033635Y-13664964D01*
X10033635Y-13664964D02*
X10024111Y-13655440D01*
X10024111Y-13655440D02*
X10033635Y-13645916D01*
X10033635Y-13645916D02*
X10033635Y-13664964D01*
X10166968Y-13464964D02*
X10186016Y-13464964D01*
X10186016Y-13464964D02*
X10205064Y-13474488D01*
X10205064Y-13474488D02*
X10214588Y-13484011D01*
X10214588Y-13484011D02*
X10224111Y-13503059D01*
X10224111Y-13503059D02*
X10233635Y-13541154D01*
X10233635Y-13541154D02*
X10233635Y-13588773D01*
X10233635Y-13588773D02*
X10224111Y-13626868D01*
X10224111Y-13626868D02*
X10214588Y-13645916D01*
X10214588Y-13645916D02*
X10205064Y-13655440D01*
X10205064Y-13655440D02*
X10186016Y-13664964D01*
X10186016Y-13664964D02*
X10166968Y-13664964D01*
X10166968Y-13664964D02*
X10147921Y-13655440D01*
X10147921Y-13655440D02*
X10138397Y-13645916D01*
X10138397Y-13645916D02*
X10128873Y-13626868D01*
X10128873Y-13626868D02*
X10119349Y-13588773D01*
X10119349Y-13588773D02*
X10119349Y-13541154D01*
X10119349Y-13541154D02*
X10128873Y-13503059D01*
X10128873Y-13503059D02*
X10138397Y-13484011D01*
X10138397Y-13484011D02*
X10147921Y-13474488D01*
X10147921Y-13474488D02*
X10166968Y-13464964D01*
X10424111Y-13664964D02*
X10309826Y-13664964D01*
X10366968Y-13664964D02*
X10366968Y-13464964D01*
X10366968Y-13464964D02*
X10347921Y-13493535D01*
X10347921Y-13493535D02*
X10328873Y-13512583D01*
X10328873Y-13512583D02*
X10309826Y-13522107D01*
X10614588Y-13664964D02*
X10500302Y-13664964D01*
X10557445Y-13664964D02*
X10557445Y-13464964D01*
X10557445Y-13464964D02*
X10538397Y-13493535D01*
X10538397Y-13493535D02*
X10519349Y-13512583D01*
X10519349Y-13512583D02*
X10500302Y-13522107D01*
X10728873Y-13550678D02*
X10709826Y-13541154D01*
X10709826Y-13541154D02*
X10700302Y-13531630D01*
X10700302Y-13531630D02*
X10690778Y-13512583D01*
X10690778Y-13512583D02*
X10690778Y-13503059D01*
X10690778Y-13503059D02*
X10700302Y-13484011D01*
X10700302Y-13484011D02*
X10709826Y-13474488D01*
X10709826Y-13474488D02*
X10728873Y-13464964D01*
X10728873Y-13464964D02*
X10766969Y-13464964D01*
X10766969Y-13464964D02*
X10786016Y-13474488D01*
X10786016Y-13474488D02*
X10795540Y-13484011D01*
X10795540Y-13484011D02*
X10805064Y-13503059D01*
X10805064Y-13503059D02*
X10805064Y-13512583D01*
X10805064Y-13512583D02*
X10795540Y-13531630D01*
X10795540Y-13531630D02*
X10786016Y-13541154D01*
X10786016Y-13541154D02*
X10766969Y-13550678D01*
X10766969Y-13550678D02*
X10728873Y-13550678D01*
X10728873Y-13550678D02*
X10709826Y-13560202D01*
X10709826Y-13560202D02*
X10700302Y-13569726D01*
X10700302Y-13569726D02*
X10690778Y-13588773D01*
X10690778Y-13588773D02*
X10690778Y-13626868D01*
X10690778Y-13626868D02*
X10700302Y-13645916D01*
X10700302Y-13645916D02*
X10709826Y-13655440D01*
X10709826Y-13655440D02*
X10728873Y-13664964D01*
X10728873Y-13664964D02*
X10766969Y-13664964D01*
X10766969Y-13664964D02*
X10786016Y-13655440D01*
X10786016Y-13655440D02*
X10795540Y-13645916D01*
X10795540Y-13645916D02*
X10805064Y-13626868D01*
X10805064Y-13626868D02*
X10805064Y-13588773D01*
X10805064Y-13588773D02*
X10795540Y-13569726D01*
X10795540Y-13569726D02*
X10786016Y-13560202D01*
X10786016Y-13560202D02*
X10766969Y-13550678D01*
X10881254Y-13464964D02*
X10881254Y-13503059D01*
X10957445Y-13464964D02*
X10957445Y-13503059D01*
X11252683Y-13741154D02*
X11243159Y-13731630D01*
X11243159Y-13731630D02*
X11224111Y-13703059D01*
X11224111Y-13703059D02*
X11214588Y-13684011D01*
X11214588Y-13684011D02*
X11205064Y-13655440D01*
X11205064Y-13655440D02*
X11195540Y-13607821D01*
X11195540Y-13607821D02*
X11195540Y-13569726D01*
X11195540Y-13569726D02*
X11205064Y-13522107D01*
X11205064Y-13522107D02*
X11214588Y-13493535D01*
X11214588Y-13493535D02*
X11224111Y-13474488D01*
X11224111Y-13474488D02*
X11243159Y-13445916D01*
X11243159Y-13445916D02*
X11252683Y-13436392D01*
X11319349Y-13484011D02*
X11328873Y-13474488D01*
X11328873Y-13474488D02*
X11347921Y-13464964D01*
X11347921Y-13464964D02*
X11395540Y-13464964D01*
X11395540Y-13464964D02*
X11414588Y-13474488D01*
X11414588Y-13474488D02*
X11424111Y-13484011D01*
X11424111Y-13484011D02*
X11433635Y-13503059D01*
X11433635Y-13503059D02*
X11433635Y-13522107D01*
X11433635Y-13522107D02*
X11424111Y-13550678D01*
X11424111Y-13550678D02*
X11309826Y-13664964D01*
X11309826Y-13664964D02*
X11433635Y-13664964D01*
X11528873Y-13664964D02*
X11566968Y-13664964D01*
X11566968Y-13664964D02*
X11586016Y-13655440D01*
X11586016Y-13655440D02*
X11595540Y-13645916D01*
X11595540Y-13645916D02*
X11614588Y-13617345D01*
X11614588Y-13617345D02*
X11624111Y-13579249D01*
X11624111Y-13579249D02*
X11624111Y-13503059D01*
X11624111Y-13503059D02*
X11614588Y-13484011D01*
X11614588Y-13484011D02*
X11605064Y-13474488D01*
X11605064Y-13474488D02*
X11586016Y-13464964D01*
X11586016Y-13464964D02*
X11547921Y-13464964D01*
X11547921Y-13464964D02*
X11528873Y-13474488D01*
X11528873Y-13474488D02*
X11519349Y-13484011D01*
X11519349Y-13484011D02*
X11509826Y-13503059D01*
X11509826Y-13503059D02*
X11509826Y-13550678D01*
X11509826Y-13550678D02*
X11519349Y-13569726D01*
X11519349Y-13569726D02*
X11528873Y-13579249D01*
X11528873Y-13579249D02*
X11547921Y-13588773D01*
X11547921Y-13588773D02*
X11586016Y-13588773D01*
X11586016Y-13588773D02*
X11605064Y-13579249D01*
X11605064Y-13579249D02*
X11614588Y-13569726D01*
X11614588Y-13569726D02*
X11624111Y-13550678D01*
X11719349Y-13664964D02*
X11757445Y-13664964D01*
X11757445Y-13664964D02*
X11776492Y-13655440D01*
X11776492Y-13655440D02*
X11786016Y-13645916D01*
X11786016Y-13645916D02*
X11805064Y-13617345D01*
X11805064Y-13617345D02*
X11814588Y-13579249D01*
X11814588Y-13579249D02*
X11814588Y-13503059D01*
X11814588Y-13503059D02*
X11805064Y-13484011D01*
X11805064Y-13484011D02*
X11795540Y-13474488D01*
X11795540Y-13474488D02*
X11776492Y-13464964D01*
X11776492Y-13464964D02*
X11738397Y-13464964D01*
X11738397Y-13464964D02*
X11719349Y-13474488D01*
X11719349Y-13474488D02*
X11709826Y-13484011D01*
X11709826Y-13484011D02*
X11700302Y-13503059D01*
X11700302Y-13503059D02*
X11700302Y-13550678D01*
X11700302Y-13550678D02*
X11709826Y-13569726D01*
X11709826Y-13569726D02*
X11719349Y-13579249D01*
X11719349Y-13579249D02*
X11738397Y-13588773D01*
X11738397Y-13588773D02*
X11776492Y-13588773D01*
X11776492Y-13588773D02*
X11795540Y-13579249D01*
X11795540Y-13579249D02*
X11805064Y-13569726D01*
X11805064Y-13569726D02*
X11814588Y-13550678D01*
X12052683Y-13664964D02*
X12052683Y-13464964D01*
X12138397Y-13664964D02*
X12138397Y-13560202D01*
X12138397Y-13560202D02*
X12128873Y-13541154D01*
X12128873Y-13541154D02*
X12109826Y-13531630D01*
X12109826Y-13531630D02*
X12081254Y-13531630D01*
X12081254Y-13531630D02*
X12062207Y-13541154D01*
X12062207Y-13541154D02*
X12052683Y-13550678D01*
X12262207Y-13664964D02*
X12243159Y-13655440D01*
X12243159Y-13655440D02*
X12233635Y-13645916D01*
X12233635Y-13645916D02*
X12224111Y-13626868D01*
X12224111Y-13626868D02*
X12224111Y-13569726D01*
X12224111Y-13569726D02*
X12233635Y-13550678D01*
X12233635Y-13550678D02*
X12243159Y-13541154D01*
X12243159Y-13541154D02*
X12262207Y-13531630D01*
X12262207Y-13531630D02*
X12290778Y-13531630D01*
X12290778Y-13531630D02*
X12309826Y-13541154D01*
X12309826Y-13541154D02*
X12319350Y-13550678D01*
X12319350Y-13550678D02*
X12328873Y-13569726D01*
X12328873Y-13569726D02*
X12328873Y-13626868D01*
X12328873Y-13626868D02*
X12319350Y-13645916D01*
X12319350Y-13645916D02*
X12309826Y-13655440D01*
X12309826Y-13655440D02*
X12290778Y-13664964D01*
X12290778Y-13664964D02*
X12262207Y-13664964D01*
X12443159Y-13664964D02*
X12424111Y-13655440D01*
X12424111Y-13655440D02*
X12414588Y-13636392D01*
X12414588Y-13636392D02*
X12414588Y-13464964D01*
X12595540Y-13655440D02*
X12576492Y-13664964D01*
X12576492Y-13664964D02*
X12538397Y-13664964D01*
X12538397Y-13664964D02*
X12519350Y-13655440D01*
X12519350Y-13655440D02*
X12509826Y-13636392D01*
X12509826Y-13636392D02*
X12509826Y-13560202D01*
X12509826Y-13560202D02*
X12519350Y-13541154D01*
X12519350Y-13541154D02*
X12538397Y-13531630D01*
X12538397Y-13531630D02*
X12576492Y-13531630D01*
X12576492Y-13531630D02*
X12595540Y-13541154D01*
X12595540Y-13541154D02*
X12605064Y-13560202D01*
X12605064Y-13560202D02*
X12605064Y-13579249D01*
X12605064Y-13579249D02*
X12509826Y-13598297D01*
X12681254Y-13655440D02*
X12700302Y-13664964D01*
X12700302Y-13664964D02*
X12738397Y-13664964D01*
X12738397Y-13664964D02*
X12757445Y-13655440D01*
X12757445Y-13655440D02*
X12766969Y-13636392D01*
X12766969Y-13636392D02*
X12766969Y-13626868D01*
X12766969Y-13626868D02*
X12757445Y-13607821D01*
X12757445Y-13607821D02*
X12738397Y-13598297D01*
X12738397Y-13598297D02*
X12709826Y-13598297D01*
X12709826Y-13598297D02*
X12690778Y-13588773D01*
X12690778Y-13588773D02*
X12681254Y-13569726D01*
X12681254Y-13569726D02*
X12681254Y-13560202D01*
X12681254Y-13560202D02*
X12690778Y-13541154D01*
X12690778Y-13541154D02*
X12709826Y-13531630D01*
X12709826Y-13531630D02*
X12738397Y-13531630D01*
X12738397Y-13531630D02*
X12757445Y-13541154D01*
X12833635Y-13741154D02*
X12843159Y-13731630D01*
X12843159Y-13731630D02*
X12862207Y-13703059D01*
X12862207Y-13703059D02*
X12871731Y-13684011D01*
X12871731Y-13684011D02*
X12881254Y-13655440D01*
X12881254Y-13655440D02*
X12890778Y-13607821D01*
X12890778Y-13607821D02*
X12890778Y-13569726D01*
X12890778Y-13569726D02*
X12881254Y-13522107D01*
X12881254Y-13522107D02*
X12871731Y-13493535D01*
X12871731Y-13493535D02*
X12862207Y-13474488D01*
X12862207Y-13474488D02*
X12843159Y-13445916D01*
X12843159Y-13445916D02*
X12833635Y-13436392D01*
D14*
X7660120Y-13819980D02*
X7660120Y-13854980D01*
X7642620Y-13837480D02*
X7677620Y-13837480D01*
D11*
X7976492Y-13728964D02*
X7995540Y-13728964D01*
X7995540Y-13728964D02*
X8014587Y-13738488D01*
X8014587Y-13738488D02*
X8024111Y-13748011D01*
X8024111Y-13748011D02*
X8033635Y-13767059D01*
X8033635Y-13767059D02*
X8043159Y-13805154D01*
X8043159Y-13805154D02*
X8043159Y-13852773D01*
X8043159Y-13852773D02*
X8033635Y-13890868D01*
X8033635Y-13890868D02*
X8024111Y-13909916D01*
X8024111Y-13909916D02*
X8014587Y-13919440D01*
X8014587Y-13919440D02*
X7995540Y-13928964D01*
X7995540Y-13928964D02*
X7976492Y-13928964D01*
X7976492Y-13928964D02*
X7957444Y-13919440D01*
X7957444Y-13919440D02*
X7947921Y-13909916D01*
X7947921Y-13909916D02*
X7938397Y-13890868D01*
X7938397Y-13890868D02*
X7928873Y-13852773D01*
X7928873Y-13852773D02*
X7928873Y-13805154D01*
X7928873Y-13805154D02*
X7938397Y-13767059D01*
X7938397Y-13767059D02*
X7947921Y-13748011D01*
X7947921Y-13748011D02*
X7957444Y-13738488D01*
X7957444Y-13738488D02*
X7976492Y-13728964D01*
X8128873Y-13909916D02*
X8138397Y-13919440D01*
X8138397Y-13919440D02*
X8128873Y-13928964D01*
X8128873Y-13928964D02*
X8119349Y-13919440D01*
X8119349Y-13919440D02*
X8128873Y-13909916D01*
X8128873Y-13909916D02*
X8128873Y-13928964D01*
X8205063Y-13728964D02*
X8328873Y-13728964D01*
X8328873Y-13728964D02*
X8262206Y-13805154D01*
X8262206Y-13805154D02*
X8290778Y-13805154D01*
X8290778Y-13805154D02*
X8309825Y-13814678D01*
X8309825Y-13814678D02*
X8319349Y-13824202D01*
X8319349Y-13824202D02*
X8328873Y-13843249D01*
X8328873Y-13843249D02*
X8328873Y-13890868D01*
X8328873Y-13890868D02*
X8319349Y-13909916D01*
X8319349Y-13909916D02*
X8309825Y-13919440D01*
X8309825Y-13919440D02*
X8290778Y-13928964D01*
X8290778Y-13928964D02*
X8233635Y-13928964D01*
X8233635Y-13928964D02*
X8214587Y-13919440D01*
X8214587Y-13919440D02*
X8205063Y-13909916D01*
X8509825Y-13728964D02*
X8414587Y-13728964D01*
X8414587Y-13728964D02*
X8405064Y-13824202D01*
X8405064Y-13824202D02*
X8414587Y-13814678D01*
X8414587Y-13814678D02*
X8433635Y-13805154D01*
X8433635Y-13805154D02*
X8481254Y-13805154D01*
X8481254Y-13805154D02*
X8500302Y-13814678D01*
X8500302Y-13814678D02*
X8509825Y-13824202D01*
X8509825Y-13824202D02*
X8519349Y-13843249D01*
X8519349Y-13843249D02*
X8519349Y-13890868D01*
X8519349Y-13890868D02*
X8509825Y-13909916D01*
X8509825Y-13909916D02*
X8500302Y-13919440D01*
X8500302Y-13919440D02*
X8481254Y-13928964D01*
X8481254Y-13928964D02*
X8433635Y-13928964D01*
X8433635Y-13928964D02*
X8414587Y-13919440D01*
X8414587Y-13919440D02*
X8405064Y-13909916D01*
X8643159Y-13728964D02*
X8662206Y-13728964D01*
X8662206Y-13728964D02*
X8681254Y-13738488D01*
X8681254Y-13738488D02*
X8690778Y-13748011D01*
X8690778Y-13748011D02*
X8700302Y-13767059D01*
X8700302Y-13767059D02*
X8709825Y-13805154D01*
X8709825Y-13805154D02*
X8709825Y-13852773D01*
X8709825Y-13852773D02*
X8700302Y-13890868D01*
X8700302Y-13890868D02*
X8690778Y-13909916D01*
X8690778Y-13909916D02*
X8681254Y-13919440D01*
X8681254Y-13919440D02*
X8662206Y-13928964D01*
X8662206Y-13928964D02*
X8643159Y-13928964D01*
X8643159Y-13928964D02*
X8624111Y-13919440D01*
X8624111Y-13919440D02*
X8614587Y-13909916D01*
X8614587Y-13909916D02*
X8605064Y-13890868D01*
X8605064Y-13890868D02*
X8595540Y-13852773D01*
X8595540Y-13852773D02*
X8595540Y-13805154D01*
X8595540Y-13805154D02*
X8605064Y-13767059D01*
X8605064Y-13767059D02*
X8614587Y-13748011D01*
X8614587Y-13748011D02*
X8624111Y-13738488D01*
X8624111Y-13738488D02*
X8643159Y-13728964D01*
X8795540Y-13928964D02*
X8795540Y-13795630D01*
X8795540Y-13814678D02*
X8805064Y-13805154D01*
X8805064Y-13805154D02*
X8824111Y-13795630D01*
X8824111Y-13795630D02*
X8852683Y-13795630D01*
X8852683Y-13795630D02*
X8871730Y-13805154D01*
X8871730Y-13805154D02*
X8881254Y-13824202D01*
X8881254Y-13824202D02*
X8881254Y-13928964D01*
X8881254Y-13824202D02*
X8890778Y-13805154D01*
X8890778Y-13805154D02*
X8909825Y-13795630D01*
X8909825Y-13795630D02*
X8938397Y-13795630D01*
X8938397Y-13795630D02*
X8957445Y-13805154D01*
X8957445Y-13805154D02*
X8966968Y-13824202D01*
X8966968Y-13824202D02*
X8966968Y-13928964D01*
X9062206Y-13928964D02*
X9062206Y-13795630D01*
X9062206Y-13814678D02*
X9071730Y-13805154D01*
X9071730Y-13805154D02*
X9090778Y-13795630D01*
X9090778Y-13795630D02*
X9119349Y-13795630D01*
X9119349Y-13795630D02*
X9138397Y-13805154D01*
X9138397Y-13805154D02*
X9147921Y-13824202D01*
X9147921Y-13824202D02*
X9147921Y-13928964D01*
X9147921Y-13824202D02*
X9157445Y-13805154D01*
X9157445Y-13805154D02*
X9176492Y-13795630D01*
X9176492Y-13795630D02*
X9205064Y-13795630D01*
X9205064Y-13795630D02*
X9224111Y-13805154D01*
X9224111Y-13805154D02*
X9233635Y-13824202D01*
X9233635Y-13824202D02*
X9233635Y-13928964D01*
X9624111Y-13719440D02*
X9452683Y-13976583D01*
X9881254Y-13728964D02*
X9900302Y-13728964D01*
X9900302Y-13728964D02*
X9919349Y-13738488D01*
X9919349Y-13738488D02*
X9928873Y-13748011D01*
X9928873Y-13748011D02*
X9938397Y-13767059D01*
X9938397Y-13767059D02*
X9947921Y-13805154D01*
X9947921Y-13805154D02*
X9947921Y-13852773D01*
X9947921Y-13852773D02*
X9938397Y-13890868D01*
X9938397Y-13890868D02*
X9928873Y-13909916D01*
X9928873Y-13909916D02*
X9919349Y-13919440D01*
X9919349Y-13919440D02*
X9900302Y-13928964D01*
X9900302Y-13928964D02*
X9881254Y-13928964D01*
X9881254Y-13928964D02*
X9862207Y-13919440D01*
X9862207Y-13919440D02*
X9852683Y-13909916D01*
X9852683Y-13909916D02*
X9843159Y-13890868D01*
X9843159Y-13890868D02*
X9833635Y-13852773D01*
X9833635Y-13852773D02*
X9833635Y-13805154D01*
X9833635Y-13805154D02*
X9843159Y-13767059D01*
X9843159Y-13767059D02*
X9852683Y-13748011D01*
X9852683Y-13748011D02*
X9862207Y-13738488D01*
X9862207Y-13738488D02*
X9881254Y-13728964D01*
X10033635Y-13909916D02*
X10043159Y-13919440D01*
X10043159Y-13919440D02*
X10033635Y-13928964D01*
X10033635Y-13928964D02*
X10024111Y-13919440D01*
X10024111Y-13919440D02*
X10033635Y-13909916D01*
X10033635Y-13909916D02*
X10033635Y-13928964D01*
X10166968Y-13728964D02*
X10186016Y-13728964D01*
X10186016Y-13728964D02*
X10205064Y-13738488D01*
X10205064Y-13738488D02*
X10214588Y-13748011D01*
X10214588Y-13748011D02*
X10224111Y-13767059D01*
X10224111Y-13767059D02*
X10233635Y-13805154D01*
X10233635Y-13805154D02*
X10233635Y-13852773D01*
X10233635Y-13852773D02*
X10224111Y-13890868D01*
X10224111Y-13890868D02*
X10214588Y-13909916D01*
X10214588Y-13909916D02*
X10205064Y-13919440D01*
X10205064Y-13919440D02*
X10186016Y-13928964D01*
X10186016Y-13928964D02*
X10166968Y-13928964D01*
X10166968Y-13928964D02*
X10147921Y-13919440D01*
X10147921Y-13919440D02*
X10138397Y-13909916D01*
X10138397Y-13909916D02*
X10128873Y-13890868D01*
X10128873Y-13890868D02*
X10119349Y-13852773D01*
X10119349Y-13852773D02*
X10119349Y-13805154D01*
X10119349Y-13805154D02*
X10128873Y-13767059D01*
X10128873Y-13767059D02*
X10138397Y-13748011D01*
X10138397Y-13748011D02*
X10147921Y-13738488D01*
X10147921Y-13738488D02*
X10166968Y-13728964D01*
X10424111Y-13928964D02*
X10309826Y-13928964D01*
X10366968Y-13928964D02*
X10366968Y-13728964D01*
X10366968Y-13728964D02*
X10347921Y-13757535D01*
X10347921Y-13757535D02*
X10328873Y-13776583D01*
X10328873Y-13776583D02*
X10309826Y-13786107D01*
X10490778Y-13728964D02*
X10614588Y-13728964D01*
X10614588Y-13728964D02*
X10547921Y-13805154D01*
X10547921Y-13805154D02*
X10576492Y-13805154D01*
X10576492Y-13805154D02*
X10595540Y-13814678D01*
X10595540Y-13814678D02*
X10605064Y-13824202D01*
X10605064Y-13824202D02*
X10614588Y-13843249D01*
X10614588Y-13843249D02*
X10614588Y-13890868D01*
X10614588Y-13890868D02*
X10605064Y-13909916D01*
X10605064Y-13909916D02*
X10595540Y-13919440D01*
X10595540Y-13919440D02*
X10576492Y-13928964D01*
X10576492Y-13928964D02*
X10519349Y-13928964D01*
X10519349Y-13928964D02*
X10500302Y-13919440D01*
X10500302Y-13919440D02*
X10490778Y-13909916D01*
X10728873Y-13814678D02*
X10709826Y-13805154D01*
X10709826Y-13805154D02*
X10700302Y-13795630D01*
X10700302Y-13795630D02*
X10690778Y-13776583D01*
X10690778Y-13776583D02*
X10690778Y-13767059D01*
X10690778Y-13767059D02*
X10700302Y-13748011D01*
X10700302Y-13748011D02*
X10709826Y-13738488D01*
X10709826Y-13738488D02*
X10728873Y-13728964D01*
X10728873Y-13728964D02*
X10766969Y-13728964D01*
X10766969Y-13728964D02*
X10786016Y-13738488D01*
X10786016Y-13738488D02*
X10795540Y-13748011D01*
X10795540Y-13748011D02*
X10805064Y-13767059D01*
X10805064Y-13767059D02*
X10805064Y-13776583D01*
X10805064Y-13776583D02*
X10795540Y-13795630D01*
X10795540Y-13795630D02*
X10786016Y-13805154D01*
X10786016Y-13805154D02*
X10766969Y-13814678D01*
X10766969Y-13814678D02*
X10728873Y-13814678D01*
X10728873Y-13814678D02*
X10709826Y-13824202D01*
X10709826Y-13824202D02*
X10700302Y-13833726D01*
X10700302Y-13833726D02*
X10690778Y-13852773D01*
X10690778Y-13852773D02*
X10690778Y-13890868D01*
X10690778Y-13890868D02*
X10700302Y-13909916D01*
X10700302Y-13909916D02*
X10709826Y-13919440D01*
X10709826Y-13919440D02*
X10728873Y-13928964D01*
X10728873Y-13928964D02*
X10766969Y-13928964D01*
X10766969Y-13928964D02*
X10786016Y-13919440D01*
X10786016Y-13919440D02*
X10795540Y-13909916D01*
X10795540Y-13909916D02*
X10805064Y-13890868D01*
X10805064Y-13890868D02*
X10805064Y-13852773D01*
X10805064Y-13852773D02*
X10795540Y-13833726D01*
X10795540Y-13833726D02*
X10786016Y-13824202D01*
X10786016Y-13824202D02*
X10766969Y-13814678D01*
X10881254Y-13728964D02*
X10881254Y-13767059D01*
X10957445Y-13728964D02*
X10957445Y-13767059D01*
X11252683Y-14005154D02*
X11243159Y-13995630D01*
X11243159Y-13995630D02*
X11224111Y-13967059D01*
X11224111Y-13967059D02*
X11214588Y-13948011D01*
X11214588Y-13948011D02*
X11205064Y-13919440D01*
X11205064Y-13919440D02*
X11195540Y-13871821D01*
X11195540Y-13871821D02*
X11195540Y-13833726D01*
X11195540Y-13833726D02*
X11205064Y-13786107D01*
X11205064Y-13786107D02*
X11214588Y-13757535D01*
X11214588Y-13757535D02*
X11224111Y-13738488D01*
X11224111Y-13738488D02*
X11243159Y-13709916D01*
X11243159Y-13709916D02*
X11252683Y-13700392D01*
X11338397Y-13928964D02*
X11376492Y-13928964D01*
X11376492Y-13928964D02*
X11395540Y-13919440D01*
X11395540Y-13919440D02*
X11405064Y-13909916D01*
X11405064Y-13909916D02*
X11424111Y-13881345D01*
X11424111Y-13881345D02*
X11433635Y-13843249D01*
X11433635Y-13843249D02*
X11433635Y-13767059D01*
X11433635Y-13767059D02*
X11424111Y-13748011D01*
X11424111Y-13748011D02*
X11414588Y-13738488D01*
X11414588Y-13738488D02*
X11395540Y-13728964D01*
X11395540Y-13728964D02*
X11357445Y-13728964D01*
X11357445Y-13728964D02*
X11338397Y-13738488D01*
X11338397Y-13738488D02*
X11328873Y-13748011D01*
X11328873Y-13748011D02*
X11319349Y-13767059D01*
X11319349Y-13767059D02*
X11319349Y-13814678D01*
X11319349Y-13814678D02*
X11328873Y-13833726D01*
X11328873Y-13833726D02*
X11338397Y-13843249D01*
X11338397Y-13843249D02*
X11357445Y-13852773D01*
X11357445Y-13852773D02*
X11395540Y-13852773D01*
X11395540Y-13852773D02*
X11414588Y-13843249D01*
X11414588Y-13843249D02*
X11424111Y-13833726D01*
X11424111Y-13833726D02*
X11433635Y-13814678D01*
X11671730Y-13928964D02*
X11671730Y-13728964D01*
X11757445Y-13928964D02*
X11757445Y-13824202D01*
X11757445Y-13824202D02*
X11747921Y-13805154D01*
X11747921Y-13805154D02*
X11728873Y-13795630D01*
X11728873Y-13795630D02*
X11700302Y-13795630D01*
X11700302Y-13795630D02*
X11681254Y-13805154D01*
X11681254Y-13805154D02*
X11671730Y-13814678D01*
X11881254Y-13928964D02*
X11862207Y-13919440D01*
X11862207Y-13919440D02*
X11852683Y-13909916D01*
X11852683Y-13909916D02*
X11843159Y-13890868D01*
X11843159Y-13890868D02*
X11843159Y-13833726D01*
X11843159Y-13833726D02*
X11852683Y-13814678D01*
X11852683Y-13814678D02*
X11862207Y-13805154D01*
X11862207Y-13805154D02*
X11881254Y-13795630D01*
X11881254Y-13795630D02*
X11909826Y-13795630D01*
X11909826Y-13795630D02*
X11928873Y-13805154D01*
X11928873Y-13805154D02*
X11938397Y-13814678D01*
X11938397Y-13814678D02*
X11947921Y-13833726D01*
X11947921Y-13833726D02*
X11947921Y-13890868D01*
X11947921Y-13890868D02*
X11938397Y-13909916D01*
X11938397Y-13909916D02*
X11928873Y-13919440D01*
X11928873Y-13919440D02*
X11909826Y-13928964D01*
X11909826Y-13928964D02*
X11881254Y-13928964D01*
X12062207Y-13928964D02*
X12043159Y-13919440D01*
X12043159Y-13919440D02*
X12033635Y-13900392D01*
X12033635Y-13900392D02*
X12033635Y-13728964D01*
X12214588Y-13919440D02*
X12195540Y-13928964D01*
X12195540Y-13928964D02*
X12157445Y-13928964D01*
X12157445Y-13928964D02*
X12138397Y-13919440D01*
X12138397Y-13919440D02*
X12128873Y-13900392D01*
X12128873Y-13900392D02*
X12128873Y-13824202D01*
X12128873Y-13824202D02*
X12138397Y-13805154D01*
X12138397Y-13805154D02*
X12157445Y-13795630D01*
X12157445Y-13795630D02*
X12195540Y-13795630D01*
X12195540Y-13795630D02*
X12214588Y-13805154D01*
X12214588Y-13805154D02*
X12224111Y-13824202D01*
X12224111Y-13824202D02*
X12224111Y-13843249D01*
X12224111Y-13843249D02*
X12128873Y-13862297D01*
X12300302Y-13919440D02*
X12319350Y-13928964D01*
X12319350Y-13928964D02*
X12357445Y-13928964D01*
X12357445Y-13928964D02*
X12376492Y-13919440D01*
X12376492Y-13919440D02*
X12386016Y-13900392D01*
X12386016Y-13900392D02*
X12386016Y-13890868D01*
X12386016Y-13890868D02*
X12376492Y-13871821D01*
X12376492Y-13871821D02*
X12357445Y-13862297D01*
X12357445Y-13862297D02*
X12328873Y-13862297D01*
X12328873Y-13862297D02*
X12309826Y-13852773D01*
X12309826Y-13852773D02*
X12300302Y-13833726D01*
X12300302Y-13833726D02*
X12300302Y-13824202D01*
X12300302Y-13824202D02*
X12309826Y-13805154D01*
X12309826Y-13805154D02*
X12328873Y-13795630D01*
X12328873Y-13795630D02*
X12357445Y-13795630D01*
X12357445Y-13795630D02*
X12376492Y-13805154D01*
X12452683Y-14005154D02*
X12462207Y-13995630D01*
X12462207Y-13995630D02*
X12481254Y-13967059D01*
X12481254Y-13967059D02*
X12490778Y-13948011D01*
X12490778Y-13948011D02*
X12500302Y-13919440D01*
X12500302Y-13919440D02*
X12509826Y-13871821D01*
X12509826Y-13871821D02*
X12509826Y-13833726D01*
X12509826Y-13833726D02*
X12500302Y-13786107D01*
X12500302Y-13786107D02*
X12490778Y-13757535D01*
X12490778Y-13757535D02*
X12481254Y-13738488D01*
X12481254Y-13738488D02*
X12462207Y-13709916D01*
X12462207Y-13709916D02*
X12452683Y-13700392D01*
D10*
X7670298Y-14119158D02*
X7670298Y-14083802D01*
X7634942Y-14083802D01*
X7634942Y-14119158D01*
X7670298Y-14119158D01*
D11*
X7976492Y-13992964D02*
X7995540Y-13992964D01*
X7995540Y-13992964D02*
X8014587Y-14002488D01*
X8014587Y-14002488D02*
X8024111Y-14012011D01*
X8024111Y-14012011D02*
X8033635Y-14031059D01*
X8033635Y-14031059D02*
X8043159Y-14069154D01*
X8043159Y-14069154D02*
X8043159Y-14116773D01*
X8043159Y-14116773D02*
X8033635Y-14154868D01*
X8033635Y-14154868D02*
X8024111Y-14173916D01*
X8024111Y-14173916D02*
X8014587Y-14183440D01*
X8014587Y-14183440D02*
X7995540Y-14192964D01*
X7995540Y-14192964D02*
X7976492Y-14192964D01*
X7976492Y-14192964D02*
X7957444Y-14183440D01*
X7957444Y-14183440D02*
X7947921Y-14173916D01*
X7947921Y-14173916D02*
X7938397Y-14154868D01*
X7938397Y-14154868D02*
X7928873Y-14116773D01*
X7928873Y-14116773D02*
X7928873Y-14069154D01*
X7928873Y-14069154D02*
X7938397Y-14031059D01*
X7938397Y-14031059D02*
X7947921Y-14012011D01*
X7947921Y-14012011D02*
X7957444Y-14002488D01*
X7957444Y-14002488D02*
X7976492Y-13992964D01*
X8128873Y-14173916D02*
X8138397Y-14183440D01*
X8138397Y-14183440D02*
X8128873Y-14192964D01*
X8128873Y-14192964D02*
X8119349Y-14183440D01*
X8119349Y-14183440D02*
X8128873Y-14173916D01*
X8128873Y-14173916D02*
X8128873Y-14192964D01*
X8319349Y-13992964D02*
X8224111Y-13992964D01*
X8224111Y-13992964D02*
X8214587Y-14088202D01*
X8214587Y-14088202D02*
X8224111Y-14078678D01*
X8224111Y-14078678D02*
X8243159Y-14069154D01*
X8243159Y-14069154D02*
X8290778Y-14069154D01*
X8290778Y-14069154D02*
X8309825Y-14078678D01*
X8309825Y-14078678D02*
X8319349Y-14088202D01*
X8319349Y-14088202D02*
X8328873Y-14107249D01*
X8328873Y-14107249D02*
X8328873Y-14154868D01*
X8328873Y-14154868D02*
X8319349Y-14173916D01*
X8319349Y-14173916D02*
X8309825Y-14183440D01*
X8309825Y-14183440D02*
X8290778Y-14192964D01*
X8290778Y-14192964D02*
X8243159Y-14192964D01*
X8243159Y-14192964D02*
X8224111Y-14183440D01*
X8224111Y-14183440D02*
X8214587Y-14173916D01*
X8452683Y-13992964D02*
X8471730Y-13992964D01*
X8471730Y-13992964D02*
X8490778Y-14002488D01*
X8490778Y-14002488D02*
X8500302Y-14012011D01*
X8500302Y-14012011D02*
X8509825Y-14031059D01*
X8509825Y-14031059D02*
X8519349Y-14069154D01*
X8519349Y-14069154D02*
X8519349Y-14116773D01*
X8519349Y-14116773D02*
X8509825Y-14154868D01*
X8509825Y-14154868D02*
X8500302Y-14173916D01*
X8500302Y-14173916D02*
X8490778Y-14183440D01*
X8490778Y-14183440D02*
X8471730Y-14192964D01*
X8471730Y-14192964D02*
X8452683Y-14192964D01*
X8452683Y-14192964D02*
X8433635Y-14183440D01*
X8433635Y-14183440D02*
X8424111Y-14173916D01*
X8424111Y-14173916D02*
X8414587Y-14154868D01*
X8414587Y-14154868D02*
X8405064Y-14116773D01*
X8405064Y-14116773D02*
X8405064Y-14069154D01*
X8405064Y-14069154D02*
X8414587Y-14031059D01*
X8414587Y-14031059D02*
X8424111Y-14012011D01*
X8424111Y-14012011D02*
X8433635Y-14002488D01*
X8433635Y-14002488D02*
X8452683Y-13992964D01*
X8643159Y-13992964D02*
X8662206Y-13992964D01*
X8662206Y-13992964D02*
X8681254Y-14002488D01*
X8681254Y-14002488D02*
X8690778Y-14012011D01*
X8690778Y-14012011D02*
X8700302Y-14031059D01*
X8700302Y-14031059D02*
X8709825Y-14069154D01*
X8709825Y-14069154D02*
X8709825Y-14116773D01*
X8709825Y-14116773D02*
X8700302Y-14154868D01*
X8700302Y-14154868D02*
X8690778Y-14173916D01*
X8690778Y-14173916D02*
X8681254Y-14183440D01*
X8681254Y-14183440D02*
X8662206Y-14192964D01*
X8662206Y-14192964D02*
X8643159Y-14192964D01*
X8643159Y-14192964D02*
X8624111Y-14183440D01*
X8624111Y-14183440D02*
X8614587Y-14173916D01*
X8614587Y-14173916D02*
X8605064Y-14154868D01*
X8605064Y-14154868D02*
X8595540Y-14116773D01*
X8595540Y-14116773D02*
X8595540Y-14069154D01*
X8595540Y-14069154D02*
X8605064Y-14031059D01*
X8605064Y-14031059D02*
X8614587Y-14012011D01*
X8614587Y-14012011D02*
X8624111Y-14002488D01*
X8624111Y-14002488D02*
X8643159Y-13992964D01*
X8795540Y-14192964D02*
X8795540Y-14059630D01*
X8795540Y-14078678D02*
X8805064Y-14069154D01*
X8805064Y-14069154D02*
X8824111Y-14059630D01*
X8824111Y-14059630D02*
X8852683Y-14059630D01*
X8852683Y-14059630D02*
X8871730Y-14069154D01*
X8871730Y-14069154D02*
X8881254Y-14088202D01*
X8881254Y-14088202D02*
X8881254Y-14192964D01*
X8881254Y-14088202D02*
X8890778Y-14069154D01*
X8890778Y-14069154D02*
X8909825Y-14059630D01*
X8909825Y-14059630D02*
X8938397Y-14059630D01*
X8938397Y-14059630D02*
X8957445Y-14069154D01*
X8957445Y-14069154D02*
X8966968Y-14088202D01*
X8966968Y-14088202D02*
X8966968Y-14192964D01*
X9062206Y-14192964D02*
X9062206Y-14059630D01*
X9062206Y-14078678D02*
X9071730Y-14069154D01*
X9071730Y-14069154D02*
X9090778Y-14059630D01*
X9090778Y-14059630D02*
X9119349Y-14059630D01*
X9119349Y-14059630D02*
X9138397Y-14069154D01*
X9138397Y-14069154D02*
X9147921Y-14088202D01*
X9147921Y-14088202D02*
X9147921Y-14192964D01*
X9147921Y-14088202D02*
X9157445Y-14069154D01*
X9157445Y-14069154D02*
X9176492Y-14059630D01*
X9176492Y-14059630D02*
X9205064Y-14059630D01*
X9205064Y-14059630D02*
X9224111Y-14069154D01*
X9224111Y-14069154D02*
X9233635Y-14088202D01*
X9233635Y-14088202D02*
X9233635Y-14192964D01*
X9624111Y-13983440D02*
X9452683Y-14240583D01*
X9881254Y-13992964D02*
X9900302Y-13992964D01*
X9900302Y-13992964D02*
X9919349Y-14002488D01*
X9919349Y-14002488D02*
X9928873Y-14012011D01*
X9928873Y-14012011D02*
X9938397Y-14031059D01*
X9938397Y-14031059D02*
X9947921Y-14069154D01*
X9947921Y-14069154D02*
X9947921Y-14116773D01*
X9947921Y-14116773D02*
X9938397Y-14154868D01*
X9938397Y-14154868D02*
X9928873Y-14173916D01*
X9928873Y-14173916D02*
X9919349Y-14183440D01*
X9919349Y-14183440D02*
X9900302Y-14192964D01*
X9900302Y-14192964D02*
X9881254Y-14192964D01*
X9881254Y-14192964D02*
X9862207Y-14183440D01*
X9862207Y-14183440D02*
X9852683Y-14173916D01*
X9852683Y-14173916D02*
X9843159Y-14154868D01*
X9843159Y-14154868D02*
X9833635Y-14116773D01*
X9833635Y-14116773D02*
X9833635Y-14069154D01*
X9833635Y-14069154D02*
X9843159Y-14031059D01*
X9843159Y-14031059D02*
X9852683Y-14012011D01*
X9852683Y-14012011D02*
X9862207Y-14002488D01*
X9862207Y-14002488D02*
X9881254Y-13992964D01*
X10033635Y-14173916D02*
X10043159Y-14183440D01*
X10043159Y-14183440D02*
X10033635Y-14192964D01*
X10033635Y-14192964D02*
X10024111Y-14183440D01*
X10024111Y-14183440D02*
X10033635Y-14173916D01*
X10033635Y-14173916D02*
X10033635Y-14192964D01*
X10166968Y-13992964D02*
X10186016Y-13992964D01*
X10186016Y-13992964D02*
X10205064Y-14002488D01*
X10205064Y-14002488D02*
X10214588Y-14012011D01*
X10214588Y-14012011D02*
X10224111Y-14031059D01*
X10224111Y-14031059D02*
X10233635Y-14069154D01*
X10233635Y-14069154D02*
X10233635Y-14116773D01*
X10233635Y-14116773D02*
X10224111Y-14154868D01*
X10224111Y-14154868D02*
X10214588Y-14173916D01*
X10214588Y-14173916D02*
X10205064Y-14183440D01*
X10205064Y-14183440D02*
X10186016Y-14192964D01*
X10186016Y-14192964D02*
X10166968Y-14192964D01*
X10166968Y-14192964D02*
X10147921Y-14183440D01*
X10147921Y-14183440D02*
X10138397Y-14173916D01*
X10138397Y-14173916D02*
X10128873Y-14154868D01*
X10128873Y-14154868D02*
X10119349Y-14116773D01*
X10119349Y-14116773D02*
X10119349Y-14069154D01*
X10119349Y-14069154D02*
X10128873Y-14031059D01*
X10128873Y-14031059D02*
X10138397Y-14012011D01*
X10138397Y-14012011D02*
X10147921Y-14002488D01*
X10147921Y-14002488D02*
X10166968Y-13992964D01*
X10424111Y-14192964D02*
X10309826Y-14192964D01*
X10366968Y-14192964D02*
X10366968Y-13992964D01*
X10366968Y-13992964D02*
X10347921Y-14021535D01*
X10347921Y-14021535D02*
X10328873Y-14040583D01*
X10328873Y-14040583D02*
X10309826Y-14050107D01*
X10519349Y-14192964D02*
X10557445Y-14192964D01*
X10557445Y-14192964D02*
X10576492Y-14183440D01*
X10576492Y-14183440D02*
X10586016Y-14173916D01*
X10586016Y-14173916D02*
X10605064Y-14145345D01*
X10605064Y-14145345D02*
X10614588Y-14107249D01*
X10614588Y-14107249D02*
X10614588Y-14031059D01*
X10614588Y-14031059D02*
X10605064Y-14012011D01*
X10605064Y-14012011D02*
X10595540Y-14002488D01*
X10595540Y-14002488D02*
X10576492Y-13992964D01*
X10576492Y-13992964D02*
X10538397Y-13992964D01*
X10538397Y-13992964D02*
X10519349Y-14002488D01*
X10519349Y-14002488D02*
X10509826Y-14012011D01*
X10509826Y-14012011D02*
X10500302Y-14031059D01*
X10500302Y-14031059D02*
X10500302Y-14078678D01*
X10500302Y-14078678D02*
X10509826Y-14097726D01*
X10509826Y-14097726D02*
X10519349Y-14107249D01*
X10519349Y-14107249D02*
X10538397Y-14116773D01*
X10538397Y-14116773D02*
X10576492Y-14116773D01*
X10576492Y-14116773D02*
X10595540Y-14107249D01*
X10595540Y-14107249D02*
X10605064Y-14097726D01*
X10605064Y-14097726D02*
X10614588Y-14078678D01*
X10681254Y-13992964D02*
X10814588Y-13992964D01*
X10814588Y-13992964D02*
X10728873Y-14192964D01*
X10881254Y-13992964D02*
X10881254Y-14031059D01*
X10957445Y-13992964D02*
X10957445Y-14031059D01*
X11252683Y-14269154D02*
X11243159Y-14259630D01*
X11243159Y-14259630D02*
X11224111Y-14231059D01*
X11224111Y-14231059D02*
X11214588Y-14212011D01*
X11214588Y-14212011D02*
X11205064Y-14183440D01*
X11205064Y-14183440D02*
X11195540Y-14135821D01*
X11195540Y-14135821D02*
X11195540Y-14097726D01*
X11195540Y-14097726D02*
X11205064Y-14050107D01*
X11205064Y-14050107D02*
X11214588Y-14021535D01*
X11214588Y-14021535D02*
X11224111Y-14002488D01*
X11224111Y-14002488D02*
X11243159Y-13973916D01*
X11243159Y-13973916D02*
X11252683Y-13964392D01*
X11309826Y-13992964D02*
X11433635Y-13992964D01*
X11433635Y-13992964D02*
X11366968Y-14069154D01*
X11366968Y-14069154D02*
X11395540Y-14069154D01*
X11395540Y-14069154D02*
X11414588Y-14078678D01*
X11414588Y-14078678D02*
X11424111Y-14088202D01*
X11424111Y-14088202D02*
X11433635Y-14107249D01*
X11433635Y-14107249D02*
X11433635Y-14154868D01*
X11433635Y-14154868D02*
X11424111Y-14173916D01*
X11424111Y-14173916D02*
X11414588Y-14183440D01*
X11414588Y-14183440D02*
X11395540Y-14192964D01*
X11395540Y-14192964D02*
X11338397Y-14192964D01*
X11338397Y-14192964D02*
X11319349Y-14183440D01*
X11319349Y-14183440D02*
X11309826Y-14173916D01*
X11528873Y-14192964D02*
X11566968Y-14192964D01*
X11566968Y-14192964D02*
X11586016Y-14183440D01*
X11586016Y-14183440D02*
X11595540Y-14173916D01*
X11595540Y-14173916D02*
X11614588Y-14145345D01*
X11614588Y-14145345D02*
X11624111Y-14107249D01*
X11624111Y-14107249D02*
X11624111Y-14031059D01*
X11624111Y-14031059D02*
X11614588Y-14012011D01*
X11614588Y-14012011D02*
X11605064Y-14002488D01*
X11605064Y-14002488D02*
X11586016Y-13992964D01*
X11586016Y-13992964D02*
X11547921Y-13992964D01*
X11547921Y-13992964D02*
X11528873Y-14002488D01*
X11528873Y-14002488D02*
X11519349Y-14012011D01*
X11519349Y-14012011D02*
X11509826Y-14031059D01*
X11509826Y-14031059D02*
X11509826Y-14078678D01*
X11509826Y-14078678D02*
X11519349Y-14097726D01*
X11519349Y-14097726D02*
X11528873Y-14107249D01*
X11528873Y-14107249D02*
X11547921Y-14116773D01*
X11547921Y-14116773D02*
X11586016Y-14116773D01*
X11586016Y-14116773D02*
X11605064Y-14107249D01*
X11605064Y-14107249D02*
X11614588Y-14097726D01*
X11614588Y-14097726D02*
X11624111Y-14078678D01*
X11862207Y-14192964D02*
X11862207Y-13992964D01*
X11947921Y-14192964D02*
X11947921Y-14088202D01*
X11947921Y-14088202D02*
X11938397Y-14069154D01*
X11938397Y-14069154D02*
X11919350Y-14059630D01*
X11919350Y-14059630D02*
X11890778Y-14059630D01*
X11890778Y-14059630D02*
X11871730Y-14069154D01*
X11871730Y-14069154D02*
X11862207Y-14078678D01*
X12071730Y-14192964D02*
X12052683Y-14183440D01*
X12052683Y-14183440D02*
X12043159Y-14173916D01*
X12043159Y-14173916D02*
X12033635Y-14154868D01*
X12033635Y-14154868D02*
X12033635Y-14097726D01*
X12033635Y-14097726D02*
X12043159Y-14078678D01*
X12043159Y-14078678D02*
X12052683Y-14069154D01*
X12052683Y-14069154D02*
X12071730Y-14059630D01*
X12071730Y-14059630D02*
X12100302Y-14059630D01*
X12100302Y-14059630D02*
X12119350Y-14069154D01*
X12119350Y-14069154D02*
X12128873Y-14078678D01*
X12128873Y-14078678D02*
X12138397Y-14097726D01*
X12138397Y-14097726D02*
X12138397Y-14154868D01*
X12138397Y-14154868D02*
X12128873Y-14173916D01*
X12128873Y-14173916D02*
X12119350Y-14183440D01*
X12119350Y-14183440D02*
X12100302Y-14192964D01*
X12100302Y-14192964D02*
X12071730Y-14192964D01*
X12252683Y-14192964D02*
X12233635Y-14183440D01*
X12233635Y-14183440D02*
X12224111Y-14164392D01*
X12224111Y-14164392D02*
X12224111Y-13992964D01*
X12405064Y-14183440D02*
X12386016Y-14192964D01*
X12386016Y-14192964D02*
X12347921Y-14192964D01*
X12347921Y-14192964D02*
X12328873Y-14183440D01*
X12328873Y-14183440D02*
X12319350Y-14164392D01*
X12319350Y-14164392D02*
X12319350Y-14088202D01*
X12319350Y-14088202D02*
X12328873Y-14069154D01*
X12328873Y-14069154D02*
X12347921Y-14059630D01*
X12347921Y-14059630D02*
X12386016Y-14059630D01*
X12386016Y-14059630D02*
X12405064Y-14069154D01*
X12405064Y-14069154D02*
X12414588Y-14088202D01*
X12414588Y-14088202D02*
X12414588Y-14107249D01*
X12414588Y-14107249D02*
X12319350Y-14126297D01*
X12490778Y-14183440D02*
X12509826Y-14192964D01*
X12509826Y-14192964D02*
X12547921Y-14192964D01*
X12547921Y-14192964D02*
X12566969Y-14183440D01*
X12566969Y-14183440D02*
X12576492Y-14164392D01*
X12576492Y-14164392D02*
X12576492Y-14154868D01*
X12576492Y-14154868D02*
X12566969Y-14135821D01*
X12566969Y-14135821D02*
X12547921Y-14126297D01*
X12547921Y-14126297D02*
X12519350Y-14126297D01*
X12519350Y-14126297D02*
X12500302Y-14116773D01*
X12500302Y-14116773D02*
X12490778Y-14097726D01*
X12490778Y-14097726D02*
X12490778Y-14088202D01*
X12490778Y-14088202D02*
X12500302Y-14069154D01*
X12500302Y-14069154D02*
X12519350Y-14059630D01*
X12519350Y-14059630D02*
X12547921Y-14059630D01*
X12547921Y-14059630D02*
X12566969Y-14069154D01*
X12814588Y-14116773D02*
X12966969Y-14116773D01*
X12890778Y-14192964D02*
X12890778Y-14040583D01*
X13300302Y-13992964D02*
X13262207Y-13992964D01*
X13262207Y-13992964D02*
X13243159Y-14002488D01*
X13243159Y-14002488D02*
X13233635Y-14012011D01*
X13233635Y-14012011D02*
X13214588Y-14040583D01*
X13214588Y-14040583D02*
X13205064Y-14078678D01*
X13205064Y-14078678D02*
X13205064Y-14154868D01*
X13205064Y-14154868D02*
X13214588Y-14173916D01*
X13214588Y-14173916D02*
X13224112Y-14183440D01*
X13224112Y-14183440D02*
X13243159Y-14192964D01*
X13243159Y-14192964D02*
X13281254Y-14192964D01*
X13281254Y-14192964D02*
X13300302Y-14183440D01*
X13300302Y-14183440D02*
X13309826Y-14173916D01*
X13309826Y-14173916D02*
X13319350Y-14154868D01*
X13319350Y-14154868D02*
X13319350Y-14107249D01*
X13319350Y-14107249D02*
X13309826Y-14088202D01*
X13309826Y-14088202D02*
X13300302Y-14078678D01*
X13300302Y-14078678D02*
X13281254Y-14069154D01*
X13281254Y-14069154D02*
X13243159Y-14069154D01*
X13243159Y-14069154D02*
X13224112Y-14078678D01*
X13224112Y-14078678D02*
X13214588Y-14088202D01*
X13214588Y-14088202D02*
X13205064Y-14107249D01*
X13547921Y-14183440D02*
X13566969Y-14192964D01*
X13566969Y-14192964D02*
X13605064Y-14192964D01*
X13605064Y-14192964D02*
X13624112Y-14183440D01*
X13624112Y-14183440D02*
X13633635Y-14164392D01*
X13633635Y-14164392D02*
X13633635Y-14154868D01*
X13633635Y-14154868D02*
X13624112Y-14135821D01*
X13624112Y-14135821D02*
X13605064Y-14126297D01*
X13605064Y-14126297D02*
X13576493Y-14126297D01*
X13576493Y-14126297D02*
X13557445Y-14116773D01*
X13557445Y-14116773D02*
X13547921Y-14097726D01*
X13547921Y-14097726D02*
X13547921Y-14088202D01*
X13547921Y-14088202D02*
X13557445Y-14069154D01*
X13557445Y-14069154D02*
X13576493Y-14059630D01*
X13576493Y-14059630D02*
X13605064Y-14059630D01*
X13605064Y-14059630D02*
X13624112Y-14069154D01*
X13747921Y-14192964D02*
X13728874Y-14183440D01*
X13728874Y-14183440D02*
X13719350Y-14164392D01*
X13719350Y-14164392D02*
X13719350Y-13992964D01*
X13852683Y-14192964D02*
X13833635Y-14183440D01*
X13833635Y-14183440D02*
X13824112Y-14173916D01*
X13824112Y-14173916D02*
X13814588Y-14154868D01*
X13814588Y-14154868D02*
X13814588Y-14097726D01*
X13814588Y-14097726D02*
X13824112Y-14078678D01*
X13824112Y-14078678D02*
X13833635Y-14069154D01*
X13833635Y-14069154D02*
X13852683Y-14059630D01*
X13852683Y-14059630D02*
X13881255Y-14059630D01*
X13881255Y-14059630D02*
X13900302Y-14069154D01*
X13900302Y-14069154D02*
X13909826Y-14078678D01*
X13909826Y-14078678D02*
X13919350Y-14097726D01*
X13919350Y-14097726D02*
X13919350Y-14154868D01*
X13919350Y-14154868D02*
X13909826Y-14173916D01*
X13909826Y-14173916D02*
X13900302Y-14183440D01*
X13900302Y-14183440D02*
X13881255Y-14192964D01*
X13881255Y-14192964D02*
X13852683Y-14192964D01*
X13976493Y-14059630D02*
X14052683Y-14059630D01*
X14005064Y-13992964D02*
X14005064Y-14164392D01*
X14005064Y-14164392D02*
X14014588Y-14183440D01*
X14014588Y-14183440D02*
X14033635Y-14192964D01*
X14033635Y-14192964D02*
X14052683Y-14192964D01*
X14109826Y-14183440D02*
X14128874Y-14192964D01*
X14128874Y-14192964D02*
X14166969Y-14192964D01*
X14166969Y-14192964D02*
X14186016Y-14183440D01*
X14186016Y-14183440D02*
X14195540Y-14164392D01*
X14195540Y-14164392D02*
X14195540Y-14154868D01*
X14195540Y-14154868D02*
X14186016Y-14135821D01*
X14186016Y-14135821D02*
X14166969Y-14126297D01*
X14166969Y-14126297D02*
X14138397Y-14126297D01*
X14138397Y-14126297D02*
X14119350Y-14116773D01*
X14119350Y-14116773D02*
X14109826Y-14097726D01*
X14109826Y-14097726D02*
X14109826Y-14088202D01*
X14109826Y-14088202D02*
X14119350Y-14069154D01*
X14119350Y-14069154D02*
X14138397Y-14059630D01*
X14138397Y-14059630D02*
X14166969Y-14059630D01*
X14166969Y-14059630D02*
X14186016Y-14069154D01*
X14262207Y-14269154D02*
X14271731Y-14259630D01*
X14271731Y-14259630D02*
X14290778Y-14231059D01*
X14290778Y-14231059D02*
X14300302Y-14212011D01*
X14300302Y-14212011D02*
X14309826Y-14183440D01*
X14309826Y-14183440D02*
X14319350Y-14135821D01*
X14319350Y-14135821D02*
X14319350Y-14097726D01*
X14319350Y-14097726D02*
X14309826Y-14050107D01*
X14309826Y-14050107D02*
X14300302Y-14021535D01*
X14300302Y-14021535D02*
X14290778Y-14002488D01*
X14290778Y-14002488D02*
X14271731Y-13973916D01*
X14271731Y-13973916D02*
X14262207Y-13964392D01*
D15*
X7627620Y-14415480D02*
X7677620Y-14365480D01*
X7627620Y-14315480D01*
X7577620Y-14365480D01*
X7627620Y-14415480D01*
D11*
X8043159Y-14456964D02*
X7928873Y-14456964D01*
X7986016Y-14456964D02*
X7986016Y-14256964D01*
X7986016Y-14256964D02*
X7966968Y-14285535D01*
X7966968Y-14285535D02*
X7947921Y-14304583D01*
X7947921Y-14304583D02*
X7928873Y-14314107D01*
X8128873Y-14437916D02*
X8138397Y-14447440D01*
X8138397Y-14447440D02*
X8128873Y-14456964D01*
X8128873Y-14456964D02*
X8119349Y-14447440D01*
X8119349Y-14447440D02*
X8128873Y-14437916D01*
X8128873Y-14437916D02*
X8128873Y-14456964D01*
X8262206Y-14256964D02*
X8281254Y-14256964D01*
X8281254Y-14256964D02*
X8300302Y-14266488D01*
X8300302Y-14266488D02*
X8309825Y-14276011D01*
X8309825Y-14276011D02*
X8319349Y-14295059D01*
X8319349Y-14295059D02*
X8328873Y-14333154D01*
X8328873Y-14333154D02*
X8328873Y-14380773D01*
X8328873Y-14380773D02*
X8319349Y-14418868D01*
X8319349Y-14418868D02*
X8309825Y-14437916D01*
X8309825Y-14437916D02*
X8300302Y-14447440D01*
X8300302Y-14447440D02*
X8281254Y-14456964D01*
X8281254Y-14456964D02*
X8262206Y-14456964D01*
X8262206Y-14456964D02*
X8243159Y-14447440D01*
X8243159Y-14447440D02*
X8233635Y-14437916D01*
X8233635Y-14437916D02*
X8224111Y-14418868D01*
X8224111Y-14418868D02*
X8214587Y-14380773D01*
X8214587Y-14380773D02*
X8214587Y-14333154D01*
X8214587Y-14333154D02*
X8224111Y-14295059D01*
X8224111Y-14295059D02*
X8233635Y-14276011D01*
X8233635Y-14276011D02*
X8243159Y-14266488D01*
X8243159Y-14266488D02*
X8262206Y-14256964D01*
X8452683Y-14256964D02*
X8471730Y-14256964D01*
X8471730Y-14256964D02*
X8490778Y-14266488D01*
X8490778Y-14266488D02*
X8500302Y-14276011D01*
X8500302Y-14276011D02*
X8509825Y-14295059D01*
X8509825Y-14295059D02*
X8519349Y-14333154D01*
X8519349Y-14333154D02*
X8519349Y-14380773D01*
X8519349Y-14380773D02*
X8509825Y-14418868D01*
X8509825Y-14418868D02*
X8500302Y-14437916D01*
X8500302Y-14437916D02*
X8490778Y-14447440D01*
X8490778Y-14447440D02*
X8471730Y-14456964D01*
X8471730Y-14456964D02*
X8452683Y-14456964D01*
X8452683Y-14456964D02*
X8433635Y-14447440D01*
X8433635Y-14447440D02*
X8424111Y-14437916D01*
X8424111Y-14437916D02*
X8414587Y-14418868D01*
X8414587Y-14418868D02*
X8405064Y-14380773D01*
X8405064Y-14380773D02*
X8405064Y-14333154D01*
X8405064Y-14333154D02*
X8414587Y-14295059D01*
X8414587Y-14295059D02*
X8424111Y-14276011D01*
X8424111Y-14276011D02*
X8433635Y-14266488D01*
X8433635Y-14266488D02*
X8452683Y-14256964D01*
X8643159Y-14256964D02*
X8662206Y-14256964D01*
X8662206Y-14256964D02*
X8681254Y-14266488D01*
X8681254Y-14266488D02*
X8690778Y-14276011D01*
X8690778Y-14276011D02*
X8700302Y-14295059D01*
X8700302Y-14295059D02*
X8709825Y-14333154D01*
X8709825Y-14333154D02*
X8709825Y-14380773D01*
X8709825Y-14380773D02*
X8700302Y-14418868D01*
X8700302Y-14418868D02*
X8690778Y-14437916D01*
X8690778Y-14437916D02*
X8681254Y-14447440D01*
X8681254Y-14447440D02*
X8662206Y-14456964D01*
X8662206Y-14456964D02*
X8643159Y-14456964D01*
X8643159Y-14456964D02*
X8624111Y-14447440D01*
X8624111Y-14447440D02*
X8614587Y-14437916D01*
X8614587Y-14437916D02*
X8605064Y-14418868D01*
X8605064Y-14418868D02*
X8595540Y-14380773D01*
X8595540Y-14380773D02*
X8595540Y-14333154D01*
X8595540Y-14333154D02*
X8605064Y-14295059D01*
X8605064Y-14295059D02*
X8614587Y-14276011D01*
X8614587Y-14276011D02*
X8624111Y-14266488D01*
X8624111Y-14266488D02*
X8643159Y-14256964D01*
X8795540Y-14456964D02*
X8795540Y-14323630D01*
X8795540Y-14342678D02*
X8805064Y-14333154D01*
X8805064Y-14333154D02*
X8824111Y-14323630D01*
X8824111Y-14323630D02*
X8852683Y-14323630D01*
X8852683Y-14323630D02*
X8871730Y-14333154D01*
X8871730Y-14333154D02*
X8881254Y-14352202D01*
X8881254Y-14352202D02*
X8881254Y-14456964D01*
X8881254Y-14352202D02*
X8890778Y-14333154D01*
X8890778Y-14333154D02*
X8909825Y-14323630D01*
X8909825Y-14323630D02*
X8938397Y-14323630D01*
X8938397Y-14323630D02*
X8957445Y-14333154D01*
X8957445Y-14333154D02*
X8966968Y-14352202D01*
X8966968Y-14352202D02*
X8966968Y-14456964D01*
X9062206Y-14456964D02*
X9062206Y-14323630D01*
X9062206Y-14342678D02*
X9071730Y-14333154D01*
X9071730Y-14333154D02*
X9090778Y-14323630D01*
X9090778Y-14323630D02*
X9119349Y-14323630D01*
X9119349Y-14323630D02*
X9138397Y-14333154D01*
X9138397Y-14333154D02*
X9147921Y-14352202D01*
X9147921Y-14352202D02*
X9147921Y-14456964D01*
X9147921Y-14352202D02*
X9157445Y-14333154D01*
X9157445Y-14333154D02*
X9176492Y-14323630D01*
X9176492Y-14323630D02*
X9205064Y-14323630D01*
X9205064Y-14323630D02*
X9224111Y-14333154D01*
X9224111Y-14333154D02*
X9233635Y-14352202D01*
X9233635Y-14352202D02*
X9233635Y-14456964D01*
X9624111Y-14247440D02*
X9452683Y-14504583D01*
X9881254Y-14256964D02*
X9900302Y-14256964D01*
X9900302Y-14256964D02*
X9919349Y-14266488D01*
X9919349Y-14266488D02*
X9928873Y-14276011D01*
X9928873Y-14276011D02*
X9938397Y-14295059D01*
X9938397Y-14295059D02*
X9947921Y-14333154D01*
X9947921Y-14333154D02*
X9947921Y-14380773D01*
X9947921Y-14380773D02*
X9938397Y-14418868D01*
X9938397Y-14418868D02*
X9928873Y-14437916D01*
X9928873Y-14437916D02*
X9919349Y-14447440D01*
X9919349Y-14447440D02*
X9900302Y-14456964D01*
X9900302Y-14456964D02*
X9881254Y-14456964D01*
X9881254Y-14456964D02*
X9862207Y-14447440D01*
X9862207Y-14447440D02*
X9852683Y-14437916D01*
X9852683Y-14437916D02*
X9843159Y-14418868D01*
X9843159Y-14418868D02*
X9833635Y-14380773D01*
X9833635Y-14380773D02*
X9833635Y-14333154D01*
X9833635Y-14333154D02*
X9843159Y-14295059D01*
X9843159Y-14295059D02*
X9852683Y-14276011D01*
X9852683Y-14276011D02*
X9862207Y-14266488D01*
X9862207Y-14266488D02*
X9881254Y-14256964D01*
X10033635Y-14437916D02*
X10043159Y-14447440D01*
X10043159Y-14447440D02*
X10033635Y-14456964D01*
X10033635Y-14456964D02*
X10024111Y-14447440D01*
X10024111Y-14447440D02*
X10033635Y-14437916D01*
X10033635Y-14437916D02*
X10033635Y-14456964D01*
X10166968Y-14256964D02*
X10186016Y-14256964D01*
X10186016Y-14256964D02*
X10205064Y-14266488D01*
X10205064Y-14266488D02*
X10214588Y-14276011D01*
X10214588Y-14276011D02*
X10224111Y-14295059D01*
X10224111Y-14295059D02*
X10233635Y-14333154D01*
X10233635Y-14333154D02*
X10233635Y-14380773D01*
X10233635Y-14380773D02*
X10224111Y-14418868D01*
X10224111Y-14418868D02*
X10214588Y-14437916D01*
X10214588Y-14437916D02*
X10205064Y-14447440D01*
X10205064Y-14447440D02*
X10186016Y-14456964D01*
X10186016Y-14456964D02*
X10166968Y-14456964D01*
X10166968Y-14456964D02*
X10147921Y-14447440D01*
X10147921Y-14447440D02*
X10138397Y-14437916D01*
X10138397Y-14437916D02*
X10128873Y-14418868D01*
X10128873Y-14418868D02*
X10119349Y-14380773D01*
X10119349Y-14380773D02*
X10119349Y-14333154D01*
X10119349Y-14333154D02*
X10128873Y-14295059D01*
X10128873Y-14295059D02*
X10138397Y-14276011D01*
X10138397Y-14276011D02*
X10147921Y-14266488D01*
X10147921Y-14266488D02*
X10166968Y-14256964D01*
X10300302Y-14256964D02*
X10424111Y-14256964D01*
X10424111Y-14256964D02*
X10357445Y-14333154D01*
X10357445Y-14333154D02*
X10386016Y-14333154D01*
X10386016Y-14333154D02*
X10405064Y-14342678D01*
X10405064Y-14342678D02*
X10414588Y-14352202D01*
X10414588Y-14352202D02*
X10424111Y-14371249D01*
X10424111Y-14371249D02*
X10424111Y-14418868D01*
X10424111Y-14418868D02*
X10414588Y-14437916D01*
X10414588Y-14437916D02*
X10405064Y-14447440D01*
X10405064Y-14447440D02*
X10386016Y-14456964D01*
X10386016Y-14456964D02*
X10328873Y-14456964D01*
X10328873Y-14456964D02*
X10309826Y-14447440D01*
X10309826Y-14447440D02*
X10300302Y-14437916D01*
X10519349Y-14456964D02*
X10557445Y-14456964D01*
X10557445Y-14456964D02*
X10576492Y-14447440D01*
X10576492Y-14447440D02*
X10586016Y-14437916D01*
X10586016Y-14437916D02*
X10605064Y-14409345D01*
X10605064Y-14409345D02*
X10614588Y-14371249D01*
X10614588Y-14371249D02*
X10614588Y-14295059D01*
X10614588Y-14295059D02*
X10605064Y-14276011D01*
X10605064Y-14276011D02*
X10595540Y-14266488D01*
X10595540Y-14266488D02*
X10576492Y-14256964D01*
X10576492Y-14256964D02*
X10538397Y-14256964D01*
X10538397Y-14256964D02*
X10519349Y-14266488D01*
X10519349Y-14266488D02*
X10509826Y-14276011D01*
X10509826Y-14276011D02*
X10500302Y-14295059D01*
X10500302Y-14295059D02*
X10500302Y-14342678D01*
X10500302Y-14342678D02*
X10509826Y-14361726D01*
X10509826Y-14361726D02*
X10519349Y-14371249D01*
X10519349Y-14371249D02*
X10538397Y-14380773D01*
X10538397Y-14380773D02*
X10576492Y-14380773D01*
X10576492Y-14380773D02*
X10595540Y-14371249D01*
X10595540Y-14371249D02*
X10605064Y-14361726D01*
X10605064Y-14361726D02*
X10614588Y-14342678D01*
X10786016Y-14323630D02*
X10786016Y-14456964D01*
X10738397Y-14247440D02*
X10690778Y-14390297D01*
X10690778Y-14390297D02*
X10814588Y-14390297D01*
X10881254Y-14256964D02*
X10881254Y-14295059D01*
X10957445Y-14256964D02*
X10957445Y-14295059D01*
X11252683Y-14533154D02*
X11243159Y-14523630D01*
X11243159Y-14523630D02*
X11224111Y-14495059D01*
X11224111Y-14495059D02*
X11214588Y-14476011D01*
X11214588Y-14476011D02*
X11205064Y-14447440D01*
X11205064Y-14447440D02*
X11195540Y-14399821D01*
X11195540Y-14399821D02*
X11195540Y-14361726D01*
X11195540Y-14361726D02*
X11205064Y-14314107D01*
X11205064Y-14314107D02*
X11214588Y-14285535D01*
X11214588Y-14285535D02*
X11224111Y-14266488D01*
X11224111Y-14266488D02*
X11243159Y-14237916D01*
X11243159Y-14237916D02*
X11252683Y-14228392D01*
X11414588Y-14323630D02*
X11414588Y-14456964D01*
X11366968Y-14247440D02*
X11319349Y-14390297D01*
X11319349Y-14390297D02*
X11443159Y-14390297D01*
X11547921Y-14342678D02*
X11528873Y-14333154D01*
X11528873Y-14333154D02*
X11519349Y-14323630D01*
X11519349Y-14323630D02*
X11509826Y-14304583D01*
X11509826Y-14304583D02*
X11509826Y-14295059D01*
X11509826Y-14295059D02*
X11519349Y-14276011D01*
X11519349Y-14276011D02*
X11528873Y-14266488D01*
X11528873Y-14266488D02*
X11547921Y-14256964D01*
X11547921Y-14256964D02*
X11586016Y-14256964D01*
X11586016Y-14256964D02*
X11605064Y-14266488D01*
X11605064Y-14266488D02*
X11614588Y-14276011D01*
X11614588Y-14276011D02*
X11624111Y-14295059D01*
X11624111Y-14295059D02*
X11624111Y-14304583D01*
X11624111Y-14304583D02*
X11614588Y-14323630D01*
X11614588Y-14323630D02*
X11605064Y-14333154D01*
X11605064Y-14333154D02*
X11586016Y-14342678D01*
X11586016Y-14342678D02*
X11547921Y-14342678D01*
X11547921Y-14342678D02*
X11528873Y-14352202D01*
X11528873Y-14352202D02*
X11519349Y-14361726D01*
X11519349Y-14361726D02*
X11509826Y-14380773D01*
X11509826Y-14380773D02*
X11509826Y-14418868D01*
X11509826Y-14418868D02*
X11519349Y-14437916D01*
X11519349Y-14437916D02*
X11528873Y-14447440D01*
X11528873Y-14447440D02*
X11547921Y-14456964D01*
X11547921Y-14456964D02*
X11586016Y-14456964D01*
X11586016Y-14456964D02*
X11605064Y-14447440D01*
X11605064Y-14447440D02*
X11614588Y-14437916D01*
X11614588Y-14437916D02*
X11624111Y-14418868D01*
X11624111Y-14418868D02*
X11624111Y-14380773D01*
X11624111Y-14380773D02*
X11614588Y-14361726D01*
X11614588Y-14361726D02*
X11605064Y-14352202D01*
X11605064Y-14352202D02*
X11586016Y-14342678D01*
X11862207Y-14456964D02*
X11862207Y-14256964D01*
X11947921Y-14456964D02*
X11947921Y-14352202D01*
X11947921Y-14352202D02*
X11938397Y-14333154D01*
X11938397Y-14333154D02*
X11919350Y-14323630D01*
X11919350Y-14323630D02*
X11890778Y-14323630D01*
X11890778Y-14323630D02*
X11871730Y-14333154D01*
X11871730Y-14333154D02*
X11862207Y-14342678D01*
X12071730Y-14456964D02*
X12052683Y-14447440D01*
X12052683Y-14447440D02*
X12043159Y-14437916D01*
X12043159Y-14437916D02*
X12033635Y-14418868D01*
X12033635Y-14418868D02*
X12033635Y-14361726D01*
X12033635Y-14361726D02*
X12043159Y-14342678D01*
X12043159Y-14342678D02*
X12052683Y-14333154D01*
X12052683Y-14333154D02*
X12071730Y-14323630D01*
X12071730Y-14323630D02*
X12100302Y-14323630D01*
X12100302Y-14323630D02*
X12119350Y-14333154D01*
X12119350Y-14333154D02*
X12128873Y-14342678D01*
X12128873Y-14342678D02*
X12138397Y-14361726D01*
X12138397Y-14361726D02*
X12138397Y-14418868D01*
X12138397Y-14418868D02*
X12128873Y-14437916D01*
X12128873Y-14437916D02*
X12119350Y-14447440D01*
X12119350Y-14447440D02*
X12100302Y-14456964D01*
X12100302Y-14456964D02*
X12071730Y-14456964D01*
X12252683Y-14456964D02*
X12233635Y-14447440D01*
X12233635Y-14447440D02*
X12224111Y-14428392D01*
X12224111Y-14428392D02*
X12224111Y-14256964D01*
X12405064Y-14447440D02*
X12386016Y-14456964D01*
X12386016Y-14456964D02*
X12347921Y-14456964D01*
X12347921Y-14456964D02*
X12328873Y-14447440D01*
X12328873Y-14447440D02*
X12319350Y-14428392D01*
X12319350Y-14428392D02*
X12319350Y-14352202D01*
X12319350Y-14352202D02*
X12328873Y-14333154D01*
X12328873Y-14333154D02*
X12347921Y-14323630D01*
X12347921Y-14323630D02*
X12386016Y-14323630D01*
X12386016Y-14323630D02*
X12405064Y-14333154D01*
X12405064Y-14333154D02*
X12414588Y-14352202D01*
X12414588Y-14352202D02*
X12414588Y-14371249D01*
X12414588Y-14371249D02*
X12319350Y-14390297D01*
X12490778Y-14447440D02*
X12509826Y-14456964D01*
X12509826Y-14456964D02*
X12547921Y-14456964D01*
X12547921Y-14456964D02*
X12566969Y-14447440D01*
X12566969Y-14447440D02*
X12576492Y-14428392D01*
X12576492Y-14428392D02*
X12576492Y-14418868D01*
X12576492Y-14418868D02*
X12566969Y-14399821D01*
X12566969Y-14399821D02*
X12547921Y-14390297D01*
X12547921Y-14390297D02*
X12519350Y-14390297D01*
X12519350Y-14390297D02*
X12500302Y-14380773D01*
X12500302Y-14380773D02*
X12490778Y-14361726D01*
X12490778Y-14361726D02*
X12490778Y-14352202D01*
X12490778Y-14352202D02*
X12500302Y-14333154D01*
X12500302Y-14333154D02*
X12519350Y-14323630D01*
X12519350Y-14323630D02*
X12547921Y-14323630D01*
X12547921Y-14323630D02*
X12566969Y-14333154D01*
X12643159Y-14533154D02*
X12652683Y-14523630D01*
X12652683Y-14523630D02*
X12671731Y-14495059D01*
X12671731Y-14495059D02*
X12681254Y-14476011D01*
X12681254Y-14476011D02*
X12690778Y-14447440D01*
X12690778Y-14447440D02*
X12700302Y-14399821D01*
X12700302Y-14399821D02*
X12700302Y-14361726D01*
X12700302Y-14361726D02*
X12690778Y-14314107D01*
X12690778Y-14314107D02*
X12681254Y-14285535D01*
X12681254Y-14285535D02*
X12671731Y-14266488D01*
X12671731Y-14266488D02*
X12652683Y-14237916D01*
X12652683Y-14237916D02*
X12643159Y-14228392D01*
M02*
