G04 #@! TF.GenerationSoftware,KiCad,Pcbnew,7.0.8*
G04 #@! TF.CreationDate,2024-01-14T11:38:14+01:00*
G04 #@! TF.ProjectId,BeoMaster,42656f4d-6173-4746-9572-2e6b69636164,rev?*
G04 #@! TF.SameCoordinates,Original*
G04 #@! TF.FileFunction,Other,ECO1*
%FSLAX46Y46*%
G04 Gerber Fmt 4.6, Leading zero omitted, Abs format (unit mm)*
G04 Created by KiCad (PCBNEW 7.0.8) date 2024-01-14 11:38:14*
%MOMM*%
%LPD*%
G01*
G04 APERTURE LIST*
%ADD10C,0.150000*%
%ADD11C,0.010000*%
G04 APERTURE END LIST*
D10*
X86939160Y-118934104D02*
X87415350Y-118934104D01*
X86843922Y-119219819D02*
X87177255Y-118219819D01*
X87177255Y-118219819D02*
X87510588Y-119219819D01*
X87843922Y-119219819D02*
X87843922Y-118219819D01*
X87843922Y-118219819D02*
X88415350Y-119219819D01*
X88415350Y-119219819D02*
X88415350Y-118219819D01*
X88843922Y-118934104D02*
X89320112Y-118934104D01*
X88748684Y-119219819D02*
X89082017Y-118219819D01*
X89082017Y-118219819D02*
X89415350Y-119219819D01*
X90510589Y-119219819D02*
X90510589Y-118219819D01*
X90986779Y-119219819D02*
X90986779Y-118219819D01*
X90986779Y-118219819D02*
X91558207Y-119219819D01*
X91558207Y-119219819D02*
X91558207Y-118219819D01*
X149639160Y-93465057D02*
X149686779Y-93417438D01*
X149686779Y-93417438D02*
X149782017Y-93369819D01*
X149782017Y-93369819D02*
X150020112Y-93369819D01*
X150020112Y-93369819D02*
X150115350Y-93417438D01*
X150115350Y-93417438D02*
X150162969Y-93465057D01*
X150162969Y-93465057D02*
X150210588Y-93560295D01*
X150210588Y-93560295D02*
X150210588Y-93655533D01*
X150210588Y-93655533D02*
X150162969Y-93798390D01*
X150162969Y-93798390D02*
X149591541Y-94369819D01*
X149591541Y-94369819D02*
X150210588Y-94369819D01*
X151067731Y-93703152D02*
X151067731Y-94369819D01*
X150829636Y-93322200D02*
X150591541Y-94036485D01*
X150591541Y-94036485D02*
X151210588Y-94036485D01*
X151448684Y-93369819D02*
X151782017Y-94369819D01*
X151782017Y-94369819D02*
X152115350Y-93369819D01*
X153210589Y-94369819D02*
X153210589Y-93369819D01*
X153686779Y-94369819D02*
X153686779Y-93369819D01*
X153686779Y-93369819D02*
X154258207Y-94369819D01*
X154258207Y-94369819D02*
X154258207Y-93369819D01*
X202777960Y-119659400D02*
X202920817Y-119707019D01*
X202920817Y-119707019D02*
X203158912Y-119707019D01*
X203158912Y-119707019D02*
X203254150Y-119659400D01*
X203254150Y-119659400D02*
X203301769Y-119611780D01*
X203301769Y-119611780D02*
X203349388Y-119516542D01*
X203349388Y-119516542D02*
X203349388Y-119421304D01*
X203349388Y-119421304D02*
X203301769Y-119326066D01*
X203301769Y-119326066D02*
X203254150Y-119278447D01*
X203254150Y-119278447D02*
X203158912Y-119230828D01*
X203158912Y-119230828D02*
X202968436Y-119183209D01*
X202968436Y-119183209D02*
X202873198Y-119135590D01*
X202873198Y-119135590D02*
X202825579Y-119087971D01*
X202825579Y-119087971D02*
X202777960Y-118992733D01*
X202777960Y-118992733D02*
X202777960Y-118897495D01*
X202777960Y-118897495D02*
X202825579Y-118802257D01*
X202825579Y-118802257D02*
X202873198Y-118754638D01*
X202873198Y-118754638D02*
X202968436Y-118707019D01*
X202968436Y-118707019D02*
X203206531Y-118707019D01*
X203206531Y-118707019D02*
X203349388Y-118754638D01*
X203682722Y-118707019D02*
X203920817Y-119707019D01*
X203920817Y-119707019D02*
X204111293Y-118992733D01*
X204111293Y-118992733D02*
X204301769Y-119707019D01*
X204301769Y-119707019D02*
X204539865Y-118707019D01*
X204920817Y-119707019D02*
X204920817Y-118707019D01*
X204920817Y-118707019D02*
X205158912Y-118707019D01*
X205158912Y-118707019D02*
X205301769Y-118754638D01*
X205301769Y-118754638D02*
X205397007Y-118849876D01*
X205397007Y-118849876D02*
X205444626Y-118945114D01*
X205444626Y-118945114D02*
X205492245Y-119135590D01*
X205492245Y-119135590D02*
X205492245Y-119278447D01*
X205492245Y-119278447D02*
X205444626Y-119468923D01*
X205444626Y-119468923D02*
X205397007Y-119564161D01*
X205397007Y-119564161D02*
X205301769Y-119659400D01*
X205301769Y-119659400D02*
X205158912Y-119707019D01*
X205158912Y-119707019D02*
X204920817Y-119707019D01*
X99158207Y-89674580D02*
X99110588Y-89722200D01*
X99110588Y-89722200D02*
X98967731Y-89769819D01*
X98967731Y-89769819D02*
X98872493Y-89769819D01*
X98872493Y-89769819D02*
X98729636Y-89722200D01*
X98729636Y-89722200D02*
X98634398Y-89626961D01*
X98634398Y-89626961D02*
X98586779Y-89531723D01*
X98586779Y-89531723D02*
X98539160Y-89341247D01*
X98539160Y-89341247D02*
X98539160Y-89198390D01*
X98539160Y-89198390D02*
X98586779Y-89007914D01*
X98586779Y-89007914D02*
X98634398Y-88912676D01*
X98634398Y-88912676D02*
X98729636Y-88817438D01*
X98729636Y-88817438D02*
X98872493Y-88769819D01*
X98872493Y-88769819D02*
X98967731Y-88769819D01*
X98967731Y-88769819D02*
X99110588Y-88817438D01*
X99110588Y-88817438D02*
X99158207Y-88865057D01*
X99443922Y-88769819D02*
X100015350Y-88769819D01*
X99729636Y-89769819D02*
X99729636Y-88769819D01*
X100920112Y-89769819D02*
X100586779Y-89293628D01*
X100348684Y-89769819D02*
X100348684Y-88769819D01*
X100348684Y-88769819D02*
X100729636Y-88769819D01*
X100729636Y-88769819D02*
X100824874Y-88817438D01*
X100824874Y-88817438D02*
X100872493Y-88865057D01*
X100872493Y-88865057D02*
X100920112Y-88960295D01*
X100920112Y-88960295D02*
X100920112Y-89103152D01*
X100920112Y-89103152D02*
X100872493Y-89198390D01*
X100872493Y-89198390D02*
X100824874Y-89246009D01*
X100824874Y-89246009D02*
X100729636Y-89293628D01*
X100729636Y-89293628D02*
X100348684Y-89293628D01*
X101824874Y-89769819D02*
X101348684Y-89769819D01*
X101348684Y-89769819D02*
X101348684Y-88769819D01*
X102682017Y-89769819D02*
X102110589Y-89769819D01*
X102396303Y-89769819D02*
X102396303Y-88769819D01*
X102396303Y-88769819D02*
X102301065Y-88912676D01*
X102301065Y-88912676D02*
X102205827Y-89007914D01*
X102205827Y-89007914D02*
X102110589Y-89055533D01*
X88439160Y-89484104D02*
X88915350Y-89484104D01*
X88343922Y-89769819D02*
X88677255Y-88769819D01*
X88677255Y-88769819D02*
X89010588Y-89769819D01*
X89343922Y-89769819D02*
X89343922Y-88769819D01*
X89343922Y-88769819D02*
X89915350Y-89769819D01*
X89915350Y-89769819D02*
X89915350Y-88769819D01*
X90343922Y-89484104D02*
X90820112Y-89484104D01*
X90248684Y-89769819D02*
X90582017Y-88769819D01*
X90582017Y-88769819D02*
X90915350Y-89769819D01*
X92201065Y-88769819D02*
X92391541Y-88769819D01*
X92391541Y-88769819D02*
X92486779Y-88817438D01*
X92486779Y-88817438D02*
X92582017Y-88912676D01*
X92582017Y-88912676D02*
X92629636Y-89103152D01*
X92629636Y-89103152D02*
X92629636Y-89436485D01*
X92629636Y-89436485D02*
X92582017Y-89626961D01*
X92582017Y-89626961D02*
X92486779Y-89722200D01*
X92486779Y-89722200D02*
X92391541Y-89769819D01*
X92391541Y-89769819D02*
X92201065Y-89769819D01*
X92201065Y-89769819D02*
X92105827Y-89722200D01*
X92105827Y-89722200D02*
X92010589Y-89626961D01*
X92010589Y-89626961D02*
X91962970Y-89436485D01*
X91962970Y-89436485D02*
X91962970Y-89103152D01*
X91962970Y-89103152D02*
X92010589Y-88912676D01*
X92010589Y-88912676D02*
X92105827Y-88817438D01*
X92105827Y-88817438D02*
X92201065Y-88769819D01*
X93058208Y-88769819D02*
X93058208Y-89579342D01*
X93058208Y-89579342D02*
X93105827Y-89674580D01*
X93105827Y-89674580D02*
X93153446Y-89722200D01*
X93153446Y-89722200D02*
X93248684Y-89769819D01*
X93248684Y-89769819D02*
X93439160Y-89769819D01*
X93439160Y-89769819D02*
X93534398Y-89722200D01*
X93534398Y-89722200D02*
X93582017Y-89674580D01*
X93582017Y-89674580D02*
X93629636Y-89579342D01*
X93629636Y-89579342D02*
X93629636Y-88769819D01*
X93962970Y-88769819D02*
X94534398Y-88769819D01*
X94248684Y-89769819D02*
X94248684Y-88769819D01*
X164186779Y-119369819D02*
X164186779Y-120179342D01*
X164186779Y-120179342D02*
X164234398Y-120274580D01*
X164234398Y-120274580D02*
X164282017Y-120322200D01*
X164282017Y-120322200D02*
X164377255Y-120369819D01*
X164377255Y-120369819D02*
X164567731Y-120369819D01*
X164567731Y-120369819D02*
X164662969Y-120322200D01*
X164662969Y-120322200D02*
X164710588Y-120274580D01*
X164710588Y-120274580D02*
X164758207Y-120179342D01*
X164758207Y-120179342D02*
X164758207Y-119369819D01*
X165234398Y-120369819D02*
X165234398Y-119369819D01*
X165234398Y-119369819D02*
X165615350Y-119369819D01*
X165615350Y-119369819D02*
X165710588Y-119417438D01*
X165710588Y-119417438D02*
X165758207Y-119465057D01*
X165758207Y-119465057D02*
X165805826Y-119560295D01*
X165805826Y-119560295D02*
X165805826Y-119703152D01*
X165805826Y-119703152D02*
X165758207Y-119798390D01*
X165758207Y-119798390D02*
X165710588Y-119846009D01*
X165710588Y-119846009D02*
X165615350Y-119893628D01*
X165615350Y-119893628D02*
X165234398Y-119893628D01*
X166710588Y-120369819D02*
X166234398Y-120369819D01*
X166234398Y-120369819D02*
X166234398Y-119369819D01*
X167234398Y-119369819D02*
X167424874Y-119369819D01*
X167424874Y-119369819D02*
X167520112Y-119417438D01*
X167520112Y-119417438D02*
X167615350Y-119512676D01*
X167615350Y-119512676D02*
X167662969Y-119703152D01*
X167662969Y-119703152D02*
X167662969Y-120036485D01*
X167662969Y-120036485D02*
X167615350Y-120226961D01*
X167615350Y-120226961D02*
X167520112Y-120322200D01*
X167520112Y-120322200D02*
X167424874Y-120369819D01*
X167424874Y-120369819D02*
X167234398Y-120369819D01*
X167234398Y-120369819D02*
X167139160Y-120322200D01*
X167139160Y-120322200D02*
X167043922Y-120226961D01*
X167043922Y-120226961D02*
X166996303Y-120036485D01*
X166996303Y-120036485D02*
X166996303Y-119703152D01*
X166996303Y-119703152D02*
X167043922Y-119512676D01*
X167043922Y-119512676D02*
X167139160Y-119417438D01*
X167139160Y-119417438D02*
X167234398Y-119369819D01*
X168043922Y-120084104D02*
X168520112Y-120084104D01*
X167948684Y-120369819D02*
X168282017Y-119369819D01*
X168282017Y-119369819D02*
X168615350Y-120369819D01*
X168948684Y-120369819D02*
X168948684Y-119369819D01*
X168948684Y-119369819D02*
X169186779Y-119369819D01*
X169186779Y-119369819D02*
X169329636Y-119417438D01*
X169329636Y-119417438D02*
X169424874Y-119512676D01*
X169424874Y-119512676D02*
X169472493Y-119607914D01*
X169472493Y-119607914D02*
X169520112Y-119798390D01*
X169520112Y-119798390D02*
X169520112Y-119941247D01*
X169520112Y-119941247D02*
X169472493Y-120131723D01*
X169472493Y-120131723D02*
X169424874Y-120226961D01*
X169424874Y-120226961D02*
X169329636Y-120322200D01*
X169329636Y-120322200D02*
X169186779Y-120369819D01*
X169186779Y-120369819D02*
X168948684Y-120369819D01*
X172570112Y-124896009D02*
X172712969Y-124943628D01*
X172712969Y-124943628D02*
X172760588Y-124991247D01*
X172760588Y-124991247D02*
X172808207Y-125086485D01*
X172808207Y-125086485D02*
X172808207Y-125229342D01*
X172808207Y-125229342D02*
X172760588Y-125324580D01*
X172760588Y-125324580D02*
X172712969Y-125372200D01*
X172712969Y-125372200D02*
X172617731Y-125419819D01*
X172617731Y-125419819D02*
X172236779Y-125419819D01*
X172236779Y-125419819D02*
X172236779Y-124419819D01*
X172236779Y-124419819D02*
X172570112Y-124419819D01*
X172570112Y-124419819D02*
X172665350Y-124467438D01*
X172665350Y-124467438D02*
X172712969Y-124515057D01*
X172712969Y-124515057D02*
X172760588Y-124610295D01*
X172760588Y-124610295D02*
X172760588Y-124705533D01*
X172760588Y-124705533D02*
X172712969Y-124800771D01*
X172712969Y-124800771D02*
X172665350Y-124848390D01*
X172665350Y-124848390D02*
X172570112Y-124896009D01*
X172570112Y-124896009D02*
X172236779Y-124896009D01*
X173427255Y-124419819D02*
X173617731Y-124419819D01*
X173617731Y-124419819D02*
X173712969Y-124467438D01*
X173712969Y-124467438D02*
X173808207Y-124562676D01*
X173808207Y-124562676D02*
X173855826Y-124753152D01*
X173855826Y-124753152D02*
X173855826Y-125086485D01*
X173855826Y-125086485D02*
X173808207Y-125276961D01*
X173808207Y-125276961D02*
X173712969Y-125372200D01*
X173712969Y-125372200D02*
X173617731Y-125419819D01*
X173617731Y-125419819D02*
X173427255Y-125419819D01*
X173427255Y-125419819D02*
X173332017Y-125372200D01*
X173332017Y-125372200D02*
X173236779Y-125276961D01*
X173236779Y-125276961D02*
X173189160Y-125086485D01*
X173189160Y-125086485D02*
X173189160Y-124753152D01*
X173189160Y-124753152D02*
X173236779Y-124562676D01*
X173236779Y-124562676D02*
X173332017Y-124467438D01*
X173332017Y-124467438D02*
X173427255Y-124419819D01*
X174474874Y-124419819D02*
X174665350Y-124419819D01*
X174665350Y-124419819D02*
X174760588Y-124467438D01*
X174760588Y-124467438D02*
X174855826Y-124562676D01*
X174855826Y-124562676D02*
X174903445Y-124753152D01*
X174903445Y-124753152D02*
X174903445Y-125086485D01*
X174903445Y-125086485D02*
X174855826Y-125276961D01*
X174855826Y-125276961D02*
X174760588Y-125372200D01*
X174760588Y-125372200D02*
X174665350Y-125419819D01*
X174665350Y-125419819D02*
X174474874Y-125419819D01*
X174474874Y-125419819D02*
X174379636Y-125372200D01*
X174379636Y-125372200D02*
X174284398Y-125276961D01*
X174284398Y-125276961D02*
X174236779Y-125086485D01*
X174236779Y-125086485D02*
X174236779Y-124753152D01*
X174236779Y-124753152D02*
X174284398Y-124562676D01*
X174284398Y-124562676D02*
X174379636Y-124467438D01*
X174379636Y-124467438D02*
X174474874Y-124419819D01*
X175189160Y-124419819D02*
X175760588Y-124419819D01*
X175474874Y-125419819D02*
X175474874Y-124419819D01*
X184972200Y-122210839D02*
X185019819Y-122067982D01*
X185019819Y-122067982D02*
X185019819Y-121829887D01*
X185019819Y-121829887D02*
X184972200Y-121734649D01*
X184972200Y-121734649D02*
X184924580Y-121687030D01*
X184924580Y-121687030D02*
X184829342Y-121639411D01*
X184829342Y-121639411D02*
X184734104Y-121639411D01*
X184734104Y-121639411D02*
X184638866Y-121687030D01*
X184638866Y-121687030D02*
X184591247Y-121734649D01*
X184591247Y-121734649D02*
X184543628Y-121829887D01*
X184543628Y-121829887D02*
X184496009Y-122020363D01*
X184496009Y-122020363D02*
X184448390Y-122115601D01*
X184448390Y-122115601D02*
X184400771Y-122163220D01*
X184400771Y-122163220D02*
X184305533Y-122210839D01*
X184305533Y-122210839D02*
X184210295Y-122210839D01*
X184210295Y-122210839D02*
X184115057Y-122163220D01*
X184115057Y-122163220D02*
X184067438Y-122115601D01*
X184067438Y-122115601D02*
X184019819Y-122020363D01*
X184019819Y-122020363D02*
X184019819Y-121782268D01*
X184019819Y-121782268D02*
X184067438Y-121639411D01*
X185019819Y-121210839D02*
X184019819Y-121210839D01*
X184019819Y-121210839D02*
X184019819Y-120972744D01*
X184019819Y-120972744D02*
X184067438Y-120829887D01*
X184067438Y-120829887D02*
X184162676Y-120734649D01*
X184162676Y-120734649D02*
X184257914Y-120687030D01*
X184257914Y-120687030D02*
X184448390Y-120639411D01*
X184448390Y-120639411D02*
X184591247Y-120639411D01*
X184591247Y-120639411D02*
X184781723Y-120687030D01*
X184781723Y-120687030D02*
X184876961Y-120734649D01*
X184876961Y-120734649D02*
X184972200Y-120829887D01*
X184972200Y-120829887D02*
X185019819Y-120972744D01*
X185019819Y-120972744D02*
X185019819Y-121210839D01*
X184734104Y-120258458D02*
X184734104Y-119782268D01*
X185019819Y-120353696D02*
X184019819Y-120020363D01*
X184019819Y-120020363D02*
X185019819Y-119687030D01*
X170812969Y-89769819D02*
X170336779Y-89769819D01*
X170336779Y-89769819D02*
X170336779Y-88769819D01*
X171146303Y-89246009D02*
X171479636Y-89246009D01*
X171622493Y-89769819D02*
X171146303Y-89769819D01*
X171146303Y-89769819D02*
X171146303Y-88769819D01*
X171146303Y-88769819D02*
X171622493Y-88769819D01*
X172051065Y-89769819D02*
X172051065Y-88769819D01*
X172051065Y-88769819D02*
X172289160Y-88769819D01*
X172289160Y-88769819D02*
X172432017Y-88817438D01*
X172432017Y-88817438D02*
X172527255Y-88912676D01*
X172527255Y-88912676D02*
X172574874Y-89007914D01*
X172574874Y-89007914D02*
X172622493Y-89198390D01*
X172622493Y-89198390D02*
X172622493Y-89341247D01*
X172622493Y-89341247D02*
X172574874Y-89531723D01*
X172574874Y-89531723D02*
X172527255Y-89626961D01*
X172527255Y-89626961D02*
X172432017Y-89722200D01*
X172432017Y-89722200D02*
X172289160Y-89769819D01*
X172289160Y-89769819D02*
X172051065Y-89769819D01*
X174003446Y-88769819D02*
X174193922Y-88769819D01*
X174193922Y-88769819D02*
X174289160Y-88817438D01*
X174289160Y-88817438D02*
X174384398Y-88912676D01*
X174384398Y-88912676D02*
X174432017Y-89103152D01*
X174432017Y-89103152D02*
X174432017Y-89436485D01*
X174432017Y-89436485D02*
X174384398Y-89626961D01*
X174384398Y-89626961D02*
X174289160Y-89722200D01*
X174289160Y-89722200D02*
X174193922Y-89769819D01*
X174193922Y-89769819D02*
X174003446Y-89769819D01*
X174003446Y-89769819D02*
X173908208Y-89722200D01*
X173908208Y-89722200D02*
X173812970Y-89626961D01*
X173812970Y-89626961D02*
X173765351Y-89436485D01*
X173765351Y-89436485D02*
X173765351Y-89103152D01*
X173765351Y-89103152D02*
X173812970Y-88912676D01*
X173812970Y-88912676D02*
X173908208Y-88817438D01*
X173908208Y-88817438D02*
X174003446Y-88769819D01*
X174860589Y-88769819D02*
X174860589Y-89579342D01*
X174860589Y-89579342D02*
X174908208Y-89674580D01*
X174908208Y-89674580D02*
X174955827Y-89722200D01*
X174955827Y-89722200D02*
X175051065Y-89769819D01*
X175051065Y-89769819D02*
X175241541Y-89769819D01*
X175241541Y-89769819D02*
X175336779Y-89722200D01*
X175336779Y-89722200D02*
X175384398Y-89674580D01*
X175384398Y-89674580D02*
X175432017Y-89579342D01*
X175432017Y-89579342D02*
X175432017Y-88769819D01*
X175765351Y-88769819D02*
X176336779Y-88769819D01*
X176051065Y-89769819D02*
X176051065Y-88769819D01*
X189219819Y-121591792D02*
X188743628Y-121925125D01*
X189219819Y-122163220D02*
X188219819Y-122163220D01*
X188219819Y-122163220D02*
X188219819Y-121782268D01*
X188219819Y-121782268D02*
X188267438Y-121687030D01*
X188267438Y-121687030D02*
X188315057Y-121639411D01*
X188315057Y-121639411D02*
X188410295Y-121591792D01*
X188410295Y-121591792D02*
X188553152Y-121591792D01*
X188553152Y-121591792D02*
X188648390Y-121639411D01*
X188648390Y-121639411D02*
X188696009Y-121687030D01*
X188696009Y-121687030D02*
X188743628Y-121782268D01*
X188743628Y-121782268D02*
X188743628Y-122163220D01*
X189172200Y-121210839D02*
X189219819Y-121067982D01*
X189219819Y-121067982D02*
X189219819Y-120829887D01*
X189219819Y-120829887D02*
X189172200Y-120734649D01*
X189172200Y-120734649D02*
X189124580Y-120687030D01*
X189124580Y-120687030D02*
X189029342Y-120639411D01*
X189029342Y-120639411D02*
X188934104Y-120639411D01*
X188934104Y-120639411D02*
X188838866Y-120687030D01*
X188838866Y-120687030D02*
X188791247Y-120734649D01*
X188791247Y-120734649D02*
X188743628Y-120829887D01*
X188743628Y-120829887D02*
X188696009Y-121020363D01*
X188696009Y-121020363D02*
X188648390Y-121115601D01*
X188648390Y-121115601D02*
X188600771Y-121163220D01*
X188600771Y-121163220D02*
X188505533Y-121210839D01*
X188505533Y-121210839D02*
X188410295Y-121210839D01*
X188410295Y-121210839D02*
X188315057Y-121163220D01*
X188315057Y-121163220D02*
X188267438Y-121115601D01*
X188267438Y-121115601D02*
X188219819Y-121020363D01*
X188219819Y-121020363D02*
X188219819Y-120782268D01*
X188219819Y-120782268D02*
X188267438Y-120639411D01*
X188219819Y-120353696D02*
X188219819Y-119782268D01*
X189219819Y-120067982D02*
X188219819Y-120067982D01*
X186512969Y-88769819D02*
X186036779Y-88769819D01*
X186036779Y-88769819D02*
X185989160Y-89246009D01*
X185989160Y-89246009D02*
X186036779Y-89198390D01*
X186036779Y-89198390D02*
X186132017Y-89150771D01*
X186132017Y-89150771D02*
X186370112Y-89150771D01*
X186370112Y-89150771D02*
X186465350Y-89198390D01*
X186465350Y-89198390D02*
X186512969Y-89246009D01*
X186512969Y-89246009D02*
X186560588Y-89341247D01*
X186560588Y-89341247D02*
X186560588Y-89579342D01*
X186560588Y-89579342D02*
X186512969Y-89674580D01*
X186512969Y-89674580D02*
X186465350Y-89722200D01*
X186465350Y-89722200D02*
X186370112Y-89769819D01*
X186370112Y-89769819D02*
X186132017Y-89769819D01*
X186132017Y-89769819D02*
X186036779Y-89722200D01*
X186036779Y-89722200D02*
X185989160Y-89674580D01*
X186846303Y-88769819D02*
X187179636Y-89769819D01*
X187179636Y-89769819D02*
X187512969Y-88769819D01*
X188608208Y-89769819D02*
X188608208Y-88769819D01*
X189084398Y-89769819D02*
X189084398Y-88769819D01*
X189084398Y-88769819D02*
X189655826Y-89769819D01*
X189655826Y-89769819D02*
X189655826Y-88769819D01*
X198236779Y-119369819D02*
X198236779Y-118369819D01*
X198665350Y-118465057D02*
X198712969Y-118417438D01*
X198712969Y-118417438D02*
X198808207Y-118369819D01*
X198808207Y-118369819D02*
X199046302Y-118369819D01*
X199046302Y-118369819D02*
X199141540Y-118417438D01*
X199141540Y-118417438D02*
X199189159Y-118465057D01*
X199189159Y-118465057D02*
X199236778Y-118560295D01*
X199236778Y-118560295D02*
X199236778Y-118655533D01*
X199236778Y-118655533D02*
X199189159Y-118798390D01*
X199189159Y-118798390D02*
X198617731Y-119369819D01*
X198617731Y-119369819D02*
X199236778Y-119369819D01*
X200236778Y-119274580D02*
X200189159Y-119322200D01*
X200189159Y-119322200D02*
X200046302Y-119369819D01*
X200046302Y-119369819D02*
X199951064Y-119369819D01*
X199951064Y-119369819D02*
X199808207Y-119322200D01*
X199808207Y-119322200D02*
X199712969Y-119226961D01*
X199712969Y-119226961D02*
X199665350Y-119131723D01*
X199665350Y-119131723D02*
X199617731Y-118941247D01*
X199617731Y-118941247D02*
X199617731Y-118798390D01*
X199617731Y-118798390D02*
X199665350Y-118607914D01*
X199665350Y-118607914D02*
X199712969Y-118512676D01*
X199712969Y-118512676D02*
X199808207Y-118417438D01*
X199808207Y-118417438D02*
X199951064Y-118369819D01*
X199951064Y-118369819D02*
X200046302Y-118369819D01*
X200046302Y-118369819D02*
X200189159Y-118417438D01*
X200189159Y-118417438D02*
X200236778Y-118465057D01*
X187472200Y-122210839D02*
X187519819Y-122067982D01*
X187519819Y-122067982D02*
X187519819Y-121829887D01*
X187519819Y-121829887D02*
X187472200Y-121734649D01*
X187472200Y-121734649D02*
X187424580Y-121687030D01*
X187424580Y-121687030D02*
X187329342Y-121639411D01*
X187329342Y-121639411D02*
X187234104Y-121639411D01*
X187234104Y-121639411D02*
X187138866Y-121687030D01*
X187138866Y-121687030D02*
X187091247Y-121734649D01*
X187091247Y-121734649D02*
X187043628Y-121829887D01*
X187043628Y-121829887D02*
X186996009Y-122020363D01*
X186996009Y-122020363D02*
X186948390Y-122115601D01*
X186948390Y-122115601D02*
X186900771Y-122163220D01*
X186900771Y-122163220D02*
X186805533Y-122210839D01*
X186805533Y-122210839D02*
X186710295Y-122210839D01*
X186710295Y-122210839D02*
X186615057Y-122163220D01*
X186615057Y-122163220D02*
X186567438Y-122115601D01*
X186567438Y-122115601D02*
X186519819Y-122020363D01*
X186519819Y-122020363D02*
X186519819Y-121782268D01*
X186519819Y-121782268D02*
X186567438Y-121639411D01*
X187424580Y-120639411D02*
X187472200Y-120687030D01*
X187472200Y-120687030D02*
X187519819Y-120829887D01*
X187519819Y-120829887D02*
X187519819Y-120925125D01*
X187519819Y-120925125D02*
X187472200Y-121067982D01*
X187472200Y-121067982D02*
X187376961Y-121163220D01*
X187376961Y-121163220D02*
X187281723Y-121210839D01*
X187281723Y-121210839D02*
X187091247Y-121258458D01*
X187091247Y-121258458D02*
X186948390Y-121258458D01*
X186948390Y-121258458D02*
X186757914Y-121210839D01*
X186757914Y-121210839D02*
X186662676Y-121163220D01*
X186662676Y-121163220D02*
X186567438Y-121067982D01*
X186567438Y-121067982D02*
X186519819Y-120925125D01*
X186519819Y-120925125D02*
X186519819Y-120829887D01*
X186519819Y-120829887D02*
X186567438Y-120687030D01*
X186567438Y-120687030D02*
X186615057Y-120639411D01*
X187519819Y-119734649D02*
X187519819Y-120210839D01*
X187519819Y-120210839D02*
X186519819Y-120210839D01*
X121308207Y-89674580D02*
X121260588Y-89722200D01*
X121260588Y-89722200D02*
X121117731Y-89769819D01*
X121117731Y-89769819D02*
X121022493Y-89769819D01*
X121022493Y-89769819D02*
X120879636Y-89722200D01*
X120879636Y-89722200D02*
X120784398Y-89626961D01*
X120784398Y-89626961D02*
X120736779Y-89531723D01*
X120736779Y-89531723D02*
X120689160Y-89341247D01*
X120689160Y-89341247D02*
X120689160Y-89198390D01*
X120689160Y-89198390D02*
X120736779Y-89007914D01*
X120736779Y-89007914D02*
X120784398Y-88912676D01*
X120784398Y-88912676D02*
X120879636Y-88817438D01*
X120879636Y-88817438D02*
X121022493Y-88769819D01*
X121022493Y-88769819D02*
X121117731Y-88769819D01*
X121117731Y-88769819D02*
X121260588Y-88817438D01*
X121260588Y-88817438D02*
X121308207Y-88865057D01*
X121593922Y-88769819D02*
X122165350Y-88769819D01*
X121879636Y-89769819D02*
X121879636Y-88769819D01*
X123070112Y-89769819D02*
X122736779Y-89293628D01*
X122498684Y-89769819D02*
X122498684Y-88769819D01*
X122498684Y-88769819D02*
X122879636Y-88769819D01*
X122879636Y-88769819D02*
X122974874Y-88817438D01*
X122974874Y-88817438D02*
X123022493Y-88865057D01*
X123022493Y-88865057D02*
X123070112Y-88960295D01*
X123070112Y-88960295D02*
X123070112Y-89103152D01*
X123070112Y-89103152D02*
X123022493Y-89198390D01*
X123022493Y-89198390D02*
X122974874Y-89246009D01*
X122974874Y-89246009D02*
X122879636Y-89293628D01*
X122879636Y-89293628D02*
X122498684Y-89293628D01*
X123974874Y-89769819D02*
X123498684Y-89769819D01*
X123498684Y-89769819D02*
X123498684Y-88769819D01*
X124260589Y-88865057D02*
X124308208Y-88817438D01*
X124308208Y-88817438D02*
X124403446Y-88769819D01*
X124403446Y-88769819D02*
X124641541Y-88769819D01*
X124641541Y-88769819D02*
X124736779Y-88817438D01*
X124736779Y-88817438D02*
X124784398Y-88865057D01*
X124784398Y-88865057D02*
X124832017Y-88960295D01*
X124832017Y-88960295D02*
X124832017Y-89055533D01*
X124832017Y-89055533D02*
X124784398Y-89198390D01*
X124784398Y-89198390D02*
X124212970Y-89769819D01*
X124212970Y-89769819D02*
X124832017Y-89769819D01*
X191667438Y-121639411D02*
X191619819Y-121734649D01*
X191619819Y-121734649D02*
X191619819Y-121877506D01*
X191619819Y-121877506D02*
X191667438Y-122020363D01*
X191667438Y-122020363D02*
X191762676Y-122115601D01*
X191762676Y-122115601D02*
X191857914Y-122163220D01*
X191857914Y-122163220D02*
X192048390Y-122210839D01*
X192048390Y-122210839D02*
X192191247Y-122210839D01*
X192191247Y-122210839D02*
X192381723Y-122163220D01*
X192381723Y-122163220D02*
X192476961Y-122115601D01*
X192476961Y-122115601D02*
X192572200Y-122020363D01*
X192572200Y-122020363D02*
X192619819Y-121877506D01*
X192619819Y-121877506D02*
X192619819Y-121782268D01*
X192619819Y-121782268D02*
X192572200Y-121639411D01*
X192572200Y-121639411D02*
X192524580Y-121591792D01*
X192524580Y-121591792D02*
X192191247Y-121591792D01*
X192191247Y-121591792D02*
X192191247Y-121782268D01*
X192619819Y-121163220D02*
X191619819Y-121163220D01*
X191619819Y-121163220D02*
X192619819Y-120591792D01*
X192619819Y-120591792D02*
X191619819Y-120591792D01*
X192619819Y-120115601D02*
X191619819Y-120115601D01*
X191619819Y-120115601D02*
X191619819Y-119877506D01*
X191619819Y-119877506D02*
X191667438Y-119734649D01*
X191667438Y-119734649D02*
X191762676Y-119639411D01*
X191762676Y-119639411D02*
X191857914Y-119591792D01*
X191857914Y-119591792D02*
X192048390Y-119544173D01*
X192048390Y-119544173D02*
X192191247Y-119544173D01*
X192191247Y-119544173D02*
X192381723Y-119591792D01*
X192381723Y-119591792D02*
X192476961Y-119639411D01*
X192476961Y-119639411D02*
X192572200Y-119734649D01*
X192572200Y-119734649D02*
X192619819Y-119877506D01*
X192619819Y-119877506D02*
X192619819Y-120115601D01*
X109608207Y-121994819D02*
X109274874Y-121518628D01*
X109036779Y-121994819D02*
X109036779Y-120994819D01*
X109036779Y-120994819D02*
X109417731Y-120994819D01*
X109417731Y-120994819D02*
X109512969Y-121042438D01*
X109512969Y-121042438D02*
X109560588Y-121090057D01*
X109560588Y-121090057D02*
X109608207Y-121185295D01*
X109608207Y-121185295D02*
X109608207Y-121328152D01*
X109608207Y-121328152D02*
X109560588Y-121423390D01*
X109560588Y-121423390D02*
X109512969Y-121471009D01*
X109512969Y-121471009D02*
X109417731Y-121518628D01*
X109417731Y-121518628D02*
X109036779Y-121518628D01*
X109893922Y-120994819D02*
X110465350Y-120994819D01*
X110179636Y-121994819D02*
X110179636Y-120994819D01*
X111370112Y-121899580D02*
X111322493Y-121947200D01*
X111322493Y-121947200D02*
X111179636Y-121994819D01*
X111179636Y-121994819D02*
X111084398Y-121994819D01*
X111084398Y-121994819D02*
X110941541Y-121947200D01*
X110941541Y-121947200D02*
X110846303Y-121851961D01*
X110846303Y-121851961D02*
X110798684Y-121756723D01*
X110798684Y-121756723D02*
X110751065Y-121566247D01*
X110751065Y-121566247D02*
X110751065Y-121423390D01*
X110751065Y-121423390D02*
X110798684Y-121232914D01*
X110798684Y-121232914D02*
X110846303Y-121137676D01*
X110846303Y-121137676D02*
X110941541Y-121042438D01*
X110941541Y-121042438D02*
X111084398Y-120994819D01*
X111084398Y-120994819D02*
X111179636Y-120994819D01*
X111179636Y-120994819D02*
X111322493Y-121042438D01*
X111322493Y-121042438D02*
X111370112Y-121090057D01*
X111798684Y-120994819D02*
X111798684Y-121804342D01*
X111798684Y-121804342D02*
X111846303Y-121899580D01*
X111846303Y-121899580D02*
X111893922Y-121947200D01*
X111893922Y-121947200D02*
X111989160Y-121994819D01*
X111989160Y-121994819D02*
X112179636Y-121994819D01*
X112179636Y-121994819D02*
X112274874Y-121947200D01*
X112274874Y-121947200D02*
X112322493Y-121899580D01*
X112322493Y-121899580D02*
X112370112Y-121804342D01*
X112370112Y-121804342D02*
X112370112Y-120994819D01*
X112798684Y-121947200D02*
X112941541Y-121994819D01*
X112941541Y-121994819D02*
X113179636Y-121994819D01*
X113179636Y-121994819D02*
X113274874Y-121947200D01*
X113274874Y-121947200D02*
X113322493Y-121899580D01*
X113322493Y-121899580D02*
X113370112Y-121804342D01*
X113370112Y-121804342D02*
X113370112Y-121709104D01*
X113370112Y-121709104D02*
X113322493Y-121613866D01*
X113322493Y-121613866D02*
X113274874Y-121566247D01*
X113274874Y-121566247D02*
X113179636Y-121518628D01*
X113179636Y-121518628D02*
X112989160Y-121471009D01*
X112989160Y-121471009D02*
X112893922Y-121423390D01*
X112893922Y-121423390D02*
X112846303Y-121375771D01*
X112846303Y-121375771D02*
X112798684Y-121280533D01*
X112798684Y-121280533D02*
X112798684Y-121185295D01*
X112798684Y-121185295D02*
X112846303Y-121090057D01*
X112846303Y-121090057D02*
X112893922Y-121042438D01*
X112893922Y-121042438D02*
X112989160Y-120994819D01*
X112989160Y-120994819D02*
X113227255Y-120994819D01*
X113227255Y-120994819D02*
X113370112Y-121042438D01*
X113655827Y-120994819D02*
X114227255Y-120994819D01*
X113941541Y-121994819D02*
X113941541Y-120994819D01*
X114751065Y-120994819D02*
X114941541Y-120994819D01*
X114941541Y-120994819D02*
X115036779Y-121042438D01*
X115036779Y-121042438D02*
X115132017Y-121137676D01*
X115132017Y-121137676D02*
X115179636Y-121328152D01*
X115179636Y-121328152D02*
X115179636Y-121661485D01*
X115179636Y-121661485D02*
X115132017Y-121851961D01*
X115132017Y-121851961D02*
X115036779Y-121947200D01*
X115036779Y-121947200D02*
X114941541Y-121994819D01*
X114941541Y-121994819D02*
X114751065Y-121994819D01*
X114751065Y-121994819D02*
X114655827Y-121947200D01*
X114655827Y-121947200D02*
X114560589Y-121851961D01*
X114560589Y-121851961D02*
X114512970Y-121661485D01*
X114512970Y-121661485D02*
X114512970Y-121328152D01*
X114512970Y-121328152D02*
X114560589Y-121137676D01*
X114560589Y-121137676D02*
X114655827Y-121042438D01*
X114655827Y-121042438D02*
X114751065Y-120994819D01*
X115608208Y-121994819D02*
X115608208Y-120994819D01*
X115608208Y-120994819D02*
X115941541Y-121709104D01*
X115941541Y-121709104D02*
X116274874Y-120994819D01*
X116274874Y-120994819D02*
X116274874Y-121994819D01*
X116655827Y-120994819D02*
X117322493Y-120994819D01*
X117322493Y-120994819D02*
X116655827Y-121994819D01*
X116655827Y-121994819D02*
X117322493Y-121994819D01*
X109370112Y-123081009D02*
X109512969Y-123128628D01*
X109512969Y-123128628D02*
X109560588Y-123176247D01*
X109560588Y-123176247D02*
X109608207Y-123271485D01*
X109608207Y-123271485D02*
X109608207Y-123414342D01*
X109608207Y-123414342D02*
X109560588Y-123509580D01*
X109560588Y-123509580D02*
X109512969Y-123557200D01*
X109512969Y-123557200D02*
X109417731Y-123604819D01*
X109417731Y-123604819D02*
X109036779Y-123604819D01*
X109036779Y-123604819D02*
X109036779Y-122604819D01*
X109036779Y-122604819D02*
X109370112Y-122604819D01*
X109370112Y-122604819D02*
X109465350Y-122652438D01*
X109465350Y-122652438D02*
X109512969Y-122700057D01*
X109512969Y-122700057D02*
X109560588Y-122795295D01*
X109560588Y-122795295D02*
X109560588Y-122890533D01*
X109560588Y-122890533D02*
X109512969Y-122985771D01*
X109512969Y-122985771D02*
X109465350Y-123033390D01*
X109465350Y-123033390D02*
X109370112Y-123081009D01*
X109370112Y-123081009D02*
X109036779Y-123081009D01*
X110417731Y-123557200D02*
X110322493Y-123604819D01*
X110322493Y-123604819D02*
X110132017Y-123604819D01*
X110132017Y-123604819D02*
X110036779Y-123557200D01*
X110036779Y-123557200D02*
X109989160Y-123461961D01*
X109989160Y-123461961D02*
X109989160Y-123081009D01*
X109989160Y-123081009D02*
X110036779Y-122985771D01*
X110036779Y-122985771D02*
X110132017Y-122938152D01*
X110132017Y-122938152D02*
X110322493Y-122938152D01*
X110322493Y-122938152D02*
X110417731Y-122985771D01*
X110417731Y-122985771D02*
X110465350Y-123081009D01*
X110465350Y-123081009D02*
X110465350Y-123176247D01*
X110465350Y-123176247D02*
X109989160Y-123271485D01*
X111036779Y-123604819D02*
X110941541Y-123557200D01*
X110941541Y-123557200D02*
X110893922Y-123509580D01*
X110893922Y-123509580D02*
X110846303Y-123414342D01*
X110846303Y-123414342D02*
X110846303Y-123128628D01*
X110846303Y-123128628D02*
X110893922Y-123033390D01*
X110893922Y-123033390D02*
X110941541Y-122985771D01*
X110941541Y-122985771D02*
X111036779Y-122938152D01*
X111036779Y-122938152D02*
X111179636Y-122938152D01*
X111179636Y-122938152D02*
X111274874Y-122985771D01*
X111274874Y-122985771D02*
X111322493Y-123033390D01*
X111322493Y-123033390D02*
X111370112Y-123128628D01*
X111370112Y-123128628D02*
X111370112Y-123414342D01*
X111370112Y-123414342D02*
X111322493Y-123509580D01*
X111322493Y-123509580D02*
X111274874Y-123557200D01*
X111274874Y-123557200D02*
X111179636Y-123604819D01*
X111179636Y-123604819D02*
X111036779Y-123604819D01*
X111798684Y-123604819D02*
X111798684Y-122604819D01*
X111798684Y-122604819D02*
X112132017Y-123319104D01*
X112132017Y-123319104D02*
X112465350Y-122604819D01*
X112465350Y-122604819D02*
X112465350Y-123604819D01*
X113370112Y-123604819D02*
X113370112Y-123081009D01*
X113370112Y-123081009D02*
X113322493Y-122985771D01*
X113322493Y-122985771D02*
X113227255Y-122938152D01*
X113227255Y-122938152D02*
X113036779Y-122938152D01*
X113036779Y-122938152D02*
X112941541Y-122985771D01*
X113370112Y-123557200D02*
X113274874Y-123604819D01*
X113274874Y-123604819D02*
X113036779Y-123604819D01*
X113036779Y-123604819D02*
X112941541Y-123557200D01*
X112941541Y-123557200D02*
X112893922Y-123461961D01*
X112893922Y-123461961D02*
X112893922Y-123366723D01*
X112893922Y-123366723D02*
X112941541Y-123271485D01*
X112941541Y-123271485D02*
X113036779Y-123223866D01*
X113036779Y-123223866D02*
X113274874Y-123223866D01*
X113274874Y-123223866D02*
X113370112Y-123176247D01*
X113798684Y-123557200D02*
X113893922Y-123604819D01*
X113893922Y-123604819D02*
X114084398Y-123604819D01*
X114084398Y-123604819D02*
X114179636Y-123557200D01*
X114179636Y-123557200D02*
X114227255Y-123461961D01*
X114227255Y-123461961D02*
X114227255Y-123414342D01*
X114227255Y-123414342D02*
X114179636Y-123319104D01*
X114179636Y-123319104D02*
X114084398Y-123271485D01*
X114084398Y-123271485D02*
X113941541Y-123271485D01*
X113941541Y-123271485D02*
X113846303Y-123223866D01*
X113846303Y-123223866D02*
X113798684Y-123128628D01*
X113798684Y-123128628D02*
X113798684Y-123081009D01*
X113798684Y-123081009D02*
X113846303Y-122985771D01*
X113846303Y-122985771D02*
X113941541Y-122938152D01*
X113941541Y-122938152D02*
X114084398Y-122938152D01*
X114084398Y-122938152D02*
X114179636Y-122985771D01*
X114512970Y-122938152D02*
X114893922Y-122938152D01*
X114655827Y-122604819D02*
X114655827Y-123461961D01*
X114655827Y-123461961D02*
X114703446Y-123557200D01*
X114703446Y-123557200D02*
X114798684Y-123604819D01*
X114798684Y-123604819D02*
X114893922Y-123604819D01*
X115608208Y-123557200D02*
X115512970Y-123604819D01*
X115512970Y-123604819D02*
X115322494Y-123604819D01*
X115322494Y-123604819D02*
X115227256Y-123557200D01*
X115227256Y-123557200D02*
X115179637Y-123461961D01*
X115179637Y-123461961D02*
X115179637Y-123081009D01*
X115179637Y-123081009D02*
X115227256Y-122985771D01*
X115227256Y-122985771D02*
X115322494Y-122938152D01*
X115322494Y-122938152D02*
X115512970Y-122938152D01*
X115512970Y-122938152D02*
X115608208Y-122985771D01*
X115608208Y-122985771D02*
X115655827Y-123081009D01*
X115655827Y-123081009D02*
X115655827Y-123176247D01*
X115655827Y-123176247D02*
X115179637Y-123271485D01*
X116084399Y-123604819D02*
X116084399Y-122938152D01*
X116084399Y-123128628D02*
X116132018Y-123033390D01*
X116132018Y-123033390D02*
X116179637Y-122985771D01*
X116179637Y-122985771D02*
X116274875Y-122938152D01*
X116274875Y-122938152D02*
X116370113Y-122938152D01*
X108893922Y-124214819D02*
X109227255Y-125214819D01*
X109227255Y-125214819D02*
X109560588Y-124214819D01*
X109798684Y-124214819D02*
X110417731Y-124214819D01*
X110417731Y-124214819D02*
X110084398Y-124595771D01*
X110084398Y-124595771D02*
X110227255Y-124595771D01*
X110227255Y-124595771D02*
X110322493Y-124643390D01*
X110322493Y-124643390D02*
X110370112Y-124691009D01*
X110370112Y-124691009D02*
X110417731Y-124786247D01*
X110417731Y-124786247D02*
X110417731Y-125024342D01*
X110417731Y-125024342D02*
X110370112Y-125119580D01*
X110370112Y-125119580D02*
X110322493Y-125167200D01*
X110322493Y-125167200D02*
X110227255Y-125214819D01*
X110227255Y-125214819D02*
X109941541Y-125214819D01*
X109941541Y-125214819D02*
X109846303Y-125167200D01*
X109846303Y-125167200D02*
X109798684Y-125119580D01*
X110846303Y-125119580D02*
X110893922Y-125167200D01*
X110893922Y-125167200D02*
X110846303Y-125214819D01*
X110846303Y-125214819D02*
X110798684Y-125167200D01*
X110798684Y-125167200D02*
X110846303Y-125119580D01*
X110846303Y-125119580D02*
X110846303Y-125214819D01*
X111512969Y-124214819D02*
X111608207Y-124214819D01*
X111608207Y-124214819D02*
X111703445Y-124262438D01*
X111703445Y-124262438D02*
X111751064Y-124310057D01*
X111751064Y-124310057D02*
X111798683Y-124405295D01*
X111798683Y-124405295D02*
X111846302Y-124595771D01*
X111846302Y-124595771D02*
X111846302Y-124833866D01*
X111846302Y-124833866D02*
X111798683Y-125024342D01*
X111798683Y-125024342D02*
X111751064Y-125119580D01*
X111751064Y-125119580D02*
X111703445Y-125167200D01*
X111703445Y-125167200D02*
X111608207Y-125214819D01*
X111608207Y-125214819D02*
X111512969Y-125214819D01*
X111512969Y-125214819D02*
X111417731Y-125167200D01*
X111417731Y-125167200D02*
X111370112Y-125119580D01*
X111370112Y-125119580D02*
X111322493Y-125024342D01*
X111322493Y-125024342D02*
X111274874Y-124833866D01*
X111274874Y-124833866D02*
X111274874Y-124595771D01*
X111274874Y-124595771D02*
X111322493Y-124405295D01*
X111322493Y-124405295D02*
X111370112Y-124310057D01*
X111370112Y-124310057D02*
X111417731Y-124262438D01*
X111417731Y-124262438D02*
X111512969Y-124214819D01*
X113560588Y-125214819D02*
X112989160Y-125214819D01*
X113274874Y-125214819D02*
X113274874Y-124214819D01*
X113274874Y-124214819D02*
X113179636Y-124357676D01*
X113179636Y-124357676D02*
X113084398Y-124452914D01*
X113084398Y-124452914D02*
X112989160Y-124500533D01*
X113893922Y-124214819D02*
X114512969Y-124214819D01*
X114512969Y-124214819D02*
X114179636Y-124595771D01*
X114179636Y-124595771D02*
X114322493Y-124595771D01*
X114322493Y-124595771D02*
X114417731Y-124643390D01*
X114417731Y-124643390D02*
X114465350Y-124691009D01*
X114465350Y-124691009D02*
X114512969Y-124786247D01*
X114512969Y-124786247D02*
X114512969Y-125024342D01*
X114512969Y-125024342D02*
X114465350Y-125119580D01*
X114465350Y-125119580D02*
X114417731Y-125167200D01*
X114417731Y-125167200D02*
X114322493Y-125214819D01*
X114322493Y-125214819D02*
X114036779Y-125214819D01*
X114036779Y-125214819D02*
X113941541Y-125167200D01*
X113941541Y-125167200D02*
X113893922Y-125119580D01*
X114941541Y-125119580D02*
X114989160Y-125167200D01*
X114989160Y-125167200D02*
X114941541Y-125214819D01*
X114941541Y-125214819D02*
X114893922Y-125167200D01*
X114893922Y-125167200D02*
X114941541Y-125119580D01*
X114941541Y-125119580D02*
X114941541Y-125214819D01*
X115608207Y-124214819D02*
X115703445Y-124214819D01*
X115703445Y-124214819D02*
X115798683Y-124262438D01*
X115798683Y-124262438D02*
X115846302Y-124310057D01*
X115846302Y-124310057D02*
X115893921Y-124405295D01*
X115893921Y-124405295D02*
X115941540Y-124595771D01*
X115941540Y-124595771D02*
X115941540Y-124833866D01*
X115941540Y-124833866D02*
X115893921Y-125024342D01*
X115893921Y-125024342D02*
X115846302Y-125119580D01*
X115846302Y-125119580D02*
X115798683Y-125167200D01*
X115798683Y-125167200D02*
X115703445Y-125214819D01*
X115703445Y-125214819D02*
X115608207Y-125214819D01*
X115608207Y-125214819D02*
X115512969Y-125167200D01*
X115512969Y-125167200D02*
X115465350Y-125119580D01*
X115465350Y-125119580D02*
X115417731Y-125024342D01*
X115417731Y-125024342D02*
X115370112Y-124833866D01*
X115370112Y-124833866D02*
X115370112Y-124595771D01*
X115370112Y-124595771D02*
X115417731Y-124405295D01*
X115417731Y-124405295D02*
X115465350Y-124310057D01*
X115465350Y-124310057D02*
X115512969Y-124262438D01*
X115512969Y-124262438D02*
X115608207Y-124214819D01*
X116893921Y-125214819D02*
X116322493Y-125214819D01*
X116608207Y-125214819D02*
X116608207Y-124214819D01*
X116608207Y-124214819D02*
X116512969Y-124357676D01*
X116512969Y-124357676D02*
X116417731Y-124452914D01*
X116417731Y-124452914D02*
X116322493Y-124500533D01*
X117322493Y-125119580D02*
X117370112Y-125167200D01*
X117370112Y-125167200D02*
X117322493Y-125214819D01*
X117322493Y-125214819D02*
X117274874Y-125167200D01*
X117274874Y-125167200D02*
X117322493Y-125119580D01*
X117322493Y-125119580D02*
X117322493Y-125214819D01*
X117751064Y-124310057D02*
X117798683Y-124262438D01*
X117798683Y-124262438D02*
X117893921Y-124214819D01*
X117893921Y-124214819D02*
X118132016Y-124214819D01*
X118132016Y-124214819D02*
X118227254Y-124262438D01*
X118227254Y-124262438D02*
X118274873Y-124310057D01*
X118274873Y-124310057D02*
X118322492Y-124405295D01*
X118322492Y-124405295D02*
X118322492Y-124500533D01*
X118322492Y-124500533D02*
X118274873Y-124643390D01*
X118274873Y-124643390D02*
X117703445Y-125214819D01*
X117703445Y-125214819D02*
X118322492Y-125214819D01*
X118941540Y-124214819D02*
X119036778Y-124214819D01*
X119036778Y-124214819D02*
X119132016Y-124262438D01*
X119132016Y-124262438D02*
X119179635Y-124310057D01*
X119179635Y-124310057D02*
X119227254Y-124405295D01*
X119227254Y-124405295D02*
X119274873Y-124595771D01*
X119274873Y-124595771D02*
X119274873Y-124833866D01*
X119274873Y-124833866D02*
X119227254Y-125024342D01*
X119227254Y-125024342D02*
X119179635Y-125119580D01*
X119179635Y-125119580D02*
X119132016Y-125167200D01*
X119132016Y-125167200D02*
X119036778Y-125214819D01*
X119036778Y-125214819D02*
X118941540Y-125214819D01*
X118941540Y-125214819D02*
X118846302Y-125167200D01*
X118846302Y-125167200D02*
X118798683Y-125119580D01*
X118798683Y-125119580D02*
X118751064Y-125024342D01*
X118751064Y-125024342D02*
X118703445Y-124833866D01*
X118703445Y-124833866D02*
X118703445Y-124595771D01*
X118703445Y-124595771D02*
X118751064Y-124405295D01*
X118751064Y-124405295D02*
X118798683Y-124310057D01*
X118798683Y-124310057D02*
X118846302Y-124262438D01*
X118846302Y-124262438D02*
X118941540Y-124214819D01*
X119655826Y-124310057D02*
X119703445Y-124262438D01*
X119703445Y-124262438D02*
X119798683Y-124214819D01*
X119798683Y-124214819D02*
X120036778Y-124214819D01*
X120036778Y-124214819D02*
X120132016Y-124262438D01*
X120132016Y-124262438D02*
X120179635Y-124310057D01*
X120179635Y-124310057D02*
X120227254Y-124405295D01*
X120227254Y-124405295D02*
X120227254Y-124500533D01*
X120227254Y-124500533D02*
X120179635Y-124643390D01*
X120179635Y-124643390D02*
X119608207Y-125214819D01*
X119608207Y-125214819D02*
X120227254Y-125214819D01*
X121084397Y-124548152D02*
X121084397Y-125214819D01*
X120846302Y-124167200D02*
X120608207Y-124881485D01*
X120608207Y-124881485D02*
X121227254Y-124881485D01*
X110836779Y-89769819D02*
X110836779Y-88769819D01*
X110836779Y-88769819D02*
X111074874Y-88769819D01*
X111074874Y-88769819D02*
X111217731Y-88817438D01*
X111217731Y-88817438D02*
X111312969Y-88912676D01*
X111312969Y-88912676D02*
X111360588Y-89007914D01*
X111360588Y-89007914D02*
X111408207Y-89198390D01*
X111408207Y-89198390D02*
X111408207Y-89341247D01*
X111408207Y-89341247D02*
X111360588Y-89531723D01*
X111360588Y-89531723D02*
X111312969Y-89626961D01*
X111312969Y-89626961D02*
X111217731Y-89722200D01*
X111217731Y-89722200D02*
X111074874Y-89769819D01*
X111074874Y-89769819D02*
X110836779Y-89769819D01*
X111836779Y-89769819D02*
X111836779Y-88769819D01*
X112646302Y-89246009D02*
X112312969Y-89246009D01*
X112312969Y-89769819D02*
X112312969Y-88769819D01*
X112312969Y-88769819D02*
X112789159Y-88769819D01*
X113503445Y-89246009D02*
X113170112Y-89246009D01*
X113170112Y-89769819D02*
X113170112Y-88769819D01*
X113170112Y-88769819D02*
X113646302Y-88769819D01*
X114979636Y-88769819D02*
X115170112Y-88769819D01*
X115170112Y-88769819D02*
X115265350Y-88817438D01*
X115265350Y-88817438D02*
X115360588Y-88912676D01*
X115360588Y-88912676D02*
X115408207Y-89103152D01*
X115408207Y-89103152D02*
X115408207Y-89436485D01*
X115408207Y-89436485D02*
X115360588Y-89626961D01*
X115360588Y-89626961D02*
X115265350Y-89722200D01*
X115265350Y-89722200D02*
X115170112Y-89769819D01*
X115170112Y-89769819D02*
X114979636Y-89769819D01*
X114979636Y-89769819D02*
X114884398Y-89722200D01*
X114884398Y-89722200D02*
X114789160Y-89626961D01*
X114789160Y-89626961D02*
X114741541Y-89436485D01*
X114741541Y-89436485D02*
X114741541Y-89103152D01*
X114741541Y-89103152D02*
X114789160Y-88912676D01*
X114789160Y-88912676D02*
X114884398Y-88817438D01*
X114884398Y-88817438D02*
X114979636Y-88769819D01*
X115836779Y-88769819D02*
X115836779Y-89579342D01*
X115836779Y-89579342D02*
X115884398Y-89674580D01*
X115884398Y-89674580D02*
X115932017Y-89722200D01*
X115932017Y-89722200D02*
X116027255Y-89769819D01*
X116027255Y-89769819D02*
X116217731Y-89769819D01*
X116217731Y-89769819D02*
X116312969Y-89722200D01*
X116312969Y-89722200D02*
X116360588Y-89674580D01*
X116360588Y-89674580D02*
X116408207Y-89579342D01*
X116408207Y-89579342D02*
X116408207Y-88769819D01*
X116741541Y-88769819D02*
X117312969Y-88769819D01*
X117027255Y-89769819D02*
X117027255Y-88769819D01*
X177189160Y-88865057D02*
X177236779Y-88817438D01*
X177236779Y-88817438D02*
X177332017Y-88769819D01*
X177332017Y-88769819D02*
X177570112Y-88769819D01*
X177570112Y-88769819D02*
X177665350Y-88817438D01*
X177665350Y-88817438D02*
X177712969Y-88865057D01*
X177712969Y-88865057D02*
X177760588Y-88960295D01*
X177760588Y-88960295D02*
X177760588Y-89055533D01*
X177760588Y-89055533D02*
X177712969Y-89198390D01*
X177712969Y-89198390D02*
X177141541Y-89769819D01*
X177141541Y-89769819D02*
X177760588Y-89769819D01*
X178093922Y-88769819D02*
X178712969Y-88769819D01*
X178712969Y-88769819D02*
X178379636Y-89150771D01*
X178379636Y-89150771D02*
X178522493Y-89150771D01*
X178522493Y-89150771D02*
X178617731Y-89198390D01*
X178617731Y-89198390D02*
X178665350Y-89246009D01*
X178665350Y-89246009D02*
X178712969Y-89341247D01*
X178712969Y-89341247D02*
X178712969Y-89579342D01*
X178712969Y-89579342D02*
X178665350Y-89674580D01*
X178665350Y-89674580D02*
X178617731Y-89722200D01*
X178617731Y-89722200D02*
X178522493Y-89769819D01*
X178522493Y-89769819D02*
X178236779Y-89769819D01*
X178236779Y-89769819D02*
X178141541Y-89722200D01*
X178141541Y-89722200D02*
X178093922Y-89674580D01*
X179332017Y-88769819D02*
X179427255Y-88769819D01*
X179427255Y-88769819D02*
X179522493Y-88817438D01*
X179522493Y-88817438D02*
X179570112Y-88865057D01*
X179570112Y-88865057D02*
X179617731Y-88960295D01*
X179617731Y-88960295D02*
X179665350Y-89150771D01*
X179665350Y-89150771D02*
X179665350Y-89388866D01*
X179665350Y-89388866D02*
X179617731Y-89579342D01*
X179617731Y-89579342D02*
X179570112Y-89674580D01*
X179570112Y-89674580D02*
X179522493Y-89722200D01*
X179522493Y-89722200D02*
X179427255Y-89769819D01*
X179427255Y-89769819D02*
X179332017Y-89769819D01*
X179332017Y-89769819D02*
X179236779Y-89722200D01*
X179236779Y-89722200D02*
X179189160Y-89674580D01*
X179189160Y-89674580D02*
X179141541Y-89579342D01*
X179141541Y-89579342D02*
X179093922Y-89388866D01*
X179093922Y-89388866D02*
X179093922Y-89150771D01*
X179093922Y-89150771D02*
X179141541Y-88960295D01*
X179141541Y-88960295D02*
X179189160Y-88865057D01*
X179189160Y-88865057D02*
X179236779Y-88817438D01*
X179236779Y-88817438D02*
X179332017Y-88769819D01*
X179951065Y-88769819D02*
X180284398Y-89769819D01*
X180284398Y-89769819D02*
X180617731Y-88769819D01*
X182284398Y-89674580D02*
X182236779Y-89722200D01*
X182236779Y-89722200D02*
X182093922Y-89769819D01*
X182093922Y-89769819D02*
X181998684Y-89769819D01*
X181998684Y-89769819D02*
X181855827Y-89722200D01*
X181855827Y-89722200D02*
X181760589Y-89626961D01*
X181760589Y-89626961D02*
X181712970Y-89531723D01*
X181712970Y-89531723D02*
X181665351Y-89341247D01*
X181665351Y-89341247D02*
X181665351Y-89198390D01*
X181665351Y-89198390D02*
X181712970Y-89007914D01*
X181712970Y-89007914D02*
X181760589Y-88912676D01*
X181760589Y-88912676D02*
X181855827Y-88817438D01*
X181855827Y-88817438D02*
X181998684Y-88769819D01*
X181998684Y-88769819D02*
X182093922Y-88769819D01*
X182093922Y-88769819D02*
X182236779Y-88817438D01*
X182236779Y-88817438D02*
X182284398Y-88865057D01*
X182570113Y-88769819D02*
X183141541Y-88769819D01*
X182855827Y-89769819D02*
X182855827Y-88769819D01*
X184046303Y-89769819D02*
X183712970Y-89293628D01*
X183474875Y-89769819D02*
X183474875Y-88769819D01*
X183474875Y-88769819D02*
X183855827Y-88769819D01*
X183855827Y-88769819D02*
X183951065Y-88817438D01*
X183951065Y-88817438D02*
X183998684Y-88865057D01*
X183998684Y-88865057D02*
X184046303Y-88960295D01*
X184046303Y-88960295D02*
X184046303Y-89103152D01*
X184046303Y-89103152D02*
X183998684Y-89198390D01*
X183998684Y-89198390D02*
X183951065Y-89246009D01*
X183951065Y-89246009D02*
X183855827Y-89293628D01*
X183855827Y-89293628D02*
X183474875Y-89293628D01*
X184951065Y-89769819D02*
X184474875Y-89769819D01*
X184474875Y-89769819D02*
X184474875Y-88769819D01*
X227568360Y-122656600D02*
X227711217Y-122704219D01*
X227711217Y-122704219D02*
X227949312Y-122704219D01*
X227949312Y-122704219D02*
X228044550Y-122656600D01*
X228044550Y-122656600D02*
X228092169Y-122608980D01*
X228092169Y-122608980D02*
X228139788Y-122513742D01*
X228139788Y-122513742D02*
X228139788Y-122418504D01*
X228139788Y-122418504D02*
X228092169Y-122323266D01*
X228092169Y-122323266D02*
X228044550Y-122275647D01*
X228044550Y-122275647D02*
X227949312Y-122228028D01*
X227949312Y-122228028D02*
X227758836Y-122180409D01*
X227758836Y-122180409D02*
X227663598Y-122132790D01*
X227663598Y-122132790D02*
X227615979Y-122085171D01*
X227615979Y-122085171D02*
X227568360Y-121989933D01*
X227568360Y-121989933D02*
X227568360Y-121894695D01*
X227568360Y-121894695D02*
X227615979Y-121799457D01*
X227615979Y-121799457D02*
X227663598Y-121751838D01*
X227663598Y-121751838D02*
X227758836Y-121704219D01*
X227758836Y-121704219D02*
X227996931Y-121704219D01*
X227996931Y-121704219D02*
X228139788Y-121751838D01*
X228711217Y-122704219D02*
X228615979Y-122656600D01*
X228615979Y-122656600D02*
X228568360Y-122608980D01*
X228568360Y-122608980D02*
X228520741Y-122513742D01*
X228520741Y-122513742D02*
X228520741Y-122228028D01*
X228520741Y-122228028D02*
X228568360Y-122132790D01*
X228568360Y-122132790D02*
X228615979Y-122085171D01*
X228615979Y-122085171D02*
X228711217Y-122037552D01*
X228711217Y-122037552D02*
X228854074Y-122037552D01*
X228854074Y-122037552D02*
X228949312Y-122085171D01*
X228949312Y-122085171D02*
X228996931Y-122132790D01*
X228996931Y-122132790D02*
X229044550Y-122228028D01*
X229044550Y-122228028D02*
X229044550Y-122513742D01*
X229044550Y-122513742D02*
X228996931Y-122608980D01*
X228996931Y-122608980D02*
X228949312Y-122656600D01*
X228949312Y-122656600D02*
X228854074Y-122704219D01*
X228854074Y-122704219D02*
X228711217Y-122704219D01*
X229901693Y-122037552D02*
X229901693Y-122704219D01*
X229473122Y-122037552D02*
X229473122Y-122561361D01*
X229473122Y-122561361D02*
X229520741Y-122656600D01*
X229520741Y-122656600D02*
X229615979Y-122704219D01*
X229615979Y-122704219D02*
X229758836Y-122704219D01*
X229758836Y-122704219D02*
X229854074Y-122656600D01*
X229854074Y-122656600D02*
X229901693Y-122608980D01*
X230377884Y-122037552D02*
X230377884Y-122704219D01*
X230377884Y-122132790D02*
X230425503Y-122085171D01*
X230425503Y-122085171D02*
X230520741Y-122037552D01*
X230520741Y-122037552D02*
X230663598Y-122037552D01*
X230663598Y-122037552D02*
X230758836Y-122085171D01*
X230758836Y-122085171D02*
X230806455Y-122180409D01*
X230806455Y-122180409D02*
X230806455Y-122704219D01*
X231711217Y-122704219D02*
X231711217Y-121704219D01*
X231711217Y-122656600D02*
X231615979Y-122704219D01*
X231615979Y-122704219D02*
X231425503Y-122704219D01*
X231425503Y-122704219D02*
X231330265Y-122656600D01*
X231330265Y-122656600D02*
X231282646Y-122608980D01*
X231282646Y-122608980D02*
X231235027Y-122513742D01*
X231235027Y-122513742D02*
X231235027Y-122228028D01*
X231235027Y-122228028D02*
X231282646Y-122132790D01*
X231282646Y-122132790D02*
X231330265Y-122085171D01*
X231330265Y-122085171D02*
X231425503Y-122037552D01*
X231425503Y-122037552D02*
X231615979Y-122037552D01*
X231615979Y-122037552D02*
X231711217Y-122085171D01*
X129878572Y-124581009D02*
X130021429Y-124628628D01*
X130021429Y-124628628D02*
X130069048Y-124676247D01*
X130069048Y-124676247D02*
X130116667Y-124771485D01*
X130116667Y-124771485D02*
X130116667Y-124914342D01*
X130116667Y-124914342D02*
X130069048Y-125009580D01*
X130069048Y-125009580D02*
X130021429Y-125057200D01*
X130021429Y-125057200D02*
X129926191Y-125104819D01*
X129926191Y-125104819D02*
X129545239Y-125104819D01*
X129545239Y-125104819D02*
X129545239Y-124104819D01*
X129545239Y-124104819D02*
X129878572Y-124104819D01*
X129878572Y-124104819D02*
X129973810Y-124152438D01*
X129973810Y-124152438D02*
X130021429Y-124200057D01*
X130021429Y-124200057D02*
X130069048Y-124295295D01*
X130069048Y-124295295D02*
X130069048Y-124390533D01*
X130069048Y-124390533D02*
X130021429Y-124485771D01*
X130021429Y-124485771D02*
X129973810Y-124533390D01*
X129973810Y-124533390D02*
X129878572Y-124581009D01*
X129878572Y-124581009D02*
X129545239Y-124581009D01*
X130545239Y-125009580D02*
X130592858Y-125057200D01*
X130592858Y-125057200D02*
X130545239Y-125104819D01*
X130545239Y-125104819D02*
X130497620Y-125057200D01*
X130497620Y-125057200D02*
X130545239Y-125009580D01*
X130545239Y-125009580D02*
X130545239Y-125104819D01*
X131021429Y-125104819D02*
X131021429Y-124104819D01*
X131497619Y-125009580D02*
X131545238Y-125057200D01*
X131545238Y-125057200D02*
X131497619Y-125104819D01*
X131497619Y-125104819D02*
X131450000Y-125057200D01*
X131450000Y-125057200D02*
X131497619Y-125009580D01*
X131497619Y-125009580D02*
X131497619Y-125104819D01*
X131973809Y-124581009D02*
X132307142Y-124581009D01*
X132449999Y-125104819D02*
X131973809Y-125104819D01*
X131973809Y-125104819D02*
X131973809Y-124104819D01*
X131973809Y-124104819D02*
X132449999Y-124104819D01*
X132878571Y-125009580D02*
X132926190Y-125057200D01*
X132926190Y-125057200D02*
X132878571Y-125104819D01*
X132878571Y-125104819D02*
X132830952Y-125057200D01*
X132830952Y-125057200D02*
X132878571Y-125009580D01*
X132878571Y-125009580D02*
X132878571Y-125104819D01*
X133926189Y-125104819D02*
X133592856Y-124628628D01*
X133354761Y-125104819D02*
X133354761Y-124104819D01*
X133354761Y-124104819D02*
X133735713Y-124104819D01*
X133735713Y-124104819D02*
X133830951Y-124152438D01*
X133830951Y-124152438D02*
X133878570Y-124200057D01*
X133878570Y-124200057D02*
X133926189Y-124295295D01*
X133926189Y-124295295D02*
X133926189Y-124438152D01*
X133926189Y-124438152D02*
X133878570Y-124533390D01*
X133878570Y-124533390D02*
X133830951Y-124581009D01*
X133830951Y-124581009D02*
X133735713Y-124628628D01*
X133735713Y-124628628D02*
X133354761Y-124628628D01*
X134354761Y-125009580D02*
X134402380Y-125057200D01*
X134402380Y-125057200D02*
X134354761Y-125104819D01*
X134354761Y-125104819D02*
X134307142Y-125057200D01*
X134307142Y-125057200D02*
X134354761Y-125009580D01*
X134354761Y-125009580D02*
X134354761Y-125104819D01*
X206219419Y-116185792D02*
X205743228Y-116519125D01*
X206219419Y-116757220D02*
X205219419Y-116757220D01*
X205219419Y-116757220D02*
X205219419Y-116376268D01*
X205219419Y-116376268D02*
X205267038Y-116281030D01*
X205267038Y-116281030D02*
X205314657Y-116233411D01*
X205314657Y-116233411D02*
X205409895Y-116185792D01*
X205409895Y-116185792D02*
X205552752Y-116185792D01*
X205552752Y-116185792D02*
X205647990Y-116233411D01*
X205647990Y-116233411D02*
X205695609Y-116281030D01*
X205695609Y-116281030D02*
X205743228Y-116376268D01*
X205743228Y-116376268D02*
X205743228Y-116757220D01*
X205695609Y-115757220D02*
X205695609Y-115423887D01*
X206219419Y-115281030D02*
X206219419Y-115757220D01*
X206219419Y-115757220D02*
X205219419Y-115757220D01*
X205219419Y-115757220D02*
X205219419Y-115281030D01*
X206171800Y-114900077D02*
X206219419Y-114757220D01*
X206219419Y-114757220D02*
X206219419Y-114519125D01*
X206219419Y-114519125D02*
X206171800Y-114423887D01*
X206171800Y-114423887D02*
X206124180Y-114376268D01*
X206124180Y-114376268D02*
X206028942Y-114328649D01*
X206028942Y-114328649D02*
X205933704Y-114328649D01*
X205933704Y-114328649D02*
X205838466Y-114376268D01*
X205838466Y-114376268D02*
X205790847Y-114423887D01*
X205790847Y-114423887D02*
X205743228Y-114519125D01*
X205743228Y-114519125D02*
X205695609Y-114709601D01*
X205695609Y-114709601D02*
X205647990Y-114804839D01*
X205647990Y-114804839D02*
X205600371Y-114852458D01*
X205600371Y-114852458D02*
X205505133Y-114900077D01*
X205505133Y-114900077D02*
X205409895Y-114900077D01*
X205409895Y-114900077D02*
X205314657Y-114852458D01*
X205314657Y-114852458D02*
X205267038Y-114804839D01*
X205267038Y-114804839D02*
X205219419Y-114709601D01*
X205219419Y-114709601D02*
X205219419Y-114471506D01*
X205219419Y-114471506D02*
X205267038Y-114328649D01*
X205695609Y-113900077D02*
X205695609Y-113566744D01*
X206219419Y-113423887D02*
X206219419Y-113900077D01*
X206219419Y-113900077D02*
X205219419Y-113900077D01*
X205219419Y-113900077D02*
X205219419Y-113423887D01*
X205219419Y-113138172D02*
X205219419Y-112566744D01*
X206219419Y-112852458D02*
X205219419Y-112852458D01*
D11*
X132779911Y-116399733D02*
X131227689Y-116399733D01*
X131227689Y-115877622D01*
X132779911Y-115877622D01*
X132779911Y-116399733D01*
G36*
X132779911Y-116399733D02*
G01*
X131227689Y-116399733D01*
X131227689Y-115877622D01*
X132779911Y-115877622D01*
X132779911Y-116399733D01*
G37*
X131216643Y-117066483D02*
X131220633Y-117225233D01*
X131957939Y-117228886D01*
X132695245Y-117232540D01*
X132695245Y-117796733D01*
X131213578Y-117796733D01*
X131213578Y-118191844D01*
X132695245Y-118191844D01*
X132695245Y-118798365D01*
X131972050Y-118802021D01*
X131248856Y-118805677D01*
X131248856Y-119158455D01*
X131972050Y-119162111D01*
X132695245Y-119165767D01*
X132695245Y-119772032D01*
X131972050Y-119775688D01*
X131248856Y-119779344D01*
X131248856Y-120132122D01*
X131972050Y-120135778D01*
X132695245Y-120139434D01*
X132695245Y-120745955D01*
X131241386Y-120745955D01*
X131248856Y-121599677D01*
X131473681Y-121603576D01*
X131611375Y-121603256D01*
X131729158Y-121596343D01*
X131834805Y-121581723D01*
X131936090Y-121558284D01*
X132040786Y-121524914D01*
X132052400Y-121520750D01*
X132210347Y-121449358D01*
X132362657Y-121352718D01*
X132506423Y-121233672D01*
X132638738Y-121095062D01*
X132756694Y-120939731D01*
X132857384Y-120770520D01*
X132891995Y-120699975D01*
X132911334Y-120657812D01*
X132928788Y-120618437D01*
X132944702Y-120580013D01*
X132959422Y-120540707D01*
X132973294Y-120498685D01*
X132986664Y-120452112D01*
X132999876Y-120399154D01*
X133013278Y-120337976D01*
X133027213Y-120266744D01*
X133042029Y-120183624D01*
X133058070Y-120086781D01*
X133075682Y-119974380D01*
X133095211Y-119844588D01*
X133117003Y-119695570D01*
X133141403Y-119525492D01*
X133168757Y-119332518D01*
X133199409Y-119114816D01*
X133224987Y-118932677D01*
X133252325Y-118738422D01*
X133278684Y-118552088D01*
X133303790Y-118375574D01*
X133327366Y-118210780D01*
X133349135Y-118059604D01*
X133368822Y-117923946D01*
X133386150Y-117805704D01*
X133400842Y-117706777D01*
X133412623Y-117629065D01*
X133421217Y-117574466D01*
X133426346Y-117544879D01*
X133427589Y-117539958D01*
X133443189Y-117539877D01*
X133479786Y-117545642D01*
X133531115Y-117555800D01*
X133590912Y-117568897D01*
X133652912Y-117583478D01*
X133710849Y-117598089D01*
X133758461Y-117611277D01*
X133789482Y-117621587D01*
X133797578Y-117625838D01*
X133799130Y-117642238D01*
X133797366Y-117681292D01*
X133792677Y-117737677D01*
X133785451Y-117806067D01*
X133782748Y-117828940D01*
X133774674Y-117899775D01*
X133768759Y-117960045D01*
X133765446Y-118004494D01*
X133765177Y-118027866D01*
X133765794Y-118030024D01*
X133783620Y-118035348D01*
X133802805Y-118036622D01*
X133858312Y-118045695D01*
X133920567Y-118069129D01*
X133976449Y-118101239D01*
X134002017Y-118122885D01*
X134025217Y-118150597D01*
X134037492Y-118178586D01*
X134042142Y-118217403D01*
X134042638Y-118252812D01*
X134031351Y-118339177D01*
X133997856Y-118408315D01*
X133941991Y-118460388D01*
X133863595Y-118495561D01*
X133788177Y-118511179D01*
X133728485Y-118521521D01*
X133692030Y-118535602D01*
X133673832Y-118556604D01*
X133668911Y-118587452D01*
X133671911Y-118615995D01*
X133686700Y-118627373D01*
X133716194Y-118629288D01*
X133799731Y-118641028D01*
X133868804Y-118673672D01*
X133920824Y-118723361D01*
X133953202Y-118786233D01*
X133963349Y-118858428D01*
X133948676Y-118936085D01*
X133938574Y-118960900D01*
X133894478Y-119030137D01*
X133833381Y-119080868D01*
X133752636Y-119114734D01*
X133662897Y-119131930D01*
X133618158Y-119138143D01*
X133594693Y-119146107D01*
X133585668Y-119160131D01*
X133584245Y-119181565D01*
X133590001Y-119212015D01*
X133602850Y-119221955D01*
X133660917Y-119231547D01*
X133727249Y-119257051D01*
X133791057Y-119293559D01*
X133831657Y-119326055D01*
X133867146Y-119362250D01*
X133886086Y-119390549D01*
X133893557Y-119421186D01*
X133894689Y-119453070D01*
X133882903Y-119533769D01*
X133847308Y-119600469D01*
X133787546Y-119653502D01*
X133703260Y-119693198D01*
X133608877Y-119717294D01*
X133559045Y-119727426D01*
X133530289Y-119737396D01*
X133515774Y-119751199D01*
X133508661Y-119772829D01*
X133507958Y-119776247D01*
X133502274Y-119819520D01*
X133499606Y-119869066D01*
X133499578Y-119873791D01*
X133496203Y-119934623D01*
X133486797Y-120016237D01*
X133472434Y-120112105D01*
X133454192Y-120215697D01*
X133433145Y-120320483D01*
X133410371Y-120419934D01*
X133408002Y-120429488D01*
X133334758Y-120675750D01*
X133242304Y-120902943D01*
X133128958Y-121114116D01*
X132993038Y-121312316D01*
X132832865Y-121500594D01*
X132796313Y-121538825D01*
X132690601Y-121647306D01*
X132731061Y-121736381D01*
X132759595Y-121818225D01*
X132775832Y-121906100D01*
X132778721Y-121990270D01*
X132767211Y-122061004D01*
X132766377Y-122063595D01*
X132741141Y-122109153D01*
X132697990Y-122158533D01*
X132644954Y-122204450D01*
X132590062Y-122239618D01*
X132557461Y-122253180D01*
X132479395Y-122267738D01*
X132399321Y-122267722D01*
X132328210Y-122253574D01*
X132302465Y-122242922D01*
X132247989Y-122205652D01*
X132190099Y-122150437D01*
X132136428Y-122085303D01*
X132102164Y-122032347D01*
X132087843Y-122006485D01*
X132075628Y-121989518D01*
X132060410Y-121981219D01*
X132037077Y-121981359D01*
X132000521Y-121989711D01*
X131945631Y-122006046D01*
X131890911Y-122022922D01*
X131744082Y-122060091D01*
X131586308Y-122086329D01*
X131432017Y-122099448D01*
X131379383Y-122100539D01*
X131255911Y-122100622D01*
X131255911Y-123215400D01*
X130917245Y-123215400D01*
X130917245Y-122042737D01*
X130868309Y-122022291D01*
X130831206Y-122008749D01*
X130803541Y-122002011D01*
X130800767Y-122001844D01*
X130785344Y-122013560D01*
X130763175Y-122044196D01*
X130740341Y-122084700D01*
X130698522Y-122167557D01*
X130470113Y-122024728D01*
X130398276Y-121979609D01*
X130334669Y-121939283D01*
X130283182Y-121906248D01*
X130247702Y-121882997D01*
X130232118Y-121872028D01*
X130231937Y-121871853D01*
X130233732Y-121855652D01*
X130248302Y-121823783D01*
X130267666Y-121790906D01*
X130313162Y-121720006D01*
X130230675Y-121646201D01*
X130038411Y-121462019D01*
X129865076Y-121269400D01*
X129706114Y-121062671D01*
X129556973Y-120836159D01*
X129491002Y-120724788D01*
X129459527Y-120668131D01*
X129422136Y-120597879D01*
X129380770Y-120517988D01*
X129337369Y-120432413D01*
X129293875Y-120345111D01*
X129252227Y-120260036D01*
X129214367Y-120181145D01*
X129182234Y-120112392D01*
X129157770Y-120057735D01*
X129142914Y-120021127D01*
X129139244Y-120007769D01*
X129151114Y-119996474D01*
X129183005Y-119976188D01*
X129229344Y-119949807D01*
X129284556Y-119920228D01*
X129343067Y-119890347D01*
X129399303Y-119863060D01*
X129447688Y-119841265D01*
X129482650Y-119827857D01*
X129488894Y-119826092D01*
X129502410Y-119836702D01*
X129523966Y-119871082D01*
X129551985Y-119926466D01*
X129574883Y-119976900D01*
X129700292Y-120249157D01*
X129826042Y-120493642D01*
X129952399Y-120710802D01*
X130079632Y-120901087D01*
X130208009Y-121064947D01*
X130255904Y-121119023D01*
X130354882Y-121218302D01*
X130467027Y-121316373D01*
X130583977Y-121406527D01*
X130697368Y-121482053D01*
X130737395Y-121505307D01*
X130793196Y-121535392D01*
X130840715Y-121559481D01*
X130874072Y-121574681D01*
X130886335Y-121578511D01*
X130891458Y-121571142D01*
X130895529Y-121547617D01*
X130898634Y-121505806D01*
X130900857Y-121443579D01*
X130902285Y-121358805D01*
X130903005Y-121249356D01*
X130903133Y-121162233D01*
X130903133Y-120745955D01*
X130225800Y-120745955D01*
X130225800Y-120139177D01*
X130903133Y-120139177D01*
X130903133Y-116907733D01*
X131212654Y-116907733D01*
X131216643Y-117066483D01*
G36*
X131216643Y-117066483D02*
G01*
X131220633Y-117225233D01*
X131957939Y-117228886D01*
X132695245Y-117232540D01*
X132695245Y-117796733D01*
X131213578Y-117796733D01*
X131213578Y-118191844D01*
X132695245Y-118191844D01*
X132695245Y-118798365D01*
X131972050Y-118802021D01*
X131248856Y-118805677D01*
X131248856Y-119158455D01*
X131972050Y-119162111D01*
X132695245Y-119165767D01*
X132695245Y-119772032D01*
X131972050Y-119775688D01*
X131248856Y-119779344D01*
X131248856Y-120132122D01*
X131972050Y-120135778D01*
X132695245Y-120139434D01*
X132695245Y-120745955D01*
X131241386Y-120745955D01*
X131248856Y-121599677D01*
X131473681Y-121603576D01*
X131611375Y-121603256D01*
X131729158Y-121596343D01*
X131834805Y-121581723D01*
X131936090Y-121558284D01*
X132040786Y-121524914D01*
X132052400Y-121520750D01*
X132210347Y-121449358D01*
X132362657Y-121352718D01*
X132506423Y-121233672D01*
X132638738Y-121095062D01*
X132756694Y-120939731D01*
X132857384Y-120770520D01*
X132891995Y-120699975D01*
X132911334Y-120657812D01*
X132928788Y-120618437D01*
X132944702Y-120580013D01*
X132959422Y-120540707D01*
X132973294Y-120498685D01*
X132986664Y-120452112D01*
X132999876Y-120399154D01*
X133013278Y-120337976D01*
X133027213Y-120266744D01*
X133042029Y-120183624D01*
X133058070Y-120086781D01*
X133075682Y-119974380D01*
X133095211Y-119844588D01*
X133117003Y-119695570D01*
X133141403Y-119525492D01*
X133168757Y-119332518D01*
X133199409Y-119114816D01*
X133224987Y-118932677D01*
X133252325Y-118738422D01*
X133278684Y-118552088D01*
X133303790Y-118375574D01*
X133327366Y-118210780D01*
X133349135Y-118059604D01*
X133368822Y-117923946D01*
X133386150Y-117805704D01*
X133400842Y-117706777D01*
X133412623Y-117629065D01*
X133421217Y-117574466D01*
X133426346Y-117544879D01*
X133427589Y-117539958D01*
X133443189Y-117539877D01*
X133479786Y-117545642D01*
X133531115Y-117555800D01*
X133590912Y-117568897D01*
X133652912Y-117583478D01*
X133710849Y-117598089D01*
X133758461Y-117611277D01*
X133789482Y-117621587D01*
X133797578Y-117625838D01*
X133799130Y-117642238D01*
X133797366Y-117681292D01*
X133792677Y-117737677D01*
X133785451Y-117806067D01*
X133782748Y-117828940D01*
X133774674Y-117899775D01*
X133768759Y-117960045D01*
X133765446Y-118004494D01*
X133765177Y-118027866D01*
X133765794Y-118030024D01*
X133783620Y-118035348D01*
X133802805Y-118036622D01*
X133858312Y-118045695D01*
X133920567Y-118069129D01*
X133976449Y-118101239D01*
X134002017Y-118122885D01*
X134025217Y-118150597D01*
X134037492Y-118178586D01*
X134042142Y-118217403D01*
X134042638Y-118252812D01*
X134031351Y-118339177D01*
X133997856Y-118408315D01*
X133941991Y-118460388D01*
X133863595Y-118495561D01*
X133788177Y-118511179D01*
X133728485Y-118521521D01*
X133692030Y-118535602D01*
X133673832Y-118556604D01*
X133668911Y-118587452D01*
X133671911Y-118615995D01*
X133686700Y-118627373D01*
X133716194Y-118629288D01*
X133799731Y-118641028D01*
X133868804Y-118673672D01*
X133920824Y-118723361D01*
X133953202Y-118786233D01*
X133963349Y-118858428D01*
X133948676Y-118936085D01*
X133938574Y-118960900D01*
X133894478Y-119030137D01*
X133833381Y-119080868D01*
X133752636Y-119114734D01*
X133662897Y-119131930D01*
X133618158Y-119138143D01*
X133594693Y-119146107D01*
X133585668Y-119160131D01*
X133584245Y-119181565D01*
X133590001Y-119212015D01*
X133602850Y-119221955D01*
X133660917Y-119231547D01*
X133727249Y-119257051D01*
X133791057Y-119293559D01*
X133831657Y-119326055D01*
X133867146Y-119362250D01*
X133886086Y-119390549D01*
X133893557Y-119421186D01*
X133894689Y-119453070D01*
X133882903Y-119533769D01*
X133847308Y-119600469D01*
X133787546Y-119653502D01*
X133703260Y-119693198D01*
X133608877Y-119717294D01*
X133559045Y-119727426D01*
X133530289Y-119737396D01*
X133515774Y-119751199D01*
X133508661Y-119772829D01*
X133507958Y-119776247D01*
X133502274Y-119819520D01*
X133499606Y-119869066D01*
X133499578Y-119873791D01*
X133496203Y-119934623D01*
X133486797Y-120016237D01*
X133472434Y-120112105D01*
X133454192Y-120215697D01*
X133433145Y-120320483D01*
X133410371Y-120419934D01*
X133408002Y-120429488D01*
X133334758Y-120675750D01*
X133242304Y-120902943D01*
X133128958Y-121114116D01*
X132993038Y-121312316D01*
X132832865Y-121500594D01*
X132796313Y-121538825D01*
X132690601Y-121647306D01*
X132731061Y-121736381D01*
X132759595Y-121818225D01*
X132775832Y-121906100D01*
X132778721Y-121990270D01*
X132767211Y-122061004D01*
X132766377Y-122063595D01*
X132741141Y-122109153D01*
X132697990Y-122158533D01*
X132644954Y-122204450D01*
X132590062Y-122239618D01*
X132557461Y-122253180D01*
X132479395Y-122267738D01*
X132399321Y-122267722D01*
X132328210Y-122253574D01*
X132302465Y-122242922D01*
X132247989Y-122205652D01*
X132190099Y-122150437D01*
X132136428Y-122085303D01*
X132102164Y-122032347D01*
X132087843Y-122006485D01*
X132075628Y-121989518D01*
X132060410Y-121981219D01*
X132037077Y-121981359D01*
X132000521Y-121989711D01*
X131945631Y-122006046D01*
X131890911Y-122022922D01*
X131744082Y-122060091D01*
X131586308Y-122086329D01*
X131432017Y-122099448D01*
X131379383Y-122100539D01*
X131255911Y-122100622D01*
X131255911Y-123215400D01*
X130917245Y-123215400D01*
X130917245Y-122042737D01*
X130868309Y-122022291D01*
X130831206Y-122008749D01*
X130803541Y-122002011D01*
X130800767Y-122001844D01*
X130785344Y-122013560D01*
X130763175Y-122044196D01*
X130740341Y-122084700D01*
X130698522Y-122167557D01*
X130470113Y-122024728D01*
X130398276Y-121979609D01*
X130334669Y-121939283D01*
X130283182Y-121906248D01*
X130247702Y-121882997D01*
X130232118Y-121872028D01*
X130231937Y-121871853D01*
X130233732Y-121855652D01*
X130248302Y-121823783D01*
X130267666Y-121790906D01*
X130313162Y-121720006D01*
X130230675Y-121646201D01*
X130038411Y-121462019D01*
X129865076Y-121269400D01*
X129706114Y-121062671D01*
X129556973Y-120836159D01*
X129491002Y-120724788D01*
X129459527Y-120668131D01*
X129422136Y-120597879D01*
X129380770Y-120517988D01*
X129337369Y-120432413D01*
X129293875Y-120345111D01*
X129252227Y-120260036D01*
X129214367Y-120181145D01*
X129182234Y-120112392D01*
X129157770Y-120057735D01*
X129142914Y-120021127D01*
X129139244Y-120007769D01*
X129151114Y-119996474D01*
X129183005Y-119976188D01*
X129229344Y-119949807D01*
X129284556Y-119920228D01*
X129343067Y-119890347D01*
X129399303Y-119863060D01*
X129447688Y-119841265D01*
X129482650Y-119827857D01*
X129488894Y-119826092D01*
X129502410Y-119836702D01*
X129523966Y-119871082D01*
X129551985Y-119926466D01*
X129574883Y-119976900D01*
X129700292Y-120249157D01*
X129826042Y-120493642D01*
X129952399Y-120710802D01*
X130079632Y-120901087D01*
X130208009Y-121064947D01*
X130255904Y-121119023D01*
X130354882Y-121218302D01*
X130467027Y-121316373D01*
X130583977Y-121406527D01*
X130697368Y-121482053D01*
X130737395Y-121505307D01*
X130793196Y-121535392D01*
X130840715Y-121559481D01*
X130874072Y-121574681D01*
X130886335Y-121578511D01*
X130891458Y-121571142D01*
X130895529Y-121547617D01*
X130898634Y-121505806D01*
X130900857Y-121443579D01*
X130902285Y-121358805D01*
X130903005Y-121249356D01*
X130903133Y-121162233D01*
X130903133Y-120745955D01*
X130225800Y-120745955D01*
X130225800Y-120139177D01*
X130903133Y-120139177D01*
X130903133Y-116907733D01*
X131212654Y-116907733D01*
X131216643Y-117066483D01*
G37*
M02*
