G04 #@! TF.GenerationSoftware,KiCad,Pcbnew,7.0.8*
G04 #@! TF.CreationDate,2024-01-14T11:38:14+01:00*
G04 #@! TF.ProjectId,BeoMaster,42656f4d-6173-4746-9572-2e6b69636164,rev?*
G04 #@! TF.SameCoordinates,Original*
G04 #@! TF.FileFunction,Soldermask,Bot*
G04 #@! TF.FilePolarity,Negative*
%FSLAX46Y46*%
G04 Gerber Fmt 4.6, Leading zero omitted, Abs format (unit mm)*
G04 Created by KiCad (PCBNEW 7.0.8) date 2024-01-14 11:38:14*
%MOMM*%
%LPD*%
G01*
G04 APERTURE LIST*
G04 Aperture macros list*
%AMRoundRect*
0 Rectangle with rounded corners*
0 $1 Rounding radius*
0 $2 $3 $4 $5 $6 $7 $8 $9 X,Y pos of 4 corners*
0 Add a 4 corners polygon primitive as box body*
4,1,4,$2,$3,$4,$5,$6,$7,$8,$9,$2,$3,0*
0 Add four circle primitives for the rounded corners*
1,1,$1+$1,$2,$3*
1,1,$1+$1,$4,$5*
1,1,$1+$1,$6,$7*
1,1,$1+$1,$8,$9*
0 Add four rect primitives between the rounded corners*
20,1,$1+$1,$2,$3,$4,$5,0*
20,1,$1+$1,$4,$5,$6,$7,0*
20,1,$1+$1,$6,$7,$8,$9,0*
20,1,$1+$1,$8,$9,$2,$3,0*%
G04 Aperture macros list end*
%ADD10RoundRect,0.200000X0.200000X0.450000X-0.200000X0.450000X-0.200000X-0.450000X0.200000X-0.450000X0*%
%ADD11O,0.800000X1.300000*%
%ADD12RoundRect,0.200000X-0.200000X-0.450000X0.200000X-0.450000X0.200000X0.450000X-0.200000X0.450000X0*%
%ADD13O,1.800000X1.100000*%
%ADD14O,2.200000X1.100000*%
%ADD15C,3.200000*%
%ADD16C,1.600000*%
%ADD17R,1.700000X1.700000*%
%ADD18O,1.700000X1.700000*%
%ADD19RoundRect,0.135000X-0.135000X-0.185000X0.135000X-0.185000X0.135000X0.185000X-0.135000X0.185000X0*%
%ADD20RoundRect,0.200000X-0.600000X0.200000X-0.600000X-0.200000X0.600000X-0.200000X0.600000X0.200000X0*%
%ADD21RoundRect,0.250001X-1.249999X0.799999X-1.249999X-0.799999X1.249999X-0.799999X1.249999X0.799999X0*%
%ADD22RoundRect,0.200000X0.600000X-0.200000X0.600000X0.200000X-0.600000X0.200000X-0.600000X-0.200000X0*%
%ADD23RoundRect,0.250001X1.249999X-0.799999X1.249999X0.799999X-1.249999X0.799999X-1.249999X-0.799999X0*%
%ADD24RoundRect,0.135000X-0.185000X0.135000X-0.185000X-0.135000X0.185000X-0.135000X0.185000X0.135000X0*%
G04 APERTURE END LIST*
D10*
X182800000Y-86800000D03*
D11*
X181550000Y-86800000D03*
X180300000Y-86800000D03*
X179050000Y-86800000D03*
D12*
X196325000Y-121325000D03*
D11*
X197575000Y-121325000D03*
X198825000Y-121325000D03*
X200075000Y-121325000D03*
D10*
X188550000Y-86800000D03*
D11*
X187300000Y-86800000D03*
D10*
X93200000Y-86800000D03*
D11*
X91950000Y-86800000D03*
X90700000Y-86800000D03*
X89450000Y-86800000D03*
D10*
X153225000Y-86800000D03*
D11*
X151975000Y-86800000D03*
X150725000Y-86800000D03*
D12*
X87904000Y-121325000D03*
D11*
X89154000Y-121325000D03*
X90404000Y-121325000D03*
D12*
X204700000Y-121325000D03*
D11*
X205950000Y-121325000D03*
X207200000Y-121325000D03*
X208450000Y-121325000D03*
D13*
X218900000Y-122375000D03*
D14*
X221700000Y-124525000D03*
D13*
X224500000Y-122375000D03*
D15*
X81801200Y-86669800D03*
X209015400Y-85149000D03*
X234415400Y-85149000D03*
D16*
X207745400Y-115629000D03*
X210285400Y-115629000D03*
X207745400Y-113089000D03*
X210285400Y-113089000D03*
X207745400Y-110549000D03*
X210285400Y-110549000D03*
X207745400Y-108009000D03*
X210285400Y-108009000D03*
X207745400Y-105469000D03*
X210285400Y-105469000D03*
X207745400Y-102929000D03*
X210285400Y-102929000D03*
X207745400Y-100389000D03*
X210285400Y-100389000D03*
X207745400Y-97849000D03*
X210285400Y-97849000D03*
X207745400Y-95309000D03*
X210285400Y-95309000D03*
X207745400Y-92769000D03*
X210285400Y-92769000D03*
X207745400Y-90229000D03*
X210285400Y-90229000D03*
X233145400Y-115629000D03*
X235685400Y-115629000D03*
X233145400Y-113089000D03*
X235685400Y-113089000D03*
X233145400Y-110549000D03*
X235685400Y-110549000D03*
X233145400Y-108009000D03*
X235685400Y-108009000D03*
X233145400Y-105469000D03*
X235685400Y-105469000D03*
X233145400Y-102929000D03*
X235685400Y-102929000D03*
X233145400Y-100389000D03*
X235685400Y-100389000D03*
X233145400Y-97849000D03*
X235685400Y-97849000D03*
X233145400Y-95309000D03*
X235685400Y-95309000D03*
X233145400Y-92769000D03*
X235685400Y-92769000D03*
X233145400Y-90229000D03*
X235685400Y-90229000D03*
D10*
X124675000Y-86775000D03*
D11*
X123425000Y-86775000D03*
X122175000Y-86775000D03*
X120925000Y-86775000D03*
D17*
X184560000Y-124500000D03*
D18*
X187100000Y-124500000D03*
X189640000Y-124500000D03*
X192180000Y-124500000D03*
D15*
X81801200Y-121669800D03*
X241801200Y-121669800D03*
D13*
X163875000Y-122425000D03*
D14*
X166675000Y-124575000D03*
D13*
X169475000Y-122425000D03*
D15*
X241801200Y-86669800D03*
D10*
X174525000Y-86800000D03*
D11*
X173275000Y-86800000D03*
X172025000Y-86800000D03*
D10*
X115900000Y-86775000D03*
D11*
X114650000Y-86775000D03*
X113400000Y-86775000D03*
X112150000Y-86775000D03*
D10*
X102375000Y-86800000D03*
D11*
X101125000Y-86800000D03*
X99875000Y-86800000D03*
X98625000Y-86800000D03*
D19*
X142040000Y-119900000D03*
X143060000Y-119900000D03*
D20*
X196050000Y-106475000D03*
X196050000Y-107725000D03*
X196050000Y-108975000D03*
X196050000Y-110225000D03*
X196050000Y-111475000D03*
X196050000Y-112725000D03*
X196050000Y-113975000D03*
X196050000Y-115225000D03*
D21*
X198950000Y-103925000D03*
X198950000Y-117775000D03*
D22*
X173100000Y-115575000D03*
X173100000Y-114325000D03*
X173100000Y-113075000D03*
X173100000Y-111825000D03*
X173100000Y-110575000D03*
X173100000Y-109325000D03*
X173100000Y-108075000D03*
X173100000Y-106825000D03*
D23*
X170200000Y-118125000D03*
X170200000Y-104275000D03*
D20*
X196050000Y-92050000D03*
X196050000Y-93300000D03*
X196050000Y-94550000D03*
X196050000Y-95800000D03*
X196050000Y-97050000D03*
D21*
X198950000Y-89500000D03*
X198950000Y-99600000D03*
D19*
X143440000Y-118900000D03*
X144460000Y-118900000D03*
X145190000Y-120150000D03*
X146210000Y-120150000D03*
D22*
X173100000Y-97425000D03*
X173100000Y-96175000D03*
X173100000Y-94925000D03*
X173100000Y-93675000D03*
X173100000Y-92425000D03*
D23*
X170200000Y-99975000D03*
X170200000Y-89875000D03*
D24*
X211900000Y-110170000D03*
X211900000Y-111190000D03*
D19*
X146390000Y-119100000D03*
X147410000Y-119100000D03*
M02*
