M48
; DRILL file {KiCad 7.0.8} date Sun Jan 14 11:38:23 2024
; FORMAT={-:-/ absolute / metric / decimal}
; #@! TF.CreationDate,2024-01-14T11:38:23+01:00
; #@! TF.GenerationSoftware,Kicad,Pcbnew,7.0.8
; #@! TF.FileFunction,Plated,1,4,PTH
FMAT,2
METRIC
; #@! TA.AperFunction,Plated,PTH,ComponentDrill
T1C0.200
; #@! TA.AperFunction,Plated,PTH,ViaDrill
T2C0.300
; #@! TA.AperFunction,Plated,PTH,ComponentDrill
T3C0.350
; #@! TA.AperFunction,Plated,PTH,ComponentDrill
T4C0.500
; #@! TA.AperFunction,Plated,PTH,ComponentDrill
T5C1.000
%
G90
G05
T1
X195.605Y-84.677
X195.605Y-85.927
X195.605Y-87.177
X196.655Y-84.677
X196.655Y-85.927
X196.655Y-87.177
X197.705Y-84.677
X197.705Y-85.927
X197.705Y-87.177
T2
X86.1Y-102.9
X86.825Y-104.975
X89.075Y-111.1
X89.075Y-114.4
X91.5Y-104.625
X93.525Y-104.975
X95.45Y-92.725
X96.6Y-92.725
X98.725Y-113.4
X99.95Y-105.35
X100.55Y-109.0
X100.725Y-92.725
X100.85Y-98.15
X101.95Y-92.725
X102.0Y-119.225
X102.175Y-100.55
X102.375Y-98.275
X102.782Y-117.857
X105.25Y-106.15
X105.4Y-119.25
X106.0Y-104.1
X107.4Y-103.75
X107.9Y-100.85
X113.375Y-91.675
X114.6Y-113.7
X114.7Y-112.2
X114.925Y-91.675
X117.0Y-108.8
X118.3Y-91.6
X118.6Y-93.25
X119.35Y-108.8
X119.375Y-92.625
X119.375Y-110.0
X120.0Y-110.175
X120.1Y-112.4
X120.7Y-103.75
X120.725Y-99.225
X120.9Y-85.1
X121.55Y-110.0
X122.0Y-99.225
X122.0Y-103.725
X122.3Y-108.65
X122.75Y-100.8
X122.8Y-102.1
X122.975Y-120.725
X123.55Y-105.65
X123.9Y-95.05
X124.25Y-103.9
X124.25Y-120.725
X124.3Y-90.55
X124.3Y-91.525
X124.65Y-107.685
X125.25Y-96.05
X125.4Y-90.4
X125.5Y-85.2
X125.525Y-120.725
X127.05Y-112.25
X127.3Y-104.45
X127.3Y-107.7
X128.475Y-89.4
X129.05Y-94.05
X130.55Y-100.95
X132.0Y-100.2
X132.3Y-91.95
X132.45Y-91.0
X133.2Y-102.5
X134.3Y-89.15
X134.9Y-86.8
X135.0Y-110.35
X135.5Y-98.3
X135.5Y-101.05
X135.55Y-111.7
X135.95Y-92.85
X136.7Y-111.0
X136.7Y-112.35
X137.35Y-114.25
X137.45Y-96.05
X137.6Y-85.0
X137.85Y-99.65
X138.05Y-118.15
X138.4Y-114.1
X138.7Y-118.9
X139.3Y-118.15
X139.4Y-120.55
X139.4Y-121.75
X139.5Y-108.9
X140.0Y-110.45
X140.2Y-117.5
X140.25Y-86.8
X140.25Y-120.75
X140.5Y-105.0
X140.75Y-107.3
X141.15Y-95.6
X141.2Y-108.3
X141.25Y-116.85
X141.425Y-120.675
X141.95Y-93.75
X143.55Y-92.3
X143.55Y-111.75
X143.55Y-115.3
X143.95Y-119.9
X144.45Y-121.6
X144.8Y-107.7
X145.2Y-122.35
X145.45Y-108.2
X145.55Y-102.1
X145.65Y-118.95
X146.2Y-120.9
X146.55Y-105.55
X146.603Y-123.15
X146.75Y-122.35
X147.05Y-111.75
X147.05Y-115.3
X147.35Y-108.25
X147.45Y-103.85
X147.7Y-105.55
X148.7Y-109.4
X149.0Y-104.65
X149.05Y-108.05
X149.35Y-100.7
X149.45Y-116.8
X149.45Y-119.05
X149.5Y-109.95
X150.0Y-103.15
X150.2Y-107.1
X150.4Y-117.6
X150.75Y-114.05
X150.8Y-92.4
X151.1Y-104.65
X151.45Y-125.5
X151.75Y-111.25
X151.85Y-92.35
X151.9Y-107.1
X151.9Y-109.05
X152.25Y-105.75
X152.55Y-114.75
X152.85Y-92.3
X153.15Y-124.2
X153.35Y-105.1
X153.35Y-106.5
X153.35Y-111.85
X153.831Y-114.769
X154.7Y-125.7
X155.1Y-114.75
X155.1Y-122.35
X155.25Y-103.95
X155.25Y-105.7
X155.35Y-123.75
X156.35Y-114.75
X156.35Y-123.75
X156.5Y-104.8
X156.55Y-100.95
X156.6Y-108.6
X156.9Y-98.35
X157.05Y-123.05
X157.65Y-110.3
X159.05Y-111.5
X159.45Y-84.75
X159.5Y-95.4
X160.2Y-105.95
X161.35Y-87.7
X163.2Y-84.8
X165.65Y-95.05
X166.55Y-93.65
X167.95Y-123.85
X168.4Y-92.75
X171.8Y-114.3
X171.8Y-115.55
X173.5Y-99.5
X174.25Y-94.9
X174.25Y-97.4
X174.45Y-114.3
X174.45Y-115.55
X174.6Y-123.8
X175.55Y-123.85
X175.85Y-98.15
X175.85Y-100.9
X175.85Y-125.0
X176.35Y-92.4
X176.35Y-93.65
X176.35Y-94.9
X176.4Y-96.15
X179.05Y-93.7
X179.1Y-92.5
X180.45Y-113.0
X180.45Y-113.95
X180.479Y-125.0
X180.5Y-115.0
X180.6Y-117.55
X180.75Y-90.55
X180.95Y-97.85
X181.4Y-96.1
X181.6Y-115.65
X181.7Y-93.7
X182.05Y-109.4
X182.05Y-113.5
X182.45Y-97.25
X182.8Y-110.3
X183.2Y-111.1
X183.75Y-108.8
X184.5Y-121.35
X184.6Y-109.15
X184.6Y-117.85
X184.65Y-108.2
X185.0Y-100.5
X185.25Y-120.75
X185.3Y-117.45
X185.5Y-105.95
X185.65Y-99.8
X186.5Y-120.75
X187.1Y-120.15
X188.05Y-119.4
X188.2Y-120.75
X188.25Y-94.5
X188.35Y-96.95
X188.4Y-92.1
X189.35Y-98.25
X189.7Y-106.65
X190.45Y-107.85
X190.7Y-93.3
X190.7Y-94.5
X190.75Y-120.7
X190.8Y-119.75
X190.9Y-98.2
X190.95Y-83.1
X191.1Y-100.15
X191.6Y-86.05
X191.9Y-121.25
X192.325Y-117.975
X192.5Y-120.0
X192.55Y-119.1
X193.25Y-83.25
X193.3Y-95.8
X193.3Y-97.05
X193.35Y-93.3
X193.35Y-94.5
X193.55Y-118.15
X193.6Y-117.35
X193.85Y-86.8
X193.85Y-105.95
X193.95Y-84.943
X194.0Y-112.75
X194.0Y-113.65
X194.7Y-87.65
X194.75Y-92.05
X194.75Y-94.55
X194.75Y-107.75
X196.05Y-105.6
X196.1Y-100.2
X196.95Y-118.6
X197.3Y-92.75
X197.35Y-106.45
X197.35Y-107.7
X197.4Y-112.15
X197.4Y-113.15
X198.6Y-87.6
X198.7Y-108.25
X198.9Y-92.75
X198.95Y-89.5
X199.35Y-84.1
X199.6Y-108.5
X200.6Y-83.25
X201.0Y-115.7
X201.3Y-87.95
X201.3Y-108.5
X202.15Y-117.85
X202.4Y-87.0
X202.85Y-113.9
X203.4Y-113.15
X203.8Y-91.05
X203.85Y-112.4
X204.15Y-108.05
X204.7Y-85.85
X204.7Y-86.6
X204.7Y-87.35
X204.7Y-88.1
X204.7Y-88.85
X205.2Y-101.25
X205.35Y-112.4
X205.6Y-108.8
X206.15Y-113.15
X209.55Y-122.45
X210.414Y-118.212
X212.3Y-120.548
X215.163Y-117.551
X215.65Y-123.25
X215.798Y-116.408
X215.824Y-114.833
X216.56Y-118.212
X216.56Y-120.752
X217.526Y-120.752
X221.386Y-117.17
X223.0Y-121.4
X223.977Y-117.602
X224.993Y-120.091
X227.305Y-114.833
X227.33Y-116.51
X231.191Y-114.833
X231.216Y-116.51
T3
X187.169Y-112.736
X187.169Y-114.011
X187.169Y-115.286
X188.444Y-112.736
X188.444Y-114.011
X188.444Y-115.286
X189.719Y-112.736
X189.719Y-114.011
X189.719Y-115.286
T4
X87.904Y-121.325
X89.154Y-121.325
X89.45Y-86.8
X90.404Y-121.325
X90.7Y-86.8
X91.95Y-86.8
X93.2Y-86.8
X98.625Y-86.8
X99.875Y-86.8
X101.125Y-86.8
X102.375Y-86.8
X112.15Y-86.775
X113.4Y-86.775
X114.65Y-86.775
X115.9Y-86.775
X120.925Y-86.775
X122.175Y-86.775
X123.425Y-86.775
X124.675Y-86.775
X150.725Y-86.8
X151.975Y-86.8
X153.225Y-86.8
X172.025Y-86.8
X173.275Y-86.8
X174.525Y-86.8
X179.05Y-86.8
X180.3Y-86.8
X181.55Y-86.8
X182.8Y-86.8
X187.3Y-86.8
X188.55Y-86.8
X196.325Y-121.325
X197.575Y-121.325
X198.825Y-121.325
X200.075Y-121.325
X204.7Y-121.325
X205.95Y-121.325
X207.2Y-121.325
X208.45Y-121.325
T5
X184.56Y-124.5
X187.1Y-124.5
X189.64Y-124.5
X192.18Y-124.5
X207.745Y-90.229
X207.745Y-92.769
X207.745Y-95.309
X207.745Y-97.849
X207.745Y-100.389
X207.745Y-102.929
X207.745Y-105.469
X207.745Y-108.009
X207.745Y-110.549
X207.745Y-113.089
X207.745Y-115.629
X210.285Y-90.229
X210.285Y-92.769
X210.285Y-95.309
X210.285Y-97.849
X210.285Y-100.389
X210.285Y-102.929
X210.285Y-105.469
X210.285Y-108.009
X210.285Y-110.549
X210.285Y-113.089
X210.285Y-115.629
X233.145Y-90.229
X233.145Y-92.769
X233.145Y-95.309
X233.145Y-97.849
X233.145Y-100.389
X233.145Y-102.929
X233.145Y-105.469
X233.145Y-108.009
X233.145Y-110.549
X233.145Y-113.089
X233.145Y-115.629
X235.685Y-90.229
X235.685Y-92.769
X235.685Y-95.309
X235.685Y-97.849
X235.685Y-100.389
X235.685Y-102.929
X235.685Y-105.469
X235.685Y-108.009
X235.685Y-110.549
X235.685Y-113.089
X235.685Y-115.629
T4
X163.525Y-122.425G85X164.225Y-122.425
G05
X166.125Y-124.575G85X167.225Y-124.575
G05
X169.125Y-122.425G85X169.825Y-122.425
G05
X218.55Y-122.375G85X219.25Y-122.375
G05
X221.15Y-124.525G85X222.25Y-124.525
G05
X224.15Y-122.375G85X224.85Y-122.375
G05
T0
M30
